<svg xmlns="http://www.w3.org/2000/svg" xmlns:xlink="http://www.w3.org/1999/xlink" width="1471.823" height="781.024" viewBox="0 0 1103.867 585.768" version="1.2"><defs><clipPath id="k"><path d="M23 0h180v140.535H23zm0 0"/></clipPath><clipPath id="d"><path d="M0 0h280v88H0z"/></clipPath><clipPath id="q"><path d="M110.602 493.563h278.746v86.82h-267.32zm0 0"/></clipPath><clipPath id="h"><path d="M1 0h268v72H1zm0 0"/></clipPath><clipPath id="i"><path d="M.602.563h278.746v86.82H12.028zm0 0"/></clipPath><clipPath id="g"><path d="M0 0h280v88H0z"/></clipPath><clipPath id="j"><path d="M0 0h204v141H0z"/></clipPath><clipPath id="t"><path d="M110.602 494.363h278.746v-86.82h-267.32zm0 0"/></clipPath><clipPath id="e"><path d="M1 16h268v72H1zm0 0"/></clipPath><clipPath id="f"><path d="M.602 87.363h278.746V.543H12.028zm0 0"/></clipPath><clipPath id="p"><path d="M110 493h280v88H110zm0 0"/></clipPath><clipPath id="l"><path d="m28.93.922 174.328 90.46-35.348 112.95L.723 117.578zm0 0"/></clipPath><clipPath id="D"><path d="M707 337h211v201H707zm0 0"/></clipPath><clipPath id="E"><path d="m707.602 446.969 174.332 90.457 35.351-112.95-167.187-86.753zm0 0"/></clipPath><clipPath id="b"><path d="M0 50h175v151H0zm0 0"/></clipPath><clipPath id="c"><path d="m.602 109.969 174.332 90.457 35.351-112.95L43.098.724zm0 0"/></clipPath><clipPath id="a"><path d="M0 0h211v201H0z"/></clipPath><clipPath id="s"><path d="M110 407h280v88H110zm0 0"/></clipPath><clipPath id="G"><path d="M679 445h204v140.535H679zm0 0"/></clipPath><clipPath id="H"><path d="m707.93 445.922 174.328 90.46-35.348 112.95-167.187-86.754zm0 0"/></clipPath><symbol overflow="visible" id="o"><path style="stroke:none" d="m5.36-1.64.265 1.624A7.16 7.16 0 0 1 4.25.141c-.668 0-1.184-.106-1.547-.313A1.792 1.792 0 0 1 1.922-1c-.149-.344-.219-1.063-.219-2.156V-9.36H.36v-1.422h1.344v-2.672l1.828-1.094v3.766H5.36v1.422H3.531v6.296c0 .524.031.86.094 1.016a.769.769 0 0 0 .313.36c.144.085.351.125.624.125.196 0 .461-.024.797-.079zm0 0"/></symbol><symbol overflow="visible" id="y"><path style="stroke:none" d="m.875-3.938 1.828-.234c.207 1.031.563 1.777 1.063 2.234.507.461 1.125.688 1.843.688.864 0 1.594-.297 2.188-.89.594-.594.89-1.333.89-2.22 0-.831-.277-1.519-.828-2.062-.554-.55-1.25-.828-2.093-.828-.344 0-.774.07-1.282.203l.204-1.61c.113.024.207.032.28.032.782 0 1.485-.203 2.11-.61.625-.406.938-1.035.938-1.89 0-.664-.23-1.219-.688-1.656-.45-.438-1.031-.656-1.75-.656-.71 0-1.305.226-1.781.671-.469.438-.774 1.106-.906 2l-1.829-.328c.22-1.219.723-2.164 1.516-2.844.79-.675 1.774-1.015 2.953-1.015.813 0 1.555.18 2.235.531.687.344 1.21.82 1.578 1.422a3.68 3.68 0 0 1 .547 1.922c0 .648-.172 1.234-.516 1.765-.344.524-.855.938-1.531 1.25.875.2 1.554.622 2.047 1.266.488.637.734 1.438.734 2.406 0 1.293-.477 2.391-1.422 3.297-.95.907-2.148 1.36-3.594 1.36-1.312 0-2.402-.391-3.265-1.172C1.488-1.687 1-2.696.875-3.937zm0 0"/></symbol><symbol overflow="visible" id="m"><path style="stroke:none" d="m18.797-8.031 3.031.765c-.637 2.493-1.777 4.391-3.422 5.704C16.758-.258 14.742.39 12.36.39c-2.468 0-4.48-.5-6.03-1.5-1.544-1.008-2.72-2.47-3.532-4.375-.805-1.907-1.203-3.954-1.203-6.141 0-2.383.453-4.46 1.36-6.234.913-1.77 2.21-3.114 3.89-4.032 1.687-.925 3.539-1.39 5.562-1.39 2.29 0 4.211.586 5.766 1.75 1.562 1.168 2.648 2.808 3.265 4.922l-2.984.687c-.531-1.656-1.305-2.863-2.312-3.625-1-.758-2.266-1.14-3.797-1.14-1.762 0-3.235.421-4.422 1.265-1.18.844-2.008 1.977-2.484 3.39a13.594 13.594 0 0 0-.72 4.391c0 1.95.282 3.653.845 5.11C6.133-5.082 7.02-4 8.219-3.281a7.414 7.414 0 0 0 3.89 1.078c1.696 0 3.13-.488 4.297-1.469 1.176-.976 1.973-2.43 2.39-4.36zm0 0"/></symbol><symbol overflow="visible" id="z"><path style="stroke:none" d="M2.531 0v-22.89h16.547v2.703H5.563v7h12.656v2.687H5.562v7.797H19.61V0zm0 0"/></symbol><symbol overflow="visible" id="B"><path style="stroke:none" d="m.234 0 6.063-8.625-5.61-7.953h3.516l2.547 3.875c.477.742.863 1.36 1.156 1.86.457-.688.88-1.298 1.266-1.829l2.797-3.906h3.36L9.593-8.781 15.766 0h-3.454L8.906-5.156 8-6.546 3.64 0zm0 0"/></symbol><symbol overflow="visible" id="C"><path style="stroke:none" d="m13.469-5.344 2.89.36c-.449 1.699-1.293 3.015-2.53 3.953-1.243.937-2.825 1.406-4.75 1.406-2.43 0-4.356-.742-5.782-2.234-1.418-1.5-2.125-3.598-2.125-6.297 0-2.79.719-4.953 2.156-6.485 1.438-1.539 3.3-2.312 5.594-2.312 2.219 0 4.023.758 5.422 2.265 1.406 1.5 2.11 3.622 2.11 6.36 0 .168-.009.418-.017.75H4.079c.102 1.824.617 3.219 1.547 4.187.926.97 2.082 1.454 3.469 1.454 1.031 0 1.91-.27 2.64-.813.727-.54 1.305-1.406 1.735-2.594zM4.234-9.89H13.5c-.125-1.394-.48-2.441-1.063-3.14-.898-1.082-2.058-1.625-3.484-1.625-1.293 0-2.383.433-3.265 1.297-.875.867-1.36 2.023-1.454 3.468zm0 0"/></symbol><symbol overflow="visible" id="n"><path style="stroke:none" d="M.86-7.344c0-1.758.18-3.176.546-4.25.364-1.07.899-1.898 1.61-2.484.718-.582 1.617-.875 2.703-.875.8 0 1.5.164 2.093.484a4.15 4.15 0 0 1 1.5 1.39c.395.606.704 1.345.922 2.22.227.867.344 2.039.344 3.515 0 1.75-.183 3.164-.547 4.235-.355 1.074-.89 1.902-1.61 2.484-.71.586-1.608.875-2.702.875-1.438 0-2.57-.516-3.39-1.547C1.347-2.523.858-4.539.858-7.344zm1.874 0c0 2.45.286 4.078.86 4.89.57.806 1.281 1.204 2.125 1.204.832 0 1.535-.406 2.11-1.219.57-.812.859-2.437.859-4.875 0-2.445-.29-4.07-.86-4.875-.574-.812-1.281-1.219-2.125-1.219-.844 0-1.516.356-2.016 1.063-.636.918-.953 2.594-.953 5.031zm0 0"/></symbol><symbol overflow="visible" id="A"><path style="stroke:none" d="M12.25-2.406C10.633-.551 8.945.375 7.187.375c-1.574 0-2.886-.578-3.937-1.734-1.043-1.164-1.563-2.852-1.563-5.063 0-2.02.41-3.863 1.235-5.531.832-1.676 1.867-2.926 3.11-3.75 1.25-.832 2.5-1.25 3.75-1.25 2.062 0 3.616.992 4.671 2.969l1.86-8.907h2.812L14.359 0H11.75zM4.5-6.953c0 1.156.113 2.07.344 2.734a3.579 3.579 0 0 0 1.172 1.672c.55.438 1.21.656 1.984.656 1.281 0 2.441-.664 3.484-2 1.395-1.77 2.094-3.957 2.094-6.562 0-1.313-.344-2.336-1.031-3.078-.688-.739-1.555-1.11-2.594-1.11-.68 0-1.297.153-1.86.454-.554.304-1.105.82-1.655 1.546-.543.72-1 1.637-1.375 2.75C4.688-8.773 4.5-7.797 4.5-6.953zm0 0"/></symbol><symbol overflow="visible" id="v"><path style="stroke:none" d="M.14 0 9-11.938 1.187-22.89h3.61l4.156 5.875c.863 1.211 1.477 2.141 1.844 2.797a28.06 28.06 0 0 1 1.812-2.594l4.594-6.078H20.5l-8.031 10.782L21.125 0h-3.75l-5.75-8.172a36.355 36.355 0 0 1-1-1.531 38.886 38.886 0 0 1-1.094 1.719L3.781 0zm0 0"/></symbol><symbol overflow="visible" id="w"><path style="stroke:none" d="M7.75 0H5.922v-11.64c-.438.417-1.016.835-1.734 1.25-.711.417-1.352.734-1.922.953v-1.766c1.02-.488 1.91-1.07 2.671-1.75.77-.688 1.313-1.352 1.625-2H7.75zm0 0"/></symbol><symbol overflow="visible" id="x"><path style="stroke:none" d="M10.469-1.75V0H.625a3.25 3.25 0 0 1 .219-1.266c.25-.675.648-1.336 1.203-1.984.55-.645 1.348-1.395 2.39-2.25C6.051-6.832 7.146-7.883 7.72-8.656c.57-.77.86-1.504.86-2.203 0-.72-.263-1.329-.782-1.829-.524-.5-1.2-.75-2.031-.75-.875 0-1.579.266-2.11.797-.531.532-.797 1.262-.797 2.188l-1.89-.188c.133-1.406.617-2.472 1.453-3.203.844-.738 1.973-1.11 3.39-1.11 1.426 0 2.555.4 3.391 1.188.832.793 1.25 1.778 1.25 2.954 0 .593-.125 1.183-.375 1.765-.242.574-.648 1.18-1.219 1.813-.562.636-1.5 1.507-2.812 2.609-1.094.93-1.797 1.559-2.11 1.89-.312.325-.57.653-.765.985zm0 0"/></symbol><g clip-path="url(#b)" id="F"><g clip-path="url(#c)"><path style="fill:none;stroke-width:5.350948;stroke-linecap:round;stroke-linejoin:miter;stroke:#000;stroke-opacity:1;stroke-dasharray:21.403793,21.403793;stroke-miterlimit:4" d="M1836.613 68.732c0 34.486-64.573 62.447-144.222 62.444-79.653.003-144.221-27.955-144.223-62.444 0-34.487 64.568-62.442 144.214-62.443 79.663 0 144.222 27.955 144.23 62.443zm0 0" transform="matrix(.48054 .24936 -.31285 .9996 -706.848 -337)"/></g></g><g clip-path="url(#e)" id="u"><g clip-path="url(#f)"><path style="fill:none;stroke-width:4;stroke-linecap:round;stroke-linejoin:miter;stroke:#000;stroke-opacity:1;stroke-dasharray:16,16;stroke-miterlimit:4" d="M356.208 494.559c0 26.51-49.633 48-110.86 48-61.224 0-110.857-21.49-110.857-48 0-26.507 49.633-48 110.857-48 61.227 0 110.86 21.493 110.86 48zm0 0" transform="translate(-109.848 -407) scale(.9996)"/></g></g><g clip-path="url(#h)" id="r"><g clip-path="url(#i)"><path style="fill:none;stroke-width:4;stroke-linecap:round;stroke-linejoin:miter;stroke:#000;stroke-opacity:1;stroke-miterlimit:4" d="M356.208-493.758c0 26.51-49.633 48-110.86 48-61.224 0-110.857-21.49-110.857-48 0-26.506 49.633-48 110.857-48 61.227 0 110.86 21.494 110.86 48zm0 0" transform="matrix(.9996 0 0 -.9996 -109.848 -493)"/></g></g><g clip-path="url(#k)" id="I"><g clip-path="url(#l)"><path style="fill:none;stroke-width:5.350948;stroke-linecap:round;stroke-linejoin:miter;stroke:#000;stroke-opacity:1;stroke-miterlimit:4" d="M1836.609-67.69c-.002 34.49-64.563 62.45-144.224 62.445-79.648.002-144.214-27.956-144.221-62.444.009-34.488 64.575-62.442 144.223-62.445 79.653.003 144.213 27.96 144.222 62.444zm0 0" transform="matrix(.48054 .24936 .31285 -.9996 -678.848 -445)"/></g></g></defs><path style="fill:none;stroke-width:4;stroke-linecap:round;stroke-linejoin:miter;stroke:#000;stroke-opacity:1;stroke-miterlimit:4" d="M456.161 27.96h267.43" transform="translate(.152) scale(.9996)"/><path style="fill-rule:evenodd;fill:#000;fill-opacity:1;stroke-width:2;stroke-linecap:butt;stroke-linejoin:miter;stroke:#000;stroke-opacity:1;stroke-miterlimit:4" d="m-707.589-27.96 8-8-28 8 28 7.999zm0 0" transform="rotate(180 .076 0) scale(.9996)"/><use xlink:href="#m" x="402.81" y="33.181" style="fill:#000;fill-opacity:1"/><use xlink:href="#n" x="425.926" y="39.578" style="fill:#000;fill-opacity:1"/><use xlink:href="#m" x="744.91" y="38.117" style="fill:#000;fill-opacity:1"/><use xlink:href="#o" x="768.025" y="44.514" style="fill:#000;fill-opacity:1"/><path style="fill:none;stroke-width:4;stroke-linecap:round;stroke-linejoin:miter;stroke:#000;stroke-opacity:1;stroke-miterlimit:4" d="M245.906 366.493h186.125" transform="translate(.152) scale(.9996)"/><path style="fill-rule:evenodd;fill:#000;fill-opacity:1;stroke-width:2;stroke-linecap:butt;stroke-linejoin:miter;stroke:#000;stroke-opacity:1;stroke-miterlimit:4" d="m-416.032-366.493 8.003-7.999-28.003 8 28.003 7.999zm0 0" transform="rotate(180 .076 0) scale(.9996)"/><path style="fill:none;stroke-width:4;stroke-linecap:round;stroke-linejoin:miter;stroke:#000;stroke-opacity:1;stroke-miterlimit:4" d="M356.208 239.231c0 26.507-49.633 48-110.86 48-61.224 0-110.857-21.493-110.857-48 0-26.51 49.633-48 110.857-48 61.227 0 110.86 21.49 110.86 48zm0 0" transform="translate(.152) scale(.9996)"/><g clip-path="url(#p)"><g clip-path="url(#q)"><use xlink:href="#r" transform="translate(110 493)"/></g></g><g clip-path="url(#s)"><g clip-path="url(#t)"><use xlink:href="#u" transform="translate(110 407)"/></g></g><path style="fill:none;stroke-width:4;stroke-linecap:round;stroke-linejoin:miter;stroke:#000;stroke-opacity:1;stroke-miterlimit:4" d="M134.62 238.544v253.748m221.428-253.029V493.01m-111.65-125.27h59.2" transform="translate(.152) scale(.9996)"/><path style="fill-rule:evenodd;fill:#000;fill-opacity:1;stroke-width:2;stroke-linecap:butt;stroke-linejoin:miter;stroke:#000;stroke-opacity:1;stroke-miterlimit:4" d="m-287.599-367.74 8-7.998-28 7.999 28 8.003zm0 0" transform="rotate(180 .076 0) scale(.9996)"/><path style="fill:none;stroke-width:4;stroke-linecap:round;stroke-linejoin:miter;stroke:#000;stroke-opacity:1;stroke-miterlimit:4" d="M244.218 367.72v-73.486" transform="translate(.152) scale(.9996)"/><path style="fill-rule:evenodd;fill:#000;fill-opacity:1;stroke-width:2;stroke-linecap:butt;stroke-linejoin:miter;stroke:#000;stroke-opacity:1;stroke-miterlimit:4" d="m310.232-244.218 8.003-8-28 8 28 7.999zm0 0" transform="matrix(0 .9996 -.9996 0 .152 0)"/><path style="fill:none;stroke-width:4;stroke-linecap:round;stroke-linejoin:miter;stroke:#000;stroke-opacity:1;stroke-miterlimit:4" d="m244.101 367.837-55.835 48.511" transform="translate(.152) scale(.9996)"/><path style="fill-rule:evenodd;fill:#000;fill-opacity:1;stroke-width:1.509731;stroke-linecap:butt;stroke-linejoin:miter;stroke:#000;stroke-opacity:1;stroke-miterlimit:4" d="m-86.777 330.454 6.038-6.04-21.137 6.04 21.14 6.042zm0 0" transform="matrix(.9996 -.86853 .86853 .9996 .152 0)"/><path style="fill:none;stroke-width:3.717794;stroke-linecap:round;stroke-linejoin:miter;stroke:#000;stroke-opacity:1;stroke-miterlimit:4" d="M245.348 366.434V135.409" transform="translate(.152) scale(.9996)"/><path style="fill-rule:evenodd;fill:#000;fill-opacity:1;stroke-width:1.858897;stroke-linecap:butt;stroke-linejoin:miter;stroke:#000;stroke-opacity:1;stroke-miterlimit:4" d="m150.282-245.348 7.433-7.436-26.022 7.436 26.022 7.433zm0 0" transform="matrix(0 .9996 -.9996 0 .152 0)"/><path style="fill:none;stroke-width:4;stroke-linecap:round;stroke-linejoin:miter;stroke:#000;stroke-opacity:1;stroke-miterlimit:4" d="M244.972 366.797 69.442 519.311" transform="translate(.152) scale(.9996)"/><path style="fill-rule:evenodd;fill:#000;fill-opacity:1;stroke-width:1.509731;stroke-linecap:butt;stroke-linejoin:miter;stroke:#000;stroke-opacity:1;stroke-miterlimit:4" d="m-205.462 330.295 6.04-6.038-21.14 6.037 21.138 6.036zm0 0" transform="matrix(.9996 -.86853 .86853 .9996 .152 0)"/><use xlink:href="#v" x="28.927" y="553.53" style="fill:#000;fill-opacity:1"/><use xlink:href="#w" x="50.293" y="559.928" style="fill:#000;fill-opacity:1"/><use xlink:href="#v" x="449.396" y="375.035" style="fill:#000;fill-opacity:1"/><use xlink:href="#x" x="470.763" y="381.433" style="fill:#000;fill-opacity:1"/><use xlink:href="#v" x="233.689" y="111.3" style="fill:#000;fill-opacity:1"/><use xlink:href="#y" x="255.056" y="117.697" style="fill:#000;fill-opacity:1"/><use xlink:href="#z" x="191.891" y="323.243" style="fill:#000;fill-opacity:1"/><use xlink:href="#y" x="213.258" y="329.641" style="fill:#000;fill-opacity:1"/><use xlink:href="#z" x="271.516" y="410.046" style="fill:#000;fill-opacity:1"/><use xlink:href="#x" x="292.882" y="416.444" style="fill:#000;fill-opacity:1"/><use xlink:href="#z" x="160.32" y="386.616" style="fill:#000;fill-opacity:1"/><use xlink:href="#w" x="181.687" y="393.013" style="fill:#000;fill-opacity:1"/><path style="fill:none;stroke-width:3.84;stroke-linecap:round;stroke-linejoin:miter;stroke:#000;stroke-opacity:1;stroke-miterlimit:4" d="m244.793 367.13 160-98.285" transform="translate(.152) scale(.9996)"/><path style="fill-rule:evenodd;fill:#000;fill-opacity:1;stroke-width:1.635986;stroke-linecap:butt;stroke-linejoin:miter;stroke:#000;stroke-opacity:1;stroke-miterlimit:4" d="m-160.901-375.722 6.543-6.543-22.908 6.54 22.908 6.546zm0 0" transform="rotate(148.438 .076 .021) scale(1.17314)"/><use xlink:href="#A" x="415.499" y="265.272" style="fill:#000;fill-opacity:1"/><use xlink:href="#v" x="433.284" y="265.272" style="fill:#000;fill-opacity:1"/><use xlink:href="#B" x="819.154" y="109.33" style="fill:#000;fill-opacity:1"/><use xlink:href="#y" x="835.147" y="115.727" style="fill:#000;fill-opacity:1"/><use xlink:href="#B" x="1035.114" y="372.274" style="fill:#000;fill-opacity:1"/><use xlink:href="#x" x="1051.108" y="378.671" style="fill:#000;fill-opacity:1"/><use xlink:href="#B" x="620.306" y="541.465" style="fill:#000;fill-opacity:1"/><use xlink:href="#w" x="636.3" y="547.862" style="fill:#000;fill-opacity:1"/><use xlink:href="#C" x="843.768" y="392.967" style="fill:#000;fill-opacity:1"/><use xlink:href="#x" x="861.574" y="399.365" style="fill:#000;fill-opacity:1"/><use xlink:href="#C" x="762.287" y="371.643" style="fill:#000;fill-opacity:1"/><use xlink:href="#w" x="780.092" y="378.04" style="fill:#000;fill-opacity:1"/><use xlink:href="#C" x="786.832" y="315.404" style="fill:#000;fill-opacity:1"/><use xlink:href="#y" x="804.637" y="321.802" style="fill:#000;fill-opacity:1"/><path style="fill:none;stroke-width:4;stroke-linecap:round;stroke-linejoin:miter;stroke:#000;stroke-opacity:1;stroke-miterlimit:4" d="m833.014 362.26 194.03-71.375" transform="translate(.152) scale(.9996)"/><path style="fill-rule:evenodd;fill:#000;fill-opacity:1;stroke-width:1.877012;stroke-linecap:butt;stroke-linejoin:miter;stroke:#000;stroke-opacity:1;stroke-miterlimit:4" d="m-795.341-589 7.506-7.509-26.28 7.507 26.282 7.508zm0 0" transform="rotate(159.802 .076 .014) scale(1.0651)"/><use xlink:href="#A" x="1037.035" y="293.307" style="fill:#000;fill-opacity:1"/><use xlink:href="#B" x="1054.82" y="293.307" style="fill:#000;fill-opacity:1"/><path style="fill:none;stroke-width:4.137901;stroke-linecap:round;stroke-linejoin:miter;stroke:#000;stroke-opacity:1;stroke-miterlimit:4" d="M1215.913-42.892c-.003 22.455-42.051 40.666-93.914 40.664-51.874-.002-93.923-18.208-93.92-40.663 0-22.458 42.049-40.669 93.912-40.668 51.874.003 93.923 18.208 93.922 40.667zm0 0" transform="matrix(.80358 .24936 -.52316 .9996 .152 0)"/><g clip-path="url(#D)"><g clip-path="url(#E)"><use xlink:href="#F" transform="translate(707 337)"/></g></g><g clip-path="url(#G)"><g clip-path="url(#H)"><use xlink:href="#I" transform="translate(679 445)"/></g></g><path style="fill:none;stroke-width:4;stroke-linecap:round;stroke-linejoin:miter;stroke:#000;stroke-opacity:1;stroke-miterlimit:4" d="M721.696 461.468s4.103-55.714 46.937-138.48c42.83-82.764 84.08-114.831 84.08-114.831m9.339 316.437s4.127-61.266 31.388-144.53c13.818-42.208 37.55-61.051 59.437-78.632 21.892-17.59 41.943-33.908 41.943-33.908m-161.537 95.198h186.129" transform="translate(.152) scale(.9996)"/><path style="fill-rule:evenodd;fill:#000;fill-opacity:1;stroke-width:2;stroke-linecap:butt;stroke-linejoin:miter;stroke:#000;stroke-opacity:1;stroke-miterlimit:4" d="m-1003.41-362.722 8-8.003-28 8.003 28 8zm0 0" transform="rotate(180 .076 0) scale(.9996)"/><path style="fill:none;stroke-width:3.717794;stroke-linecap:round;stroke-linejoin:miter;stroke:#000;stroke-opacity:1;stroke-miterlimit:4" d="M832.728 362.66V131.637" transform="translate(.152) scale(.9996)"/><path style="fill-rule:evenodd;fill:#000;fill-opacity:1;stroke-width:1.858897;stroke-linecap:butt;stroke-linejoin:miter;stroke:#000;stroke-opacity:1;stroke-miterlimit:4" d="m146.507-832.728 7.437-7.437-26.026 7.437 26.026 7.436zm0 0" transform="matrix(0 .9996 -.9996 0 .152 0)"/><path style="fill:none;stroke-width:4;stroke-linecap:round;stroke-linejoin:miter;stroke:#000;stroke-opacity:1;stroke-miterlimit:4" d="M832.353 363.023 656.82 515.536" transform="translate(.152) scale(.9996)"/><path style="fill-rule:evenodd;fill:#000;fill-opacity:1;stroke-width:1.509731;stroke-linecap:butt;stroke-linejoin:miter;stroke:#000;stroke-opacity:1;stroke-miterlimit:4" d="m131.105 618.957 6.04-6.038-21.137 6.039 21.137 6.04zm0 0" transform="matrix(.9996 -.86853 .86853 .9996 .152 0)"/><path style="fill:none;stroke-width:4;stroke-linecap:round;stroke-linejoin:miter;stroke:#000;stroke-opacity:1;stroke-miterlimit:4" d="M832.896 362.628h51.028" transform="translate(.152) scale(.9996)"/><path style="fill-rule:evenodd;fill:#000;fill-opacity:1;stroke-width:2;stroke-linecap:butt;stroke-linejoin:miter;stroke:#000;stroke-opacity:1;stroke-miterlimit:4" d="m-867.926-362.628 8-8-28 8 28 8zm0 0" transform="rotate(180 .076 0) scale(.9996)"/><path style="fill:none;stroke-width:4;stroke-linecap:round;stroke-linejoin:miter;stroke:#000;stroke-opacity:1;stroke-miterlimit:4" d="M832.74 362.612v-63.345" transform="translate(.152) scale(.9996)"/><path style="fill-rule:evenodd;fill:#000;fill-opacity:1;stroke-width:2;stroke-linecap:butt;stroke-linejoin:miter;stroke:#000;stroke-opacity:1;stroke-miterlimit:4" d="m315.265-832.74 8-8.003-28 8.003 28 8zm0 0" transform="matrix(0 .9996 -.9996 0 .152 0)"/><path style="fill:none;stroke-width:4;stroke-linecap:round;stroke-linejoin:miter;stroke:#000;stroke-opacity:1;stroke-miterlimit:4" d="m832.638 362.71-48.132 41.821" transform="translate(.152) scale(.9996)"/><path style="fill-rule:evenodd;fill:#000;fill-opacity:1;stroke-width:1.509731;stroke-linecap:butt;stroke-linejoin:miter;stroke:#000;stroke-opacity:1;stroke-miterlimit:4" d="m258.824 618.92 6.04-6.038-21.136 6.039 21.135 6.038zm0 0" transform="matrix(.9996 -.86853 .86853 .9996 .152 0)"/></svg>