<svg xmlns="http://www.w3.org/2000/svg" xmlns:xlink="http://www.w3.org/1999/xlink" width="312.102" height="178.205" viewBox="0 0 234.077 133.654" version="1.2"><defs><symbol overflow="visible" id="c"><path style="stroke:none" d="M2.188-4.016c.593 0 1.066.227 1.421.672.301.387.454.824.454 1.313 0 .355-.086.715-.25 1.078a1.868 1.868 0 0 1-.704.812 1.852 1.852 0 0 1-.968.266c-.594 0-1.063-.234-1.407-.703a2.197 2.197 0 0 1-.437-1.344c0-.351.086-.707.266-1.062.175-.352.41-.614.703-.782.289-.164.597-.25.921-.25zm-.141.266a.874.874 0 0 0-.453.14c-.149.094-.266.258-.36.485-.093.219-.14.508-.14.86 0 .562.11 1.054.328 1.468.226.406.523.61.89.61.282 0 .508-.11.688-.329.176-.226.266-.625.266-1.187 0-.688-.149-1.227-.438-1.625-.21-.281-.469-.422-.781-.422zm0 0"/></symbol><symbol overflow="visible" id="u"><path style="stroke:none" d="M1.266-6.063c.125 0 .226.043.312.125a.417.417 0 0 1 .125.297.427.427 0 0 1-.437.438.443.443 0 0 1-.313-.125.412.412 0 0 1-.125-.313.427.427 0 0 1 .438-.422zm.359 2.047V-.89c0 .25.016.418.047.5a.42.42 0 0 0 .156.188c.07.031.203.047.39.047V0H.314v-.156c.187 0 .312-.016.374-.047a.342.342 0 0 0 .157-.188c.039-.082.062-.25.062-.5v-1.5c0-.425-.011-.703-.031-.828a.342.342 0 0 0-.095-.171.25.25 0 0 0-.172-.062.94.94 0 0 0-.296.062L.25-3.547l1.188-.469zm0 0"/></symbol><symbol overflow="visible" id="d"><path style="stroke:none" d="M.063-3.906h1.625v.156c-.149.012-.247.04-.297.078-.043.043-.063.106-.063.188a.79.79 0 0 0 .078.312l.828 2.25.844-1.828-.219-.578c-.074-.164-.168-.281-.28-.344-.063-.039-.18-.066-.345-.078v-.156h1.86v.156c-.211.012-.356.047-.438.11-.054.054-.078.124-.078.218 0 .063.008.121.031.172L4.5-1l.813-2.172a.957.957 0 0 0 .093-.36c0-.05-.031-.097-.093-.14-.055-.039-.157-.066-.313-.078v-.156h1.234v.156c-.25.043-.433.21-.546.5L4.375.125h-.172l-.984-2.5-1.14 2.5h-.157L.672-3.172c-.086-.195-.168-.332-.25-.406a.832.832 0 0 0-.36-.172zm0 0"/></symbol><symbol overflow="visible" id="e"><path style="stroke:none" d="M.938-2.438c-.012.586.128 1.04.421 1.36.282.336.614.5 1 .5.25 0 .47-.067.657-.203.195-.145.359-.39.484-.735l.125.094a1.982 1.982 0 0 1-.516 1.063 1.395 1.395 0 0 1-1.078.484c-.469 0-.87-.18-1.203-.547-.336-.375-.5-.867-.5-1.484 0-.664.172-1.188.516-1.563.344-.375.77-.562 1.281-.562.438 0 .797.148 1.078.437.281.293.422.68.422 1.156zm0-.25h1.796c-.011-.25-.039-.425-.078-.53a.813.813 0 0 0-.328-.36.757.757 0 0 0-.437-.14.878.878 0 0 0-.641.28c-.18.18-.281.43-.313.75zm0 0"/></symbol><symbol overflow="visible" id="f"><path style="stroke:none" d="M1.61-6.063V-.89c0 .25.015.418.046.5.04.075.098.133.172.172.07.043.211.063.422.063V0H.328v-.156c.176 0 .297-.016.36-.047a.342.342 0 0 0 .156-.188c.039-.082.062-.25.062-.5v-3.546c0-.438-.011-.704-.031-.797-.023-.102-.055-.172-.094-.204A.25.25 0 0 0 .61-5.5a.925.925 0 0 0-.28.063l-.063-.157 1.156-.468zm0 0"/></symbol><symbol overflow="visible" id="g"><path style="stroke:none" d="m1.438-3.188.5-.5c.125-.101.257-.18.406-.234.156-.062.304-.094.453-.094.238 0 .445.075.625.22.176.136.297.339.36.608.288-.343.534-.566.734-.671a1.34 1.34 0 0 1 .625-.157.98.98 0 0 1 .546.157c.165.105.297.277.391.515.063.168.094.43.094.781V-.89c0 .25.016.422.047.516a.355.355 0 0 0 .156.156c.082.043.207.063.375.063V0H4.828v-.156h.078a.705.705 0 0 0 .39-.094c.071-.04.118-.113.141-.219.008-.05.016-.191.016-.422v-1.671c0-.32-.039-.547-.11-.672a.583.583 0 0 0-.53-.282c-.157 0-.313.043-.47.125-.148.075-.327.211-.546.407v2.093c0 .274.015.446.047.516a.34.34 0 0 0 .172.156c.082.043.222.063.421.063V0H2.47v-.156c.219 0 .363-.024.437-.078a.4.4 0 0 0 .172-.22 3.9 3.9 0 0 0 .016-.437v-1.671c0-.32-.047-.551-.14-.688a.6.6 0 0 0-.517-.266c-.156 0-.308.04-.453.11a1.659 1.659 0 0 0-.546.422v2.093c0 .262.015.434.046.516.04.074.094.133.157.172.07.031.21.047.421.047V0H.141v-.156c.175 0 .3-.016.375-.047a.342.342 0 0 0 .156-.188c.039-.082.062-.25.062-.5v-1.484c0-.426-.015-.703-.046-.828-.024-.094-.055-.156-.094-.188a.25.25 0 0 0-.172-.062.8.8 0 0 0-.281.062l-.063-.156 1.172-.469h.188zm0 0"/></symbol><symbol overflow="visible" id="h"><path style="stroke:none" d="M1.406-3.188c.457-.55.895-.828 1.313-.828a.94.94 0 0 1 .547.157c.156.105.28.28.375.53.062.169.093.43.093.782V-.89c0 .25.02.422.063.516a.362.362 0 0 0 .14.172c.07.031.204.047.391.047V0H2.391v-.156h.093c.176 0 .301-.024.375-.078a.434.434 0 0 0 .157-.25c.007-.04.015-.176.015-.407v-1.593c0-.352-.047-.61-.14-.766-.094-.164-.25-.25-.47-.25-.335 0-.671.188-1.015.563v2.046c0 .274.016.438.047.5.04.086.098.149.172.188.07.031.21.047.422.047V0H.109v-.156h.094c.195 0 .328-.047.39-.14.071-.102.11-.302.11-.595v-1.437c0-.469-.012-.754-.031-.86-.024-.101-.055-.171-.094-.203a.25.25 0 0 0-.172-.062.94.94 0 0 0-.297.062l-.062-.156 1.187-.469h.172zm0 0"/></symbol><symbol overflow="visible" id="i"><path style="stroke:none" d="M1.406-5.188v1.282h.907v.297h-.907v2.53c0 .263.035.434.11.516a.34.34 0 0 0 .28.125c.095 0 .18-.023.266-.078a.52.52 0 0 0 .204-.265h.171c-.093.281-.234.496-.421.64a.914.914 0 0 1-.563.203.765.765 0 0 1-.375-.109.665.665 0 0 1-.281-.312C.734-.492.703-.703.703-.984V-3.61H.078v-.141c.156-.063.317-.164.484-.313.165-.156.313-.332.438-.53.063-.114.156-.313.281-.595zm0 0"/></symbol><symbol overflow="visible" id="j"><path style="stroke:none" d="M4-5.922v2h-.156c-.055-.375-.149-.676-.281-.906A1.381 1.381 0 0 0 3-5.375a1.546 1.546 0 0 0-.75-.203c-.305 0-.555.094-.75.281-.188.18-.281.383-.281.61 0 .18.062.34.187.484.176.21.598.492 1.266.844.531.293.894.515 1.094.671.195.157.347.34.453.547.113.211.172.434.172.672 0 .438-.172.813-.516 1.125-.336.313-.773.469-1.313.469a3.58 3.58 0 0 1-.468-.031 3.952 3.952 0 0 1-.547-.157c-.281-.093-.461-.14-.531-.14a.207.207 0 0 0-.172.078C.8-.082.774 0 .766.125H.594v-1.969h.172c.07.407.171.715.296.922.125.211.313.383.563.516.258.136.547.203.86.203.35 0 .628-.094.828-.281.207-.188.312-.407.312-.657a.9.9 0 0 0-.125-.437 1.233 1.233 0 0 0-.36-.406c-.105-.082-.406-.258-.906-.532-.492-.28-.84-.504-1.046-.671a1.86 1.86 0 0 1-.485-.547 1.358 1.358 0 0 1-.156-.657c0-.414.156-.773.469-1.078.32-.3.726-.453 1.218-.453.313 0 .641.078.985.234.156.075.265.11.328.11.07 0 .129-.02.172-.063a.59.59 0 0 0 .125-.28zm0 0"/></symbol><symbol overflow="visible" id="k"><path style="stroke:none" d="M1.422-6.063v2.86c.312-.352.562-.578.75-.672a1.21 1.21 0 0 1 .547-.14c.226 0 .422.062.578.187.156.117.273.305.36.562.05.188.077.524.077 1V-.89c0 .25.02.422.063.516.02.074.062.133.125.172.07.031.203.047.39.047V0H2.391v-.156h.093c.176 0 .301-.024.375-.078a.434.434 0 0 0 .157-.25c.007-.04.015-.176.015-.407v-1.375c0-.425-.027-.707-.078-.843a.526.526 0 0 0-.219-.297.612.612 0 0 0-.343-.094c-.137 0-.282.04-.438.11-.148.074-.324.218-.531.437v2.062c0 .274.016.446.047.516a.355.355 0 0 0 .156.156c.082.043.223.063.422.063V0H.109v-.156a.925.925 0 0 0 .422-.078.323.323 0 0 0 .125-.157c.04-.082.063-.25.063-.5v-3.53c0-.446-.016-.72-.047-.813-.024-.102-.055-.172-.094-.204A.25.25 0 0 0 .406-5.5a1.25 1.25 0 0 0-.297.063l-.046-.157 1.156-.468zm0 0"/></symbol><symbol overflow="visible" id="l"><path style="stroke:none" d="M2.484-.563c-.398.313-.648.493-.75.532-.156.07-.324.11-.5.11a.895.895 0 0 1-.671-.267c-.168-.187-.25-.43-.25-.734 0-.195.039-.363.124-.5.114-.187.317-.363.61-.531.289-.176.77-.39 1.437-.64v-.157c0-.383-.062-.648-.187-.797-.125-.144-.305-.219-.531-.219a.63.63 0 0 0-.438.157.425.425 0 0 0-.156.328l.016.25a.41.41 0 0 1-.11.297c-.062.074-.152.109-.266.109a.35.35 0 0 1-.265-.11c-.063-.07-.094-.175-.094-.312 0-.238.125-.457.375-.656.258-.207.613-.313 1.063-.313.343 0 .629.059.859.172a.754.754 0 0 1 .36.406c.05.126.078.376.078.75v1.329c0 .375.003.605.015.687.02.086.047.14.078.172a.148.148 0 0 0 .11.047c.05 0 .093-.008.125-.031.062-.04.175-.145.343-.313v.235c-.324.43-.625.64-.906.64a.43.43 0 0 1-.344-.14c-.086-.102-.125-.27-.125-.5zm0-.28v-1.485c-.43.168-.703.289-.828.36-.23.124-.39.257-.484.39a.787.787 0 0 0-.14.453c0 .21.054.383.171.516.125.136.27.203.438.203.207 0 .488-.145.843-.438zm0 0"/></symbol><symbol overflow="visible" id="m"><path style="stroke:none" d="M1.422-4.016v.875c.32-.582.656-.875 1-.875.156 0 .285.047.39.141a.438.438 0 0 1 .157.328c0 .117-.04.211-.11.281a.363.363 0 0 1-.265.11c-.106 0-.219-.047-.344-.14-.125-.102-.215-.157-.266-.157-.054 0-.109.031-.171.094-.125.117-.258.308-.391.578v1.875c0 .21.023.37.078.484a.395.395 0 0 0 .188.188c.093.054.226.078.406.078V0h-2v-.156c.195 0 .347-.032.453-.094.062-.04.11-.113.14-.219.02-.039.032-.176.032-.406v-1.516c0-.457-.012-.726-.031-.812a.37.37 0 0 0-.11-.188.318.318 0 0 0-.187-.062.94.94 0 0 0-.297.062l-.032-.156 1.172-.469zm0 0"/></symbol><symbol overflow="visible" id="n"><path style="stroke:none" d="M4.031-2.953c.407.086.707.219.907.406a1.3 1.3 0 0 1 .406.969c0 .281-.094.558-.282.828-.18.262-.43.453-.75.578C4-.055 3.52 0 2.875 0H.141v-.156h.218c.239 0 .414-.078.532-.235.062-.093.093-.304.093-.64v-3.735c0-.351-.043-.578-.125-.671-.117-.125-.28-.188-.5-.188H.141v-.156h2.5c.468 0 .843.031 1.125.093.425.106.75.29.968.547.227.262.344.563.344.907 0 .293-.09.554-.266.78-.18.22-.437.388-.78.5zm-2.234-.235c.101.024.223.04.36.047.132.012.284.016.452.016.414 0 .727-.04.938-.125a1 1 0 0 0 .469-.406 1.16 1.16 0 0 0 .171-.61c0-.343-.14-.632-.421-.875-.274-.238-.672-.359-1.204-.359-.28 0-.539.031-.765.094zm0 2.766c.332.086.66.125.984.125.508 0 .899-.113 1.172-.344.27-.238.406-.53.406-.875 0-.218-.062-.43-.187-.64-.125-.207-.324-.367-.594-.485-.273-.125-.617-.187-1.031-.187-.168 0-.313.008-.438.015-.125 0-.23.008-.312.016zm0 0"/></symbol><symbol overflow="visible" id="o"><path style="stroke:none" d="M1.422-6.063v3.891l1-.906c.207-.195.332-.32.375-.375a.179.179 0 0 0 .031-.094.198.198 0 0 0-.078-.156c-.043-.04-.121-.063-.234-.063v-.14h1.703v.14a1.4 1.4 0 0 0-.578.11 1.9 1.9 0 0 0-.516.344l-1 .921 1 1.266c.281.355.469.578.563.672.132.137.253.219.359.25.07.031.195.047.375.047V0H2.516v-.156c.113 0 .187-.016.218-.047a.152.152 0 0 0 .063-.125c0-.063-.059-.164-.172-.313L1.422-2.17v1.296c0 .25.016.418.047.5a.443.443 0 0 0 .156.172c.07.031.219.047.438.047V0H.077v-.156c.195 0 .344-.02.438-.063a.293.293 0 0 0 .14-.156C.696-.469.72-.629.72-.859v-3.563c0-.445-.012-.719-.031-.812a.5.5 0 0 0-.094-.22.27.27 0 0 0-.188-.062.847.847 0 0 0-.265.079l-.063-.157 1.156-.468zm0 0"/></symbol><symbol overflow="visible" id="p"><path style="stroke:none" d="M3.031-.438A2.04 2.04 0 0 1 2.47 0c-.18.082-.371.125-.578.125-.43 0-.805-.176-1.125-.531-.313-.364-.47-.828-.47-1.39 0-.552.173-1.063.516-1.532.352-.469.805-.703 1.36-.703.351 0 .64.11.86.328v-.719c0-.445-.012-.719-.032-.812-.023-.102-.059-.172-.11-.204a.225.225 0 0 0-.156-.062c-.074 0-.171.023-.296.063l-.063-.157 1.172-.468h.187v4.515c0 .461.008.742.032.844A.38.38 0 0 0 3.86-.5a.26.26 0 0 0 .172.063.806.806 0 0 0 .313-.079l.047.157-1.157.484h-.203zm0-.296V-2.75a1.532 1.532 0 0 0-.156-.531.923.923 0 0 0-.344-.36.792.792 0 0 0-.406-.125c-.25 0-.477.118-.672.344-.25.293-.375.727-.375 1.297 0 .574.125 1.016.375 1.328.25.305.524.453.828.453.258 0 .508-.129.75-.39zm0 0"/></symbol><symbol overflow="visible" id="q"><path style="stroke:none" d="M1.344-3.234c.375-.52.781-.782 1.218-.782.407 0 .754.172 1.047.516.301.336.454.797.454 1.39 0 .7-.231 1.262-.688 1.688-.398.367-.84.547-1.328.547-.23 0-.465-.043-.703-.125A2.941 2.941 0 0 1 .64-.375v-4.047c0-.445-.012-.719-.032-.812C.586-5.336.551-5.406.5-5.438A.225.225 0 0 0 .344-5.5c-.086 0-.188.023-.313.063l-.047-.157 1.172-.468h.188zm0 .28v2.329c.144.148.297.258.453.328.156.074.312.11.469.11.257 0 .5-.141.718-.422.227-.29.344-.707.344-1.25 0-.5-.117-.883-.344-1.157-.218-.27-.468-.406-.75-.406a.911.911 0 0 0-.453.125c-.117.055-.261.168-.437.344zm0 0"/></symbol><symbol overflow="visible" id="r"><path style="stroke:none" d="M3.703-3.906v2.36c0 .46.008.741.031.843a.38.38 0 0 0 .094.203A.26.26 0 0 0 4-.437c.082 0 .18-.024.297-.079l.062.157-1.171.484H3v-.828c-.344.367-.605.594-.781.687a1.106 1.106 0 0 1-.547.141.932.932 0 0 1-.578-.188 1.06 1.06 0 0 1-.328-.5C.703-.758.672-1.038.672-1.405V-3.14c0-.187-.024-.316-.063-.39a.371.371 0 0 0-.187-.156C.348-3.728.21-3.75.016-3.75v-.156h1.359v2.61c0 .366.063.605.188.718a.656.656 0 0 0 .468.172c.114 0 .25-.035.406-.11.157-.082.344-.226.563-.437v-2.219c0-.219-.043-.363-.125-.437-.086-.082-.258-.13-.516-.141v-.156zm0 0"/></symbol><symbol overflow="visible" id="s"><path style="stroke:none" d="M.047-3.906h1.828v.156h-.094c-.125 0-.218.031-.281.094a.257.257 0 0 0-.094.203c0 .105.047.258.14.453l.938 1.969.875-2.157a.831.831 0 0 0 .079-.343c0-.051-.012-.086-.032-.11a.272.272 0 0 0-.11-.078.683.683 0 0 0-.25-.031v-.156h1.267v.156a.59.59 0 0 0-.25.078.585.585 0 0 0-.172.188 1.86 1.86 0 0 0-.157.328L2.156.734c-.156.383-.36.672-.61.86-.25.195-.491.297-.718.297a.612.612 0 0 1-.422-.157.425.425 0 0 1-.156-.328c0-.117.035-.21.11-.281a.47.47 0 0 1 .328-.11c.093 0 .222.032.39.094.113.04.18.063.203.063.094 0 .188-.047.282-.14.101-.087.207-.25.312-.5l.281-.688L.75-3.094a1.842 1.842 0 0 0-.203-.328.814.814 0 0 0-.188-.203.768.768 0 0 0-.312-.125zm0 0"/></symbol><symbol overflow="visible" id="t"><path style="stroke:none" d="M1.781-5.469v2.282h1.063c.238 0 .414-.051.531-.157.113-.113.188-.328.219-.64h.156v1.953h-.156c0-.219-.031-.38-.094-.485a.54.54 0 0 0-.234-.25c-.094-.05-.235-.078-.422-.078H1.78v1.813c0 .304.02.5.063.593a.425.425 0 0 0 .172.172c.125.075.254.11.39.11h.219V0H.141v-.156h.203c.238 0 .41-.067.515-.203.07-.094.11-.317.11-.672v-3.735c0-.289-.024-.484-.063-.578-.023-.07-.078-.129-.172-.172a.798.798 0 0 0-.39-.109H.14v-.156h4.296L4.5-4.516h-.156c-.074-.27-.164-.468-.266-.593a.784.784 0 0 0-.36-.266c-.136-.063-.355-.094-.655-.094zm0 0"/></symbol><symbol overflow="visible" id="b"><path style="stroke:none" d="m5.047-5.781.078 1.36h-.172c-.031-.24-.074-.411-.125-.516a.781.781 0 0 0-.36-.36 1.185 1.185 0 0 0-.577-.125h-.813V-1c0 .355.04.574.125.656.102.125.27.188.5.188h.188V0H1.453v-.156h.203c.239 0 .41-.07.516-.219.062-.094.094-.3.094-.625v-4.422h-.704c-.261 0-.449.024-.562.063a.756.756 0 0 0-.39.312c-.106.156-.169.367-.188.625H.266l.062-1.36zm0 0"/></symbol><symbol overflow="visible" id="v"><path style="stroke:none" d="M3.594-1.484c-.106.511-.313.906-.625 1.187-.305.281-.64.422-1.016.422-.45 0-.84-.188-1.172-.563C.457-.811.297-1.316.297-1.952c0-.613.18-1.11.547-1.484.363-.383.8-.579 1.312-.579.383 0 .703.106.953.313.25.2.375.406.375.625a.365.365 0 0 1-.109.265.443.443 0 0 1-.297.094c-.168 0-.293-.054-.375-.172-.055-.05-.09-.16-.11-.328a.594.594 0 0 0-.155-.39.67.67 0 0 0-.422-.125.862.862 0 0 0-.688.312c-.23.281-.344.652-.344 1.11 0 .468.114.882.344 1.234.227.355.54.531.938.531.27 0 .52-.094.75-.281.156-.133.304-.375.453-.719zm0 0"/></symbol><symbol overflow="visible" id="L"><path style="stroke:none" d="M2.719-5.031 1.125-.656h3.203zM.063 0 2.28-5.813h.89L5.392 0zm0 0"/></symbol><clipPath id="w"><path d="M96.617 16.027H124V43H96.617zm0 0"/></clipPath><clipPath id="D"><path d="M186 37h46v46.762h-46zm0 0"/></clipPath><clipPath id="x"><path d="M186 37h46v46.762h-46zm0 0"/></clipPath><clipPath id="y"><path d="M228.102 35h5.054v5.93h-5.054zm0 0"/></clipPath><clipPath id="z"><path d="M228 80h5.156v5H228zm0 0"/></clipPath><clipPath id="A"><path d="M228.102 80h5.054v5.754h-5.054zm0 0"/></clipPath><clipPath id="B"><path d="M0 .09h118.531v133.129H0zm0 0"/></clipPath><clipPath id="C"><path d="M96.617 16.027H124V43H96.617zm0 0"/></clipPath><clipPath id="a"><path d="M0 .09h118.531v133.129H0zm0 0"/></clipPath><clipPath id="E"><path d="M228.102 35h5.054v5.93h-5.054zm0 0"/></clipPath><clipPath id="F"><path d="M228 80h5.156v5H228zm0 0"/></clipPath><clipPath id="G"><path d="M228 80h5.156v5.754H228zm0 0"/></clipPath><clipPath id="H"><path d="M186.266 37H232v47h-45.734zm0 0"/></clipPath><clipPath id="I"><path d="M228.102 35h5.054v5.93h-5.054zm0 0"/></clipPath><clipPath id="J"><path d="M228 80h5.156v5H228zm0 0"/></clipPath><clipPath id="K"><path d="M228.102 80h5.054v5.754h-5.054zm0 0"/></clipPath></defs><path style="fill:none;stroke-width:.527;stroke-linecap:round;stroke-linejoin:round;stroke:#000;stroke-opacity:1;stroke-miterlimit:10" d="M115.563 130.83V2.353m0 128.56-112.367-.267m112.367-15.679H3.584m111.98-16.012L3.195 98.48m112.489-15.537-111.689.51M115.48 67.056l-111.548.467m111.548-16.42H3.521m111.96-16.071H3.521m111.96-15.95H2.416M115.48 3.008H3.933M99.551 130.83V2.886M83.476 130.83V2.886m-15.93 128.026.271-129.277M51.35 130.83 51.005 2.353m-15.667 128.56V1.634M19.475 130.83l.388-128.87m-16.4 128.87V3.215" transform="translate(0 .09) scale(.99607)"/><path style="fill:none;stroke-width:.263;stroke-linecap:round;stroke-linejoin:round;stroke:#000;stroke-opacity:1;stroke-miterlimit:10" d="M19.534 3.215 3.522 19.675m112.041 95.147-16.074 16.09m16.074-32.04-31.941 32.04m31.86-48.052-47.935 47.97m48.016-63.9-64.087 63.982m64.005-79.994-80.143 79.994m80.143-95.943-96.006 95.943m95.943-112.1L3.4 130.83M115.481 2.886 3.933 115.356M99.814 3.273 3.463 98.954M83.95 2.416 3.133 83.453M68.327 1.635 3.522 66.931M51.205 3.478 2.93 51.37M35.34 3.008 3.132 34.969m112.552 95.943L3.341 18.24m16.193 112.59L4.059 115.414m31.405 15.498L3.4 98.688m47.95 32.224L3.522 83.535m64.025 47.377L3.012 66.272m80.464 64.64-80.61-80.26m96.481 80.178L2.867 34.251m112.818 80.716L3.341 3.007m112.344 95.865L18.405 2.145m97.343 80.715L34.683 2.415m80.94 64.641L50.942 3.008m64.742 48.095L67.488 2.615m48.197 32.354L83.414 2.945m32.271 16.075L98.951 2.415" transform="translate(0 .09) scale(.99607)"/><path style="fill-rule:nonzero;fill:#000;fill-opacity:1;stroke-width:.066;stroke-linecap:round;stroke-linejoin:round;stroke:#000;stroke-opacity:1;stroke-miterlimit:10" d="M60.362-109.092h.126l.082-.06h.122l.207-.207v-.063l.063-.145v-.388l-.063-.063-.062-.121-.083-.083-.125-.059h-.141l-.126-.062h-.121l-.087.062-.117.06-.063.082-.145.062-.059.122v.47l.059.126.082.059.063.086.125.063.142.059zm2.447.121h.185l.14-.059.06-.062.125-.06.082-.148v-.122l.063-.145v-.063l-.063-.121v-.145l-.082-.06-.184-.183h-.141l-.126-.083h-.121l-.083.083h-.125l-.122.062-.082.122-.063.059-.063.145v.267l.063.062v.122l.063.149.082.059.122.062.125.06zm2.44.267h.062l.122-.063h.145l.063-.063.121-.058.063-.142.082-.121v-.333l-.082-.146-.063-.058-.062-.126-.06-.082h-.144l-.126-.06h-.267l-.058.06-.145.082-.06.063-.062.121-.063.063-.063.145v.122l.063.149v.121l.063.06.122.082.086.058.117.063zm2.36.33h.393l.062-.063.141-.06.06-.144.062-.063v-.388l-.063-.122v-.086l-.117-.122-.083-.062-.125-.083h-.451l-.145.083-.063.062-.063.122-.063.149v.059l-.082.121.082.141v.126l.063.063.063.145.125.059.083.062zm2.385.533h.243l.141-.06h.063l.125-.066.083-.141.062-.059.063-.145v-.247l-.063-.145v-.063l-.145-.121-.062-.083-.063-.059-.122-.062h-.266l-.142.062-.062.06-.126.082-.082.058-.059.126-.063.063v.266l.063.145.059.122.082.063.063.078.125.067zm2.357.596h.33l.12-.063h.146l.063-.141.058-.063.083-.125v-.33l-.083-.141-.058-.122-.063-.082-.063-.063-.141-.062h-.392l-.063.062-.141.063-.06.082-.066.063-.059.122v.408l.06.062v.126l.125.059.078.082zm2.302.717.14.063h.271l.055-.063.126-.062.063-.06.14-.062v-.141l.064-.126v-.266l-.063-.063-.059-.141-.082-.063-.063-.063-.126-.062-.14-.083h-.244l-.082.083-.126.062-.063.063-.082.122-.063.082-.058.126v.262l.058.067.063.141.082.063.126.059zm2.321.863.122.059h.325l.122-.059.082-.063.063-.145.063-.117.063-.067v-.267l-.063-.14v-.064l-.126-.121-.082-.063-.122-.082h-.062l-.145-.059-.118.059h-.122l-.082.082-.126.063-.062.059-.063.125-.082.141v.267l.082.067.063.117.062.063.063.145zm2.232.985.125.062h.33l.14-.062.126-.126.06-.137.062-.126v-.33l-.063-.144-.059-.063-.062-.059-.142-.063v-.082h-.455l-.145.082-.117.122-.067.145-.059.126v.325l.06.122.066.082.059.063zm2.176 1.129.126.063h.33l.12-.063.08-.082.125-.063.062-.122.06-.062v-.408l-.06-.063-.062-.122-.06-.082-.144-.063-.122-.062h-.33l-.125.062-.082.063-.122.082-.062.06v.125l-.06.145v.18l.06.145.062.122.06.063zm2.094 1.173.146.082.125.059h.204l.122-.06.14-.081.063-.063.063-.126.063-.062v-.467l-.063-.126-.125-.082-.083-.122h-.117l-.145-.062h-.185l-.145.062-.063.06-.121.062-.063.145-.082.063v.384l.082.083v.125l.122.063zm2.055 1.396h.122l.145.058h.326l.125-.058.063-.063.059-.145.082-.122.063-.062v-.267l-.063-.145-.082-.063-.06-.122-.062-.082-.125-.059h-.471l-.122.06-.082.081-.063.122-.062.063-.06.145v.267l.06.062.062.122.063.063zM87.5-99.61l.063.063.145.082h.388l.059-.082.125-.063.083-.062.063-.122.058-.086v-.385l-.058-.062-.063-.146-.083-.058-.125-.063-.122-.063h-.325l-.082.063-.126.063-.063.058-.059.146-.082.062v.385l.082.086.06.122zm1.91 1.585.063.055.14.082h.33l.122-.082.063-.055.145-.063.058-.063.063-.145v-.33l-.121-.246-.145-.146-.126-.058-.137-.06h-.126l-.062.06h-.146l-.121.058-.063.063-.063.145-.082.122v.063l-.059.145.059.121v.145l.082.063zm1.784 1.639.063.082.122.063h.145l.125.059.059-.059h.145l.126-.063.058-.082.083-.126.059-.058.062-.146v-.247l-.062-.078-.06-.126-.082-.121-.058-.082-.126-.063h-.474l-.122.063-.063.082-.082.121-.063.126-.059.078v.247l.06.146.062.058zm1.702 1.721.067.126.141.082h.455l.059-.082.145-.063.063-.063.059-.121.058-.145v-.204l-.058-.122v-.125l-.06-.079-.125-.125-.082-.063h-.451l-.145.063-.126.063-.059.14-.058.064v.125l-.083.141v.059l.083.126.058.145zm1.585 1.848.062.125.142.063h.125l.063.082h.145l.118-.082h.145l.058-.126.126-.062.063-.06v-.144l.082-.126v-.137l-.082-.063v-.125l-.063-.145-.126-.06-.058-.062-.145-.063h-.326l-.125.063-.142.063-.062.059-.063.145-.063.125v.326l.063.145zm1.517 1.972.067.063.118.082.082.06h.392l.063-.06.141-.082.063-.063.059-.063.062-.145.063-.117v-.126l-.063-.082v-.122l-.062-.125-.122-.083-.078-.062-.126-.06h-.063l-.145-.062-.121.063h-.145l-.063.059-.122.145-.059.062-.086.122v.333l.086.138zm1.314 1.969.126.082.082.126h.059l.125.062h.388l.083-.062.121-.063.063-.145.082-.063v-.121l.063-.142v-.058l-.063-.126-.082-.145-.063-.063-.058-.121-.146-.083h-.45l-.063.083-.141.062-.063.06-.063.144-.063.126v.325zm1.255 2.114.059.066.145.083.063.058.117.063.145.063h.063l.126-.063.14-.063.126-.058.063-.083.059-.066.082-.122v-.408l-.082-.063-.059-.121-.125-.063-.063-.082-.141-.063h-.334l-.117.063-.145.082-.063.063-.059.121v.063l-.063.145v.122l.063.141zm1.106 2.18.082.059.126.145.059.063h.14l.063.062h.267l.126-.062.145-.063.062-.082.06-.122.058-.063v-.392l-.059-.141-.059-.063-.062-.121-.083-.083h-.125l-.122-.062h-.27l-.06.062-.14.083-.067.062-.059.122-.082.063-.059.14v.122l.059.146zm1.008 2.173.062.125.06.082.125.122h.078l.122.059h.27l.122-.059h.082l.126-.122.059-.082.066-.125v-.451l-.066-.145-.06-.06-.125-.058-.082-.082h-.122l-.145-.063-.125.063h-.122l-.078.082-.126.059-.059.121-.062.083zm.839 2.302.082.14.063.064.122.062.066.06.138.082h.329l.125-.083.063-.059.141-.062.063-.126v-.137l.063-.063-.063-.145v-.126l-.063-.121-.058-.082-.083-.126-.125-.059h-.447l-.15.06-.058.062-.063.063-.063.145-.082.058zm.737 2.317.063.126v.059l.125.145.063.063.141.062h.33l.121-.062.146-.063.062-.063.06-.082.062-.122v-.388l-.063-.082-.059-.126-.063-.059-.062-.063-.145-.082h-.122l-.078-.063-.126.063h-.121l-.146.082-.062.122-.063.063-.063.145zm.518 2.361.063.145.078.126.063.055.059.082.145.063.125.063h.204l.122-.063.125-.063.141-.137.063-.126.059-.145v-.266l-.059-.063-.063-.122-.14-.145-.126-.063-.122-.058h-.204l-.125.058-.145.063-.06.082-.062.063-.078.122-.063.063zm.408 2.38.063.126.062.141.06.063.062.126.082.058h.122l.125.083h.141l.122-.083.063-.058.145-.063.063-.063.058-.063.063-.14v-.39l-.063-.062-.058-.145-.063-.063-.145-.059-.122-.062h-.33l-.12.062-.083.06-.122.062-.063.145v.122l-.062.145zm.247 2.444v.125l.082.122.063.082.059.126.125.059.083.062h.388l.121-.062.063-.06.145-.066.063-.141v-.059l.063-.125v-.267l-.063-.126-.063-.082-.062-.063-.146-.059-.058-.058-.126-.083h-.145l-.122.083h-.14l-.064.058-.121.06-.063.144v.126l-.082.063zm.145 2.42v.27l.059.059.062.145.146.063.058.063h.514l.083-.063.125-.063.063-.145.082-.059v-.533l-.082-.063-.063-.122-.125-.062-.083-.083h-.514l-.058.083-.146.121-.062.063-.06.145zm-.063 2.443v.149l.063.121v.126l.121.074.063.063.083.063.121.063h.267l.121-.063h.063l.145-.063.063-.137.063-.063.082-.125v-.267l-.082-.145-.063-.063-.063-.122-.062-.058-.146-.083h-.058l-.126-.062h-.145l-.122.062-.14.083-.126.121-.06.122-.062.082zm-.204 2.447v.266l.06.06.062.125.082.082.122.059.062.063h.389l.082-.063.126-.059.058-.082.063-.063.083-.122.062-.145v-.121l-.062-.063v-.141l-.083-.126-.063-.062-.121-.083-.145-.062h-.326l-.125.062-.06.083-.144.062-.063.063-.059.122zm-.33 2.357-.062.145.063.125v.145l.059.06.062.125.146.078.062.063h.451l.141-.063.063-.078.122-.126v-.059l.082-.145v-.27l-.082-.122-.063-.063-.059-.145-.063-.059-.14-.058h-.33l-.122.058h-.125l-.083.142-.062.062-.06.126zm-.533 2.447v.325l.063.145.083.06.058.062.126.063.141.082h.33l.121-.082.063-.063.145-.122v-.082l.059-.125v-.389l-.06-.062-.062-.145-.145-.06-.059-.062h-.125l-.145-.063-.122.063h-.078l-.126.063-.063.059-.14.066-.064.141zm-.658 2.318-.06.121v.126l.06.14v.064l.066.125.138.082.062.06.122.062h.333l.141-.063.126-.059.063-.082.078-.063.063-.125v-.388l-.063-.083-.078-.121-.063-.063-.126-.082-.058-.06h-.416l-.059.06-.125.082-.055.063-.083.062zm-.78 2.298-.08.125v.204l.08.126.062.145.122.117.145.063.121.082h.145l.126-.082h.059l.149-.063.055-.062.062-.118.063-.082.059-.126v-.267l-.059-.062-.063-.145-.062-.06-.138-.125h-.066l-.122-.063h-.267l-.062.063-.145.063-.122.122zm-.926 2.239h-.06v.121l-.081.083.082.121v.145l.059.122.125.126.145.082.122.063h.33l.125-.063.141-.145.059-.122.063-.145v-.325l-.063-.126-.059-.063-.063-.14-.145-.064h-.45l-.142.063-.063.06-.063.081zm-1.13 2.176-.055.118v.333l.055.142.067.062.078.126.126.082h.063l.14.059h.248l.082-.059.126-.082.059-.063.082-.125.059-.142.062-.125v-.063l-.062-.145v-.118l-.267-.266-.141-.063h-.326l-.125.063-.126.059-.078.082zm-1.184 2.11h-.063v.126l-.063.14v.19l.063.144.063.06.082.125.122.062.059.083h.474l.122-.083.063-.125.082-.063.063-.141.062-.126v-.207l-.062-.118-.063-.067-.082-.14-.122-.06-.063-.062h-.474l-.126.062-.055.122zm-1.377 2.036-.062.14v.456l.062.059.06.145.144.062.063.06.126.062h.262l.063-.063.141-.059.063-.062.126-.083v-.121l.082-.126v-.33l-.082-.14-.063-.06-.126-.066-.059-.059-.145-.082h-.262l-.126.082h-.063l-.145.126zm-1.454 1.968-.063.083-.063.121v.27l.063.122v.083l.145.125.055.063.125.059.083.078h.247l.145-.078h.063l.117-.059.086-.126.06-.062.066-.141v-.271l-.067-.063v-.121l-.059-.142-.145-.062-.058-.06-.126-.062h-.27l-.06.063h-.144l-.118.059zm-1.502 1.851-.083.083-.125.243v.208l.062.121.063.145.083.063.125.059.059.082.145.06h.122l.14-.06h.063l.126-.082.059-.059.145-.125v-.083l.063-.121v-.27l-.063-.123-.063-.058-.082-.145-.122-.063-.063-.059H93.7l-.082.059-.122.063zm-1.726 1.785-.059.062-.063.146v.117l-.062.067.062.141v.122l.063.145.059.062.063.06.145.062.121.063h.204l.126-.063.141-.063.063-.059.125-.062v-.145l.083-.122v-.208l-.083-.117v-.146l-.125-.062-.063-.063-.141-.063-.063-.082h-.267l-.121.082-.063.063zm-1.765 1.643-.078.141-.063.063-.063.121v.27l.063.06v.14l.063.126.137.063.063.083h.125l.141.062h.126l.082-.062.122-.083.125-.063.083-.062.062-.126.06-.078v-.247l-.06-.141v-.063l-.062-.145-.145-.06-.063-.062-.122-.063h-.411l-.063.063zm-1.847 1.58-.063.141-.078.06-.063.125-.063.145v.063l.063.121v.145l.141.063.063.122.059.082.125.063h.33l.145-.063.122-.082.082-.06.063-.125.058-.145v-.33l-.058-.125-.063-.059-.082-.14-.122-.063h-.063l-.145-.06h-.121l-.146.06h-.062zm-1.972 1.518-.083.063-.063.082-.058.122v.45l.058.146.146.059.062.062.126.083h.059l.145.062.125-.062h.141l.126-.083.059-.121.059-.063.082-.145v-.326l-.082-.125v-.059l-.118-.145-.063-.063-.145-.063h-.33l-.121.063zm-1.993 1.314-.117.145-.063.063-.082.117v.083l-.063.125.063.122v.145l.082.062.063.126.117.082.083.06h.125l.122.062.145-.063h.063l.121-.059.145-.082.06-.126.066-.062v-.475l-.067-.117-.118-.063-.086-.145h-.121l-.063-.063h-.392zM82.037-32.4l-.263.262v.145l-.062.063v.122l.062.145v.121l.063.063.122.141.078.063h.126l.121.063h.083l.125-.063h.145l.122-.063.063-.14.062-.064.083-.121v-.33l-.083-.145-.062-.121-.122-.063-.063-.078-.145-.063h-.33zm-2.172 1.125-.267.267v.125l-.063.06v.27l.063.14.063.06.062.125.142.063.062.082h.389l.062-.082h.083l.121-.126.126-.062v-.141l.082-.122v-.208l-.082-.121-.063-.126-.063-.082-.121-.06-.083-.062h-.125l-.122-.063-.145.063zm-2.177 1.047-.145.063-.059.082-.125.06v.125l-.063.145v.184l.063.141.062.122.063.063.059.082.145.063.063.058h.266l.122-.058.145-.063.063-.082.059-.126.062-.059v-.14l.083-.122-.083-.063v-.145l-.062-.126-.06-.059-.125-.082-.082-.063-.122-.063h-.266zm-2.298.86-.145.062-.063.063-.063.145-.055.058-.086.126v.27l.086.083v.122l.118.121.063.082.063.06h.14l.126.062.145-.063h.122l.063-.059.145-.082.059-.063.058-.121.063-.141v-.189l-.063-.145-.058-.121-.142-.145-.125-.063-.059-.063zm-2.322.807-.121.059-.063.063-.141.058v.145l-.063.122v.33l.063.125.059.082.082.122.126.059h.058l.145.062h.122l.145-.062.063-.06.121-.062.063-.059.083-.145.062-.063v-.392l-.062-.059-.083-.145-.063-.058-.121-.063-.145-.06zm-2.357.655-.145.059-.125.125-.063.145-.059.06-.082.12v.146l.082.121v.145l.06.063.125.063.062.059.145.063.063.082h.122l.145-.082h.117l.063-.063.145-.122.06-.063.062-.145v-.325l-.063-.122-.059-.082-.062-.126-.146-.062-.054-.06zm-2.384.51-.122.062-.058.083-.145.063-.063.058-.063.145v.33l.063.125v.122l.125.078.083.063.117.063.063.063h.27l.142-.063.063-.063.121-.063.063-.078.078-.122v-.125l.063-.082-.063-.122v-.126l-.078-.145-.063-.058-.121-.063-.063-.083-.141-.062zm-2.357.474h-.145l-.125.063-.122.122-.082.145-.063.117v.334l.063.14.082.064.122.062.062.063.145.082h.326l.125-.082.122-.063.082-.125.063-.083v-.121l.063-.126-.063-.145v-.055l-.063-.125-.082-.082-.063-.122-.121-.063zm-2.447.267h-.122l-.082.063-.125.062-.06.055-.058.145-.082.063v.392l.082.145.18.185.145.062.122.083h.145l.126-.083h.062l.142-.062.062-.126.06-.059.066-.145v-.33l-.067-.125-.059-.145-.062-.055-.142-.062-.062-.063zm-2.44.125-.12.055h-.126l-.083.067-.062.078-.122.126v.063l-.082.14v.271l.082.122.059.063.063.145.145.059h.062l.122.058h.267l.059-.058.145-.06.062-.082.063-.062.059-.126.063-.141v-.27l-.063-.06-.059-.125-.063-.063-.145-.078-.062-.067-.118-.055zm-2.423.055h-.145l-.122.067h-.062l-.267.267v.533l.063.063.063.145.14.059.063.058h.122l.145.063.122-.063h.125l.083-.058.121-.06.063-.082.078-.125v-.475l-.078-.121-.063-.063-.121-.063-.083-.078-.125-.067zm-2.447-.117-.118.062h-.145l-.059.055-.145.067-.062.078-.063.126-.063.063v.266l.063.145v.122l.063.063.145.062.062.083.122.059h.408l.063-.06.125-.082.059-.062.082-.126.063-.141V-26l-.063-.141v-.126l-.082-.063-.122-.145-.062-.055h-.145zm-2.44-.208h-.12l-.146.063h-.063l-.121.082-.063.125-.078.055-.063.145v.33l.063.125.078.145.063.06.121.062.063.063h.412l.125-.063.122-.122.078-.145.063-.125v-.33l-.063-.145-.078-.055-.063-.125-.059-.082h-.125zm-2.423-.33h-.145l-.059.063h-.14l-.126.082-.06.063-.062.122-.082.063v.533l.082.063.122.14.062.064h.145l.118.062h.208l.122-.062.062-.063.145-.083.063-.121.059-.063v-.388l-.059-.082v-.122l-.125-.063-.083-.063-.121-.082zm-2.376-.447h-.27l-.06.06-.125.062-.083.059-.121.062v.146l-.063.058v.393l.063.145.059.062.145.055.063.067.121.078h.27l.06-.078h.145l.18-.184.063-.145v-.451l-.063-.063-.063-.145-.059-.06-.14-.062zm-2.365-.6h-.267l-.078.063h-.126l-.121.063-.083.145-.062.059v.125l-.063.145v.122l.063.121.062.083.083.121.062.063.06.082.125.063h.263l.145-.063h.062l.122-.082.082-.121.063-.063.063-.145v-.389L47-27.847l-.063-.141-.145-.063-.059-.063zm-2.322-.655-.117-.082h-.145l-.122.082h-.126l-.082.063-.063.126-.062.082-.122.243v.141l.063.063v.126l.059.14.125.063.082.063.126.063h.325l.126-.063.141-.063.063-.062.059-.141.062-.126v-.325l-.062-.122-.06-.082-.062-.063-.141-.063zm-2.294-.858h-.392l-.145.058-.059.063-.063.082-.145.06v.12l-.059.146v.184l.06.145.082.126.062.063.122.082.063.059h.145l.121.063.145-.063h.063l.122-.06.078-.144.067-.063.059-.145.062-.126v-.203l-.062-.126-.06-.059-.066-.14-.141-.064zm-2.24-.926-.144-.063h-.247l-.083.063h-.117l-.063.122-.145.082-.063.121v.063l-.059.145.06.122v.145l.062.063.082.121.063.063.125.082.138.06h.184l.145-.06h.126l.062-.082.063-.121.079-.063.062-.145v-.393l-.062-.062-.079-.141-.063-.06zm-2.176-1.047-.125-.082h-.408l-.059.082-.125.063-.083.058-.062.122-.06.145v.33l.06.121.062.082.083.063.125.063.141.063h.326l.125-.063.126-.126.078-.14.063-.063v-.393l-.063-.082-.078-.122-.063-.058zm-2.176-1.192-.126-.063h-.466l-.189.188-.082.063-.059.141v.326l.059.125.082.082.063.122.126.063.058.063h.408l.063-.063h.126l.082-.122.063-.063.058-.145.063-.121v-.141l-.063-.063v-.122l-.058-.145-.063-.063zm-2.032-1.314-.14-.082h-.452l-.145.082-.063.063-.062.121-.063.145-.059.063v.267l.059.121.063.06.062.144.063.063.145.063h.451l.141-.063.063-.063.059-.145.063-.117.062-.063v-.267l-.062-.125-.063-.083-.059-.121zm-2.055-1.392-.058-.063-.122-.063h-.267l-.062.063h-.145l-.063.122-.141.082-.06.122v.474l.06.059.082.125.059.063.125.082.145.06h.185l.145-.06.117-.082.063-.063.083-.062.062-.122.063-.082v-.392l-.063-.06-.062-.144zm-1.91-1.522-.054-.063-.126-.062h-.349l-.247.125-.082.083-.126.247v.349l.063.117.063.063.204.208h.125l.145.063h.06l.144-.063.126-.063.055-.082.145-.063.062-.063v-.117l.063-.145v-.122l-.063-.145v-.063L29.55-37zm-1.76-1.58-.145-.063-.06-.063-.144-.059h-.247l-.083.06-.121.062-.063.063-.145.082v.126l-.063.117v.208l.063.122.082.145.126.121.121.083.145.062h.185l.145-.062.121-.083.083-.058.059-.126.062-.082.063-.122v-.125l-.063-.083v-.117l-.062-.126zm-1.726-1.769-.121-.059-.083-.082h-.513l-.06.082-.144.06-.063.125-.063.058v.145l-.063.126v.059l.063.145.063.125.063.063.062.141.142.06h.45l.146-.06.062-.058.06-.146.062-.062.082-.126v-.33l-.082-.14zm-1.643-1.784-.141-.06-.063-.066-.121-.078h-.33l-.145.078-.063.067-.117.059-.063.121v.083l-.082.125v.145l.082.122v.125l.121.083.06.058.062.06.145.062h.33l.121-.063.145-.059.06-.058.062-.145.059-.063v-.392l-.06-.083zm-1.518-1.91-.125-.063-.082-.059-.118-.082-.126-.063h-.082l-.122.063h-.125l-.267.267-.062.145v.33l.062.12.063.063.059.142.145.062.063.06h.392l.059-.06.14-.062.064-.083.062-.121.063-.06v-.144l.082-.126-.082-.121v-.083zm-1.439-1.969-.078-.145-.122-.063-.063-.058h-.411l-.063.058h-.126l-.058.126-.142.082v.122l-.062.145v.184l.062.145.06.06v.066l.082.059.058.058.126.083h.145l.122.063.062-.063h.145l.122-.083.063-.058.078-.126.067-.059.059-.145v-.266l-.06-.063zm-1.247-2.055-.082-.121-.126-.06-.063-.081-.145-.063h-.325l-.122.063-.145.082-.063.118-.058.062-.063.145v.185l.063.145v.125l.058.122.146.078.062.067h.122l.145.059h.122l.058-.06h.145l.126-.066.063-.14.082-.06.059-.125v-.33zm-1.192-2.172-.063-.063-.082-.122-.126-.082h-.059l-.145-.063h-.243l-.082.063-.126.082-.058.06-.083.125-.063.058-.062.146v.121l.062.145v.063l.063.122.141.082.063.125h.145l.063.063h.263l.121-.063.063-.062.145-.063.063-.141.063-.126v-.33zm-.984-2.177-.083-.121-.125-.063-.063-.145h-.141l-.06-.063h-.27l-.121.063-.063.062-.145.083-.059.063-.063.121v.47l.063.126.059.06.145.081.063.063.121.063h.27l.142-.063.059-.063.125-.082.063-.122.083-.062zm-.926-2.298-.063-.063-.082-.145-.059-.063-.125-.058-.146-.063h-.18l-.145.063h-.125l-.06.121-.144.145-.063.122v.388l.063.082.062.126.142.063.062.059.126.082h.204l.14-.082h.126l.063-.122.141-.063.063-.063zm-.737-2.302-.063-.141-.125-.126-.142-.058-.125-.083-.063-.063h-.141l-.126.063h-.117l-.27.267v.141l-.06.126v.121l.06.082v.126l.062.122.125.082.083.063.117.062h.33l.125-.062.142-.063.062-.082.063-.122.063-.063zm-.577-2.376-.082-.126-.063-.082-.18-.189h-.083l-.125-.058h-.267l-.125.058-.083.067-.121.059-.063.063v.145l-.063.121v.27l.063.056.063.145.059.063.062.059.145.066.126.079h.267l.062-.079.146-.066.054-.06.063-.125.063-.082.082-.122zm-.47-2.385-.063-.125-.063-.06-.059-.144-.082-.06-.126-.066-.062-.055h-.267l-.141.055-.063.067-.121.059-.063.082-.083.122-.062.062v.267l.062.145v.063l.146.121.062.06.06.082.14.062h.247l.145-.062h.063l.267-.263.063-.145zm-.33-2.42v-.062l-.063-.145-.062-.122-.083-.082-.121-.063-.063-.063h-.388l-.145.063-.06.063-.062.082-.063.122-.082.145v.325l.082.126.063.059.063.145.059.062h.145l.125.063h.122l.141-.063h.063l.121-.062.083-.145.062-.06.063-.125zm-.125-2.443v-.066l-.083-.142-.062-.125-.06-.063-.062-.078-.141-.06H14.2l-.125-.062-.145.063h-.06l-.125.059-.082.14-.063.064-.062.145-.06.059v.125l.06.145v.126l.062.059.063.145.145.058.063.063h.388l.141-.063.063-.058.063-.083.121-.062v-.122l.083-.145zm0-2.38v-.247l-.083-.145-.062-.063-.122-.059-.063-.063-.14-.082h-.268l-.062.082h-.122l-.063.122-.145.063-.062.062v.53l.062.063.063.145.082.062.126.06h.121l.146.062h.121l.063-.063.141-.059.063-.062.121-.083v-.125l.083-.059zm.188-2.424v-.145l-.063-.121v-.146L14.792-72l-.145-.063-.062-.063-.122-.059h-.325l-.146.06-.121.062-.063.063-.063.145-.082.063v.388l.082.063.063.145.063.058.121.06.146.062h.325l.122-.063.062-.059.145-.058.063-.145v-.063zm.267-2.443.062-.145-.062-.122v-.062l-.063-.142-.122-.062-.082-.063-.126-.063-.062-.063h-.145l-.122.063h-.141l-.063.063-.121.063-.063.145-.083.121v.326l.083.125.063.083.062.121.06.063.14.082h.33l.125-.082.145-.063.122-.121.063-.145zm.47-2.38.06-.122v-.145l-.06-.063-.082-.125-.063-.063-.063-.141-.117-.06h-.475l-.125.06-.083.059-.062.082-.122.25v.205l.063.141v.126l.204.203h.062l.126.063h.412l.063-.063.117-.082.063-.121.082-.06zm.66-2.361v-.33l-.083-.145-.063-.059-.063-.125-.121-.082h-.145l-.063-.06h-.122l-.145.06h-.117l-.063.082-.083.125-.125.06v.144l-.063.122v.145l.063.063.063.121.062.145.083.063.063.059.117.063h.392l.083-.063.121-.059.063-.063.063-.145zm.717-2.322.063-.121v-.204l-.126-.247-.063-.083-.14-.063-.064-.062h-.533l-.063.062-.062.146-.142.058v.126l-.062.145v.18l.062.146.083.121.059.063.125.063.063.082h.408l.125-.082.059-.063.082-.063.063-.059zm.921-2.235.063-.122v-.27l-.063-.063-.058-.145-.083-.059-.063-.126-.125-.054h-.47l-.122.054-.063.063-.063.122-.082.082v.063l-.059.063v.27l.059.122.082.063.063.14.063.06.121.062h.145l.06.083.125-.083h.14l.126-.062.063-.06.083-.058zM19-85.508l.063-.062v-.267L19-85.958v-.083l-.184-.184-.082-.063-.126-.082h-.384l-.063.082-.145.063-.063.063-.058.121-.083.141v.267l.083.063v.125l.058.083.126.121.082.063h.122l.121.063h.145l.06-.063.125-.063.145-.059.063-.062zm1.13-2.113.063-.063.062-.122v-.266l-.062-.122-.063-.082-.059-.063-.145-.125h-.063l-.121-.083h-.267l-.082.083-.122.062-.063.063-.145.063v.137l-.063.126v.266l.063.063.083.145.062.063.122.063.063.058.14.063h.122l.145-.063h.063l.126-.058.082-.063zm1.314-2.032.058-.145.063-.063v-.262l-.063-.126-.058-.059-.06-.145-.066-.062-.141-.063-.122-.063h-.207l-.122.063-.145.063-.063.062-.063.083-.058.121-.083.126v.2l.083.125.058.145.126.122.145.082.122.063h.207l.122-.063h.141l.067-.145zm1.458-1.972.06-.145v-.06l.062-.125v-.145l-.063-.117-.059-.083-.082-.125-.063-.063-.125-.059-.082-.082h-.385l-.063.082-.125.059-.082.063-.063.125-.059.141v.33l.059.121.063.083.145.125.062.06h.122l.141.062.126-.063h.059l.145-.059.062-.063zm1.495-1.906.082-.086.063-.122v-.388l-.063-.083-.082-.121-.06-.063-.12-.063-.083-.082h-.392l-.063.082-.122.063-.082.063-.063.059-.059.145v.325l.06.126.062.145.082.059.063.062.122.063h.33l.144-.063.122-.062zm1.666-1.788.063-.142.063-.125v-.451l-.063-.082-.063-.122-.145-.063-.121-.082h-.33l-.145.082-.059.063-.121.059-.083.063-.062.14v.33l.062.126v.14l.142.064.062.062.126.063h.137l.063.059.125-.059h.145l.122-.063zm1.702-1.722.063-.063.063-.121.082-.145v-.33l-.082-.125-.063-.063-.063-.137-.121-.063h-.47l-.126.063-.083.055-.121.082-.063.125v.063l-.063.145.063.122v.145l.063.121.059.063.062.063.145.078.063.063h.388l.083-.063zm1.847-1.584.063-.122.063-.063.059-.145v-.121l.082-.142-.082-.062v-.122l-.06-.145-.125-.063-.062-.062-.145-.06h-.326l-.121.06-.146.062-.062.063-.06.145-.062.122v.325l.063.145.121.122.146.063.062.082.122.063h.145l.118-.063h.062zm1.91-1.495.122-.145.063-.062.082-.146v-.329l-.082-.122-.063-.058-.059-.145-.063-.063-.145-.059h-.325l-.247.122-.145.145-.063.117-.059.145v.063l.059.126v.14l.063.126.062.063.145.082.06.055h.125l.145.063.117-.063h.146zm2.032-1.4.062-.121.083-.083.063-.125.058-.063v-.263l-.058-.121-.063-.082-.083-.126-.062-.063-.122-.062h-.141l-.063-.083-.121.083h-.145l-.126.062-.059.063-.063.126-.082.082-.063.121v.204l.063.122.082.125.063.083.059.121h.126l.145.063h.184l.141-.063zm2.055-1.313.121-.063.063-.082.082-.118.063-.126v-.204l-.063-.125v-.145l-.145-.063-.063-.121-.121-.083h-.47l-.063.083-.146.062-.058.06-.063.125-.063.145v.33l.063.12.204.205h.063l.125.062h.326zm2.172-1.189.063-.062.125-.06.063-.144v-.063l.083-.122v-.145l-.083-.125v-.145l-.125-.055-.126-.126-.14-.062h-.326l-.126.062-.145.06-.059.066-.063.137-.062.063v.392l.062.063.063.145.059.059.145.062.126.06h.325zm2.161-1.047.079-.062.125-.083.063-.059.078-.125v-.475l-.078-.117-.063-.067-.125-.078-.079-.063h-.125l-.126-.063-.145.063h-.059l-.125.063-.138.078-.062.122-.063.062v.475l.063.125.2.204h.062l.122.06h.27zm2.251-.921.126-.067.062-.078.063-.063.082-.126.06-.058v-.412l-.06-.059-.082-.126-.125-.086-.06-.055-.144-.062h-.247l-.083.062h-.121l-.267.267v.141l-.063.122.063.125v.141l.059.063.063.126.082.078.125.067.142.055h.184zm2.302-.804.122-.059.062-.067.083-.059.063-.14.062-.063.063-.126v-.141l-.063-.126-.062-.145-.063-.059-.083-.062-.121-.06-.063-.066h-.388l-.082.067-.122.059-.063.062-.063.142-.082.062v.393l.082.062.063.141.063.06.122.066.145.059zm2.361-.718h.082l.126-.063.063-.062.058-.142.087-.062v-.126l.055-.141-.055-.122v-.145l-.087-.062-.121-.122-.063-.082-.145-.063h-.33l-.121.063-.141.082-.067.063-.059.121-.059.063v.412l.06.121.058.06.067.082.078.062.122.063.145.063h.125zm2.322-.533.243-.122.082-.063.063-.082.125-.247v-.208l-.062-.121-.063-.142-.063-.062-.082-.06-.126-.062-.059-.086h-.262l-.126.086-.145.063-.121.121-.063.142-.083.121v.208l.083.122.063.125.062.082.06.063.144.059.126.063zm2.42-.451h.144l.063-.063.122-.082.082-.126.063-.063.063-.14v-.244l-.063-.086v-.122l-.267-.266h-.125l-.145-.063h-.122l-.141.063-.067.058-.118.063-.082.083-.063.125-.062.059v.27l.062.142v.058l.063.126.141.063.06.082.144.063zm2.446-.334h.06l.14-.058.126-.083.059-.059.086-.121.059-.15v-.329l-.059-.121-.086-.063-.06-.141-.125-.063h-.14l-.06-.059h-.125l-.145.06-.122.062-.063.059-.145.082-.062.063v.121l-.06.146v.125l.06.145v.063l.125.121.082.06.063.082.122.058zm2.44-.2h.062l.122-.062.145-.06.063-.062.063-.086.058-.122v-.392l-.058-.082v-.122l-.126-.059-.063-.062-.14-.083-.126-.059h-.063l-.145.06h-.122l-.141.082-.063.062-.059.122-.062.141v.33l.062.125.06.059.062.149.082.059.118.062zm2.423-.062h.145l.06-.06.14-.062.063-.086.063-.059.063-.125.058-.146v-.184l-.058-.141-.063-.122-.063-.062-.063-.083-.14-.059-.122-.062h-.208l-.122.062-.145.06-.063.082-.059.121-.062.063-.083.141v.247l.083.083.062.125.06.059.062.086.145.063.122.059zm0 0" transform="matrix(.99607 0 0 -.99607 0 .09)"/><g clip-path="url(#a)"><path style="fill:none;stroke-width:1.646;stroke-linecap:round;stroke-linejoin:round;stroke:#000;stroke-opacity:1;stroke-miterlimit:10" d="m115.622-3.07 1.436 1.702M99.755-2.615l1.373 1.784M83.414-2.886l1.376 1.788M67.817-2.615l1.494 1.784m46.17-18.393 1.514 1.726m-16.973-.93 1.376 1.648m-17.714-1.973 1.518 1.765m-17.055-1.64 1.372 1.722m46.044-18.33 1.495 1.663m-17.036-.863 1.376 1.769m14.35-18.048 1.517 1.706M2.004-132.352l1.58 1.706m14.432-1.91 1.58 1.726m14.37-1.992 1.58 1.725m14.412-1.584 1.455 1.85M2.004-116.542l1.459 1.784m14.102-2.565 1.435 1.64m14.883-1.64 1.392 1.702m14.29-1.847 1.522 1.784M1.82-100.53l1.439 1.659m14.306-2.377L19-99.547M1.82-85.115l1.521 1.662m113.862-49.103-1.455 1.726m-14.742-1.914-1.58 1.647M85.12-132.68l-1.498 1.85m-14.82-1.725-1.522 1.726m49.86 14.345-1.455 1.726m-14.883-2.298-1.455 1.702m-14.412-1.58-1.459 1.788m-14.737-1.91-1.522 1.702m49.84 14.76-1.494 1.723m-14.882-1.993-1.46 1.647m17.719 15.165-1.584 1.77m2.502 14.76h-2.173m-112.614.204L.835-67.44m.722 65.805 1.455-1.702m14.8 1.969L19.33-3.07m14.369 1.643 1.498-1.706m14.824 1.58 1.455-1.721M1.675-17.764l1.458-1.726m14.82 1.992 1.522-1.726m14.408 2.114 1.455-1.702m14.824 1.577 1.435-1.722M1.882-33.447l1.46-1.706m14.82 1.968 1.435-1.721M1.94-49.996 3.463-51.7" transform="matrix(.99607 0 0 -.99607 0 .09)"/></g><g style="fill:#000;fill-opacity:1"><use xlink:href="#b" x="195.43" y="9.446"/><use xlink:href="#c" x="200.755" y="9.446"/></g><use xlink:href="#d" x="205.085" y="9.446" style="fill:#000;fill-opacity:1"/><g style="fill:#000;fill-opacity:1"><use xlink:href="#e" x="195.43" y="20.017"/><use xlink:href="#f" x="199.297" y="20.017"/><use xlink:href="#e" x="201.715" y="20.017"/></g><use xlink:href="#g" x="205.687" y="20.017" style="fill:#000;fill-opacity:1"/><g style="fill:#000;fill-opacity:1"><use xlink:href="#e" x="212.382" y="20.017"/><use xlink:href="#h" x="216.249" y="20.017"/></g><use xlink:href="#i" x="220.701" y="20.017" style="fill:#000;fill-opacity:1"/><path style="fill-rule:nonzero;fill:#000;fill-opacity:1;stroke-width:.066;stroke-linecap:round;stroke-linejoin:round;stroke:#000;stroke-opacity:1;stroke-miterlimit:10" d="m209.687 21.196 4.29 13.957.063.145-.208.204h-.247l-.082-.082-.059-.122-4.212-13.98-.059-.122.06-.063.066-.058.059-.083h.208l.121.083zm5.483 13.055-.596 3.612-2.565-2.71zm0 0" transform="translate(0 .09) scale(.99607)"/><g style="fill:#000;fill-opacity:1"><use xlink:href="#j" x="199.683" y="107.058"/><use xlink:href="#k" x="204.536" y="107.058"/><use xlink:href="#e" x="208.901" y="107.058"/></g><g style="fill:#000;fill-opacity:1"><use xlink:href="#l" x="212.742" y="107.058"/><use xlink:href="#m" x="216.609" y="107.058"/></g><g style="fill:#000;fill-opacity:1"><use xlink:href="#e" x="199.683" y="117.546"/><use xlink:href="#f" x="203.55" y="117.546"/><use xlink:href="#e" x="205.968" y="117.546"/></g><use xlink:href="#g" x="209.957" y="117.546" style="fill:#000;fill-opacity:1"/><g style="fill:#000;fill-opacity:1"><use xlink:href="#e" x="216.635" y="117.546"/><use xlink:href="#h" x="220.502" y="117.546"/></g><use xlink:href="#i" x="224.971" y="117.546" style="fill:#000;fill-opacity:1"/><path style="fill-rule:nonzero;fill:#000;fill-opacity:1;stroke-width:.066;stroke-linecap:round;stroke-linejoin:round;stroke:#000;stroke-opacity:1;stroke-miterlimit:10" d="m206.26 98.214 13.055-25.166.059-.062.062-.063h.208l.06.063.062.121v.204l-13.032 25.17-.067.062-.058.082h-.145l-.063-.082-.141-.063zm11.537-25.291 2.953-2.177v3.695zm-35.165-29.989v37.895l-.083.059-.062.062h-.263l-.063-.062-.063-.06v-38.02l.063-.058.063-.083h.263l.062.083.083.058zm-1.91.533 1.647-3.302 1.64 3.302zm3.286 36.7-1.64 3.286-1.646-3.287zm0 0" transform="translate(0 .09) scale(.99607)"/><g style="fill:#000;fill-opacity:1"><use xlink:href="#n" x="125.535" y="12.206"/><use xlink:href="#f" x="131.349" y="12.206"/></g><g style="fill:#000;fill-opacity:1"><use xlink:href="#l" x="133.801" y="12.206"/><use xlink:href="#h" x="137.668" y="12.206"/></g><g style="fill:#000;fill-opacity:1"><use xlink:href="#o" x="142.068" y="12.206"/><use xlink:href="#p" x="146.432" y="12.206"/></g><g style="fill:#000;fill-opacity:1"><use xlink:href="#k" x="148.65" y="12.206"/><use xlink:href="#c" x="153.014" y="12.206"/></g><g style="fill:#000;fill-opacity:1"><use xlink:href="#f" x="157.414" y="12.206"/><use xlink:href="#p" x="159.831" y="12.206"/></g><g style="fill:#000;fill-opacity:1"><use xlink:href="#e" x="164.24" y="12.206"/><use xlink:href="#m" x="168.107" y="12.206"/></g><use xlink:href="#q" x="125.535" y="22.716" style="fill:#000;fill-opacity:1"/><use xlink:href="#c" x="129.926" y="22.716" style="fill:#000;fill-opacity:1"/><use xlink:href="#r" x="134.316" y="22.716" style="fill:#000;fill-opacity:1"/><use xlink:href="#h" x="138.707" y="22.716" style="fill:#000;fill-opacity:1"/><use xlink:href="#p" x="143.098" y="22.716" style="fill:#000;fill-opacity:1"/><use xlink:href="#l" x="147.489" y="22.716" style="fill:#000;fill-opacity:1"/><use xlink:href="#m" x="151.382" y="22.716" style="fill:#000;fill-opacity:1"/><use xlink:href="#s" x="154.201" y="22.716" style="fill:#000;fill-opacity:1"/><use xlink:href="#t" x="127.435" y="121.882" style="fill:#000;fill-opacity:1"/><use xlink:href="#m" x="132.332" y="121.882" style="fill:#000;fill-opacity:1"/><use xlink:href="#u" x="135.283" y="121.882" style="fill:#000;fill-opacity:1"/><use xlink:href="#v" x="137.744" y="121.882" style="fill:#000;fill-opacity:1"/><use xlink:href="#i" x="141.655" y="121.882" style="fill:#000;fill-opacity:1"/><use xlink:href="#u" x="144.117" y="121.882" style="fill:#000;fill-opacity:1"/><use xlink:href="#c" x="146.578" y="121.882" style="fill:#000;fill-opacity:1"/><use xlink:href="#h" x="150.986" y="121.882" style="fill:#000;fill-opacity:1"/><g style="fill:#000;fill-opacity:1"><use xlink:href="#e" x="127.435" y="132.393"/><use xlink:href="#f" x="131.302" y="132.393"/><use xlink:href="#e" x="133.72" y="132.393"/></g><use xlink:href="#g" x="137.709" y="132.393" style="fill:#000;fill-opacity:1"/><g style="fill:#000;fill-opacity:1"><use xlink:href="#e" x="144.387" y="132.393"/><use xlink:href="#h" x="148.254" y="132.393"/></g><use xlink:href="#i" x="152.715" y="132.393" style="fill:#000;fill-opacity:1"/><path style="fill-rule:nonzero;fill:#000;fill-opacity:1;stroke-width:.066;stroke-linecap:round;stroke-linejoin:round;stroke:#000;stroke-opacity:1;stroke-miterlimit:10" d="m130.383 111.598-9.423-7.635-.063-.083-.082-.062.082-.122v-.063l.125-.145h.204l.063.063 9.424 7.592.059.126v.267l-.142.062-.062.063h-.122zm-9.894-6.2-1.502-3.345 3.616.78zm0 0" transform="translate(0 .09) scale(.99607)"/><g clip-path="url(#w)"><path style="fill-rule:nonzero;fill:#000;fill-opacity:1;stroke-width:.066;stroke-linecap:round;stroke-linejoin:round;stroke:#000;stroke-opacity:1;stroke-miterlimit:10" d="M123.587-16.576 99.16-40.961l-.063-.063-.145-.063-.055.063-.125.063-.082.058v.208l.082.063L123.2-16.188l.059.063h.27l.06-.063.062-.063v-.267zm-23.051-24.981-3.49-1.193 1.192 3.49zm0 0" transform="matrix(.99607 0 0 -.99607 0 .09)"/></g><g clip-path="url(#x)"><path style="fill:none;stroke-width:1.251;stroke-linecap:round;stroke-linejoin:round;stroke:#000;stroke-opacity:1;stroke-miterlimit:10" d="M188.157-38.255H231.9v-44.868h-43.742zm0 0" transform="matrix(.99607 0 0 -.99607 0 .09)"/></g><path style="fill:none;stroke-width:.395;stroke-linecap:round;stroke-linejoin:round;stroke:#000;stroke-opacity:1;stroke-miterlimit:10" d="M188.298 38.663 231.9 83.39m-44.012-.267L231.9 38.255" transform="translate(0 .09) scale(.99607)"/><path style="stroke:none;fill-rule:evenodd;fill:#fff;fill-opacity:1" d="M230.781 36.11h-.265l-.207.062h-.18l-.207.062-.184.118-.203.144-.328.266-.266.265-.062.188-.14.2-.063.187-.063.203v.86l.063.265.062.183.14.14.063.184.266.333.328.265.203.145.184.058.207.059.18.062h.207l.265.063.207-.063h.246l.203-.062.204-.059.183-.058.207-.145.324-.265.266-.333.063-.183.125-.14.082-.184.058-.266v-.86l-.058-.202-.082-.188-.125-.2-.063-.187-.266-.265-.324-.266-.207-.144-.183-.118-.203-.062h-.204l-.246-.063h-.207"/><g clip-path="url(#y)"><path style="fill:none;stroke-width:.395;stroke-linecap:round;stroke-linejoin:round;stroke:#000;stroke-opacity:1;stroke-miterlimit:10" d="M231.692-36.161h-.267l-.208-.063h-.18l-.208-.063-.185-.117-.203-.145-.33-.267-.267-.267-.062-.188-.141-.2-.063-.188-.063-.204v-.863l.063-.267.063-.184.14-.141.063-.184.267-.334.33-.267.203-.145.185-.058.208-.06.18-.066h.208l.267-.059.207.06h.247l.204.066.204.059.185.058.208.145.325.267.267.334.062.184.126.141.082.184.06.267v.863l-.06.204-.082.188-.126.2-.062.188-.267.267-.325.267-.208.145-.185.117-.204.063h-.204l-.247.063h-.207" transform="matrix(.99607 0 0 -.99607 0 .09)"/></g><path style="fill-rule:evenodd;fill:#fff;fill-opacity:1;stroke-width:.395;stroke-linecap:round;stroke-linejoin:round;stroke:#000;stroke-opacity:1;stroke-miterlimit:10" d="M188.216 36.224h-.247l-.204.063h-.208l-.18.059-.208.14-.204.063-.333.267-.24.33-.145.188-.125.408-.082.184-.06.204v.45l.06.209.082.204.063.184.062.208.145.117.24.334.333.267.204.145.208.058.18.06.208.066h.204l.247.059.2-.06h.208l.188-.066.204-.059.188-.058.2-.145.33-.267.266-.334.126-.117.082-.208.063-.184.122-.412v-.451l-.063-.204-.059-.184-.063-.208-.082-.2-.126-.188-.266-.33-.33-.267-.2-.062-.188-.141-.204-.06h-.188l-.208-.062h-.2m.267 44.479h-.185l-.266.063h-.208l-.204.063-.18.121-.208.083-.33.243-.121.208-.15.121-.12.208-.064.208-.054.18-.083.208v.204l-.063.185.063.266v.204l.083.185.117.415.122.122.149.204.121.121.33.267.208.125.18.083.412.121h.266l.185.063.266-.063h.204l.189-.058.204-.063.203-.083.185-.125.33-.267.144-.121.122-.204.121-.126.083-.204.125-.207v-.185l.06-.204v-.45l-.06-.205v-.207l-.125-.18-.083-.209-.121-.208-.122-.121-.145-.208-.33-.243-.184-.083-.203-.121-.204-.063h-.189l-.204-.063h-.266" transform="translate(0 .09) scale(.99607)"/><g clip-path="url(#z)"><path style="stroke:none;fill-rule:evenodd;fill:#fff;fill-opacity:1" d="M230.844 80.66h-.203l-.25.063h-.2l-.207.144-.183.059-.207.12-.324.27-.266.266-.059.207-.125.18-.082.207-.062.203v.836l.062.207.082.207.125.183.059.141.266.328.324.266.207.121.183.062.207.063.2.078h.25l.203.063.207-.063h.265l.18-.078.207-.063.184-.062.203-.121.328-.266.266-.328.062-.14.145-.184.12-.414v-.836l-.12-.41-.145-.18-.062-.207-.266-.266-.328-.27-.203-.12-.184-.059-.207-.144h-.18l-.265-.063h-.207"/></g><g clip-path="url(#A)"><path style="fill:none;stroke-width:.395;stroke-linecap:round;stroke-linejoin:round;stroke:#000;stroke-opacity:1;stroke-miterlimit:10" d="M231.754-80.888h-.204l-.25-.062h-.2l-.208-.146-.185-.058-.208-.122-.325-.27-.267-.267-.063-.208-.121-.18-.082-.208-.063-.204v-.84l.063-.207.082-.208.121-.185.063-.14.267-.33.325-.267.208-.121.185-.063.207-.063.2-.078h.251l.204-.063.208.063h.267l.18.078.208.063.184.063.204.121.33.267.266.33.063.14.145.185.122.415v.84l-.122.411-.145.18-.063.209-.266.266-.33.271-.204.122-.184.058-.208.146h-.18l-.267.062h-.208" transform="matrix(.99607 0 0 -.99607 0 .09)"/></g><path style="fill:none;stroke-width:.527;stroke-linecap:round;stroke-linejoin:round;stroke:#000;stroke-opacity:1;stroke-miterlimit:10" d="M115.563 130.83V2.353m0 128.56-112.367-.267m112.367-15.679H3.584m111.98-16.012L3.195 98.48m112.489-15.537-111.689.51M115.48 67.056l-111.548.467m111.548-16.42H3.521m111.96-16.071H3.521m111.96-15.95H2.416M115.48 3.008H3.933M99.551 130.83V2.886M83.476 130.83V2.886m-15.93 128.026.271-129.277M51.35 130.83 51.005 2.353m-15.667 128.56V1.634M19.475 130.83l.388-128.87m-16.4 128.87V3.215" transform="translate(0 .09) scale(.99607)"/><path style="fill:none;stroke-width:.263;stroke-linecap:round;stroke-linejoin:round;stroke:#000;stroke-opacity:1;stroke-miterlimit:10" d="M19.534 3.215 3.522 19.675m112.041 95.147-16.074 16.09m16.074-32.04-31.941 32.04m31.86-48.052-47.935 47.97m48.016-63.9-64.087 63.982m64.005-79.994-80.143 79.994m80.143-95.943-96.006 95.943m95.943-112.1L3.4 130.83M115.481 2.886 3.933 115.356M99.814 3.273 3.463 98.954M83.95 2.416 3.133 83.453M68.327 1.635 3.522 66.931M51.205 3.478 2.93 51.37M35.34 3.008 3.132 34.969m112.552 95.943L3.341 18.24m16.193 112.59L4.059 115.414m31.405 15.498L3.4 98.688m47.95 32.224L3.522 83.535m64.025 47.377L3.012 66.272m80.464 64.64-80.61-80.26m96.481 80.178L2.867 34.251m112.818 80.716L3.341 3.007m112.344 95.865L18.405 2.145m97.343 80.715L34.683 2.415m80.94 64.641L50.942 3.008m64.742 48.095L67.488 2.615m48.197 32.354L83.414 2.945m32.271 16.075L98.951 2.415" transform="translate(0 .09) scale(.99607)"/><path style="fill-rule:nonzero;fill:#000;fill-opacity:1;stroke-width:.066;stroke-linecap:round;stroke-linejoin:round;stroke:#000;stroke-opacity:1;stroke-miterlimit:10" d="M60.362-109.092h.126l.082-.06h.122l.207-.207v-.063l.063-.145v-.388l-.063-.063-.062-.121-.083-.083-.125-.059h-.141l-.126-.062h-.121l-.087.062-.117.06-.063.082-.145.062-.059.122v.47l.059.126.082.059.063.086.125.063.142.059zm2.447.121h.185l.14-.059.06-.062.125-.06.082-.148v-.122l.063-.145v-.063l-.063-.121v-.145l-.082-.06-.184-.183h-.141l-.126-.083h-.121l-.083.083h-.125l-.122.062-.082.122-.063.059-.063.145v.267l.063.062v.122l.063.149.082.059.122.062.125.06zm2.44.267h.062l.122-.063h.145l.063-.063.121-.058.063-.142.082-.121v-.333l-.082-.146-.063-.058-.062-.126-.06-.082h-.144l-.126-.06h-.267l-.058.06-.145.082-.06.063-.062.121-.063.063-.063.145v.122l.063.149v.121l.063.06.122.082.086.058.117.063zm2.36.33h.393l.062-.063.141-.06.06-.144.062-.063v-.388l-.063-.122v-.086l-.117-.122-.083-.062-.125-.083h-.451l-.145.083-.063.062-.063.122-.063.149v.059l-.082.121.082.141v.126l.063.063.063.145.125.059.083.062zm2.385.533h.243l.141-.06h.063l.125-.066.083-.141.062-.059.063-.145v-.247l-.063-.145v-.063l-.145-.121-.062-.083-.063-.059-.122-.062h-.266l-.142.062-.062.06-.126.082-.082.058-.059.126-.063.063v.266l.063.145.059.122.082.063.063.078.125.067zm2.357.596h.33l.12-.063h.146l.063-.141.058-.063.083-.125v-.33l-.083-.141-.058-.122-.063-.082-.063-.063-.141-.062h-.392l-.063.062-.141.063-.06.082-.066.063-.059.122v.408l.06.062v.126l.125.059.078.082zm2.302.717.14.063h.271l.055-.063.126-.062.063-.06.14-.062v-.141l.064-.126v-.266l-.063-.063-.059-.141-.082-.063-.063-.063-.126-.062-.14-.083h-.244l-.082.083-.126.062-.063.063-.082.122-.063.082-.058.126v.262l.058.067.063.141.082.063.126.059zm2.321.863.122.059h.325l.122-.059.082-.063.063-.145.063-.117.063-.067v-.267l-.063-.14v-.064l-.126-.121-.082-.063-.122-.082h-.062l-.145-.059-.118.059h-.122l-.082.082-.126.063-.062.059-.063.125-.082.141v.267l.082.067.063.117.062.063.063.145zm2.232.985.125.062h.33l.14-.062.126-.126.06-.137.062-.126v-.33l-.063-.144-.059-.063-.062-.059-.142-.063v-.082h-.455l-.145.082-.117.122-.067.145-.059.126v.325l.06.122.066.082.059.063zm2.176 1.129.126.063h.33l.12-.063.08-.082.125-.063.062-.122.06-.062v-.408l-.06-.063-.062-.122-.06-.082-.144-.063-.122-.062h-.33l-.125.062-.082.063-.122.082-.062.06v.125l-.06.145v.18l.06.145.062.122.06.063zm2.094 1.173.146.082.125.059h.204l.122-.06.14-.081.063-.063.063-.126.063-.062v-.467l-.063-.126-.125-.082-.083-.122h-.117l-.145-.062h-.185l-.145.062-.063.06-.121.062-.063.145-.082.063v.384l.082.083v.125l.122.063zm2.055 1.396h.122l.145.058h.326l.125-.058.063-.063.059-.145.082-.122.063-.062v-.267l-.063-.145-.082-.063-.06-.122-.062-.082-.125-.059h-.471l-.122.06-.082.081-.063.122-.062.063-.06.145v.267l.06.062.062.122.063.063zM87.5-99.61l.063.063.145.082h.388l.059-.082.125-.063.083-.062.063-.122.058-.086v-.385l-.058-.062-.063-.146-.083-.058-.125-.063-.122-.063h-.325l-.082.063-.126.063-.063.058-.059.146-.082.062v.385l.082.086.06.122zm1.91 1.585.063.055.14.082h.33l.122-.082.063-.055.145-.063.058-.063.063-.145v-.33l-.121-.246-.145-.146-.126-.058-.137-.06h-.126l-.062.06h-.146l-.121.058-.063.063-.063.145-.082.122v.063l-.059.145.059.121v.145l.082.063zm1.784 1.639.063.082.122.063h.145l.125.059.059-.059h.145l.126-.063.058-.082.083-.126.059-.058.062-.146v-.247l-.062-.078-.06-.126-.082-.121-.058-.082-.126-.063h-.474l-.122.063-.063.082-.082.121-.063.126-.059.078v.247l.06.146.062.058zm1.702 1.721.067.126.141.082h.455l.059-.082.145-.063.063-.063.059-.121.058-.145v-.204l-.058-.122v-.125l-.06-.079-.125-.125-.082-.063h-.451l-.145.063-.126.063-.059.14-.058.064v.125l-.083.141v.059l.083.126.058.145zm1.585 1.848.062.125.142.063h.125l.063.082h.145l.118-.082h.145l.058-.126.126-.062.063-.06v-.144l.082-.126v-.137l-.082-.063v-.125l-.063-.145-.126-.06-.058-.062-.145-.063h-.326l-.125.063-.142.063-.062.059-.063.145-.063.125v.326l.063.145zm1.517 1.972.067.063.118.082.082.06h.392l.063-.06.141-.082.063-.063.059-.063.062-.145.063-.117v-.126l-.063-.082v-.122l-.062-.125-.122-.083-.078-.062-.126-.06h-.063l-.145-.062-.121.063h-.145l-.063.059-.122.145-.059.062-.086.122v.333l.086.138zm1.314 1.969.126.082.082.126h.059l.125.062h.388l.083-.062.121-.063.063-.145.082-.063v-.121l.063-.142v-.058l-.063-.126-.082-.145-.063-.063-.058-.121-.146-.083h-.45l-.063.083-.141.062-.063.06-.063.144-.063.126v.325zm1.255 2.114.059.066.145.083.063.058.117.063.145.063h.063l.126-.063.14-.063.126-.058.063-.083.059-.066.082-.122v-.408l-.082-.063-.059-.121-.125-.063-.063-.082-.141-.063h-.334l-.117.063-.145.082-.063.063-.059.121v.063l-.063.145v.122l.063.141zm1.106 2.18.082.059.126.145.059.063h.14l.063.062h.267l.126-.062.145-.063.062-.082.06-.122.058-.063v-.392l-.059-.141-.059-.063-.062-.121-.083-.083h-.125l-.122-.062h-.27l-.06.062-.14.083-.067.062-.059.122-.082.063-.059.14v.122l.059.146zm1.008 2.173.062.125.06.082.125.122h.078l.122.059h.27l.122-.059h.082l.126-.122.059-.082.066-.125v-.451l-.066-.145-.06-.06-.125-.058-.082-.082h-.122l-.145-.063-.125.063h-.122l-.078.082-.126.059-.059.121-.062.083zm.839 2.302.082.14.063.064.122.062.066.06.138.082h.329l.125-.083.063-.059.141-.062.063-.126v-.137l.063-.063-.063-.145v-.126l-.063-.121-.058-.082-.083-.126-.125-.059h-.447l-.15.06-.058.062-.063.063-.063.145-.082.058zm.737 2.317.063.126v.059l.125.145.063.063.141.062h.33l.121-.062.146-.063.062-.063.06-.082.062-.122v-.388l-.063-.082-.059-.126-.063-.059-.062-.063-.145-.082h-.122l-.078-.063-.126.063h-.121l-.146.082-.062.122-.063.063-.063.145zm.518 2.361.063.145.078.126.063.055.059.082.145.063.125.063h.204l.122-.063.125-.063.141-.137.063-.126.059-.145v-.266l-.059-.063-.063-.122-.14-.145-.126-.063-.122-.058h-.204l-.125.058-.145.063-.06.082-.062.063-.078.122-.063.063zm.408 2.38.063.126.062.141.06.063.062.126.082.058h.122l.125.083h.141l.122-.083.063-.058.145-.063.063-.063.058-.063.063-.14v-.39l-.063-.062-.058-.145-.063-.063-.145-.059-.122-.062h-.33l-.12.062-.083.06-.122.062-.063.145v.122l-.062.145zm.247 2.444v.125l.082.122.063.082.059.126.125.059.083.062h.388l.121-.062.063-.06.145-.066.063-.141v-.059l.063-.125v-.267l-.063-.126-.063-.082-.062-.063-.146-.059-.058-.058-.126-.083h-.145l-.122.083h-.14l-.064.058-.121.06-.063.144v.126l-.082.063zm.145 2.42v.27l.059.059.062.145.146.063.058.063h.514l.083-.063.125-.063.063-.145.082-.059v-.533l-.082-.063-.063-.122-.125-.062-.083-.083h-.514l-.058.083-.146.121-.062.063-.06.145zm-.063 2.443v.149l.063.121v.126l.121.074.063.063.083.063.121.063h.267l.121-.063h.063l.145-.063.063-.137.063-.063.082-.125v-.267l-.082-.145-.063-.063-.063-.122-.062-.058-.146-.083h-.058l-.126-.062h-.145l-.122.062-.14.083-.126.121-.06.122-.062.082zm-.204 2.447v.266l.06.06.062.125.082.082.122.059.062.063h.389l.082-.063.126-.059.058-.082.063-.063.083-.122.062-.145v-.121l-.062-.063v-.141l-.083-.126-.063-.062-.121-.083-.145-.062h-.326l-.125.062-.06.083-.144.062-.063.063-.059.122zm-.33 2.357-.062.145.063.125v.145l.059.06.062.125.146.078.062.063h.451l.141-.063.063-.078.122-.126v-.059l.082-.145v-.27l-.082-.122-.063-.063-.059-.145-.063-.059-.14-.058h-.33l-.122.058h-.125l-.083.142-.062.062-.06.126zm-.533 2.447v.325l.063.145.083.06.058.062.126.063.141.082h.33l.121-.082.063-.063.145-.122v-.082l.059-.125v-.389l-.06-.062-.062-.145-.145-.06-.059-.062h-.125l-.145-.063-.122.063h-.078l-.126.063-.063.059-.14.066-.064.141zm-.658 2.318-.06.121v.126l.06.14v.064l.066.125.138.082.062.06.122.062h.333l.141-.063.126-.059.063-.082.078-.063.063-.125v-.388l-.063-.083-.078-.121-.063-.063-.126-.082-.058-.06h-.416l-.059.06-.125.082-.055.063-.083.062zm-.78 2.298-.08.125v.204l.08.126.062.145.122.117.145.063.121.082h.145l.126-.082h.059l.149-.063.055-.062.062-.118.063-.082.059-.126v-.267l-.059-.062-.063-.145-.062-.06-.138-.125h-.066l-.122-.063h-.267l-.062.063-.145.063-.122.122zm-.926 2.239h-.06v.121l-.081.083.082.121v.145l.059.122.125.126.145.082.122.063h.33l.125-.063.141-.145.059-.122.063-.145v-.325l-.063-.126-.059-.063-.063-.14-.145-.064h-.45l-.142.063-.063.06-.063.081zm-1.13 2.176-.055.118v.333l.055.142.067.062.078.126.126.082h.063l.14.059h.248l.082-.059.126-.082.059-.063.082-.125.059-.142.062-.125v-.063l-.062-.145v-.118l-.267-.266-.141-.063h-.326l-.125.063-.126.059-.078.082zm-1.184 2.11h-.063v.126l-.063.14v.19l.063.144.063.06.082.125.122.062.059.083h.474l.122-.083.063-.125.082-.063.063-.141.062-.126v-.207l-.062-.118-.063-.067-.082-.14-.122-.06-.063-.062h-.474l-.126.062-.055.122zm-1.377 2.036-.062.14v.456l.062.059.06.145.144.062.063.06.126.062h.262l.063-.063.141-.059.063-.062.126-.083v-.121l.082-.126v-.33l-.082-.14-.063-.06-.126-.066-.059-.059-.145-.082h-.262l-.126.082h-.063l-.145.126zm-1.454 1.968-.063.083-.063.121v.27l.063.122v.083l.145.125.055.063.125.059.083.078h.247l.145-.078h.063l.117-.059.086-.126.06-.062.066-.141v-.271l-.067-.063v-.121l-.059-.142-.145-.062-.058-.06-.126-.062h-.27l-.06.063h-.144l-.118.059zm-1.502 1.851-.083.083-.125.243v.208l.062.121.063.145.083.063.125.059.059.082.145.06h.122l.14-.06h.063l.126-.082.059-.059.145-.125v-.083l.063-.121v-.27l-.063-.123-.063-.058-.082-.145-.122-.063-.063-.059H93.7l-.082.059-.122.063zm-1.726 1.785-.059.062-.063.146v.117l-.062.067.062.141v.122l.063.145.059.062.063.06.145.062.121.063h.204l.126-.063.141-.063.063-.059.125-.062v-.145l.083-.122v-.208l-.083-.117v-.146l-.125-.062-.063-.063-.141-.063-.063-.082h-.267l-.121.082-.063.063zm-1.765 1.643-.078.141-.063.063-.063.121v.27l.063.06v.14l.063.126.137.063.063.083h.125l.141.062h.126l.082-.062.122-.083.125-.063.083-.062.062-.126.06-.078v-.247l-.06-.141v-.063l-.062-.145-.145-.06-.063-.062-.122-.063h-.411l-.063.063zm-1.847 1.58-.063.141-.078.06-.063.125-.063.145v.063l.063.121v.145l.141.063.063.122.059.082.125.063h.33l.145-.063.122-.082.082-.06.063-.125.058-.145v-.33l-.058-.125-.063-.059-.082-.14-.122-.063h-.063l-.145-.06h-.121l-.146.06h-.062zm-1.972 1.518-.083.063-.063.082-.058.122v.45l.058.146.146.059.062.062.126.083h.059l.145.062.125-.062h.141l.126-.083.059-.121.059-.063.082-.145v-.326l-.082-.125v-.059l-.118-.145-.063-.063-.145-.063h-.33l-.121.063zm-1.993 1.314-.117.145-.063.063-.082.117v.083l-.063.125.063.122v.145l.082.062.063.126.117.082.083.06h.125l.122.062.145-.063h.063l.121-.059.145-.082.06-.126.066-.062v-.475l-.067-.117-.118-.063-.086-.145h-.121l-.063-.063h-.392zM82.037-32.4l-.263.262v.145l-.062.063v.122l.062.145v.121l.063.063.122.141.078.063h.126l.121.063h.083l.125-.063h.145l.122-.063.063-.14.062-.064.083-.121v-.33l-.083-.145-.062-.121-.122-.063-.063-.078-.145-.063h-.33zm-2.172 1.125-.267.267v.125l-.063.06v.27l.063.14.063.06.062.125.142.063.062.082h.389l.062-.082h.083l.121-.126.126-.062v-.141l.082-.122v-.208l-.082-.121-.063-.126-.063-.082-.121-.06-.083-.062h-.125l-.122-.063-.145.063zm-2.177 1.047-.145.063-.059.082-.125.06v.125l-.063.145v.184l.063.141.062.122.063.063.059.082.145.063.063.058h.266l.122-.058.145-.063.063-.082.059-.126.062-.059v-.14l.083-.122-.083-.063v-.145l-.062-.126-.06-.059-.125-.082-.082-.063-.122-.063h-.266zm-2.298.86-.145.062-.063.063-.063.145-.055.058-.086.126v.27l.086.083v.122l.118.121.063.082.063.06h.14l.126.062.145-.063h.122l.063-.059.145-.082.059-.063.058-.121.063-.141v-.189l-.063-.145-.058-.121-.142-.145-.125-.063-.059-.063zm-2.322.807-.121.059-.063.063-.141.058v.145l-.063.122v.33l.063.125.059.082.082.122.126.059h.058l.145.062h.122l.145-.062.063-.06.121-.062.063-.059.083-.145.062-.063v-.392l-.062-.059-.083-.145-.063-.058-.121-.063-.145-.06zm-2.357.655-.145.059-.125.125-.063.145-.059.06-.082.12v.146l.082.121v.145l.06.063.125.063.062.059.145.063.063.082h.122l.145-.082h.117l.063-.063.145-.122.06-.063.062-.145v-.325l-.063-.122-.059-.082-.062-.126-.146-.062-.054-.06zm-2.384.51-.122.062-.058.083-.145.063-.063.058-.063.145v.33l.063.125v.122l.125.078.083.063.117.063.063.063h.27l.142-.063.063-.063.121-.063.063-.078.078-.122v-.125l.063-.082-.063-.122v-.126l-.078-.145-.063-.058-.121-.063-.063-.083-.141-.062zm-2.357.474h-.145l-.125.063-.122.122-.082.145-.063.117v.334l.063.14.082.064.122.062.062.063.145.082h.326l.125-.082.122-.063.082-.125.063-.083v-.121l.063-.126-.063-.145v-.055l-.063-.125-.082-.082-.063-.122-.121-.063zm-2.447.267h-.122l-.082.063-.125.062-.06.055-.058.145-.082.063v.392l.082.145.18.185.145.062.122.083h.145l.126-.083h.062l.142-.062.062-.126.06-.059.066-.145v-.33l-.067-.125-.059-.145-.062-.055-.142-.062-.062-.063zm-2.44.125-.12.055h-.126l-.083.067-.062.078-.122.126v.063l-.082.14v.271l.082.122.059.063.063.145.145.059h.062l.122.058h.267l.059-.058.145-.06.062-.082.063-.062.059-.126.063-.141v-.27l-.063-.06-.059-.125-.063-.063-.145-.078-.062-.067-.118-.055zm-2.423.055h-.145l-.122.067h-.062l-.267.267v.533l.063.063.063.145.14.059.063.058h.122l.145.063.122-.063h.125l.083-.058.121-.06.063-.082.078-.125v-.475l-.078-.121-.063-.063-.121-.063-.083-.078-.125-.067zm-2.447-.117-.118.062h-.145l-.059.055-.145.067-.062.078-.063.126-.063.063v.266l.063.145v.122l.063.063.145.062.062.083.122.059h.408l.063-.06.125-.082.059-.062.082-.126.063-.141V-26l-.063-.141v-.126l-.082-.063-.122-.145-.062-.055h-.145zm-2.44-.208h-.12l-.146.063h-.063l-.121.082-.063.125-.078.055-.063.145v.33l.063.125.078.145.063.06.121.062.063.063h.412l.125-.063.122-.122.078-.145.063-.125v-.33l-.063-.145-.078-.055-.063-.125-.059-.082h-.125zm-2.423-.33h-.145l-.059.063h-.14l-.126.082-.06.063-.062.122-.082.063v.533l.082.063.122.14.062.064h.145l.118.062h.208l.122-.062.062-.063.145-.083.063-.121.059-.063v-.388l-.059-.082v-.122l-.125-.063-.083-.063-.121-.082zm-2.376-.447h-.27l-.06.06-.125.062-.083.059-.121.062v.146l-.063.058v.393l.063.145.059.062.145.055.063.067.121.078h.27l.06-.078h.145l.18-.184.063-.145v-.451l-.063-.063-.063-.145-.059-.06-.14-.062zm-2.365-.6h-.267l-.078.063h-.126l-.121.063-.083.145-.062.059v.125l-.063.145v.122l.063.121.062.083.083.121.062.063.06.082.125.063h.263l.145-.063h.062l.122-.082.082-.121.063-.063.063-.145v-.389L47-27.847l-.063-.141-.145-.063-.059-.063zm-2.322-.655-.117-.082h-.145l-.122.082h-.126l-.082.063-.063.126-.062.082-.122.243v.141l.063.063v.126l.059.14.125.063.082.063.126.063h.325l.126-.063.141-.063.063-.062.059-.141.062-.126v-.325l-.062-.122-.06-.082-.062-.063-.141-.063zm-2.294-.858h-.392l-.145.058-.059.063-.063.082-.145.06v.12l-.059.146v.184l.06.145.082.126.062.063.122.082.063.059h.145l.121.063.145-.063h.063l.122-.06.078-.144.067-.063.059-.145.062-.126v-.203l-.062-.126-.06-.059-.066-.14-.141-.064zm-2.24-.926-.144-.063h-.247l-.083.063h-.117l-.063.122-.145.082-.063.121v.063l-.059.145.06.122v.145l.062.063.082.121.063.063.125.082.138.06h.184l.145-.06h.126l.062-.082.063-.121.079-.063.062-.145v-.393l-.062-.062-.079-.141-.063-.06zm-2.176-1.047-.125-.082h-.408l-.059.082-.125.063-.083.058-.062.122-.06.145v.33l.06.121.062.082.083.063.125.063.141.063h.326l.125-.063.126-.126.078-.14.063-.063v-.393l-.063-.082-.078-.122-.063-.058zm-2.176-1.192-.126-.063h-.466l-.189.188-.082.063-.059.141v.326l.059.125.082.082.063.122.126.063.058.063h.408l.063-.063h.126l.082-.122.063-.063.058-.145.063-.121v-.141l-.063-.063v-.122l-.058-.145-.063-.063zm-2.032-1.314-.14-.082h-.452l-.145.082-.063.063-.062.121-.063.145-.059.063v.267l.059.121.063.06.062.144.063.063.145.063h.451l.141-.063.063-.063.059-.145.063-.117.062-.063v-.267l-.062-.125-.063-.083-.059-.121zm-2.055-1.392-.058-.063-.122-.063h-.267l-.062.063h-.145l-.063.122-.141.082-.06.122v.474l.06.059.082.125.059.063.125.082.145.06h.185l.145-.06.117-.082.063-.063.083-.062.062-.122.063-.082v-.392l-.063-.06-.062-.144zm-1.91-1.522-.054-.063-.126-.062h-.349l-.247.125-.082.083-.126.247v.349l.063.117.063.063.204.208h.125l.145.063h.06l.144-.063.126-.063.055-.082.145-.063.062-.063v-.117l.063-.145v-.122l-.063-.145v-.063L29.55-37zm-1.76-1.58-.145-.063-.06-.063-.144-.059h-.247l-.083.06-.121.062-.063.063-.145.082v.126l-.063.117v.208l.063.122.082.145.126.121.121.083.145.062h.185l.145-.062.121-.083.083-.058.059-.126.062-.082.063-.122v-.125l-.063-.083v-.117l-.062-.126zm-1.726-1.769-.121-.059-.083-.082h-.513l-.06.082-.144.06-.063.125-.063.058v.145l-.063.126v.059l.063.145.063.125.063.063.062.141.142.06h.45l.146-.06.062-.058.06-.146.062-.062.082-.126v-.33l-.082-.14zm-1.643-1.784-.141-.06-.063-.066-.121-.078h-.33l-.145.078-.063.067-.117.059-.063.121v.083l-.082.125v.145l.082.122v.125l.121.083.06.058.062.06.145.062h.33l.121-.063.145-.059.06-.058.062-.145.059-.063v-.392l-.06-.083zm-1.518-1.91-.125-.063-.082-.059-.118-.082-.126-.063h-.082l-.122.063h-.125l-.267.267-.062.145v.33l.062.12.063.063.059.142.145.062.063.06h.392l.059-.06.14-.062.064-.083.062-.121.063-.06v-.144l.082-.126-.082-.121v-.083zm-1.439-1.969-.078-.145-.122-.063-.063-.058h-.411l-.063.058h-.126l-.058.126-.142.082v.122l-.062.145v.184l.062.145.06.06v.066l.082.059.058.058.126.083h.145l.122.063.062-.063h.145l.122-.083.063-.058.078-.126.067-.059.059-.145v-.266l-.06-.063zm-1.247-2.055-.082-.121-.126-.06-.063-.081-.145-.063h-.325l-.122.063-.145.082-.063.118-.058.062-.063.145v.185l.063.145v.125l.058.122.146.078.062.067h.122l.145.059h.122l.058-.06h.145l.126-.066.063-.14.082-.06.059-.125v-.33zm-1.192-2.172-.063-.063-.082-.122-.126-.082h-.059l-.145-.063h-.243l-.082.063-.126.082-.058.06-.083.125-.063.058-.062.146v.121l.062.145v.063l.063.122.141.082.063.125h.145l.063.063h.263l.121-.063.063-.062.145-.063.063-.141.063-.126v-.33zm-.984-2.177-.083-.121-.125-.063-.063-.145h-.141l-.06-.063h-.27l-.121.063-.063.062-.145.083-.059.063-.063.121v.47l.063.126.059.06.145.081.063.063.121.063h.27l.142-.063.059-.063.125-.082.063-.122.083-.062zm-.926-2.298-.063-.063-.082-.145-.059-.063-.125-.058-.146-.063h-.18l-.145.063h-.125l-.06.121-.144.145-.063.122v.388l.063.082.062.126.142.063.062.059.126.082h.204l.14-.082h.126l.063-.122.141-.063.063-.063zm-.737-2.302-.063-.141-.125-.126-.142-.058-.125-.083-.063-.063h-.141l-.126.063h-.117l-.27.267v.141l-.06.126v.121l.06.082v.126l.062.122.125.082.083.063.117.062h.33l.125-.062.142-.063.062-.082.063-.122.063-.063zm-.577-2.376-.082-.126-.063-.082-.18-.189h-.083l-.125-.058h-.267l-.125.058-.083.067-.121.059-.063.063v.145l-.063.121v.27l.063.056.063.145.059.063.062.059.145.066.126.079h.267l.062-.079.146-.066.054-.06.063-.125.063-.082.082-.122zm-.47-2.385-.063-.125-.063-.06-.059-.144-.082-.06-.126-.066-.062-.055h-.267l-.141.055-.063.067-.121.059-.063.082-.083.122-.062.062v.267l.062.145v.063l.146.121.062.06.06.082.14.062h.247l.145-.062h.063l.267-.263.063-.145zm-.33-2.42v-.062l-.063-.145-.062-.122-.083-.082-.121-.063-.063-.063h-.388l-.145.063-.06.063-.062.082-.063.122-.082.145v.325l.082.126.063.059.063.145.059.062h.145l.125.063h.122l.141-.063h.063l.121-.062.083-.145.062-.06.063-.125zm-.125-2.443v-.066l-.083-.142-.062-.125-.06-.063-.062-.078-.141-.06H14.2l-.125-.062-.145.063h-.06l-.125.059-.082.14-.063.064-.062.145-.06.059v.125l.06.145v.126l.062.059.063.145.145.058.063.063h.388l.141-.063.063-.058.063-.083.121-.062v-.122l.083-.145zm0-2.38v-.247l-.083-.145-.062-.063-.122-.059-.063-.063-.14-.082h-.268l-.062.082h-.122l-.063.122-.145.063-.062.062v.53l.062.063.063.145.082.062.126.06h.121l.146.062h.121l.063-.063.141-.059.063-.062.121-.083v-.125l.083-.059zm.188-2.424v-.145l-.063-.121v-.146L14.792-72l-.145-.063-.062-.063-.122-.059h-.325l-.146.06-.121.062-.063.063-.063.145-.082.063v.388l.082.063.063.145.063.058.121.06.146.062h.325l.122-.063.062-.059.145-.058.063-.145v-.063zm.267-2.443.062-.145-.062-.122v-.062l-.063-.142-.122-.062-.082-.063-.126-.063-.062-.063h-.145l-.122.063h-.141l-.063.063-.121.063-.063.145-.083.121v.326l.083.125.063.083.062.121.06.063.14.082h.33l.125-.082.145-.063.122-.121.063-.145zm.47-2.38.06-.122v-.145l-.06-.063-.082-.125-.063-.063-.063-.141-.117-.06h-.475l-.125.06-.083.059-.062.082-.122.25v.205l.063.141v.126l.204.203h.062l.126.063h.412l.063-.063.117-.082.063-.121.082-.06zm.66-2.361v-.33l-.083-.145-.063-.059-.063-.125-.121-.082h-.145l-.063-.06h-.122l-.145.06h-.117l-.063.082-.083.125-.125.06v.144l-.063.122v.145l.063.063.063.121.062.145.083.063.063.059.117.063h.392l.083-.063.121-.059.063-.063.063-.145zm.717-2.322.063-.121v-.204l-.126-.247-.063-.083-.14-.063-.064-.062h-.533l-.063.062-.062.146-.142.058v.126l-.062.145v.18l.062.146.083.121.059.063.125.063.063.082h.408l.125-.082.059-.063.082-.063.063-.059zm.921-2.235.063-.122v-.27l-.063-.063-.058-.145-.083-.059-.063-.126-.125-.054h-.47l-.122.054-.063.063-.063.122-.082.082v.063l-.059.063v.27l.059.122.082.063.063.14.063.06.121.062h.145l.06.083.125-.083h.14l.126-.062.063-.06.083-.058zM19-85.508l.063-.062v-.267L19-85.958v-.083l-.184-.184-.082-.063-.126-.082h-.384l-.063.082-.145.063-.063.063-.058.121-.083.141v.267l.083.063v.125l.058.083.126.121.082.063h.122l.121.063h.145l.06-.063.125-.063.145-.059.063-.062zm1.13-2.113.063-.063.062-.122v-.266l-.062-.122-.063-.082-.059-.063-.145-.125h-.063l-.121-.083h-.267l-.082.083-.122.062-.063.063-.145.063v.137l-.063.126v.266l.063.063.083.145.062.063.122.063.063.058.14.063h.122l.145-.063h.063l.126-.058.082-.063zm1.314-2.032.058-.145.063-.063v-.262l-.063-.126-.058-.059-.06-.145-.066-.062-.141-.063-.122-.063h-.207l-.122.063-.145.063-.063.062-.063.083-.058.121-.083.126v.2l.083.125.058.145.126.122.145.082.122.063h.207l.122-.063h.141l.067-.145zm1.458-1.972.06-.145v-.06l.062-.125v-.145l-.063-.117-.059-.083-.082-.125-.063-.063-.125-.059-.082-.082h-.385l-.063.082-.125.059-.082.063-.063.125-.059.141v.33l.059.121.063.083.145.125.062.06h.122l.141.062.126-.063h.059l.145-.059.062-.063zm1.495-1.906.082-.086.063-.122v-.388l-.063-.083-.082-.121-.06-.063-.12-.063-.083-.082h-.392l-.063.082-.122.063-.082.063-.063.059-.059.145v.325l.06.126.062.145.082.059.063.062.122.063h.33l.144-.063.122-.062zm1.666-1.788.063-.142.063-.125v-.451l-.063-.082-.063-.122-.145-.063-.121-.082h-.33l-.145.082-.059.063-.121.059-.083.063-.062.14v.33l.062.126v.14l.142.064.062.062.126.063h.137l.063.059.125-.059h.145l.122-.063zm1.702-1.722.063-.063.063-.121.082-.145v-.33l-.082-.125-.063-.063-.063-.137-.121-.063h-.47l-.126.063-.083.055-.121.082-.063.125v.063l-.063.145.063.122v.145l.063.121.059.063.062.063.145.078.063.063h.388l.083-.063zm1.847-1.584.063-.122.063-.063.059-.145v-.121l.082-.142-.082-.062v-.122l-.06-.145-.125-.063-.062-.062-.145-.06h-.326l-.121.06-.146.062-.062.063-.06.145-.062.122v.325l.063.145.121.122.146.063.062.082.122.063h.145l.118-.063h.062zm1.91-1.495.122-.145.063-.062.082-.146v-.329l-.082-.122-.063-.058-.059-.145-.063-.063-.145-.059h-.325l-.247.122-.145.145-.063.117-.059.145v.063l.059.126v.14l.063.126.062.063.145.082.06.055h.125l.145.063.117-.063h.146zm2.032-1.4.062-.121.083-.083.063-.125.058-.063v-.263l-.058-.121-.063-.082-.083-.126-.062-.063-.122-.062h-.141l-.063-.083-.121.083h-.145l-.126.062-.059.063-.063.126-.082.082-.063.121v.204l.063.122.082.125.063.083.059.121h.126l.145.063h.184l.141-.063zm2.055-1.313.121-.063.063-.082.082-.118.063-.126v-.204l-.063-.125v-.145l-.145-.063-.063-.121-.121-.083h-.47l-.063.083-.146.062-.058.06-.063.125-.063.145v.33l.063.12.204.205h.063l.125.062h.326zm2.172-1.189.063-.062.125-.06.063-.144v-.063l.083-.122v-.145l-.083-.125v-.145l-.125-.055-.126-.126-.14-.062h-.326l-.126.062-.145.06-.059.066-.063.137-.062.063v.392l.062.063.063.145.059.059.145.062.126.06h.325zm2.161-1.047.079-.062.125-.083.063-.059.078-.125v-.475l-.078-.117-.063-.067-.125-.078-.079-.063h-.125l-.126-.063-.145.063h-.059l-.125.063-.138.078-.062.122-.063.062v.475l.063.125.2.204h.062l.122.06h.27zm2.251-.921.126-.067.062-.078.063-.063.082-.126.06-.058v-.412l-.06-.059-.082-.126-.125-.086-.06-.055-.144-.062h-.247l-.083.062h-.121l-.267.267v.141l-.063.122.063.125v.141l.059.063.063.126.082.078.125.067.142.055h.184zm2.302-.804.122-.059.062-.067.083-.059.063-.14.062-.063.063-.126v-.141l-.063-.126-.062-.145-.063-.059-.083-.062-.121-.06-.063-.066h-.388l-.082.067-.122.059-.063.062-.063.142-.082.062v.393l.082.062.063.141.063.06.122.066.145.059zm2.361-.718h.082l.126-.063.063-.062.058-.142.087-.062v-.126l.055-.141-.055-.122v-.145l-.087-.062-.121-.122-.063-.082-.145-.063h-.33l-.121.063-.141.082-.067.063-.059.121-.059.063v.412l.06.121.058.06.067.082.078.062.122.063.145.063h.125zm2.322-.533.243-.122.082-.063.063-.082.125-.247v-.208l-.062-.121-.063-.142-.063-.062-.082-.06-.126-.062-.059-.086h-.262l-.126.086-.145.063-.121.121-.063.142-.083.121v.208l.083.122.063.125.062.082.06.063.144.059.126.063zm2.42-.451h.144l.063-.063.122-.082.082-.126.063-.063.063-.14v-.244l-.063-.086v-.122l-.267-.266h-.125l-.145-.063h-.122l-.141.063-.067.058-.118.063-.082.083-.063.125-.062.059v.27l.062.142v.058l.063.126.141.063.06.082.144.063zm2.446-.334h.06l.14-.058.126-.083.059-.059.086-.121.059-.15v-.329l-.059-.121-.086-.063-.06-.141-.125-.063h-.14l-.06-.059h-.125l-.145.06-.122.062-.063.059-.145.082-.062.063v.121l-.06.146v.125l.06.145v.063l.125.121.082.06.063.082.122.058zm2.44-.2h.062l.122-.062.145-.06.063-.062.063-.086.058-.122v-.392l-.058-.082v-.122l-.126-.059-.063-.062-.14-.083-.126-.059h-.063l-.145.06h-.122l-.141.082-.063.062-.059.122-.062.141v.33l.062.125.06.059.062.149.082.059.118.062zm2.423-.062h.145l.06-.06.14-.062.063-.086.063-.059.063-.125.058-.146v-.184l-.058-.141-.063-.122-.063-.062-.063-.083-.14-.059-.122-.062h-.208l-.122.062-.145.06-.063.082-.059.121-.062.063-.083.141v.247l.083.083.062.125.06.059.062.086.145.063.122.059zm0 0" transform="matrix(.99607 0 0 -.99607 0 .09)"/><g clip-path="url(#B)"><path style="fill:none;stroke-width:1.646;stroke-linecap:round;stroke-linejoin:round;stroke:#000;stroke-opacity:1;stroke-miterlimit:10" d="m115.622-3.07 1.436 1.702M99.755-2.615l1.373 1.784M83.414-2.886l1.376 1.788M67.817-2.615l1.494 1.784m46.17-18.393 1.514 1.726m-16.973-.93 1.376 1.648m-17.714-1.973 1.518 1.765m-17.055-1.64 1.372 1.722m46.044-18.33 1.495 1.663m-17.036-.863 1.376 1.769m14.35-18.048 1.517 1.706M2.004-132.352l1.58 1.706m14.432-1.91 1.58 1.726m14.37-1.992 1.58 1.725m14.412-1.584 1.455 1.85M2.004-116.542l1.459 1.784m14.102-2.565 1.435 1.64m14.883-1.64 1.392 1.702m14.29-1.847 1.522 1.784M1.82-100.53l1.439 1.659m14.306-2.377L19-99.547M1.82-85.115l1.521 1.662m113.862-49.103-1.455 1.726m-14.742-1.914-1.58 1.647M85.12-132.68l-1.498 1.85m-14.82-1.725-1.522 1.726m49.86 14.345-1.455 1.726m-14.883-2.298-1.455 1.702m-14.412-1.58-1.459 1.788m-14.737-1.91-1.522 1.702m49.84 14.76-1.494 1.723m-14.882-1.993-1.46 1.647m17.719 15.165-1.584 1.77m2.502 14.76h-2.173m-112.614.204L.835-67.44m.722 65.805 1.455-1.702m14.8 1.969L19.33-3.07m14.369 1.643 1.498-1.706m14.824 1.58 1.455-1.721M1.675-17.764l1.458-1.726m14.82 1.992 1.522-1.726m14.408 2.114 1.455-1.702m14.824 1.577 1.435-1.722M1.882-33.447l1.46-1.706m14.82 1.968 1.435-1.721M1.94-49.996 3.463-51.7" transform="matrix(.99607 0 0 -.99607 0 .09)"/></g><g style="fill:#000;fill-opacity:1"><use xlink:href="#b" x="195.43" y="9.446"/><use xlink:href="#c" x="200.755" y="9.446"/></g><use xlink:href="#d" x="205.085" y="9.446" style="fill:#000;fill-opacity:1"/><g style="fill:#000;fill-opacity:1"><use xlink:href="#e" x="195.43" y="20.017"/><use xlink:href="#f" x="199.297" y="20.017"/><use xlink:href="#e" x="201.715" y="20.017"/></g><use xlink:href="#g" x="205.687" y="20.017" style="fill:#000;fill-opacity:1"/><g style="fill:#000;fill-opacity:1"><use xlink:href="#e" x="212.382" y="20.017"/><use xlink:href="#h" x="216.249" y="20.017"/></g><use xlink:href="#i" x="220.701" y="20.017" style="fill:#000;fill-opacity:1"/><path style="fill-rule:nonzero;fill:#000;fill-opacity:1;stroke-width:.066;stroke-linecap:round;stroke-linejoin:round;stroke:#000;stroke-opacity:1;stroke-miterlimit:10" d="m209.687 21.196 4.29 13.957.063.145-.208.204h-.247l-.082-.082-.059-.122-4.212-13.98-.059-.122.06-.063.066-.058.059-.083h.208l.121.083zm5.483 13.055-.596 3.612-2.565-2.71zm0 0" transform="translate(0 .09) scale(.99607)"/><g style="fill:#000;fill-opacity:1"><use xlink:href="#j" x="199.683" y="107.058"/><use xlink:href="#k" x="204.536" y="107.058"/><use xlink:href="#e" x="208.901" y="107.058"/></g><g style="fill:#000;fill-opacity:1"><use xlink:href="#l" x="212.742" y="107.058"/><use xlink:href="#m" x="216.609" y="107.058"/></g><g style="fill:#000;fill-opacity:1"><use xlink:href="#e" x="199.683" y="117.546"/><use xlink:href="#f" x="203.55" y="117.546"/><use xlink:href="#e" x="205.968" y="117.546"/></g><use xlink:href="#g" x="209.957" y="117.546" style="fill:#000;fill-opacity:1"/><g style="fill:#000;fill-opacity:1"><use xlink:href="#e" x="216.635" y="117.546"/><use xlink:href="#h" x="220.502" y="117.546"/></g><use xlink:href="#i" x="224.971" y="117.546" style="fill:#000;fill-opacity:1"/><path style="fill-rule:nonzero;fill:#000;fill-opacity:1;stroke-width:.066;stroke-linecap:round;stroke-linejoin:round;stroke:#000;stroke-opacity:1;stroke-miterlimit:10" d="m206.26 98.214 13.055-25.166.059-.062.062-.063h.208l.06.063.062.121v.204l-13.032 25.17-.067.062-.058.082h-.145l-.063-.082-.141-.063zm11.537-25.291 2.953-2.177v3.695zm-35.165-29.989v37.895l-.083.059-.062.062h-.263l-.063-.062-.063-.06v-38.02l.063-.058.063-.083h.263l.062.083.083.058zm-1.91.533 1.647-3.302 1.64 3.302zm3.286 36.7-1.64 3.286-1.646-3.287zm0 0" transform="translate(0 .09) scale(.99607)"/><g style="fill:#000;fill-opacity:1"><use xlink:href="#n" x="125.535" y="12.206"/><use xlink:href="#f" x="131.349" y="12.206"/></g><g style="fill:#000;fill-opacity:1"><use xlink:href="#l" x="133.801" y="12.206"/><use xlink:href="#h" x="137.668" y="12.206"/></g><g style="fill:#000;fill-opacity:1"><use xlink:href="#o" x="142.068" y="12.206"/><use xlink:href="#p" x="146.432" y="12.206"/></g><g style="fill:#000;fill-opacity:1"><use xlink:href="#k" x="148.65" y="12.206"/><use xlink:href="#c" x="153.014" y="12.206"/></g><g style="fill:#000;fill-opacity:1"><use xlink:href="#f" x="157.414" y="12.206"/><use xlink:href="#p" x="159.831" y="12.206"/></g><g style="fill:#000;fill-opacity:1"><use xlink:href="#e" x="164.24" y="12.206"/><use xlink:href="#m" x="168.107" y="12.206"/></g><use xlink:href="#q" x="125.535" y="22.716" style="fill:#000;fill-opacity:1"/><use xlink:href="#c" x="129.926" y="22.716" style="fill:#000;fill-opacity:1"/><use xlink:href="#r" x="134.316" y="22.716" style="fill:#000;fill-opacity:1"/><use xlink:href="#h" x="138.707" y="22.716" style="fill:#000;fill-opacity:1"/><use xlink:href="#p" x="143.098" y="22.716" style="fill:#000;fill-opacity:1"/><use xlink:href="#l" x="147.489" y="22.716" style="fill:#000;fill-opacity:1"/><use xlink:href="#m" x="151.382" y="22.716" style="fill:#000;fill-opacity:1"/><use xlink:href="#s" x="154.201" y="22.716" style="fill:#000;fill-opacity:1"/><use xlink:href="#t" x="127.435" y="121.882" style="fill:#000;fill-opacity:1"/><use xlink:href="#m" x="132.332" y="121.882" style="fill:#000;fill-opacity:1"/><use xlink:href="#u" x="135.283" y="121.882" style="fill:#000;fill-opacity:1"/><use xlink:href="#v" x="137.744" y="121.882" style="fill:#000;fill-opacity:1"/><use xlink:href="#i" x="141.655" y="121.882" style="fill:#000;fill-opacity:1"/><use xlink:href="#u" x="144.117" y="121.882" style="fill:#000;fill-opacity:1"/><use xlink:href="#c" x="146.578" y="121.882" style="fill:#000;fill-opacity:1"/><use xlink:href="#h" x="150.986" y="121.882" style="fill:#000;fill-opacity:1"/><g style="fill:#000;fill-opacity:1"><use xlink:href="#e" x="127.435" y="132.393"/><use xlink:href="#f" x="131.302" y="132.393"/><use xlink:href="#e" x="133.72" y="132.393"/></g><use xlink:href="#g" x="137.709" y="132.393" style="fill:#000;fill-opacity:1"/><g style="fill:#000;fill-opacity:1"><use xlink:href="#e" x="144.387" y="132.393"/><use xlink:href="#h" x="148.254" y="132.393"/></g><use xlink:href="#i" x="152.715" y="132.393" style="fill:#000;fill-opacity:1"/><path style="fill-rule:nonzero;fill:#000;fill-opacity:1;stroke-width:.066;stroke-linecap:round;stroke-linejoin:round;stroke:#000;stroke-opacity:1;stroke-miterlimit:10" d="m130.383 111.598-9.423-7.635-.063-.083-.082-.062.082-.122v-.063l.125-.145h.204l.063.063 9.424 7.592.059.126v.267l-.142.062-.062.063h-.122zm-9.894-6.2-1.502-3.345 3.616.78zm0 0" transform="translate(0 .09) scale(.99607)"/><g clip-path="url(#C)"><path style="fill-rule:nonzero;fill:#000;fill-opacity:1;stroke-width:.066;stroke-linecap:round;stroke-linejoin:round;stroke:#000;stroke-opacity:1;stroke-miterlimit:10" d="M123.587-16.576 99.16-40.961l-.063-.063-.145-.063-.055.063-.125.063-.082.058v.208l.082.063L123.2-16.188l.059.063h.27l.06-.063.062-.063v-.267zm-23.051-24.981-3.49-1.193 1.192 3.49zm0 0" transform="matrix(.99607 0 0 -.99607 0 .09)"/></g><g clip-path="url(#D)"><path style="fill:none;stroke-width:1.251;stroke-linecap:round;stroke-linejoin:round;stroke:#000;stroke-opacity:1;stroke-miterlimit:10" d="M188.157-38.255H231.9v-44.868h-43.742zm0 0" transform="matrix(.99607 0 0 -.99607 0 .09)"/></g><path style="fill:none;stroke-width:.395;stroke-linecap:round;stroke-linejoin:round;stroke:#000;stroke-opacity:1;stroke-miterlimit:10" d="M188.298 38.663 231.9 83.39m-44.012-.267L231.9 38.255" transform="translate(0 .09) scale(.99607)"/><path style="stroke:none;fill-rule:evenodd;fill:#fff;fill-opacity:1" d="M230.781 36.11h-.265l-.207.062h-.18l-.207.062-.184.118-.203.144-.328.266-.266.265-.062.188-.14.2-.063.187-.063.203v.86l.063.265.062.183.14.14.063.184.266.333.328.265.203.145.184.058.207.059.18.062h.207l.265.063.207-.063h.246l.203-.062.204-.059.183-.058.207-.145.324-.265.266-.333.063-.183.125-.14.082-.184.058-.266v-.86l-.058-.202-.082-.188-.125-.2-.063-.187-.266-.265-.324-.266-.207-.144-.183-.118-.203-.062h-.204l-.246-.063h-.207"/><g clip-path="url(#E)"><path style="fill:none;stroke-width:.395;stroke-linecap:round;stroke-linejoin:round;stroke:#000;stroke-opacity:1;stroke-miterlimit:10" d="M231.692-36.161h-.267l-.208-.063h-.18l-.208-.063-.185-.117-.203-.145-.33-.267-.267-.267-.062-.188-.141-.2-.063-.188-.063-.204v-.863l.063-.267.063-.184.14-.141.063-.184.267-.334.33-.267.203-.145.185-.058.208-.06.18-.066h.208l.267-.059.207.06h.247l.204.066.204.059.185.058.208.145.325.267.267.334.062.184.126.141.082.184.06.267v.863l-.06.204-.082.188-.126.2-.062.188-.267.267-.325.267-.208.145-.185.117-.204.063h-.204l-.247.063h-.207" transform="matrix(.99607 0 0 -.99607 0 .09)"/></g><path style="fill-rule:evenodd;fill:#fff;fill-opacity:1;stroke-width:.395;stroke-linecap:round;stroke-linejoin:round;stroke:#000;stroke-opacity:1;stroke-miterlimit:10" d="M188.216 36.224h-.247l-.204.063h-.208l-.18.059-.208.14-.204.063-.333.267-.24.33-.145.188-.125.408-.082.184-.06.204v.45l.06.209.082.204.063.184.062.208.145.117.24.334.333.267.204.145.208.058.18.06.208.066h.204l.247.059.2-.06h.208l.188-.066.204-.059.188-.058.2-.145.33-.267.266-.334.126-.117.082-.208.063-.184.122-.412v-.451l-.063-.204-.059-.184-.063-.208-.082-.2-.126-.188-.266-.33-.33-.267-.2-.062-.188-.141-.204-.06h-.188l-.208-.062h-.2m.267 44.479h-.185l-.266.063h-.208l-.204.063-.18.121-.208.083-.33.243-.121.208-.15.121-.12.208-.064.208-.054.18-.083.208v.204l-.063.185.063.266v.204l.083.185.117.415.122.122.149.204.121.121.33.267.208.125.18.083.412.121h.266l.185.063.266-.063h.204l.189-.058.204-.063.203-.083.185-.125.33-.267.144-.121.122-.204.121-.126.083-.204.125-.207v-.185l.06-.204v-.45l-.06-.205v-.207l-.125-.18-.083-.209-.121-.208-.122-.121-.145-.208-.33-.243-.184-.083-.203-.121-.204-.063h-.189l-.204-.063h-.266" transform="translate(0 .09) scale(.99607)"/><g clip-path="url(#F)"><path style="stroke:none;fill-rule:evenodd;fill:#fff;fill-opacity:1" d="M230.844 80.66h-.203l-.25.063h-.2l-.207.144-.183.059-.207.12-.324.27-.266.266-.059.207-.125.18-.082.207-.062.203v.836l.062.207.082.207.125.183.059.141.266.328.324.266.207.121.183.062.207.063.2.078h.25l.203.063.207-.063h.265l.18-.078.207-.063.184-.062.203-.121.328-.266.266-.328.062-.14.145-.184.12-.414v-.836l-.12-.41-.145-.18-.062-.207-.266-.266-.328-.27-.203-.12-.184-.059-.207-.144h-.18l-.265-.063h-.207"/></g><g clip-path="url(#G)"><path style="fill:none;stroke-width:.395;stroke-linecap:round;stroke-linejoin:round;stroke:#000;stroke-opacity:1;stroke-miterlimit:10" d="M231.754-80.888h-.204l-.25-.062h-.2l-.208-.146-.185-.058-.208-.122-.325-.27-.267-.267-.063-.208-.121-.18-.082-.208-.063-.204v-.84l.063-.207.082-.208.121-.185.063-.14.267-.33.325-.267.208-.121.185-.063.207-.063.2-.078h.251l.204-.063.208.063h.267l.18.078.208.063.184.063.204.121.33.267.266.33.063.14.145.185.122.415v.84l-.122.411-.145.18-.063.209-.266.266-.33.271-.204.122-.184.058-.208.146h-.18l-.267.062h-.208" transform="matrix(.99607 0 0 -.99607 0 .09)"/></g><g clip-path="url(#H)"><path style="fill:none;stroke-width:1.251;stroke-linecap:round;stroke-linejoin:round;stroke:#000;stroke-opacity:1;stroke-miterlimit:10" d="M188.157-38.255H231.9v-44.868h-43.742zm0 0" transform="matrix(.99607 0 0 -.99607 0 .09)"/></g><path style="fill:none;stroke-width:.395;stroke-linecap:round;stroke-linejoin:round;stroke:#000;stroke-opacity:1;stroke-miterlimit:10" d="M188.298 38.663 231.9 83.39m-44.012-.267L231.9 38.255" transform="translate(0 .09) scale(.99607)"/><path style="stroke:none;fill-rule:evenodd;fill:#fff;fill-opacity:1" d="M230.781 36.11h-.265l-.207.062h-.18l-.207.062-.184.118-.203.144-.328.266-.266.265-.062.188-.14.2-.063.187-.063.203v.86l.063.265.062.183.14.14.063.184.266.333.328.265.203.145.184.058.207.059.18.062h.207l.265.063.207-.063h.246l.203-.062.204-.059.183-.058.207-.145.324-.265.266-.333.063-.183.125-.14.082-.184.058-.266v-.86l-.058-.202-.082-.188-.125-.2-.063-.187-.266-.265-.324-.266-.207-.144-.183-.118-.203-.062h-.204l-.246-.063h-.207"/><g clip-path="url(#I)"><path style="fill:none;stroke-width:.395;stroke-linecap:round;stroke-linejoin:round;stroke:#000;stroke-opacity:1;stroke-miterlimit:10" d="M231.692-36.161h-.267l-.208-.063h-.18l-.208-.063-.185-.117-.203-.145-.33-.267-.267-.267-.062-.188-.141-.2-.063-.188-.063-.204v-.863l.063-.267.063-.184.14-.141.063-.184.267-.334.33-.267.203-.145.185-.058.208-.06.18-.066h.208l.267-.059.207.06h.247l.204.066.204.059.185.058.208.145.325.267.267.334.062.184.126.141.082.184.06.267v.863l-.06.204-.082.188-.126.2-.062.188-.267.267-.325.267-.208.145-.185.117-.204.063h-.204l-.247.063h-.207" transform="matrix(.99607 0 0 -.99607 0 .09)"/></g><path style="fill-rule:evenodd;fill:#fff;fill-opacity:1;stroke-width:.395;stroke-linecap:round;stroke-linejoin:round;stroke:#000;stroke-opacity:1;stroke-miterlimit:10" d="M188.216 36.224h-.247l-.204.063h-.208l-.18.059-.208.14-.204.063-.333.267-.24.33-.145.188-.125.408-.082.184-.06.204v.45l.06.209.082.204.063.184.062.208.145.117.24.334.333.267.204.145.208.058.18.06.208.066h.204l.247.059.2-.06h.208l.188-.066.204-.059.188-.058.2-.145.33-.267.266-.334.126-.117.082-.208.063-.184.122-.412v-.451l-.063-.204-.059-.184-.063-.208-.082-.2-.126-.188-.266-.33-.33-.267-.2-.062-.188-.141-.204-.06h-.188l-.208-.062h-.2m.267 44.479h-.185l-.266.063h-.208l-.204.063-.18.121-.208.083-.33.243-.121.208-.15.121-.12.208-.064.208-.054.18-.083.208v.204l-.063.185.063.266v.204l.083.185.117.415.122.122.149.204.121.121.33.267.208.125.18.083.412.121h.266l.185.063.266-.063h.204l.189-.058.204-.063.203-.083.185-.125.33-.267.144-.121.122-.204.121-.126.083-.204.125-.207v-.185l.06-.204v-.45l-.06-.205v-.207l-.125-.18-.083-.209-.121-.208-.122-.121-.145-.208-.33-.243-.184-.083-.203-.121-.204-.063h-.189l-.204-.063h-.266" transform="translate(0 .09) scale(.99607)"/><g clip-path="url(#J)"><path style="stroke:none;fill-rule:evenodd;fill:#fff;fill-opacity:1" d="M230.844 80.66h-.203l-.25.063h-.2l-.207.144-.183.059-.207.12-.324.27-.266.266-.059.207-.125.18-.082.207-.062.203v.836l.062.207.082.207.125.183.059.141.266.328.324.266.207.121.183.062.207.063.2.078h.25l.203.063.207-.063h.265l.18-.078.207-.063.184-.062.203-.121.328-.266.266-.328.062-.14.145-.184.12-.414v-.836l-.12-.41-.145-.18-.062-.207-.266-.266-.328-.27-.203-.12-.184-.059-.207-.144h-.18l-.265-.063h-.207"/></g><g clip-path="url(#K)"><path style="fill:none;stroke-width:.395;stroke-linecap:round;stroke-linejoin:round;stroke:#000;stroke-opacity:1;stroke-miterlimit:10" d="M231.754-80.888h-.204l-.25-.062h-.2l-.208-.146-.185-.058-.208-.122-.325-.27-.267-.267-.063-.208-.121-.18-.082-.208-.063-.204v-.84l.063-.207.082-.208.121-.185.063-.14.267-.33.325-.267.208-.121.185-.063.207-.063.2-.078h.251l.204-.063.208.063h.267l.18.078.208.063.184.063.204.121.33.267.266.33.063.14.145.185.122.415v.84l-.122.411-.145.18-.063.209-.266.266-.33.271-.204.122-.184.058-.208.146h-.18l-.267.062h-.208" transform="matrix(.99607 0 0 -.99607 0 .09)"/></g><use xlink:href="#L" x="173.563" y="67.54" style="fill:#000;fill-opacity:1"/></svg>