<svg id="visual" viewBox="0 0 960 540" width="960" height="540" xmlns="http://www.w3.org/2000/svg" xmlns:xlink="http://www.w3.org/1999/xlink" version="1.1"><path d="M0 135L137 137L274 137L411 126L549 140L686 135L823 123L960 126L960 0L823 0L686 0L549 0L411 0L274 0L137 0L0 0Z" fill="#c2dedc"></path><path d="M0 105L137 113L274 97L411 98L549 114L686 108L823 107L960 108L960 0L823 0L686 0L549 0L411 0L274 0L137 0L0 0Z" fill="#8cb6b8"></path><path d="M0 82L137 73L274 88L411 84L549 80L686 74L823 76L960 82L960 0L823 0L686 0L549 0L411 0L274 0L137 0L0 0Z" fill="#569098"></path><path d="M0 51L137 51L274 49L411 56L549 58L686 52L823 57L960 55L960 0L823 0L686 0L549 0L411 0L274 0L137 0L0 0Z" fill="#116a7b"></path></svg>