<svg xmlns="http://www.w3.org/2000/svg" xmlns:xlink="http://www.w3.org/1999/xlink" width="1161.249" height="434.002" viewBox="0 0 870.937 325.501" version="1.2"><defs><clipPath id="a"><path d="M0 0h26v26H0z"/></clipPath><clipPath id="l"><path d="M0 0h18v22H0z"/></clipPath><clipPath id="y"><path d="M607 81h263.238v182H607zm0 0"/></clipPath><clipPath id="z"><path d="M332.723 161.54h34.562v41.472h-34.562zm0 0"/></clipPath><clipPath id="s"><path d="M.723 9H27v25H.723zm0 0"/></clipPath><clipPath id="r"><path d="M0 0h36v43H0z"/></clipPath><clipPath id="u"><path d="M0 0h37v27H0z"/></clipPath><clipPath id="B"><path d="M619.598 33.121h22.863v24.992h-22.863zm0 0"/></clipPath><clipPath id="o"><path d="M0 0h24v26H0z"/></clipPath><clipPath id="v"><path d="M.36 5H13v16H.36zm0 0"/></clipPath><clipPath id="m"><path d="M.281 6H11v11H.281zm0 0"/></clipPath><clipPath id="x"><path d="M.633 130H191v195H.633zm0 0"/></clipPath><clipPath id="L"><path d="M209.36 85.762h36.421v25.258H209.36zm0 0"/></clipPath><clipPath id="F"><path d="M52.227 12.918h27.652v25.258H52.227zm0 0"/></clipPath><clipPath id="e"><path d="M.227 5H13v17H.227zm0 0"/></clipPath><clipPath id="d"><path d="M0 0h28v27H0z"/></clipPath><clipPath id="h"><path d="M0 0h37v26H0z"/></clipPath><clipPath id="H"><path d="M172.137 46.152h24.988v25.254h-24.988zm0 0"/></clipPath><clipPath id="b"><path d="M.137 5H18v16H.137zm0 0"/></clipPath><clipPath id="D"><path d="M769.281 101.715h17.016v20.738H769.28zm0 0"/></clipPath><clipPath id="i"><path d="M.02 4H13v17H.02zm0 0"/></clipPath><clipPath id="J"><path d="M790.02 181.21h36.421v25.259H790.02zm0 0"/></clipPath><symbol overflow="visible" id="t"><path style="stroke:none" d="m11.797-22.75-2.828 9.516h3.156c1.414 0 2.473-.22 3.172-.657.695-.437 1.422-1.367 2.172-2.796h.672l-2.5 8.75h-.704c.176-.708.266-1.29.266-1.75 0-.727-.242-1.29-.719-1.688-.48-.395-1.375-.594-2.687-.594H8.609l-2.093 7.25c-.375 1.293-.563 2.153-.563 2.578 0 .438.16.778.484 1.016.32.23 1.118.387 2.391.469L8.61 0h-9.5l.235-.656c.914-.02 1.531-.102 1.844-.25.468-.196.816-.469 1.046-.813.313-.488.688-1.488 1.125-3l4.235-14.468c.343-1.176.515-2.094.515-2.75 0-.313-.078-.579-.234-.797-.148-.22-.371-.38-.672-.485-.305-.101-.902-.156-1.797-.156l.203-.656h18.64l-1.766 6.078h-.672c.125-.727.188-1.332.188-1.813 0-.78-.219-1.394-.656-1.843-.43-.457-.977-.782-1.64-.97-.481-.112-1.54-.171-3.173-.171zm0 0"/></symbol><symbol overflow="visible" id="n"><path style="stroke:none" d="M4.89-9.797 3.454-4.875c1.344-2.008 2.375-3.332 3.094-3.969.719-.633 1.406-.953 2.062-.953.364 0 .66.121.891.36.238.242.36.554.36.937 0 .43-.106 1.008-.313 1.734L8.234-2.219C8.078-1.688 8-1.363 8-1.25c0 .094.023.18.078.25.063.074.125.11.188.11.093 0 .195-.047.312-.141.383-.313.805-.774 1.266-1.39l.328.202C9.504-1.258 8.867-.57 8.266-.156c-.418.281-.793.422-1.125.422A.871.871 0 0 1 6.5.016c-.156-.164-.234-.383-.234-.657 0-.343.125-.937.375-1.78l1.25-4.345c.156-.539.234-.96.234-1.265a.489.489 0 0 0-.14-.36.472.472 0 0 0-.344-.14c-.2 0-.438.09-.72.265-.53.325-1.089.86-1.671 1.61-.574.742-1.184 1.695-1.828 2.86a11.114 11.114 0 0 0-.844 2.015L2.047 0H.422L2.39-6.766c.226-.82.343-1.316.343-1.484a.538.538 0 0 0-.187-.406.636.636 0 0 0-.469-.188c-.086 0-.234.016-.453.047l-.422.063-.062-.391zm0 0"/></symbol><symbol overflow="visible" id="g"><path style="stroke:none" d="m.156.344 1.219-5.5h.375c-.055.531-.078.976-.078 1.328 0 .992.316 1.805.953 2.437.633.625 1.469.938 2.5.938.945 0 1.664-.29 2.156-.875.5-.594.75-1.27.75-2.031 0-.5-.11-.954-.328-1.36-.344-.601-1.262-1.664-2.75-3.187-.719-.727-1.183-1.27-1.39-1.625a3.712 3.712 0 0 1-.5-1.86c0-1.039.382-1.925 1.156-2.656.77-.738 1.758-1.11 2.968-1.11.415 0 .805.044 1.172.126.22.043.625.187 1.22.437.425.168.66.258.702.266.102.023.219.031.344.031a.89.89 0 0 0 .531-.156c.156-.113.336-.348.547-.703h.422l-1.14 4.922h-.376c.032-.438.047-.79.047-1.063 0-.883-.293-1.601-.875-2.156-.586-.563-1.351-.844-2.297-.844-.761 0-1.382.227-1.859.672-.469.438-.703.95-.703 1.531 0 .512.148 1 .453 1.469.3.46.992 1.21 2.078 2.25 1.094 1.043 1.8 1.86 2.125 2.453.32.586.485 1.211.485 1.875 0 .75-.204 1.48-.61 2.188A4.072 4.072 0 0 1 7.75-.234a5.24 5.24 0 0 1-2.438.578A5.75 5.75 0 0 1 4.095.219c-.375-.086-.98-.281-1.813-.594C2-.477 1.766-.531 1.578-.531c-.437 0-.777.293-1.016.875zm0 0"/></symbol><symbol overflow="visible" id="c"><path style="stroke:none" d="m6.39-14.766 4.548 11.579 2.484-8.641c.195-.719.297-1.27.297-1.656 0-.27-.094-.477-.281-.625-.188-.157-.543-.235-1.063-.235a2.1 2.1 0 0 1-.266-.015l.125-.407h4.735l-.125.407c-.492-.008-.856.043-1.094.156-.344.148-.602.34-.766.578-.23.344-.464.945-.703 1.797L10.797.344h-.39L5.5-12.125 2.89-2.922c-.199.7-.296 1.235-.296 1.61 0 .273.086.48.265.625.176.136.598.23 1.266.28L4.015 0h-4.64l.156-.406C.113-.414.504-.47.703-.562c.29-.125.508-.29.656-.5.207-.32.442-.942.704-1.86L5-13.187c-.293-.438-.602-.735-.922-.891-.324-.164-.824-.258-1.5-.281l.125-.407zm0 0"/></symbol><symbol overflow="visible" id="j"><path style="stroke:none" d="M12.031-15.453 8.297-2.625c-.2.688-.297 1.14-.297 1.36a.33.33 0 0 0 .094.218c.062.063.125.094.187.094.094 0 .203-.047.328-.14.25-.177.664-.614 1.25-1.313l.36.234C9.695-1.453 9.172-.863 8.64-.406c-.532.445-1.028.672-1.485.672-.25 0-.46-.09-.625-.266-.156-.176-.234-.422-.234-.734 0-.414.11-.973.328-1.672l.422-1.344C5.992-2.125 5.039-1 4.187-.375c-.593.426-1.164.64-1.703.64-.554 0-1.039-.245-1.453-.734-.406-.488-.61-1.156-.61-2 0-1.082.345-2.234 1.032-3.453a8.738 8.738 0 0 1 2.734-3c.883-.613 1.704-.922 2.454-.922.382 0 .718.086 1 .25.289.156.57.418.843.781l1.063-3.78c.082-.259.148-.473.203-.641.082-.29.125-.532.125-.72a.526.526 0 0 0-.156-.374.923.923 0 0 0-.594-.188c-.168 0-.445.028-.828.079v-.407zM8-7.734c0-.47-.137-.844-.406-1.125-.262-.282-.602-.422-1.016-.422-.906 0-1.855.758-2.844 2.265-.992 1.5-1.484 2.938-1.484 4.313 0 .555.117.976.36 1.265.238.282.523.422.859.422.75 0 1.691-.816 2.828-2.453C7.43-5.102 8-6.523 8-7.734zm0 0"/></symbol><symbol overflow="visible" id="k"><path style="stroke:none" d="m6.594-9.578-.203.719H4.812L3.61-4.11C3.086-2.016 2.555-.395 2.016.75 1.254 2.363.437 3.477-.438 4.094c-.664.476-1.332.718-2 .718a1.61 1.61 0 0 1-1.109-.406.867.867 0 0 1-.328-.703c0-.23.094-.433.281-.61a.942.942 0 0 1 .672-.25c.2 0 .367.063.5.188a.583.583 0 0 1 .188.422.6.6 0 0 1-.22.453c-.112.102-.171.176-.171.219 0 .07.023.125.063.156.074.051.18.078.312.078.313 0 .64-.101.984-.296.344-.2.653-.493.922-.875.262-.387.508-.946.75-1.672.102-.313.375-1.32.813-3.016l1.89-7.36H1.22l.156-.718c.602 0 1.023-.04 1.266-.125a1.53 1.53 0 0 0 .656-.469c.195-.238.457-.68.781-1.328.426-.875.832-1.55 1.219-2.031.539-.645 1.101-1.125 1.687-1.438.594-.32 1.149-.484 1.672-.484.551 0 .992.14 1.328.422.332.273.5.57.5.89 0 .262-.086.48-.25.657a.868.868 0 0 1-.64.25.83.83 0 0 1-.563-.188.63.63 0 0 1-.203-.469c0-.113.047-.254.14-.421.095-.176.141-.297.141-.36a.273.273 0 0 0-.093-.219C8.922-14.96 8.78-15 8.594-15c-.45 0-.856.148-1.219.438-.492.386-.93.984-1.313 1.796-.187.43-.542 1.493-1.062 3.188zm0 0"/></symbol><symbol overflow="visible" id="w"><path style="stroke:none" d="M7.234-13.953 5.5-8.125h1.938c.863 0 1.507-.129 1.937-.39.438-.27.883-.844 1.344-1.72h.406l-1.531 5.36h-.438c.114-.426.172-.785.172-1.078 0-.438-.152-.774-.453-1.016-.293-.25-.84-.375-1.64-.375H5.28L4-2.89c-.23.793-.344 1.32-.344 1.579 0 .273.098.48.297.625.195.136.68.23 1.453.28L5.281 0H-.547l.14-.406C.165-.414.548-.461.735-.546c.282-.126.493-.29.641-.5.188-.302.414-.915.688-1.845l2.593-8.89c.207-.707.313-1.266.313-1.672a.833.833 0 0 0-.14-.485.815.815 0 0 0-.423-.296c-.18-.07-.543-.11-1.093-.11l.124-.406h11.438l-1.094 3.734h-.406c.082-.445.125-.816.125-1.109 0-.477-.137-.852-.406-1.125-.262-.281-.602-.477-1.016-.594-.293-.07-.937-.11-1.937-.11zm0 0"/></symbol><symbol overflow="visible" id="p"><path style="stroke:none" d="M11.984-15.39 8.266-2.626c-.211.7-.313 1.156-.313 1.375 0 .074.031.14.094.203.062.063.125.094.187.094.094 0 .207-.047.344-.14.238-.177.649-.61 1.235-1.298l.359.235c-.524.719-1.047 1.304-1.578 1.75-.524.445-1.016.672-1.485.672A.802.802 0 0 1 6.5 0c-.156-.176-.234-.422-.234-.734 0-.414.109-.97.328-1.657l.422-1.343C5.973-2.117 5.02-1 4.156-.375c-.586.426-1.148.64-1.687.64-.555 0-1.031-.245-1.438-.734-.406-.488-.61-1.148-.61-1.984 0-1.07.337-2.219 1.016-3.438a8.832 8.832 0 0 1 2.72-2.984c.882-.613 1.702-.922 2.452-.922.383 0 .72.086 1 .25.282.156.555.418.829.781L9.5-12.53c.082-.258.148-.473.203-.64a2.62 2.62 0 0 0 .125-.704.542.542 0 0 0-.156-.39.99.99 0 0 0-.594-.172c-.168 0-.437.027-.812.078v-.407zM7.97-7.704c0-.457-.137-.828-.407-1.11-.261-.28-.601-.421-1.015-.421-.906 0-1.856.75-2.844 2.25-.98 1.5-1.469 2.933-1.469 4.296 0 .543.118.961.36 1.25.238.282.523.422.86.422.75 0 1.687-.812 2.812-2.437 1.132-1.625 1.703-3.04 1.703-4.25zm0 0"/></symbol><symbol overflow="visible" id="f"><path style="stroke:none" d="m12.094-15.531-3.75 12.89c-.211.7-.313 1.157-.313 1.375 0 .075.031.141.094.204.063.062.125.093.188.093.101 0 .218-.047.343-.14.25-.164.664-.602 1.25-1.313l.375.235c-.531.73-1.07 1.324-1.61 1.78-.53.446-1.026.673-1.483.673A.823.823 0 0 1 6.563 0c-.157-.176-.235-.426-.235-.75 0-.406.11-.96.328-1.672l.422-1.344C6.023-2.14 5.066-1.008 4.203-.375c-.594.426-1.168.64-1.719.64-.554 0-1.039-.245-1.453-.734-.406-.5-.61-1.172-.61-2.015 0-1.082.345-2.239 1.032-3.47a8.86 8.86 0 0 1 2.75-3c.895-.624 1.719-.937 2.469-.937.394 0 .734.086 1.016.25.28.157.562.422.843.797l1.063-3.812c.082-.27.148-.485.203-.64.082-.29.125-.532.125-.72a.542.542 0 0 0-.156-.39.99.99 0 0 0-.594-.172 9.68 9.68 0 0 0-.828.062v-.39zm-4.047 7.75c0-.469-.137-.844-.406-1.125a1.378 1.378 0 0 0-1.032-.422c-.918 0-1.87.762-2.859 2.281-.992 1.512-1.484 2.961-1.484 4.344 0 .543.117.96.359 1.25.238.281.523.422.86.422.757 0 1.706-.817 2.843-2.453 1.145-1.633 1.719-3.067 1.719-4.297zm0 0"/></symbol><symbol overflow="visible" id="q"><path style="stroke:none" d="m8.031-9.797-.656 3.328h-.406c-.032-.968-.235-1.672-.61-2.11-.375-.437-.84-.655-1.39-.655-.45 0-.809.125-1.078.375-.262.242-.391.53-.391.875 0 .242.05.468.156.687.102.211.332.512.688.906.937 1.024 1.539 1.793 1.812 2.313.282.523.422 1.012.422 1.469 0 .75-.312 1.418-.937 2-.625.586-1.414.875-2.36.875-.523 0-1.12-.125-1.797-.375-.242-.082-.421-.125-.546-.125-.336 0-.586.168-.75.5h-.391L.453-3.25H.86c.04 1.105.266 1.887.672 2.344.414.449.977.672 1.688.672.55 0 .984-.149 1.297-.454C4.836-1 5-1.377 5-1.827c0-.29-.059-.555-.172-.797-.2-.438-.621-1.035-1.266-1.797-.648-.77-1.062-1.344-1.25-1.719a2.697 2.697 0 0 1-.265-1.156c0-.695.25-1.285.75-1.766.508-.488 1.164-.734 1.969-.734.226 0 .437.024.625.063.101.023.336.105.703.25.375.136.625.203.75.203.312 0 .57-.172.781-.516zm0 0"/></symbol><g clip-path="url(#b)" id="I"><use xlink:href="#c" x=".934" y="20.092" style="fill:#000;fill-opacity:1"/></g><g id="G" clip-path="url(#d)"><g clip-path="url(#e)"><use xlink:href="#f" x=".229" y="20.858" style="fill:#000;fill-opacity:1"/></g><use xlink:href="#g" x="10.874" y="20.858" style="fill:#000;fill-opacity:1"/></g><g id="K" clip-path="url(#h)"><g clip-path="url(#i)"><use xlink:href="#j" x=".018" y="20.154" style="fill:#000;fill-opacity:1"/></g><use xlink:href="#k" x="18.889" y="20.154" style="fill:#000;fill-opacity:1"/></g><g clip-path="url(#m)" id="E"><use xlink:href="#n" x=".28" y="16.139" style="fill:#000;fill-opacity:1"/></g><g id="C" clip-path="url(#o)"><use xlink:href="#p" x=".595" y="19.798" style="fill:#000;fill-opacity:1"/><use xlink:href="#q" x="10.958" y="19.798" style="fill:#000;fill-opacity:1"/></g><g clip-path="url(#s)" id="A"><use xlink:href="#t" x="1.785" y="33.241" style="fill:#000;fill-opacity:1"/></g><g id="M" clip-path="url(#u)"><g clip-path="url(#v)"><use xlink:href="#j" x=".358" y="20.707" style="fill:#000;fill-opacity:1"/></g><use xlink:href="#w" x="14.444" y="20.707" style="fill:#000;fill-opacity:1"/></g></defs><g clip-path="url(#x)"><path style="fill:none;stroke-width:2.218971;stroke-linecap:butt;stroke-linejoin:round;stroke:#010101;stroke-opacity:1;stroke-miterlimit:10" d="M54.601 193.541C-9.57 103.536-11.969 29.78 26.108 6.08 63.92-17.62 144.07 47.62 188.807 118.983" transform="matrix(.99847 0 0 -.99847 .635 325.003)"/></g><path style="fill:none;stroke-width:2.218971;stroke-linecap:round;stroke-linejoin:round;stroke:#010101;stroke-opacity:1;stroke-miterlimit:10" d="M136.617 182.888c-37.28 20.504-73.761 25.03-81.75 10.653-7.989-14.65 15.712-42.874 52.991-63.112 37.28-20.504 73.758-25.296 81.747-10.653 7.988 14.382-15.712 42.874-52.988 63.112zm0 0" transform="matrix(.99847 0 0 -.99847 .635 325.003)"/><path style="fill:none;stroke-width:2.218971;stroke-linecap:butt;stroke-linejoin:round;stroke:#010101;stroke-opacity:1;stroke-miterlimit:10" d="M592.749 206.057C474.52 164.513 435.91 100.074 471.329 55.874c35.413-44.47 152.843-38.344 239.116-2.132" transform="matrix(.99847 0 0 -.99847 .635 325.003)"/><path style="fill:none;stroke-width:2.218971;stroke-linecap:round;stroke-linejoin:round;stroke:#010101;stroke-opacity:1;stroke-miterlimit:10" d="M675.027 148.805c-33.281 41.27-70.827 66.567-83.608 55.918-13.048-10.387 3.724-52.19 37.01-93.464 33.285-41.54 70.834-66.57 83.616-56.183 13.043 10.383-3.733 52.455-37.018 93.729zm0 0" transform="matrix(.99847 0 0 -.99847 .635 325.003)"/><path style="fill:none;stroke-width:1.664235;stroke-linecap:round;stroke-linejoin:round;stroke:silver;stroke-opacity:1;stroke-dasharray:4.992706,6.656941;stroke-miterlimit:10" d="M643.608 116.584c32.221-41.806 68.965-67.635 82.012-57.518 13.317 10.125-2.128 52.193-34.345 94-32.225 41.802-68.97 67.368-82.016 57.247-13.314-9.85 2.132-52.19 34.349-93.73zm0 0" transform="matrix(.99847 0 0 -.99847 .635 325.003)"/><g clip-path="url(#y)"><path style="fill:none;stroke-width:1.664235;stroke-linecap:round;stroke-linejoin:round;stroke:silver;stroke-opacity:1;stroke-dasharray:4.992706,6.656941;stroke-miterlimit:10" d="M738.401 63.064c118.228 41.274 154.178 105.713 118.764 150.18-35.683 44.204-162.166 34.88-248.439-1.597" transform="matrix(.99847 0 0 -.99847 .635 325.003)"/></g><path style="fill:none;stroke-width:1.751841;stroke-linecap:round;stroke-linejoin:round;stroke:#000;stroke-opacity:1;stroke-miterlimit:10" d="M333.927 117.652h25.833m-25.833 5.054h25.833" transform="matrix(.99847 0 0 -.99847 .635 325.003)"/><g clip-path="url(#z)"><use xlink:href="#A" transform="translate(332 161)"/></g><path style="fill-rule:evenodd;fill:#000;fill-opacity:.133333;stroke-width:1;stroke-linecap:butt;stroke-linejoin:miter;stroke:#000;stroke-opacity:1;stroke-dasharray:2,2;stroke-miterlimit:4" d="M664.91 138.152c-11.181 13.58-23.7 22.104-27.957 18.642-4.26-3.467 1.326-17.574 12.246-31.423 11.185-13.58 23.7-22.1 27.96-18.638 4.26 3.458-1.33 17.574-12.249 31.419" transform="matrix(.99847 0 0 -.99847 .635 325.003)"/><path style="fill:none;stroke-width:1.109473;stroke-linecap:round;stroke-linejoin:round;stroke:#010101;stroke-opacity:1;stroke-miterlimit:10" d="m627.098 263.57 19.972-119.827" transform="matrix(.99847 0 0 -.99847 .635 325.003)"/><g clip-path="url(#B)"><use xlink:href="#C" transform="translate(619 33)"/></g><path style="fill:none;stroke-width:1.664235;stroke-linecap:round;stroke-linejoin:round;stroke:silver;stroke-opacity:1;stroke-dasharray:4.992706,6.656941;stroke-miterlimit:10" d="M116.911 142.944c37.01-20.238 73.762-25.03 81.75-10.383 7.985 14.378-15.711 42.605-52.995 63.109-37.276 20.238-73.757 25.03-81.746 10.653-7.985-14.652 15.712-42.875 52.991-63.379zm0 0" transform="matrix(.99847 0 0 -.99847 .635 325.003)"/><path style="fill:none;stroke-width:1.664235;stroke-linecap:round;stroke-linejoin:round;stroke:silver;stroke-opacity:1;stroke-dasharray:4.992706,6.656941;stroke-miterlimit:10" d="M198.927 132.561c64.173 90.001 66.563 163.497 28.755 187.193-38.077 23.7-118.223-41.536-162.964-112.637" transform="matrix(.99847 0 0 -.99847 .635 325.003)"/><path style="stroke:none;fill-rule:nonzero;fill:#010101;fill-opacity:1" d="m657.617 190.25 90.395-54.234c.265-.266.797 0 1.062.261.266.536 0 1.067-.265 1.332l-90.399 53.973c-.262.266-.793 0-1.058-.266-.27-.265 0-.8.265-1.066zm85.34-57.957 14.89-1.328-7.972 12.762"/><path style="fill:none;stroke-width:1.099194;stroke-linecap:round;stroke-linejoin:round;stroke:#000;stroke-opacity:1;stroke-miterlimit:10" d="M771.155 203.924h9.323" transform="matrix(.99847 0 0 -.99847 .635 325.003)"/><g clip-path="url(#D)"><use xlink:href="#E" transform="translate(769 101)"/></g><path style="fill-rule:nonzero;fill:#000;fill-opacity:.133333;stroke-width:1;stroke-linecap:butt;stroke-linejoin:miter;stroke:#000;stroke-opacity:1;stroke-dasharray:3,3;stroke-miterlimit:4" d="M127.032 168.245c-12.781 6.92-25.03 8.517-27.96 3.458-2.665-4.792 5.59-14.377 18.105-21.302 12.782-6.925 25.03-8.52 27.961-3.728 2.664 5.058-5.594 14.643-18.106 21.572" transform="matrix(.99847 0 0 -.99847 .635 325.003)"/><path style="fill:none;stroke-width:1.109473;stroke-linecap:round;stroke-linejoin:round;stroke:#010101;stroke-opacity:1;stroke-miterlimit:10" d="m67.918 283.538 39.94-119.824" transform="matrix(.99847 0 0 -.99847 .635 325.003)"/><g clip-path="url(#F)"><use xlink:href="#G" transform="translate(52 12)"/></g><path style="stroke:none;fill-rule:nonzero;fill:#010101;fill-opacity:1" d="m124.012 163.398 45.465-72.582c.265-.53.796-.53 1.332-.27.265.27.265.536 0 1.067l-45.47 72.852c-.26.262-.792.527-1.058.262-.535-.262-.535-.793-.27-1.329zm39.351-73.91 12.762-7.71-1.332 14.886"/><path style="fill:none;stroke-width:1.116236;stroke-linecap:round;stroke-linejoin:round;stroke:#000;stroke-opacity:1;stroke-miterlimit:10" d="M172.03 255.316H192" transform="matrix(.99847 0 0 -.99847 .635 325.003)"/><g clip-path="url(#H)"><use xlink:href="#I" transform="translate(172 46)"/></g><path style="stroke:none;fill-rule:nonzero;fill:#010101;fill-opacity:1" d="m658.945 189.984 110.602 3.457c.265 0 .8.266.8.801 0 .531-.534.797-.8.797l-110.602-3.457c-.535 0-.797-.266-.797-.8 0-.532.528-.798.797-.798zm108.477-2.394 13.027 6.918-13.293 6.379"/><path style="fill:none;stroke-width:1.116236;stroke-linecap:round;stroke-linejoin:round;stroke:#000;stroke-opacity:1;stroke-miterlimit:10" d="M804.706 113.657h16.51" transform="matrix(.99847 0 0 -.99847 .635 325.003)"/><g clip-path="url(#J)"><use xlink:href="#K" transform="translate(790 181)"/></g><path style="stroke:none;fill-rule:nonzero;fill:#010101;fill-opacity:1" d="m122.953 163.664 75.77-56.098c.27-.265.797-.265 1.062.266.266.266.266.797-.265 1.063l-75.508 56.097c-.266.266-.793.266-1.059 0-.266-.527-.266-1.058 0-1.328zm70.453-59.555 14.621-2.394-6.644 13.031"/><path style="fill:none;stroke-width:1.116236;stroke-linecap:round;stroke-linejoin:round;stroke:#000;stroke-opacity:1;stroke-miterlimit:10" d="M223.156 215.642h15.711" transform="matrix(.99847 0 0 -.99847 .635 325.003)"/><g clip-path="url(#L)"><use xlink:href="#M" transform="translate(209 85)"/></g><path style="stroke:none;fill-rule:nonzero;fill:#010101;fill-opacity:1" d="m267.852 219.496 148.351.27v3.191H267.852zm146.226-4.785 13.293 6.648-13.293 6.645"/></svg>