<svg xmlns="http://www.w3.org/2000/svg" xmlns:xlink="http://www.w3.org/1999/xlink" width="144.611" height="185.516" viewBox="0 0 108.458 139.137" version="1.2"><defs><symbol overflow="visible" id="c"><path style="stroke:none" d="M4.25-4.453v.687a2.54 2.54 0 0 0-.703-.453 1.992 1.992 0 0 0-.781-.156c-.555 0-.977.172-1.266.516-.293.336-.438.82-.438 1.453 0 .636.145 1.125.438 1.469.29.335.71.5 1.266.5.28 0 .539-.051.78-.157.25-.101.485-.254.704-.453v.672c-.219.156-.46.277-.719.36-.25.07-.523.109-.812.109C1.989.094 1.414-.13 1-.578.582-1.023.375-1.633.375-2.406c0-.77.207-1.38.625-1.828.414-.446.988-.672 1.719-.672.289 0 .562.043.812.125.258.074.5.183.719.328zm0 0"/></symbol><symbol overflow="visible" id="f"><path style="stroke:none" d="m2.266-4.172-.891 2.39h1.766zm-.375-.64h.734L4.469 0H3.78l-.437-1.234H1.172L.734 0H.047zm0 0"/></symbol><symbol overflow="visible" id="g"><path style="stroke:none" d="M1.297-2.297V-.53h1.047c.351 0 .613-.07.781-.219.164-.145.25-.367.25-.672 0-.3-.086-.52-.25-.656-.168-.145-.43-.219-.781-.219zm0-1.984v1.453h.969c.32 0 .562-.055.718-.172.157-.125.235-.313.235-.563 0-.238-.078-.414-.235-.53-.156-.126-.398-.188-.718-.188zm-.64-.532h1.655c.5 0 .88.106 1.141.313.27.2.406.492.406.875 0 .293-.07.527-.203.703-.136.18-.34.29-.61.328.321.063.571.203.75.422.177.219.267.496.267.828 0 .43-.149.762-.438 1-.293.23-.71.344-1.25.344H.656zm0 0"/></symbol><symbol overflow="visible" id="d"><path style="stroke:none" d="M.703-.469h.922v-3.156l-1 .203v-.515l.984-.204h.563v3.672h.906V0H.703zm0 0"/></symbol><symbol overflow="visible" id="e"><path style="stroke:none" d="M1.094-.469h1.953V0H.422v-.469c.207-.219.492-.508.86-.875.363-.375.593-.617.687-.734.187-.195.312-.363.375-.5A.968.968 0 0 0 2.454-3a.671.671 0 0 0-.235-.531c-.149-.133-.344-.203-.594-.203-.18 0-.367.03-.563.093a3.148 3.148 0 0 0-.625.266v-.563a3.75 3.75 0 0 1 .641-.203 2.78 2.78 0 0 1 .531-.062c.426 0 .766.11 1.016.328.258.21.39.492.39.844 0 .168-.03.328-.093.484-.063.156-.18.336-.344.531-.055.063-.203.227-.453.485L1.094-.47zm0 0"/></symbol><clipPath id="a"><path d="M9 0h98.855v138.277H9zm0 0"/></clipPath><clipPath id="b"><path d="M.066 0h107.79v138.277H.065zm0 0"/></clipPath></defs><g clip-path="url(#a)"><path style="fill:none;stroke-width:.712;stroke-linecap:butt;stroke-linejoin:round;stroke:#00adef;stroke-opacity:1;stroke-miterlimit:4" d="M46.99 25.285s32.01-3.09 61.17 25.972m-75.776-9.429s48.59-1.635 75.776 40.123M20.27 60.199c50.303 0 84.483 39.918 84.483 78.873M9.717 82.29s35.96-.657 50.208 7.896c0 0 3.07-53.934 48.235-76.857m0-12.38c-60.227 0-96.906 63.182-96.906 116.86 0 6.796 1.855 21.264 1.855 21.264m12.715 0s-.974-7.892-.974-18.634c0-50.912 28.94-110.718 76.098-119.153M44.243 139.072s-1.42-7.892-1.42-17.758c0-98.218 65.337-117.851 65.337-117.851M46.145 85.354s6.764.224 12.464 10.09m4.815-24.094s-1.305 8.31.888 16.202" transform="translate(.065) scale(.99383)"/></g><g clip-path="url(#b)"><path style="fill:none;stroke-width:1.9;stroke-linecap:butt;stroke-linejoin:round;stroke:#231f20;stroke-opacity:1;stroke-miterlimit:4" d="M108.16.947C54.207.947.948 57.487.948 139.072" transform="translate(.065) scale(.99383)"/></g><path style="stroke:none;fill-rule:nonzero;fill:#000;fill-opacity:1" d="M63.098 72.242c.73 0 1.332-.597 1.332-1.332a1.333 1.333 0 0 0-2.664 0 1.33 1.33 0 0 0 1.332 1.332M59.621 90.96a1.331 1.331 0 1 0 .002-2.666 1.331 1.331 0 0 0-.002 2.667M45.926 86.16a1.329 1.329 0 1 0 0-2.66c-.735 0-1.328.594-1.328 1.328 0 .738.593 1.332 1.328 1.332"/><path style="fill-rule:nonzero;fill:#fff;fill-opacity:1;stroke-width:.475;stroke-linecap:butt;stroke-linejoin:miter;stroke:#231f20;stroke-opacity:1;stroke-miterlimit:4" d="M58.609 96.784a1.34 1.34 0 1 0 .001-2.679 1.34 1.34 0 0 0-.001 2.68zm5.699-7.884c.743 0 1.34-.598 1.34-1.337 0-.743-.597-1.34-1.34-1.34-.74 0-1.336.597-1.336 1.34 0 .74.597 1.337 1.336 1.337zm0 0" transform="translate(.065) scale(.99383)"/><use xlink:href="#c" x="52.431" y="102.37" style="fill:#231f20;fill-opacity:1"/><use xlink:href="#d" x="56.84" y="104.73" style="fill:#231f20;fill-opacity:1"/><use xlink:href="#c" x="66.624" y="89.351" style="fill:#231f20;fill-opacity:1"/><use xlink:href="#e" x="71.033" y="91.712" style="fill:#231f20;fill-opacity:1"/><use xlink:href="#f" x="65.453" y="71.387" style="fill:#231f20;fill-opacity:1"/><use xlink:href="#g" x="39.045" y="90.654" style="fill:#231f20;fill-opacity:1"/><use xlink:href="#c" x="54.797" y="86.228" style="fill:#231f20;fill-opacity:1"/></svg>