<svg xmlns="http://www.w3.org/2000/svg" xmlns:xlink="http://www.w3.org/1999/xlink" width="1760.245" height="629.384" viewBox="0 0 1320.184 472.038" version="1.2"><defs><symbol overflow="visible" id="c"><path style="stroke:none" d="M13.125-14.781a3.739 3.739 0 0 0-1.047-.406 5.164 5.164 0 0 0-1.25-.141c-1.625 0-2.875.531-3.75 1.594-.867 1.054-1.297 2.562-1.297 4.53V0H2.906v-17.469h2.875v2.719c.602-1.063 1.39-1.848 2.36-2.36.968-.519 2.144-.78 3.53-.78.196 0 .411.015.642.046.238.024.503.059.796.11zm0 0"/></symbol><symbol overflow="visible" id="y"><path style="stroke:none" d="M16.156-8.5v1.266H4.281c.114 1.773.649 3.125 1.61 4.062.957.93 2.289 1.39 4 1.39.988 0 1.945-.116 2.875-.359.937-.25 1.863-.613 2.78-1.093v2.437c-.929.399-1.882.695-2.858.89-.97.208-1.954.313-2.954.313-2.5 0-4.484-.726-5.953-2.187-1.469-1.457-2.203-3.43-2.203-5.922 0-2.57.692-4.613 2.078-6.125 1.395-1.508 3.27-2.266 5.625-2.266 2.114 0 3.785.684 5.016 2.047 1.238 1.356 1.86 3.203 1.86 5.547zm-2.593-.766c-.012-1.406-.407-2.53-1.188-3.375-.773-.843-1.793-1.265-3.063-1.265-1.437 0-2.59.406-3.453 1.219-.867.812-1.367 1.96-1.5 3.437zm-2.47-13.718h2.782l-4.563 5.28H7.156zm0 0"/></symbol><symbol overflow="visible" id="d"><path style="stroke:none" d="M17.953-9.453v1.406H4.75c.125 1.98.719 3.485 1.781 4.516C7.601-2.5 9.094-1.984 11-1.984c1.094 0 2.156-.133 3.188-.407 1.039-.27 2.07-.675 3.093-1.218v2.718c-1.031.438-2.09.774-3.172 1-1.086.227-2.18.344-3.28.344-2.794 0-5-.805-6.626-2.422-1.625-1.625-2.437-3.82-2.437-6.593 0-2.852.77-5.118 2.312-6.797 1.54-1.688 3.625-2.532 6.25-2.532 2.344 0 4.195.762 5.563 2.282 1.375 1.511 2.062 3.562 2.062 6.156zm-2.875-.844c-.023-1.562-.465-2.812-1.328-3.75-.855-.937-1.984-1.406-3.39-1.406-1.606 0-2.891.453-3.86 1.36-.96.905-1.512 2.179-1.656 3.812zm-2.75-15.25h3.094l-5.078 5.86h-2.39zm0 0"/></symbol><symbol overflow="visible" id="e"><path style="stroke:none" d="M11.86-24.266v2.391H9.11c-1.032 0-1.75.21-2.157.625-.398.418-.594 1.164-.594 2.234v1.547h4.735v2.235H6.359V0H3.484v-15.234H.734v-2.235h2.75v-1.218c0-1.938.446-3.348 1.344-4.235.906-.894 2.344-1.344 4.313-1.344zm0 0"/></symbol><symbol overflow="visible" id="f"><path style="stroke:none" d="M9.781-15.453c-1.543 0-2.761.601-3.656 1.797-.898 1.199-1.344 2.844-1.344 4.937 0 2.094.442 3.742 1.328 4.938.895 1.199 2.118 1.797 3.672 1.797 1.52 0 2.727-.598 3.625-1.797.895-1.207 1.344-2.852 1.344-4.938 0-2.07-.45-3.71-1.344-4.922-.898-1.207-2.105-1.812-3.625-1.812zm0-2.438c2.489 0 4.446.813 5.875 2.438 1.426 1.625 2.14 3.871 2.14 6.734 0 2.867-.714 5.11-2.14 6.735C14.226-.36 12.27.453 9.781.453c-2.511 0-4.476-.812-5.89-2.437C2.473-3.61 1.766-5.852 1.766-8.72c0-2.863.707-5.11 2.125-6.734 1.414-1.625 3.379-2.438 5.89-2.438zm0 0"/></symbol><symbol overflow="visible" id="g"><path style="stroke:none" d="M16.61-14.11c.718-1.288 1.57-2.242 2.562-2.859 1-.613 2.176-.922 3.531-.922 1.82 0 3.223.641 4.203 1.922.989 1.274 1.485 3.078 1.485 5.422V0h-2.875v-10.453c0-1.664-.297-2.906-.891-3.719-.594-.812-1.5-1.219-2.719-1.219-1.48 0-2.652.496-3.515 1.485-.868.992-1.297 2.336-1.297 4.031V0h-2.89v-10.453c0-1.676-.298-2.914-.892-3.719-.593-.812-1.507-1.219-2.734-1.219-1.469 0-2.637.5-3.5 1.5-.867.993-1.297 2.329-1.297 4.016V0H2.906v-17.469h2.875v2.719c.657-1.07 1.442-1.863 2.36-2.375.914-.508 2.004-.766 3.265-.766 1.258 0 2.332.325 3.219.97.895.648 1.555 1.585 1.984 2.812zm0 0"/></symbol><symbol overflow="visible" id="h"><path style="stroke:none" d="M10.953-8.781c-2.324 0-3.933.265-4.828.797-.898.53-1.344 1.437-1.344 2.718 0 1.012.332 1.82 1 2.422.676.594 1.594.89 2.75.89 1.594 0 2.867-.562 3.828-1.687.957-1.125 1.438-2.625 1.438-4.5v-.64zm5.719-1.188V0h-2.875v-2.656c-.656 1.062-1.477 1.851-2.453 2.36-.969.5-2.164.75-3.578.75-1.793 0-3.215-.5-4.266-1.5-1.055-1.009-1.578-2.352-1.578-4.032 0-1.969.656-3.453 1.969-4.453 1.312-1 3.273-1.5 5.89-1.5h4.016v-.281c0-1.313-.434-2.329-1.297-3.047-.867-.727-2.086-1.094-3.656-1.094-1 0-1.977.121-2.922.36-.95.241-1.856.6-2.719 1.077v-2.656a18.223 18.223 0 0 1 3.047-.906 14.095 14.095 0 0 1 2.89-.313c2.52 0 4.407.657 5.657 1.97 1.25 1.312 1.875 3.296 1.875 5.952zm0 0"/></symbol><symbol overflow="visible" id="i"><path style="stroke:none" d="M14.5-8.938c0-2.07-.43-3.68-1.281-4.828-.856-1.144-2.059-1.718-3.61-1.718-1.543 0-2.746.574-3.609 1.718-.855 1.149-1.281 2.758-1.281 4.829 0 2.074.426 3.683 1.281 4.828.863 1.136 2.066 1.703 3.61 1.703 1.55 0 2.753-.567 3.609-1.703.851-1.145 1.281-2.754 1.281-4.829zm2.875 6.766c0 2.977-.664 5.192-1.984 6.64-1.325 1.446-3.344 2.173-6.063 2.173-1.012 0-1.965-.079-2.86-.235a13.7 13.7 0 0 1-2.593-.687V2.937c.832.458 1.66.79 2.484 1 .82.22 1.66.329 2.516.329 1.883 0 3.29-.493 4.219-1.47.937-.98 1.406-2.464 1.406-4.452v-1.422c-.594 1.031-1.355 1.805-2.281 2.312C11.3-.254 10.195 0 8.906 0 6.758 0 5.031-.813 3.72-2.438c-1.305-1.632-1.953-3.8-1.953-6.5 0-2.695.648-4.863 1.953-6.5 1.31-1.632 3.038-2.452 5.186-2.452 1.29 0 2.395.258 3.313.766.926.512 1.687 1.281 2.281 2.313v-2.657h2.875zm0 0"/></symbol><symbol overflow="visible" id="j"><path style="stroke:none" d="M17.953-9.453v1.406H4.75c.125 1.98.719 3.485 1.781 4.516C7.601-2.5 9.094-1.984 11-1.984c1.094 0 2.156-.133 3.188-.407 1.039-.27 2.07-.675 3.093-1.218v2.718c-1.031.438-2.09.774-3.172 1-1.086.227-2.18.344-3.28.344-2.794 0-5-.805-6.626-2.422-1.625-1.625-2.437-3.82-2.437-6.593 0-2.852.77-5.118 2.312-6.797 1.54-1.688 3.625-2.532 6.25-2.532 2.344 0 4.195.762 5.563 2.282 1.375 1.511 2.062 3.562 2.062 6.156zm-2.875-.844c-.023-1.562-.465-2.812-1.328-3.75-.855-.937-1.984-1.406-3.39-1.406-1.606 0-2.891.453-3.86 1.36-.96.905-1.512 2.179-1.656 3.812zm0 0"/></symbol><symbol overflow="visible" id="k"><path style="stroke:none" d="M14.5-14.813v-9.453h2.875V0H14.5v-2.625c-.605 1.043-1.367 1.82-2.281 2.328-.918.5-2.024.75-3.313.75C6.79.453 5.07-.383 3.75-2.062 2.426-3.75 1.766-5.97 1.766-8.72c0-2.738.66-4.953 1.984-6.64 1.32-1.688 3.04-2.532 5.156-2.532 1.29 0 2.395.258 3.313.766.914.5 1.676 1.273 2.281 2.313zM4.719-8.718c0 2.117.43 3.774 1.297 4.969.875 1.2 2.07 1.797 3.593 1.797 1.52 0 2.711-.598 3.579-1.797.874-1.195 1.312-2.852 1.312-4.969 0-2.113-.438-3.77-1.313-4.969-.867-1.195-2.058-1.796-3.578-1.796-1.523 0-2.718.601-3.593 1.796-.868 1.2-1.297 2.856-1.297 4.97zm0 0"/></symbol><symbol overflow="visible" id="l"><path style="stroke:none" d="M2.719-6.89v-10.58h2.86V-7c0 1.656.32 2.898.968 3.719.644.824 1.613 1.234 2.906 1.234 1.55 0 2.774-.488 3.672-1.469.895-.988 1.344-2.336 1.344-4.046v-9.907h2.875V0h-2.875v-2.688c-.7 1.063-1.508 1.856-2.422 2.376-.918.507-1.985.765-3.203.765-2.012 0-3.54-.625-4.578-1.875-1.032-1.25-1.547-3.07-1.547-5.469zm7.219-11zm0 0"/></symbol><symbol overflow="visible" id="m"><path style="stroke:none" d="M17.531-10.547V0h-2.875v-10.453c0-1.645-.324-2.879-.969-3.703-.648-.82-1.609-1.235-2.89-1.235-1.555 0-2.777.496-3.672 1.485-.898.992-1.344 2.336-1.344 4.031V0H2.906v-17.469h2.875v2.719c.688-1.05 1.492-1.836 2.422-2.36.938-.519 2.016-.78 3.235-.78 2 0 3.515.624 4.546 1.874 1.032 1.243 1.547 3.063 1.547 5.47zm0 0"/></symbol><symbol overflow="visible" id="n"><path style="stroke:none" d="M5.844-22.422v4.953h5.922v2.235H5.844v9.484c0 1.418.191 2.328.578 2.734.394.407 1.191.61 2.39.61h2.954V0H8.812C6.595 0 5.063-.41 4.22-1.234 3.384-2.066 2.97-3.57 2.97-5.75v-9.484H.859v-2.235h2.11v-4.953zm0 0"/></symbol><symbol overflow="visible" id="o"><path style="stroke:none" d="M14.14-16.953v2.719a11.486 11.486 0 0 0-2.53-.938 11.586 11.586 0 0 0-2.704-.312c-1.43 0-2.5.218-3.219.656-.71.437-1.062 1.094-1.062 1.969 0 .656.254 1.18.766 1.562.507.375 1.535.735 3.078 1.078l.984.219c2.031.438 3.473 1.059 4.328 1.86.864.792 1.297 1.902 1.297 3.328 0 1.617-.64 2.898-1.922 3.843C11.875-.019 10.11.453 7.86.453A15.99 15.99 0 0 1 4.938.172a23.086 23.086 0 0 1-3.204-.813v-2.968c1.063.554 2.102.968 3.125 1.25 1.032.273 2.051.406 3.063.406 1.351 0 2.39-.227 3.11-.688.726-.468 1.093-1.117 1.093-1.953 0-.781-.262-1.379-.781-1.797-.524-.414-1.672-.816-3.453-1.203l-1-.234c-1.782-.375-3.07-.945-3.86-1.719-.781-.781-1.172-1.844-1.172-3.187 0-1.645.579-2.914 1.735-3.813 1.164-.894 2.82-1.344 4.969-1.344 1.062 0 2.054.078 2.984.235.937.156 1.8.39 2.594.703zm0 0"/></symbol><symbol overflow="visible" id="p"><path style="stroke:none" d="M15.578-16.797v2.688a11.071 11.071 0 0 0-2.437-1 9.162 9.162 0 0 0-2.47-.344c-1.866 0-3.312.59-4.343 1.765-1.031 1.18-1.547 2.836-1.547 4.97 0 2.136.516 3.792 1.547 4.968 1.031 1.18 2.477 1.766 4.344 1.766.832 0 1.656-.11 2.469-.329a11.34 11.34 0 0 0 2.437-1.015v2.656a11.95 11.95 0 0 1-2.484.844c-.856.187-1.766.281-2.735.281-2.636 0-4.73-.82-6.28-2.469-1.544-1.656-2.313-3.89-2.313-6.703 0-2.844.78-5.082 2.343-6.719 1.563-1.632 3.707-2.453 6.438-2.453.883 0 1.742.094 2.578.282.844.18 1.66.449 2.453.812zm0 0"/></symbol><symbol overflow="visible" id="q"><path style="stroke:none" d="M3.016-17.469h2.859V0h-2.86zm0-6.797h2.859v3.641h-2.86zm0 0"/></symbol><symbol overflow="visible" id="r"><path style="stroke:none" d="M3.016-17.469h2.859V.313c0 2.226-.422 3.835-1.266 4.828-.843 1-2.21 1.5-4.093 1.5H-.578V4.203h.765c1.094 0 1.836-.25 2.235-.75.394-.5.594-1.547.594-3.14zm0-6.797h2.859v3.641h-2.86zm0 0"/></symbol><symbol overflow="visible" id="u"><path style="stroke:none" d="M3.016-24.266h2.859V0h-2.86zm0 0"/></symbol><symbol overflow="visible" id="w"><path style="stroke:none" d="M10.281 1.625c-.812 2.07-1.605 3.426-2.375 4.063-.773.632-1.804.953-3.093.953H2.53V4.234h1.672c.79 0 1.406-.187 1.844-.562.437-.367.922-1.246 1.453-2.64l.516-1.313L.953-17.47H4L9.453-3.812l5.453-13.657h3.047zm0 0"/></symbol><symbol overflow="visible" id="x"><path style="stroke:none" d="M11.813-13.297a3.847 3.847 0 0 0-.954-.375 4.744 4.744 0 0 0-1.125-.125c-1.46 0-2.578.48-3.359 1.438-.781.949-1.172 2.308-1.172 4.078V0H2.61v-15.719h2.594v2.453c.54-.957 1.242-1.664 2.11-2.125.875-.468 1.937-.703 3.187-.703.176 0 .367.016.578.047.219.024.457.055.719.094zm0 0"/></symbol><symbol overflow="visible" id="b"><path style="stroke:none" d="M5.781-2.625v9.266H2.906v-24.11h2.875v2.657c.602-1.04 1.364-1.813 2.282-2.313.925-.508 2.03-.766 3.312-.766 2.113 0 3.832.844 5.156 2.532 1.332 1.687 2 3.902 2 6.64 0 2.75-.668 4.969-2 6.656C15.207-.383 13.488.454 11.375.454c-1.281 0-2.387-.25-3.313-.75-.917-.508-1.68-1.285-2.28-2.328zm9.766-6.094c0-2.113-.438-3.77-1.313-4.969-.867-1.195-2.054-1.796-3.562-1.796-1.524 0-2.719.601-3.594 1.796-.867 1.2-1.297 2.856-1.297 4.97 0 2.116.43 3.773 1.297 4.968.875 1.2 2.07 1.797 3.594 1.797 1.508 0 2.695-.598 3.562-1.797.875-1.195 1.313-2.852 1.313-4.969zm0 0"/></symbol><symbol overflow="visible" id="z"><path style="stroke:none" d="M12.719-15.25v2.438a10.108 10.108 0 0 0-2.266-.844 10.41 10.41 0 0 0-2.437-.281c-1.282 0-2.246.199-2.891.593-.637.399-.953.985-.953 1.766 0 .605.226 1.078.687 1.422.457.336 1.38.656 2.766.969L8.5-9c1.832.398 3.133.953 3.906 1.672.77.719 1.156 1.719 1.156 3 0 1.46-.578 2.617-1.734 3.469C10.68-.016 9.098.406 7.078.406c-.844 0-1.726-.086-2.64-.25a19.705 19.705 0 0 1-2.875-.734v-2.656a13.9 13.9 0 0 0 2.812 1.109c.926.25 1.844.375 2.75.375 1.219 0 2.156-.207 2.813-.625.656-.414.984-1.004.984-1.766 0-.695-.242-1.234-.719-1.609-.469-.375-1.508-.734-3.11-1.078l-.89-.219c-1.605-.332-2.762-.848-3.469-1.547-.71-.695-1.062-1.656-1.062-2.875 0-1.476.52-2.617 1.562-3.422 1.051-.8 2.54-1.203 4.47-1.203.956 0 1.85.074 2.687.219a11.2 11.2 0 0 1 2.328.625zm0 0"/></symbol><symbol overflow="visible" id="A"><path style="stroke:none" d="M2.703-15.719h2.594V0H2.703zm0-6.11h2.594v3.267H2.703zm0 0"/></symbol><symbol overflow="visible" id="B"><path style="stroke:none" d="M15.766-9.484V0h-2.579v-9.406c0-1.477-.292-2.586-.874-3.328-.575-.739-1.446-1.11-2.61-1.11-1.387 0-2.484.446-3.297 1.328-.804.887-1.203 2.102-1.203 3.641V0H2.61v-15.719h2.594v2.453c.613-.945 1.336-1.656 2.172-2.125.844-.468 1.813-.703 2.906-.703 1.813 0 3.176.563 4.094 1.688.926 1.117 1.39 2.758 1.39 4.922zm0 0"/></symbol><symbol overflow="visible" id="C"><path style="stroke:none" d="M16.156-8.5v1.266H4.281c.114 1.773.649 3.125 1.61 4.062.957.93 2.289 1.39 4 1.39.988 0 1.945-.116 2.875-.359.937-.25 1.863-.613 2.78-1.093v2.437c-.929.399-1.882.695-2.858.89-.97.208-1.954.313-2.954.313-2.5 0-4.484-.726-5.953-2.187-1.469-1.457-2.203-3.43-2.203-5.922 0-2.57.692-4.613 2.078-6.125 1.395-1.508 3.27-2.266 5.625-2.266 2.114 0 3.785.684 5.016 2.047 1.238 1.356 1.86 3.203 1.86 5.547zm-2.593-.766c-.012-1.406-.407-2.53-1.188-3.375-.773-.843-1.793-1.265-3.063-1.265-1.437 0-2.59.406-3.453 1.219-.867.812-1.367 1.96-1.5 3.437zm0 0"/></symbol><symbol overflow="visible" id="E"><path style="stroke:none" d="M10.656-21.828v2.14H8.187c-.917 0-1.558.188-1.921.563-.368.375-.547 1.047-.547 2.016v1.39h4.25v2.016h-4.25V0H3.125v-13.703H.656v-2.016h2.469v-1.094c0-1.75.406-3.019 1.219-3.812.812-.8 2.101-1.203 3.875-1.203zm0 0"/></symbol><symbol overflow="visible" id="F"><path style="stroke:none" d="M8.797-13.906c-1.387 0-2.48.543-3.281 1.625-.805 1.086-1.204 2.562-1.204 4.437 0 1.887.395 3.371 1.188 4.453.8 1.075 1.898 1.61 3.297 1.61 1.375 0 2.46-.54 3.265-1.625.801-1.082 1.204-2.563 1.204-4.438 0-1.863-.403-3.336-1.204-4.422-.804-1.093-1.89-1.64-3.265-1.64zm0-2.188c2.25 0 4.015.73 5.297 2.188 1.281 1.46 1.922 3.48 1.922 6.062 0 2.574-.641 4.594-1.922 6.063C12.813-.321 11.047.406 8.797.406 6.547.406 4.78-.32 3.5-1.78 2.219-3.25 1.578-5.27 1.578-7.844c0-2.582.64-4.601 1.922-6.062 1.281-1.457 3.047-2.188 5.297-2.188zm0 0"/></symbol><symbol overflow="visible" id="G"><path style="stroke:none" d="M5.266-20.172v4.453h5.312v2.016H5.266v8.531c0 1.281.171 2.106.515 2.469.352.367 1.067.547 2.14.547h2.657V0H7.922C5.93 0 4.555-.367 3.797-1.11c-.75-.75-1.125-2.1-1.125-4.062v-8.531H.766v-2.016h1.906v-4.453zm0 0"/></symbol><symbol overflow="visible" id="H"><path style="stroke:none" d="M14.938-12.703c.644-1.156 1.414-2.008 2.312-2.563.906-.55 1.96-.828 3.172-.828 1.644 0 2.91.574 3.797 1.719.883 1.148 1.328 2.777 1.328 4.89V0h-2.594v-9.406c0-1.5-.265-2.614-.797-3.344-.531-.727-1.343-1.094-2.437-1.094-1.344 0-2.407.446-3.188 1.328-.773.887-1.156 2.102-1.156 3.641V0h-2.594v-9.406c0-1.508-.265-2.625-.797-3.344-.53-.727-1.355-1.094-2.468-1.094-1.325 0-2.375.45-3.157 1.344-.773.887-1.156 2.094-1.156 3.625V0H2.61v-15.719h2.594v2.453c.594-.968 1.3-1.68 2.125-2.14.82-.457 1.797-.688 2.922-.688 1.145 0 2.117.293 2.922.875.8.574 1.39 1.414 1.765 2.516zm0 0"/></symbol><symbol overflow="visible" id="I"><path style="stroke:none" d="M9.844-7.906c-2.086 0-3.528.242-4.328.718-.805.481-1.204 1.293-1.204 2.438 0 .918.301 1.648.907 2.188.601.542 1.422.812 2.453.812 1.437 0 2.586-.504 3.453-1.516.863-1.02 1.297-2.375 1.297-4.062v-.578zM15-8.97V0h-2.578v-2.39c-.594.96-1.336 1.667-2.219 2.124-.875.446-1.95.672-3.219.672-1.605 0-2.886-.445-3.843-1.344-.95-.906-1.422-2.117-1.422-3.64 0-1.758.593-3.086 1.781-3.984 1.188-.907 2.953-1.36 5.297-1.36h3.625v-.25c0-1.187-.39-2.101-1.172-2.75-.781-.656-1.883-.984-3.297-.984-.898 0-1.773.11-2.625.328-.844.21-1.664.531-2.453.969V-15a17.204 17.204 0 0 1 2.75-.813c.883-.187 1.75-.28 2.594-.28 2.27 0 3.969.59 5.094 1.765C14.437-13.148 15-11.363 15-8.968zm0 0"/></symbol><symbol overflow="visible" id="J"><path style="stroke:none" d="M14.016-15.11v2.407a10.26 10.26 0 0 0-2.204-.89 8.095 8.095 0 0 0-2.218-.313c-1.68 0-2.98.531-3.906 1.594-.918 1.062-1.375 2.554-1.375 4.468 0 1.918.457 3.407 1.375 4.469.925 1.063 2.226 1.594 3.906 1.594.75 0 1.488-.098 2.219-.297a10.54 10.54 0 0 0 2.203-.906V-.61a10.06 10.06 0 0 1-2.235.765 11.86 11.86 0 0 1-2.469.25c-2.367 0-4.246-.742-5.64-2.234C2.273-3.316 1.578-5.32 1.578-7.844c0-2.562.703-4.578 2.11-6.047 1.414-1.468 3.347-2.203 5.796-2.203.79 0 1.567.086 2.329.25a9.934 9.934 0 0 1 2.203.735zm0 0"/></symbol><symbol overflow="visible" id="K"><path style="stroke:none" d="M5.203-2.36v8.344H2.61v-21.703h2.594v2.39c.54-.937 1.223-1.628 2.047-2.077.832-.457 1.828-.688 2.984-.688 1.907 0 3.454.762 4.641 2.282 1.195 1.511 1.797 3.5 1.797 5.968 0 2.469-.602 4.465-1.797 5.985C13.687-.348 12.141.406 10.235.406 9.077.406 8.081.18 7.25-.266c-.824-.457-1.508-1.156-2.047-2.093zm8.781-5.484c0-1.894-.39-3.383-1.171-4.468-.782-1.083-1.856-1.626-3.22-1.626-1.366 0-2.437.543-3.218 1.626-.781 1.085-1.172 2.574-1.172 4.468 0 1.899.39 3.387 1.172 4.469.781 1.086 1.852 1.625 3.219 1.625 1.363 0 2.437-.54 3.219-1.625.78-1.082 1.171-2.57 1.171-4.469zm0 0"/></symbol><symbol overflow="visible" id="L"><path style="stroke:none" d="M14.016-15.11v2.407a10.26 10.26 0 0 0-2.204-.89 8.095 8.095 0 0 0-2.218-.313c-1.68 0-2.98.531-3.906 1.594-.918 1.062-1.375 2.554-1.375 4.468 0 1.918.457 3.407 1.375 4.469.925 1.063 2.226 1.594 3.906 1.594.75 0 1.488-.098 2.219-.297a10.54 10.54 0 0 0 2.203-.906V-.61a10.06 10.06 0 0 1-2.235.765 11.86 11.86 0 0 1-2.469.25c-2.367 0-4.246-.742-5.64-2.234C2.273-3.316 1.578-5.32 1.578-7.844c0-2.562.703-4.578 2.11-6.047 1.414-1.468 3.347-2.203 5.796-2.203.79 0 1.567.086 2.329.25a9.934 9.934 0 0 1 2.203.735zM10.359 0c.52.582.907 1.117 1.157 1.61.25.488.375.956.375 1.406 0 .832-.282 1.46-.844 1.89-.563.426-1.399.64-2.5.64-.43 0-.844-.03-1.25-.093a9 9 0 0 1-1.219-.25V3.375c.32.156.656.266 1 .328.344.07.734.11 1.172.11.55 0 .969-.118 1.25-.344.281-.219.422-.543.422-.969 0-.281-.102-.625-.297-1.031-.2-.407-.512-.899-.938-1.469zm0 0"/></symbol><symbol overflow="visible" id="M"><path style="stroke:none" d="M1.406-9.016H8.97v2.297H1.406zm0 0"/></symbol><symbol overflow="visible" id="N"><path style="stroke:none" d="M2.703-21.828h2.594V0H2.703zm0 0"/></symbol><clipPath id="a"><path d="M944 176h374.434v143H944zm0 0"/></clipPath><clipPath id="s"><path d="M531 440h64v31.078h-64zm0 0"/></clipPath><clipPath id="t"><path d="M607 440h44v31.078h-44zm0 0"/></clipPath><clipPath id="v"><path d="M654 438h167v33.078H654zm0 0"/></clipPath><clipPath id="D"><path d="M.934 344H97v23H.934zm0 0"/></clipPath></defs><path style="stroke:none;fill-rule:nonzero;fill:#c8c8c8;fill-opacity:1" d="M945.426 317.555h371.812V177.273h-66.414l-20.726 78.84h-197.453l-20.192-78.18h-67.027zm0 0"/><g clip-path="url(#a)"><path style="fill:none;stroke-width:2.4;stroke-linecap:round;stroke-linejoin:round;stroke:#000;stroke-opacity:1;stroke-miterlimit:4" d="M946.415 153.837h372.57v140.567h-66.55l-20.768-79h-197.855l-20.233 78.338h-67.164zm0 0" transform="matrix(.99797 0 0 -.99797 .935 471.078)"/></g><path style="fill:none;stroke-width:8;stroke-linecap:round;stroke-linejoin:round;stroke:#4169a0;stroke-opacity:1;stroke-miterlimit:4" d="m983.894 359.896 33.744.016 20.229-78.437 189.717.106 20.75 78.863 33.936.125" transform="matrix(.99797 0 0 -.99797 .935 471.078)"/><g style="fill:#000;fill-opacity:1"><use xlink:href="#b" x="110.706" y="428.231"/><use xlink:href="#c" x="130.952" y="428.231"/><use xlink:href="#d" x="144.078" y="428.231"/><use xlink:href="#e" x="163.718" y="428.231"/><use xlink:href="#f" x="174.959" y="428.231"/><use xlink:href="#c" x="194.471" y="428.231"/><use xlink:href="#g" x="207.596" y="428.231"/><use xlink:href="#h" x="238.701" y="428.231"/><use xlink:href="#i" x="258.245" y="428.231"/><use xlink:href="#j" x="278.492" y="428.231"/></g><g style="fill:#000;fill-opacity:1"><use xlink:href="#k" x="92.368" y="468.15"/><use xlink:href="#l" x="112.615" y="468.15"/><use xlink:href="#m" x="132.83" y="468.15"/><use xlink:href="#c" x="142.953" y="468.15"/><use xlink:href="#j" x="156.078" y="468.15"/><use xlink:href="#m" x="175.718" y="468.15"/><use xlink:href="#e" x="195.933" y="468.15"/><use xlink:href="#f" x="207.174" y="468.15"/><use xlink:href="#c" x="226.686" y="468.15"/><use xlink:href="#n" x="239.812" y="468.15"/><use xlink:href="#m" x="252.33" y="468.15"/><use xlink:href="#o" x="262.454" y="468.15"/><use xlink:href="#j" x="279.06" y="468.15"/><use xlink:href="#p" x="298.7" y="468.15"/></g><g style="fill:#000;fill-opacity:1"><use xlink:href="#q" x="538.305" y="424.517"/><use xlink:href="#m" x="547.151" y="424.517"/><use xlink:href="#r" x="567.365" y="424.517"/><use xlink:href="#j" x="576.211" y="424.517"/></g><g style="fill:#000;fill-opacity:1"><use xlink:href="#p" x="595.756" y="424.517"/><use xlink:href="#n" x="613.288" y="424.517"/><use xlink:href="#q" x="625.806" y="424.517"/><use xlink:href="#f" x="634.652" y="424.517"/><use xlink:href="#m" x="654.165" y="424.517"/><use xlink:href="#m" x="674.379" y="424.517"/><use xlink:href="#k" x="684.503" y="424.517"/></g><g style="fill:#000;fill-opacity:1"><use xlink:href="#j" x="704.654" y="424.517"/><use xlink:href="#m" x="724.294" y="424.517"/><use xlink:href="#c" x="734.417" y="424.517"/><use xlink:href="#d" x="747.542" y="424.517"/><use xlink:href="#o" x="767.182" y="424.517"/><use xlink:href="#q" x="783.789" y="424.517"/><use xlink:href="#m" x="792.635" y="424.517"/><use xlink:href="#j" x="812.849" y="424.517"/></g><g style="fill:#000;fill-opacity:1" clip-path="url(#s)"><use xlink:href="#b" x="528.762" y="464.436"/><use xlink:href="#l" x="549.008" y="464.436"/><use xlink:href="#q" x="569.223" y="464.436"/><use xlink:href="#o" x="578.069" y="464.436"/><use xlink:href="#m" x="594.675" y="464.436"/></g><g style="fill:#000;fill-opacity:1" clip-path="url(#t)"><use xlink:href="#b" x="604.703" y="464.436"/><use xlink:href="#f" x="624.95" y="464.436"/><use xlink:href="#u" x="644.462" y="464.436"/></g><g style="fill:#000;fill-opacity:1" clip-path="url(#v)"><use xlink:href="#w" x="653.18" y="464.436"/><use xlink:href="#g" x="672.054" y="464.436"/><use xlink:href="#d" x="703.158" y="464.436"/><use xlink:href="#c" x="722.798" y="464.436"/><use xlink:href="#q" x="735.924" y="464.436"/><use xlink:href="#o" x="744.77" y="464.436"/><use xlink:href="#h" x="761.376" y="464.436"/><use xlink:href="#n" x="780.92" y="464.436"/><use xlink:href="#q" x="793.438" y="464.436"/><use xlink:href="#f" x="802.284" y="464.436"/></g><use xlink:href="#m" x="821.701" y="464.436" style="fill:#000;fill-opacity:1"/><g style="fill:#000;fill-opacity:1"><use xlink:href="#k" x="1041.363" y="448.468"/><use xlink:href="#d" x="1061.609" y="448.468"/><use xlink:href="#g" x="1081.249" y="448.468"/><use xlink:href="#f" x="1112.354" y="448.468"/><use xlink:href="#l" x="1131.866" y="448.468"/></g><g style="fill:#000;fill-opacity:1"><use xlink:href="#u" x="1151.985" y="448.468"/><use xlink:href="#h" x="1160.831" y="448.468"/><use xlink:href="#i" x="1180.375" y="448.468"/><use xlink:href="#j" x="1200.622" y="448.468"/></g><path style="fill-rule:nonzero;fill:#4169a0;fill-opacity:1;stroke-width:2.526914;stroke-linecap:round;stroke-linejoin:round;stroke:#000;stroke-opacity:1;stroke-miterlimit:4" d="M791.915 172.73c0 12.385-12.657 22.425-28.27 22.425-15.62 0-28.277-10.04-28.277-22.425" transform="matrix(.90024 0 0 .99797 .935 0)"/><path style="stroke:none;fill-rule:nonzero;fill:#4169a0;fill-opacity:1" d="M684.363 191.988v41.13h8.067v-41.13"/><path style="fill:none;stroke-width:2.4;stroke-linecap:round;stroke-linejoin:round;stroke:#000;stroke-opacity:1;stroke-miterlimit:4" d="M683.615 276.974V238.54m10.486 38.434V238.54" transform="matrix(.99797 0 0 -.99797 .935 471.078)"/><path style="fill-rule:nonzero;fill:#c8c8c8;fill-opacity:1;stroke-width:2.4;stroke-linecap:round;stroke-linejoin:round;stroke:#000;stroke-opacity:1;stroke-miterlimit:4" d="M502.575 153.837H875.15v140.567H808.6l-20.768-79H589.976l-20.237 78.338h-67.164zm0 0" transform="matrix(.99797 0 0 -.99797 .935 471.078)"/><path style="fill-rule:nonzero;fill:#969696;fill-opacity:1;stroke-width:2.4;stroke-linecap:round;stroke-linejoin:round;stroke:#000;stroke-opacity:1;stroke-miterlimit:4" d="M518.126 324.124h37.17V304.73h-37.17zm303.9.392h37.173V305.12h-37.173zm0 0" transform="matrix(.99797 0 0 -.99797 .935 471.078)"/><path style="fill:none;stroke-width:8;stroke-linecap:round;stroke-linejoin:round;stroke:#87cefa;stroke-opacity:1;stroke-miterlimit:4" d="m540.097 298.956 33.744.016 20.229-78.437 189.722.105 20.745 78.864 33.936.125" transform="matrix(.99797 0 0 -.99797 .935 471.078)"/><path style="fill:none;stroke-width:15.24287;stroke-linecap:round;stroke-linejoin:round;stroke:#000;stroke-opacity:1;stroke-miterlimit:4" d="m586.926 293.578 8.087-30.57 8.09-30.57H774.48l16.604 61.543" transform="matrix(.99797 0 0 -.99797 .935 471.078)"/><path style="fill:none;stroke-width:10.670009;stroke-linecap:round;stroke-linejoin:round;stroke:#c8c8c8;stroke-opacity:1;stroke-miterlimit:4" d="m586.926 293.578 8.087-30.57 8.09-30.57H774.48l16.604 61.543" transform="matrix(.99797 0 0 -.99797 .935 471.078)"/><path style="fill:none;stroke-width:8;stroke-linecap:round;stroke-linejoin:round;stroke:#000;stroke-opacity:1;stroke-miterlimit:4" d="M537 376.12v-36.57" transform="matrix(.99797 0 0 -.99797 .935 471.078)"/><path style="fill-rule:evenodd;fill:#000;fill-opacity:1;stroke-width:2;stroke-linecap:butt;stroke-linejoin:miter;stroke:#000;stroke-opacity:1;stroke-miterlimit:4" d="m-122.89 537 8-8-28.002 8 28.002 8.001zm0 0" transform="matrix(0 -.99797 .99797 0 .935 0)"/><path style="fill:none;stroke-width:8;stroke-linecap:round;stroke-linejoin:round;stroke:#000;stroke-opacity:1;stroke-miterlimit:4" d="M840.661 376.12v-36.57" transform="matrix(.99797 0 0 -.99797 .935 471.078)"/><path style="fill-rule:evenodd;fill:#000;fill-opacity:1;stroke-width:2;stroke-linecap:butt;stroke-linejoin:miter;stroke:#000;stroke-opacity:1;stroke-miterlimit:4" d="m-122.89 840.661 8-8-28.002 8 28.002 8zm0 0" transform="matrix(0 -.99797 .99797 0 .935 0)"/><path style="fill:none;stroke-width:8;stroke-linecap:round;stroke-linejoin:round;stroke:#4169a0;stroke-opacity:1;stroke-miterlimit:4" d="m621.438 220.703 134.848.106" transform="matrix(.99797 0 0 -.99797 .935 471.078)"/><g style="fill:#000;fill-opacity:1"><use xlink:href="#x" x="642.009" y="86.282"/><use xlink:href="#y" x="653.822" y="86.282"/><use xlink:href="#z" x="671.498" y="86.282"/><use xlink:href="#A" x="686.443" y="86.282"/><use xlink:href="#B" x="694.404" y="86.282"/><use xlink:href="#C" x="712.598" y="86.282"/></g><path style="fill:none;stroke-width:2.32;stroke-linecap:round;stroke-linejoin:round;stroke:#000;stroke-opacity:1;stroke-miterlimit:4" d="M688.203 373.576V288.78" transform="matrix(.99797 0 0 -.99797 .935 471.078)"/><path style="fill-rule:evenodd;fill:#000;fill-opacity:1;stroke-width:1.16;stroke-linecap:butt;stroke-linejoin:miter;stroke:#000;stroke-opacity:1;stroke-miterlimit:4" d="m-173.979 688.203 4.639-4.639-16.24 4.639 16.24 4.642zm0 0" transform="matrix(0 -.99797 .99797 0 .935 0)"/><g style="fill:#000;fill-opacity:1" clip-path="url(#D)"><use xlink:href="#x" x="-1.675" y="366.513"/><use xlink:href="#C" x="10.137" y="366.513"/><use xlink:href="#B" x="27.813" y="366.513"/><use xlink:href="#E" x="46.007" y="366.513"/><use xlink:href="#F" x="56.124" y="366.513"/><use xlink:href="#x" x="73.685" y="366.513"/><use xlink:href="#G" x="85.497" y="366.513"/></g><path style="fill-rule:nonzero;fill:#c8c8c8;fill-opacity:1;stroke-width:2.4;stroke-linecap:round;stroke-linejoin:round;stroke:#000;stroke-opacity:1;stroke-miterlimit:4" d="M22.728 153.837h372.574v140.567H328.75l-20.765-79H110.13l-20.233 78.338H22.728zm0 0" transform="matrix(.99797 0 0 -.99797 .935 471.078)"/><path style="fill:none;stroke-width:8;stroke-linecap:round;stroke-linejoin:miter;stroke:#87cefa;stroke-opacity:1;stroke-miterlimit:4" d="M6.16 309.833h405.715" transform="matrix(.99797 0 0 -.99797 .935 471.078)"/><path style="fill-rule:nonzero;fill:#969696;fill-opacity:1;stroke-width:2.4;stroke-linecap:round;stroke-linejoin:round;stroke:#000;stroke-opacity:1;stroke-miterlimit:4" d="M36.835 342.548h37.177v-19.394H36.835zm305.535 0h37.178v-19.394H342.37zm0 0" transform="matrix(.99797 0 0 -.99797 .935 471.078)"/><path style="fill:none;stroke-width:15.24287;stroke-linecap:round;stroke-linejoin:round;stroke:#000;stroke-opacity:1;stroke-miterlimit:4" d="m106.939 412.519 8.086-30.57 8.087-30.574h171.38l16.6 61.543" transform="matrix(.99797 0 0 -.99797 .935 471.078)"/><path style="fill:none;stroke-width:10.670009;stroke-linecap:round;stroke-linejoin:round;stroke:#c8c8c8;stroke-opacity:1;stroke-miterlimit:4" d="m106.939 412.519 8.086-30.57 8.087-30.574h171.38l16.6 61.543" transform="matrix(.99797 0 0 -.99797 .935 471.078)"/><path style="fill:none;stroke-width:2.4;stroke-linecap:round;stroke-linejoin:round;stroke:#000;stroke-opacity:1;stroke-miterlimit:4" d="m52.469 141.577 102.403 166.401" transform="matrix(.99797 0 0 -.99797 .935 471.078)"/><path style="fill-rule:evenodd;fill:#000;fill-opacity:1;stroke-width:1.02199;stroke-linecap:butt;stroke-linejoin:miter;stroke:#000;stroke-opacity:1;stroke-miterlimit:4" d="m58.044-185.558 4.09-4.09-14.308 4.088 14.31 4.088zm0 0" transform="matrix(-.61413 .99797 -.99797 -.61413 .935 0)"/><g style="fill:#000;fill-opacity:1"><use xlink:href="#H" x="154.444" y="366.513"/><use xlink:href="#I" x="182.438" y="366.513"/><use xlink:href="#G" x="200.027" y="366.513"/><use xlink:href="#x" x="211.294" y="366.513"/><use xlink:href="#A" x="223.107" y="366.513"/><use xlink:href="#J" x="231.068" y="366.513"/><use xlink:href="#C" x="246.847" y="366.513"/></g><g style="fill:#000;fill-opacity:1"><use xlink:href="#K" x="319.419" y="366.513"/><use xlink:href="#F" x="337.642" y="366.513"/><use xlink:href="#A" x="355.203" y="366.513"/></g><g style="fill:#000;fill-opacity:1"><use xlink:href="#B" x="363.078" y="366.513"/><use xlink:href="#L" x="381.271" y="366.513"/><use xlink:href="#F" x="397.05" y="366.513"/><use xlink:href="#B" x="414.611" y="366.513"/></g><path style="fill:none;stroke-width:2.4;stroke-linecap:round;stroke-linejoin:round;stroke:#000;stroke-opacity:1;stroke-miterlimit:4" d="M206.07 135.178v40.003" transform="matrix(.99797 0 0 -.99797 .935 471.078)"/><path style="fill-rule:evenodd;fill:#000;fill-opacity:1;stroke-width:1.2;stroke-linecap:butt;stroke-linejoin:miter;stroke:#000;stroke-opacity:1;stroke-miterlimit:4" d="m306.459-206.07 4.803-4.803-16.8 4.803 16.8 4.799zm0 0" transform="matrix(0 .99797 -.99797 0 .935 0)"/><path style="fill:none;stroke-width:2.4;stroke-linecap:round;stroke-linejoin:round;stroke:#000;stroke-opacity:1;stroke-miterlimit:4" d="M366.071 139.98 286.07 349.578" transform="matrix(.99797 0 0 -.99797 .935 471.078)"/><path style="fill-rule:evenodd;fill:#000;fill-opacity:1;stroke-width:1.121114;stroke-linecap:butt;stroke-linejoin:miter;stroke:#000;stroke-opacity:1;stroke-miterlimit:4" d="m211.163-208.897 4.482-4.482-15.696 4.48 15.694 4.487zm0 0" transform="rotate(69.109 .467 .679) scale(1.06819)"/><path style="fill:none;stroke-width:8;stroke-linecap:round;stroke-linejoin:round;stroke:#000;stroke-opacity:1;stroke-miterlimit:4" d="M54.911 393.723v-36.575" transform="matrix(.99797 0 0 -.99797 .935 471.078)"/><path style="fill-rule:evenodd;fill:#000;fill-opacity:1;stroke-width:2;stroke-linecap:butt;stroke-linejoin:miter;stroke:#000;stroke-opacity:1;stroke-miterlimit:4" d="m-105.288 54.911 8-8-28.002 8 28.002 8zm0 0" transform="matrix(0 -.99797 .99797 0 .935 0)"/><path style="fill:none;stroke-width:8;stroke-linecap:round;stroke-linejoin:round;stroke:#000;stroke-opacity:1;stroke-miterlimit:4" d="M360.168 393.723v-36.575" transform="matrix(.99797 0 0 -.99797 .935 471.078)"/><path style="fill-rule:evenodd;fill:#000;fill-opacity:1;stroke-width:2;stroke-linecap:butt;stroke-linejoin:miter;stroke:#000;stroke-opacity:1;stroke-miterlimit:4" d="m-105.288 360.168 8-8-28.002 8 28.002 8.001zm0 0" transform="matrix(0 -.99797 .99797 0 .935 0)"/><g style="fill:#000;fill-opacity:1"><use xlink:href="#z" x="129.889" y="21.837"/><use xlink:href="#C" x="144.835" y="21.837"/><use xlink:href="#x" x="162.511" y="21.837"/><use xlink:href="#x" x="174.324" y="21.837"/><use xlink:href="#C" x="186.136" y="21.837"/><use xlink:href="#M" x="203.812" y="21.837"/><use xlink:href="#E" x="214.159" y="21.837"/><use xlink:href="#N" x="224.276" y="21.837"/><use xlink:href="#I" x="232.238" y="21.837"/><use xlink:href="#B" x="249.827" y="21.837"/><use xlink:href="#J" x="268.021" y="21.837"/></g><path style="fill:none;stroke-width:2.4;stroke-linecap:round;stroke-linejoin:round;stroke:#000;stroke-opacity:1;stroke-miterlimit:4" d="m121.292 455.137-26.675.055-24.68-106.749" transform="matrix(.99797 0 0 -.99797 .935 471.078)"/><path style="fill-rule:evenodd;fill:#000;fill-opacity:1;stroke-width:1.169161;stroke-linecap:butt;stroke-linejoin:miter;stroke:#000;stroke-opacity:1;stroke-miterlimit:4" d="m-92.621 93.511 4.677-4.674-16.373 4.674 16.37 4.678zm0 0" transform="rotate(-76.982 .467 -.588) scale(1.02429)"/><path style="fill:none;stroke-width:8;stroke-linecap:round;stroke-linejoin:round;stroke:#000;stroke-opacity:1;stroke-miterlimit:4" d="M207.726 408.46v-36.57" transform="matrix(.99797 0 0 -.99797 .935 471.078)"/><path style="fill-rule:evenodd;fill:#000;fill-opacity:1;stroke-width:2;stroke-linecap:butt;stroke-linejoin:miter;stroke:#000;stroke-opacity:1;stroke-miterlimit:4" d="m-90.551 207.726 8-8-28.002 8 28.002 8zm0 0" transform="matrix(0 -.99797 .99797 0 .935 0)"/><path style="fill:none;stroke-width:2.4;stroke-linecap:round;stroke-linejoin:round;stroke:#000;stroke-opacity:1;stroke-miterlimit:4" d="m296.594 455.137 26.68.055 24.678-106.749" transform="matrix(.99797 0 0 -.99797 .935 471.078)"/><path style="fill-rule:evenodd;fill:#000;fill-opacity:1;stroke-width:1.169161;stroke-linecap:butt;stroke-linejoin:miter;stroke:#000;stroke-opacity:1;stroke-miterlimit:4" d="m-184.334 303.171 4.678-4.676-16.367 4.679 16.364 4.68zm0 0" transform="rotate(-103.018 .467 -.372) scale(1.02429)"/></svg>