<svg xmlns="http://www.w3.org/2000/svg" xmlns:xlink="http://www.w3.org/1999/xlink" width="835.691" height="321.905" viewBox="0 0 626.768 241.429" version="1.2"><defs><symbol overflow="visible" id="b"><path style="stroke:none" d="M7.328-11.578c-1.156 0-2.07.45-2.734 1.344-.668.898-1 2.132-1 3.703 0 1.562.332 2.797 1 3.703.664.898 1.578 1.344 2.734 1.344 1.145 0 2.05-.454 2.719-1.36.676-.906 1.015-2.133 1.015-3.687 0-1.551-.34-2.782-1.015-3.688-.668-.906-1.574-1.36-2.719-1.36zm0-1.828c1.875 0 3.344.61 4.406 1.828 1.07 1.21 1.61 2.89 1.61 5.047 0 2.148-.54 3.828-1.61 5.047C10.672-.266 9.204.344 7.328.344c-1.875 0-3.344-.61-4.406-1.828-1.063-1.22-1.594-2.899-1.594-5.047 0-2.157.531-3.836 1.594-5.047 1.062-1.219 2.531-1.828 4.406-1.828zm0 0"/></symbol><symbol overflow="visible" id="k"><path style="stroke:none" d="M13.14-7.906V0h-2.156v-7.828c0-1.238-.246-2.164-.734-2.781-.48-.614-1.2-.922-2.156-.922-1.168 0-2.086.37-2.75 1.11-.668.741-1 1.745-1 3.015V0H2.172v-13.094h2.172v2.031c.508-.78 1.113-1.363 1.812-1.75.696-.394 1.5-.593 2.407-.593 1.507 0 2.648.469 3.421 1.406.77.93 1.157 2.293 1.157 4.094zm0 0"/></symbol><symbol overflow="visible" id="c"><path style="stroke:none" d="M2.031-5.172v-7.922h2.156v7.844c0 1.242.239 2.172.72 2.797.488.617 1.21.922 2.171.922 1.164 0 2.082-.367 2.75-1.11.676-.738 1.016-1.75 1.016-3.03v-7.423H13V0h-2.156v-2.016C10.32-1.21 9.719-.617 9.03-.234c-.686.382-1.49.578-2.405.578-1.5 0-2.64-.469-3.422-1.406C2.422-2 2.031-3.368 2.031-5.173zm5.422-8.234zm0 0"/></symbol><symbol overflow="visible" id="d"><path style="stroke:none" d="M2.25-18.188h2.156V0H2.25zm0 0"/></symbol><symbol overflow="visible" id="e"><path style="stroke:none" d="M13.453-7.078v1.047h-9.89c.093 1.48.535 2.61 1.328 3.39.8.774 1.914 1.157 3.343 1.157a9.6 9.6 0 0 0 2.407-.297c.78-.207 1.55-.516 2.312-.922v2.031c-.773.336-1.562.586-2.375.75-.812.176-1.637.266-2.469.266-2.086 0-3.734-.61-4.953-1.828-1.219-1.22-1.828-2.864-1.828-4.938 0-2.133.578-3.832 1.734-5.094 1.157-1.257 2.711-1.89 4.672-1.89 1.758 0 3.149.57 4.172 1.703 1.031 1.137 1.547 2.68 1.547 4.625zm-2.156-.64c-.012-1.177-.34-2.114-.985-2.813-.648-.696-1.496-1.047-2.546-1.047-1.2 0-2.164.34-2.891 1.015-.719.68-1.133 1.633-1.234 2.86zm0 0"/></symbol><symbol overflow="visible" id="g"><path style="stroke:none" d="M9.844-11.078a2.63 2.63 0 0 0-.797-.313 4.33 4.33 0 0 0-.938-.093c-1.218 0-2.152.398-2.796 1.187-.649.793-.97 1.93-.97 3.406V0h-2.17v-13.094h2.172v2.031c.445-.789 1.031-1.378 1.75-1.765.726-.383 1.613-.578 2.656-.578.145 0 .305.011.484.031.176.023.375.047.594.078zm0 0"/></symbol><symbol overflow="visible" id="h"><path style="stroke:none" d="M13.453-7.078v1.047h-9.89c.093 1.48.535 2.61 1.328 3.39.8.774 1.914 1.157 3.343 1.157a9.6 9.6 0 0 0 2.407-.297c.78-.207 1.55-.516 2.312-.922v2.031c-.773.336-1.562.586-2.375.75-.812.176-1.637.266-2.469.266-2.086 0-3.734-.61-4.953-1.828-1.219-1.22-1.828-2.864-1.828-4.938 0-2.133.578-3.832 1.734-5.094 1.157-1.257 2.711-1.89 4.672-1.89 1.758 0 3.149.57 4.172 1.703 1.031 1.137 1.547 2.68 1.547 4.625zm-2.156-.64c-.012-1.177-.34-2.114-.985-2.813-.648-.696-1.496-1.047-2.546-1.047-1.2 0-2.164.34-2.891 1.015-.719.68-1.133 1.633-1.234 2.86zM9.234-19.142h2.329L7.75-14.75H5.969zm0 0"/></symbol><symbol overflow="visible" id="i"><path style="stroke:none" d="M10.594-12.703v2.031a8.293 8.293 0 0 0-1.89-.703 8.756 8.756 0 0 0-2.032-.234c-1.063 0-1.867.168-2.406.5-.532.324-.797.812-.797 1.468 0 .5.187.891.562 1.172.383.281 1.157.555 2.313.813l.734.172c1.531.324 2.613.78 3.25 1.375.645.593.969 1.43.969 2.5 0 1.218-.48 2.183-1.438 2.89C8.9-.008 7.58.344 5.891.344c-.7 0-1.43-.07-2.188-.203a17.275 17.275 0 0 1-2.406-.625v-2.22c.789.419 1.57.731 2.344.938.77.2 1.535.297 2.296.297 1.008 0 1.786-.172 2.329-.515.55-.344.828-.832.828-1.47 0-.581-.2-1.03-.594-1.343-.398-.312-1.258-.61-2.578-.89l-.75-.188c-1.336-.27-2.297-.695-2.89-1.281-.595-.582-.891-1.38-.891-2.39 0-1.227.437-2.177 1.312-2.845.875-.675 2.113-1.015 3.719-1.015.789 0 1.535.058 2.234.172a9.06 9.06 0 0 1 1.938.53zm0 0"/></symbol><symbol overflow="visible" id="j"><path style="stroke:none" d="M2.25-13.094h2.156V0H2.25zm0-5.094h2.156v2.72H2.25zm0 0"/></symbol><symbol overflow="visible" id="a"><path style="stroke:none" d="M12.453-10.578c.531-.969 1.172-1.68 1.922-2.14.75-.458 1.629-.688 2.64-.688 1.364 0 2.415.48 3.157 1.437.738.95 1.11 2.305 1.11 4.063V0h-2.157v-7.828c0-1.258-.227-2.192-.672-2.797-.437-.602-1.117-.906-2.031-.906-1.117 0-1.996.37-2.64 1.11-.65.741-.97 1.745-.97 3.015V0h-2.171v-7.828c0-1.258-.227-2.192-.672-2.797-.438-.602-1.121-.906-2.047-.906-1.094 0-1.965.375-2.61 1.125-.648.742-.968 1.742-.968 3V0H2.172v-13.094h2.172v2.031c.488-.8 1.07-1.39 1.75-1.765.687-.383 1.504-.578 2.453-.578.945 0 1.754.246 2.422.734.664.48 1.16 1.18 1.484 2.094zm0 0"/></symbol><symbol overflow="visible" id="l"><path style="stroke:none" d="M8.89-18.188v1.782H6.829c-.773 0-1.308.156-1.61.468-.304.313-.452.876-.452 1.688v1.156h3.546v1.672H4.767V0H2.609v-11.422H.547v-1.672h2.062V-14c0-1.457.336-2.52 1.016-3.188.676-.664 1.75-1 3.219-1zm0 0"/></symbol><symbol overflow="visible" id="m"><path style="stroke:none" d="M4.39-16.813v3.72h4.423v1.671H4.39v7.11c0 1.062.144 1.75.437 2.062.29.305.883.453 1.781.453h2.204V0H6.608C4.941 0 3.79-.305 3.156-.922c-.625-.625-.937-1.754-.937-3.39v-7.11H.64v-1.672h1.578v-3.719zm0 0"/></symbol><symbol overflow="visible" id="n"><path style="stroke:none" d="M11.656-6.531c0-1.582-.328-2.82-.984-3.719-.649-.906-1.54-1.36-2.672-1.36-1.148 0-2.043.454-2.688 1.36-.648.898-.968 2.137-.968 3.719 0 1.586.32 2.824.968 3.718.645.899 1.54 1.344 2.688 1.344 1.133 0 2.023-.445 2.672-1.343.656-.895.984-2.133.984-3.72zM4.344-11.11c.445-.77 1.015-1.344 1.703-1.72.687-.382 1.508-.577 2.469-.577 1.593 0 2.882.633 3.875 1.89 1 1.262 1.5 2.922 1.5 4.985 0 2.054-.5 3.715-1.5 4.984-.993 1.262-2.282 1.89-3.875 1.89-.961 0-1.782-.187-2.47-.562-.687-.383-1.257-.969-1.702-1.75V0H2.172v-18.188h2.172zm0 0"/></symbol><symbol overflow="visible" id="o"><path style="stroke:none" d="M8.203-6.578c-1.742 0-2.945.2-3.61.594-.667.398-1 1.074-1 2.03 0 .763.25 1.368.75 1.813.5.45 1.18.672 2.048.672 1.195 0 2.156-.422 2.875-1.265.718-.844 1.078-1.961 1.078-3.36v-.484zm4.297-.89V0h-2.156v-1.984C9.852-1.191 9.238-.602 8.5-.22c-.73.375-1.621.563-2.672.563-1.344 0-2.414-.375-3.203-1.125-.793-.758-1.188-1.77-1.188-3.031 0-1.47.489-2.579 1.47-3.329.988-.75 2.46-1.125 4.421-1.125h3.016v-.203c0-.988-.328-1.754-.985-2.297-.648-.539-1.558-.812-2.734-.812-.75 0-1.48.09-2.188.265-.71.18-1.39.45-2.046.813v-2c.789-.3 1.554-.523 2.296-.672a10.402 10.402 0 0 1 2.157-.234c1.894 0 3.312.492 4.25 1.469.937.98 1.406 2.468 1.406 4.468zm0 0"/></symbol><symbol overflow="visible" id="p"><path style="stroke:none" d="M10.875-11.11v-7.078h2.14V0h-2.14v-1.969c-.46.782-1.031 1.367-1.719 1.75-.687.375-1.515.563-2.484.563-1.586 0-2.871-.63-3.86-1.89-.992-1.27-1.484-2.93-1.484-4.985 0-2.063.492-3.723 1.484-4.985.989-1.257 2.274-1.89 3.86-1.89.969 0 1.797.195 2.484.578.688.375 1.258.95 1.719 1.719zM3.547-6.53c0 1.586.32 2.824.969 3.718.656.899 1.55 1.344 2.687 1.344 1.133 0 2.031-.445 2.688-1.343.656-.895.984-2.133.984-3.72 0-1.581-.328-2.82-.984-3.718-.657-.906-1.555-1.36-2.688-1.36-1.137 0-2.031.454-2.687 1.36-.649.898-.97 2.137-.97 3.719zm0 0"/></symbol><symbol overflow="visible" id="r"><path style="stroke:none" d="M2.25-13.094h2.156V.234c0 1.664-.32 2.875-.953 3.625-.637.75-1.656 1.125-3.062 1.125h-.829V3.156h.579c.82 0 1.379-.195 1.671-.578.29-.375.438-1.156.438-2.344zm0-5.094h2.156v2.72H2.25zm0 0"/></symbol><clipPath id="f"><path d="M.625 216H71v21H.625zm0 0"/></clipPath><clipPath id="q"><path d="M573 217h27v23.86h-27zm0 0"/></clipPath><clipPath id="s"><path d="M603 219h22.914v17H603zm0 0"/></clipPath></defs><path style="stroke:none;fill-rule:nonzero;fill:#4169a0;fill-opacity:1" d="m332.805 78.773-17.336 35.88-85.864-.403-20.156-77.8-17.734-1.208-.406-11.289h30.234V11.86l-106.016-.402-.804 111.656h18.539l-.399 52.813h-46.36v-52.711h16.528L103.43.977l129.804.402.403 22.976h7.66l14.914 54.02zm0 0"/><path style="fill-rule:nonzero;fill:#c8c8c8;fill-opacity:1;stroke-width:2.4;stroke-linecap:round;stroke-linejoin:round;stroke:#000;stroke-opacity:1;stroke-miterlimit:4" d="M142.67 65.31h372.566v140.57H448.69l-20.768-78.999H230.067l-20.235 78.338H142.67zm0 0" transform="matrix(.99764 0 0 -.99764 .624 240.86)"/><path style="fill:none;stroke-width:4;stroke-linecap:round;stroke-linejoin:round;stroke:#87cefa;stroke-opacity:1;stroke-miterlimit:4" d="M222.248 202.247 239.222 138h179.807l15.701 64.665" transform="matrix(.99764 0 0 -.99764 .624 240.86)"/><path style="fill:none;stroke-width:4;stroke-linecap:round;stroke-linejoin:round;stroke:#8b8989;stroke-opacity:1;stroke-miterlimit:4" d="m232.828 206.667 7.576-28.684 7.58-28.685h160.567l14.021 57.745" transform="matrix(.99764 0 0 -.99764 .624 240.86)"/><path style="fill:none;stroke-width:2.4;stroke-linecap:round;stroke-linejoin:miter;stroke:#000;stroke-opacity:1;stroke-miterlimit:4" d="M176.186 217.584h45.256v12.122H114.768V93.204" transform="matrix(.99764 0 0 -.99764 .624 240.86)"/><path style="fill:none;stroke-width:2.4;stroke-linecap:round;stroke-linejoin:round;stroke:#000;stroke-opacity:1;stroke-miterlimit:4" d="M102.65 93.17v147.06h130.914V217.6h8.082l14.58-54.782h143.406l13.66 52.867h10.181v24.546h129.301" transform="matrix(.99764 0 0 -.99764 .624 240.86)"/><path style="fill:none;stroke-width:2.4;stroke-linecap:round;stroke-linejoin:miter;stroke:#000;stroke-opacity:1;stroke-miterlimit:4" d="M480.85 217.584h-45.255v12.122h116.772" transform="matrix(.99764 0 0 -.99764 .624 240.86)"/><path style="stroke:none;fill-rule:nonzero;fill:#000;fill-opacity:1" d="M181.434 23.773h13.101v12.09h-13.101zm279.918-.628h13.101v12.093h-13.101zm0 0"/><path style="fill:none;stroke-width:2.4;stroke-linecap:round;stroke-linejoin:round;stroke:#000;stroke-opacity:1;stroke-miterlimit:4" d="m85.562 127.426.275-62.116h47.06v62.39" transform="matrix(.99764 0 0 -.99764 .624 240.86)"/><path style="fill:none;stroke-width:4;stroke-linecap:round;stroke-linejoin:round;stroke:#000;stroke-opacity:1;stroke-miterlimit:4" d="M556.666 234.965H578.1" transform="matrix(.99764 0 0 -.99764 .624 240.86)"/><path style="fill-rule:evenodd;fill:#000;fill-opacity:1;stroke-width:1;stroke-linecap:butt;stroke-linejoin:miter;stroke:#000;stroke-opacity:1;stroke-miterlimit:4" d="m573.295 234.965-3.998-4.002 13.998 4.002-13.998 3.997zm0 0" transform="matrix(.99764 0 0 -.99764 .624 240.86)"/><g style="fill:#000;fill-opacity:1"><use xlink:href="#a" x="102.076" y="235.879"/><use xlink:href="#b" x="125.397" y="235.879"/><use xlink:href="#c" x="140.026" y="235.879"/><use xlink:href="#d" x="155.183" y="235.879"/></g><use xlink:href="#e" x="161.743" y="235.879" style="fill:#000;fill-opacity:1"/><g style="fill:#000;fill-opacity:1" clip-path="url(#f)"><use xlink:href="#g" x="-1.623" y="235.879"/><use xlink:href="#h" x="8.218" y="235.879"/><use xlink:href="#i" x="22.943" y="235.879"/><use xlink:href="#j" x="35.394" y="235.879"/><use xlink:href="#k" x="42.026" y="235.879"/><use xlink:href="#e" x="57.182" y="235.879"/></g><g style="fill:#000;fill-opacity:1"><use xlink:href="#g" x="206.23" y="235.879"/><use xlink:href="#e" x="216.071" y="235.879"/><use xlink:href="#k" x="230.796" y="235.879"/><use xlink:href="#l" x="245.952" y="235.879"/><use xlink:href="#b" x="254.38" y="235.879"/><use xlink:href="#g" x="269.009" y="235.879"/><use xlink:href="#m" x="278.85" y="235.879"/></g><g style="fill:#000;fill-opacity:1"><use xlink:href="#a" x="410.419" y="235.879"/><use xlink:href="#e" x="433.74" y="235.879"/><use xlink:href="#a" x="448.465" y="235.879"/><use xlink:href="#n" x="471.786" y="235.879"/><use xlink:href="#g" x="486.966" y="235.879"/><use xlink:href="#o" x="496.807" y="235.879"/><use xlink:href="#k" x="511.46" y="235.879"/><use xlink:href="#e" x="526.616" y="235.879"/></g><g style="fill:#000;fill-opacity:1"><use xlink:href="#p" x="319.554" y="235.879"/><use xlink:href="#g" x="334.734" y="235.879"/><use xlink:href="#o" x="344.575" y="235.879"/><use xlink:href="#j" x="359.228" y="235.879"/><use xlink:href="#k" x="365.86" y="235.879"/></g><g style="fill:#000;fill-opacity:1" clip-path="url(#q)"><use xlink:href="#r" x="573.713" y="235.879"/><use xlink:href="#b" x="580.345" y="235.879"/><use xlink:href="#j" x="594.975" y="235.879"/></g><g style="fill:#000;fill-opacity:1" clip-path="url(#s)"><use xlink:href="#k" x="601.511" y="235.879"/><use xlink:href="#m" x="616.667" y="235.879"/></g><path style="fill:none;stroke-width:1.6;stroke-linecap:round;stroke-linejoin:miter;stroke:#000;stroke-opacity:1;stroke-miterlimit:4" d="m59.239 32.389 43.998 50.29" transform="matrix(.99764 0 0 -.99764 .624 240.86)"/><path style="fill-rule:evenodd;fill:#000;fill-opacity:1;stroke-width:.602061;stroke-linecap:butt;stroke-linejoin:miter;stroke:#000;stroke-opacity:1;stroke-miterlimit:4" d="m43.565-137.143 2.406-2.41-8.426 2.407 8.428 2.406zm0 0" transform="matrix(-.87294 .99764 -.99764 -.87294 .624 0)"/><path style="fill:none;stroke-width:1.6;stroke-linecap:round;stroke-linejoin:miter;stroke:#000;stroke-opacity:1;stroke-miterlimit:4" d="m139.075 30.494 27.914 54.088" transform="matrix(.99764 0 0 -.99764 .624 240.86)"/><path style="fill-rule:evenodd;fill:#000;fill-opacity:1;stroke-width:.710905;stroke-linecap:butt;stroke-linejoin:miter;stroke:#000;stroke-opacity:1;stroke-miterlimit:4" d="m61.488-195.79 2.844-2.843-9.952 2.846 9.952 2.844zm0 0" transform="rotate(117.298 .312 .19) scale(1.12267)"/><path style="fill:none;stroke-width:1.6;stroke-linecap:round;stroke-linejoin:miter;stroke:#000;stroke-opacity:1;stroke-miterlimit:4" d="m246.101 31.465 23.525 104.755" transform="matrix(.99764 0 0 -.99764 .624 240.86)"/><path style="fill-rule:evenodd;fill:#000;fill-opacity:1;stroke-width:.780563;stroke-linecap:butt;stroke-linejoin:miter;stroke:#000;stroke-opacity:1;stroke-miterlimit:4" d="m48.766-279.174 3.122-3.117-10.929 3.12 10.928 3.121zm0 0" transform="matrix(-.22402 .99764 -.99764 -.22402 .624 0)"/><path style="fill:none;stroke-width:1.6;stroke-linecap:round;stroke-linejoin:miter;stroke:#000;stroke-opacity:1;stroke-miterlimit:4" d="m351.502 31.19-10.654 115.868" transform="matrix(.99764 0 0 -.99764 .624 240.86)"/><path style="fill-rule:evenodd;fill:#000;fill-opacity:1;stroke-width:.796638;stroke-linecap:butt;stroke-linejoin:miter;stroke:#000;stroke-opacity:1;stroke-miterlimit:4" d="m131.032-329.382 3.187-3.188-11.15 3.184 11.151 3.191zm0 0" transform="rotate(84.746 .312 .342) scale(1.00185)"/><path style="fill:none;stroke-width:1.6;stroke-linecap:round;stroke-linejoin:miter;stroke:#000;stroke-opacity:1;stroke-miterlimit:4" d="m471.818 30.913-60.824 117.645" transform="matrix(.99764 0 0 -.99764 .624 240.86)"/><path style="fill-rule:evenodd;fill:#000;fill-opacity:1;stroke-width:.710644;stroke-linecap:butt;stroke-linejoin:miter;stroke:#000;stroke-opacity:1;stroke-miterlimit:4" d="m246.634-286.425 2.847-2.84-9.951 2.844 9.95 2.838zm0 0" transform="matrix(.51578 .99764 -.99764 .51578 .624 0)"/><path style="fill:none;stroke-width:1.6;stroke-linecap:round;stroke-linejoin:miter;stroke:#000;stroke-opacity:1;stroke-miterlimit:4" d="M584.634 32.957 474.907 205.074" transform="matrix(.99764 0 0 -.99764 .624 240.86)"/><path style="fill-rule:evenodd;fill:#000;fill-opacity:1;stroke-width:.67458;stroke-linecap:butt;stroke-linejoin:miter;stroke:#000;stroke-opacity:1;stroke-miterlimit:4" d="m246.512-321.192 2.697-2.7-9.442 2.7 9.442 2.698zm0 0" transform="matrix(.636 .99764 -.99764 .636 .624 0)"/></svg>