<svg xmlns="http://www.w3.org/2000/svg" width="422.137" height="420.809" viewBox="0 0 316.603 315.607" version="1.2"><defs><clipPath id="b"><path d="M266 245h50.207v4H266zm0 0"/></clipPath><clipPath id="au"><path d="M266 87h50.207v4H266zm0 0"/></clipPath><clipPath id="c"><path d="M266 256h50.207v5H266zm0 0"/></clipPath><clipPath id="d"><path d="M266 262h50.207v4H266zm0 0"/></clipPath><clipPath id="e"><path d="M266 251h50.207v4H266zm0 0"/></clipPath><clipPath id="f"><path d="M266 242h50.207v5H266zm0 0"/></clipPath><clipPath id="g"><path d="M266 248h50.207v4H266zm0 0"/></clipPath><clipPath id="h"><path d="M266 254h50.207v4H266zm0 0"/></clipPath><clipPath id="i"><path d="M266 259h50.207v5H266zm0 0"/></clipPath><clipPath id="j"><path d="M266 300h50.207v4H266zm0 0"/></clipPath><clipPath id="k"><path d="M266 294h50.207v5H266zm0 0"/></clipPath><clipPath id="l"><path d="M266 283h50.207v4H266zm0 0"/></clipPath><clipPath id="m"><path d="M266 277h50.207v5H266zm0 0"/></clipPath><clipPath id="n"><path d="M266 289h50.207v4H266zm0 0"/></clipPath><clipPath id="o"><path d="M266 297h50.207v5H266zm0 0"/></clipPath><clipPath id="p"><path d="M266 291h50.207v5H266zm0 0"/></clipPath><clipPath id="q"><path d="M266 286h50.207v4H266zm0 0"/></clipPath><clipPath id="r"><path d="M266 280h50.207v4H266zm0 0"/></clipPath><clipPath id="s"><path d="M278 265h5v50.215h-5zm0 0"/></clipPath><clipPath id="t"><path d="M284 265h4v50.215h-4zm0 0"/></clipPath><clipPath id="u"><path d="M295 265h5v50.215h-5zm0 0"/></clipPath><clipPath id="v"><path d="M301 265h4v50.215h-4zm0 0"/></clipPath><clipPath id="w"><path d="M290 265h4v50.215h-4zm0 0"/></clipPath><clipPath id="x"><path d="M281 265h4v50.215h-4zm0 0"/></clipPath><clipPath id="y"><path d="M287 265h4v50.215h-4zm0 0"/></clipPath><clipPath id="z"><path d="M292 265h5v50.215h-5zm0 0"/></clipPath><clipPath id="A"><path d="M298 265h5v50.215h-5zm0 0"/></clipPath><clipPath id="B"><path d="M240 265h4v50.215h-4zm0 0"/></clipPath><clipPath id="C"><path d="M246 265h4v50.215h-4zm0 0"/></clipPath><clipPath id="D"><path d="M257 265h4v50.215h-4zm0 0"/></clipPath><clipPath id="E"><path d="M263 265h4v50.215h-4zm0 0"/></clipPath><clipPath id="F"><path d="M251 265h5v50.215h-5zm0 0"/></clipPath><clipPath id="G"><path d="M243 265h4v50.215h-4zm0 0"/></clipPath><clipPath id="H"><path d="M249 265h4v50.215h-4zm0 0"/></clipPath><clipPath id="I"><path d="M254 265h5v50.215h-5zm0 0"/></clipPath><clipPath id="J"><path d="M260 265h4v50.215h-4zm0 0"/></clipPath><clipPath id="K"><path d="M266 163h50.207v5H266zm0 0"/></clipPath><clipPath id="L"><path d="M266 169h50.207v4H266zm0 0"/></clipPath><clipPath id="M"><path d="M266 180h50.207v5H266zm0 0"/></clipPath><clipPath id="N"><path d="M266 186h50.207v5H266zm0 0"/></clipPath><clipPath id="O"><path d="M266 175h50.207v4H266zm0 0"/></clipPath><clipPath id="P"><path d="M266 166h50.207v5H266zm0 0"/></clipPath><clipPath id="Q"><path d="M266 172h50.207v4H266zm0 0"/></clipPath><clipPath id="R"><path d="M266 178h50.207v4H266zm0 0"/></clipPath><clipPath id="S"><path d="M266 183h50.207v5H266zm0 0"/></clipPath><clipPath id="T"><path d="M266 224h50.207v4H266zm0 0"/></clipPath><clipPath id="U"><path d="M266 218h50.207v5H266zm0 0"/></clipPath><clipPath id="V"><path d="M266 207h50.207v4H266zm0 0"/></clipPath><clipPath id="W"><path d="M266 201h50.207v5H266zm0 0"/></clipPath><clipPath id="X"><path d="M266 213h50.207v4H266zm0 0"/></clipPath><clipPath id="Y"><path d="M266 221h50.207v5H266zm0 0"/></clipPath><clipPath id="Z"><path d="M266 216h50.207v4H266zm0 0"/></clipPath><clipPath id="aa"><path d="M266 210h50.207v4H266zm0 0"/></clipPath><clipPath id="ab"><path d="M266 204h50.207v5H266zm0 0"/></clipPath><clipPath id="ac"><path d="M187 265h4v50.215h-4zm0 0"/></clipPath><clipPath id="ad"><path d="M181 265h4v50.215h-4zm0 0"/></clipPath><clipPath id="ae"><path d="M170 265h4v50.215h-4zm0 0"/></clipPath><clipPath id="af"><path d="M164 265h4v50.215h-4zm0 0"/></clipPath><clipPath id="ag"><path d="M175 265h5v50.215h-5zm0 0"/></clipPath><clipPath id="ah"><path d="M184 265h4v50.215h-4zm0 0"/></clipPath><clipPath id="ai"><path d="M178 265h5v50.215h-5zm0 0"/></clipPath><clipPath id="aj"><path d="M172 265h5v50.215h-5zm0 0"/></clipPath><clipPath id="ak"><path d="M167 265h4v50.215h-4zm0 0"/></clipPath><clipPath id="al"><path d="M225 265h4v50.215h-4zm0 0"/></clipPath><clipPath id="am"><path d="M219 265h5v50.215h-5zm0 0"/></clipPath><clipPath id="an"><path d="M208 265h4v50.215h-4zm0 0"/></clipPath><clipPath id="ao"><path d="M202 265h5v50.215h-5zm0 0"/></clipPath><clipPath id="ap"><path d="M214 265h4v50.215h-4zm0 0"/></clipPath><clipPath id="aq"><path d="M222 265h4v50.215h-4zm0 0"/></clipPath><clipPath id="ar"><path d="M216 265h5v50.215h-5zm0 0"/></clipPath><clipPath id="as"><path d="M211 265h4v50.215h-4zm0 0"/></clipPath><clipPath id="at"><path d="M205 265h4v50.215h-4zm0 0"/></clipPath><clipPath id="a"><path d="M266 239h50.207v5H266zm0 0"/></clipPath><clipPath id="av"><path d="M266 92h50.207v5H266zm0 0"/></clipPath><clipPath id="aw"><path d="M266 104h50.207v4H266zm0 0"/></clipPath><clipPath id="ax"><path d="M266 110h50.207v4H266zm0 0"/></clipPath><clipPath id="ay"><path d="M266 98h50.207v5H266zm0 0"/></clipPath><clipPath id="az"><path d="M266 90h50.207v4H266zm0 0"/></clipPath><clipPath id="aA"><path d="M266 95h50.207v5H266zm0 0"/></clipPath><clipPath id="aB"><path d="M266 101h50.207v4H266zm0 0"/></clipPath><clipPath id="aC"><path d="M266 107h50.207v4H266zm0 0"/></clipPath><clipPath id="aD"><path d="M266 147h50.207v5H266zm0 0"/></clipPath><clipPath id="aE"><path d="M266 142h50.207v4H266zm0 0"/></clipPath><clipPath id="aF"><path d="M266 130h50.207v5H266zm0 0"/></clipPath><clipPath id="aG"><path d="M266 125h50.207v4H266zm0 0"/></clipPath><clipPath id="aH"><path d="M266 136h50.207v4H266zm0 0"/></clipPath><clipPath id="aI"><path d="M266 145h50.207v4H266zm0 0"/></clipPath><clipPath id="aJ"><path d="M266 139h50.207v4H266zm0 0"/></clipPath><clipPath id="aK"><path d="M266 133h50.207v5H266zm0 0"/></clipPath><clipPath id="aL"><path d="M266 128h50.207v4H266zm0 0"/></clipPath><clipPath id="aM"><path d="M266 11h50.207v4H266zm0 0"/></clipPath><clipPath id="aN"><path d="M266 17h50.207v4H266zm0 0"/></clipPath><clipPath id="aO"><path d="M266 28h50.207v4H266zm0 0"/></clipPath><clipPath id="aP"><path d="M266 34h50.207v4H266zm0 0"/></clipPath><clipPath id="aQ"><path d="M266 22h50.207v5H266zm0 0"/></clipPath><clipPath id="aR"><path d="M266 14h50.207v4H266zm0 0"/></clipPath><clipPath id="aS"><path d="M266 19h50.207v5H266zm0 0"/></clipPath><clipPath id="aT"><path d="M266 25h50.207v4H266zm0 0"/></clipPath><clipPath id="aU"><path d="M266 31h50.207v4H266zm0 0"/></clipPath><clipPath id="aV"><path d="M266 72h50.207v4H266zm0 0"/></clipPath><clipPath id="aW"><path d="M266 66h50.207v4H266zm0 0"/></clipPath><clipPath id="aX"><path d="M266 54h50.207v5H266zm0 0"/></clipPath><clipPath id="aY"><path d="M266 49h50.207v4H266zm0 0"/></clipPath><clipPath id="aZ"><path d="M266 60h50.207v5H266zm0 0"/></clipPath><clipPath id="ba"><path d="M266 69h50.207v4H266zm0 0"/></clipPath><clipPath id="bb"><path d="M266 63h50.207v4H266zm0 0"/></clipPath><clipPath id="bc"><path d="M266 57h50.207v5H266zm0 0"/></clipPath><clipPath id="bd"><path d="M266 52h50.207v4H266zm0 0"/></clipPath><clipPath id="be"><path d="M125 265h5v50.215h-5zm0 0"/></clipPath><clipPath id="bf"><path d="M131 265h4v50.215h-4zm0 0"/></clipPath><clipPath id="bg"><path d="M142 265h5v50.215h-5zm0 0"/></clipPath><clipPath id="bh"><path d="M148 265h4v50.215h-4zm0 0"/></clipPath><clipPath id="bi"><path d="M137 265h4v50.215h-4zm0 0"/></clipPath><clipPath id="bj"><path d="M128 265h4v50.215h-4zm0 0"/></clipPath><clipPath id="bk"><path d="M134 265h4v50.215h-4zm0 0"/></clipPath><clipPath id="bl"><path d="M139 265h5v50.215h-5zm0 0"/></clipPath><clipPath id="bm"><path d="M145 265h4v50.215h-4zm0 0"/></clipPath><clipPath id="bn"><path d="M87 265h4v50.215h-4zm0 0"/></clipPath><clipPath id="bo"><path d="M93 265h4v50.215h-4zm0 0"/></clipPath><clipPath id="bp"><path d="M104 265h4v50.215h-4zm0 0"/></clipPath><clipPath id="bq"><path d="M110 265h4v50.215h-4zm0 0"/></clipPath><clipPath id="br"><path d="M98 265h5v50.215h-5zm0 0"/></clipPath><clipPath id="bs"><path d="M90 265h4v50.215h-4zm0 0"/></clipPath><clipPath id="bt"><path d="M95 265h5v50.215h-5zm0 0"/></clipPath><clipPath id="bu"><path d="M101 265h5v50.215h-5zm0 0"/></clipPath><clipPath id="bv"><path d="M107 265h4v50.215h-4zm0 0"/></clipPath><clipPath id="bw"><path d="M34 265h4v50.215h-4zm0 0"/></clipPath><clipPath id="bx"><path d="M28 265h4v50.215h-4zm0 0"/></clipPath><clipPath id="by"><path d="M17 265h4v50.215h-4zm0 0"/></clipPath><clipPath id="bz"><path d="M11 265h4v50.215h-4zm0 0"/></clipPath><clipPath id="bA"><path d="M22 265h5v50.215h-5zm0 0"/></clipPath><clipPath id="bB"><path d="M31 265h4v50.215h-4zm0 0"/></clipPath><clipPath id="bC"><path d="M25 265h4v50.215h-4zm0 0"/></clipPath><clipPath id="bD"><path d="M19 265h5v50.215h-5zm0 0"/></clipPath><clipPath id="bE"><path d="M14 265h4v50.215h-4zm0 0"/></clipPath><clipPath id="bF"><path d="M72 265h4v50.215h-4zm0 0"/></clipPath><clipPath id="bG"><path d="M66 265h5v50.215h-5zm0 0"/></clipPath><clipPath id="bH"><path d="M55 265h4v50.215h-4zm0 0"/></clipPath><clipPath id="bI"><path d="M49 265h4v50.215h-4zm0 0"/></clipPath><clipPath id="bJ"><path d="M60 265h5v50.215h-5zm0 0"/></clipPath><clipPath id="bK"><path d="M69 265h4v50.215h-4zm0 0"/></clipPath><clipPath id="bL"><path d="M63 265h5v50.215h-5zm0 0"/></clipPath><clipPath id="bM"><path d="M58 265h4v50.215h-4zm0 0"/></clipPath><clipPath id="bN"><path d="M52 265h4v50.215h-4zm0 0"/></clipPath></defs><path style="fill:none;stroke-width:2.4;stroke-linecap:square;stroke-linejoin:round;stroke:#87cefa;stroke-opacity:1;stroke-miterlimit:4" d="M-13.05 1.2v46.485M-18.745 1.2v46.485M-30.138 1.2v46.485M-35.833 1.2v46.485M-24.44 1.2v46.485M-15.897 1.2v46.485M-21.592 1.2v46.485M-27.29 1.2v46.485M-32.985 1.2v46.485" transform="rotate(-90) scale(.99875)"/><path style="fill:none;stroke-width:2.4;stroke-linecap:square;stroke-linejoin:round;stroke:#696969;stroke-opacity:1;stroke-miterlimit:4" d="M35.834 314.408v-46.484m-5.699 46.484v-46.484m-11.389 46.484v-46.484m-5.694 46.484v-46.484m11.388 46.484v-46.484m8.543 46.484v-46.484m-5.695 46.484v-46.484m-5.695 46.484v-46.484m-5.694 46.484v-46.484m58.217 46.484v-46.484m-5.694 46.484v-46.484m-11.39 46.484v-46.484m-5.694 46.484v-46.484m11.389 46.484v-46.484m8.542 46.484v-46.484m-5.695 46.484v-46.484m-5.694 46.484v-46.484m-5.695 46.484v-46.484" transform="matrix(.99875 0 0 -.99875 0 315.213)"/><path style="fill:none;stroke-width:2.4;stroke-linecap:square;stroke-linejoin:round;stroke:#87cefa;stroke-opacity:1;stroke-miterlimit:4" d="M-13.05 39.483v46.488m-5.695-46.488v46.488m-11.393-46.488v46.488m-5.695-46.488v46.488m11.393-46.488v46.488m8.543-46.488v46.488m-5.695-46.488v46.488m-5.698-46.488v46.488m-5.695-46.488v46.488" transform="rotate(-90) scale(.99875)"/><path style="fill:none;stroke-width:2.4;stroke-linecap:square;stroke-linejoin:round;stroke:#87cefa;stroke-opacity:1;stroke-miterlimit:4" d="M73.814-85.97v46.487M68.115-85.97v46.487M56.726-85.97v46.487M51.027-85.97v46.487M62.42-85.97v46.487m8.546-46.487v46.487M65.272-85.97v46.487M59.573-85.97v46.487M53.879-85.97v46.487" transform="rotate(90) scale(.99875)"/><path style="fill:none;stroke-width:2.4;stroke-linecap:square;stroke-linejoin:round;stroke:#696969;stroke-opacity:1;stroke-miterlimit:4" d="M51.338 229.942v46.484m5.694-46.484v46.484m11.39-46.484v46.484m5.694-46.484v46.484m-11.389-46.484v46.484m-8.542-46.484v46.484m5.695-46.484v46.484m5.694-46.484v46.484m5.695-46.484v46.484" transform="matrix(.99875 0 0 -.99875 0 315.213)"/><path style="fill:none;stroke-width:2.4;stroke-linecap:square;stroke-linejoin:round;stroke:#87cefa;stroke-opacity:1;stroke-miterlimit:4" d="M73.814-47.685V-1.2m-5.699-46.485V-1.2M56.726-47.685V-1.2m-5.699-46.485V-1.2M62.42-47.685V-1.2m8.546-46.485V-1.2m-5.694-46.485V-1.2m-5.699-46.485V-1.2m-5.694-46.485V-1.2" transform="rotate(90) scale(.99875)"/><path style="fill:none;stroke-width:2.4;stroke-linecap:square;stroke-linejoin:round;stroke:#696969;stroke-opacity:1;stroke-miterlimit:4" d="M13.052 229.942v46.484m5.694-46.484v46.484m11.389-46.484v46.484m5.699-46.484v46.484M24.44 229.942v46.484m-8.541-46.484v46.484m5.694-46.484v46.484m5.695-46.484v46.484m5.695-46.484v46.484" transform="matrix(.99875 0 0 -.99875 0 315.213)"/><path style="fill:none;stroke-width:2.4;stroke-linecap:square;stroke-linejoin:round;stroke:#87cefa;stroke-opacity:1;stroke-miterlimit:4" d="M-89.06 77.37v46.484m-5.694-46.484v46.484m-11.393-46.484v46.484m-5.699-46.484v46.484m11.397-46.484v46.484m8.542-46.484v46.484m-5.694-46.484v46.484m-5.695-46.484v46.484m-5.699-46.484v46.484" transform="rotate(-90) scale(.99875)"/><path style="fill:none;stroke-width:2.4;stroke-linecap:square;stroke-linejoin:round;stroke:#696969;stroke-opacity:1;stroke-miterlimit:4" d="M112.004 238.394v-46.48m-5.695 46.48v-46.48m-11.389 46.48v-46.48m-5.699 46.48v-46.48m11.393 46.48v-46.48m8.542 46.48v-46.48m-5.694 46.48v-46.48m-5.695 46.48v-46.48m-5.699 46.48v-46.48m58.222 46.48v-46.48m-5.695 46.48v-46.48m-11.393 46.48v-46.48m-5.695 46.48v-46.48m11.39 46.48v-46.48m8.545 46.48v-46.48m-5.694 46.48v-46.48m-5.698 46.48v-46.48m-5.695 46.48v-46.48" transform="matrix(.99875 0 0 -.99875 0 315.213)"/><path style="fill:none;stroke-width:2.4;stroke-linecap:square;stroke-linejoin:round;stroke:#87cefa;stroke-opacity:1;stroke-miterlimit:4" d="M-89.06 115.657v46.484m-5.694-46.484v46.484m-11.393-46.484v46.484m-5.699-46.484v46.484m11.397-46.484v46.484m8.542-46.484v46.484m-5.694-46.484v46.484m-5.695-46.484v46.484m-5.699-46.484v46.484" transform="rotate(-90) scale(.99875)"/><path style="fill:none;stroke-width:2.4;stroke-linecap:square;stroke-linejoin:round;stroke:#87cefa;stroke-opacity:1;stroke-miterlimit:4" d="M149.82-162.14v46.483m-5.696-46.483v46.483m-11.389-46.483v46.483m-5.695-46.483v46.483m11.39-46.483v46.483m8.542-46.483v46.483m-5.695-46.483v46.483m-5.694-46.483v46.483m-5.695-46.483v46.483" transform="rotate(90) scale(.99875)"/><path style="fill:none;stroke-width:2.4;stroke-linecap:square;stroke-linejoin:round;stroke:#696969;stroke-opacity:1;stroke-miterlimit:4" d="M127.507 153.933v46.484m5.695-46.484v46.484m11.393-46.484v46.484m5.695-46.484v46.484m-11.393-46.484v46.484m-8.542-46.484v46.484m5.695-46.484v46.484m5.698-46.484v46.484m5.694-46.484v46.484" transform="matrix(.99875 0 0 -.99875 0 315.213)"/><path style="fill:none;stroke-width:2.4;stroke-linecap:square;stroke-linejoin:round;stroke:#87cefa;stroke-opacity:1;stroke-miterlimit:4" d="M149.82-123.854v46.484m-5.696-46.484v46.484m-11.389-46.484v46.484m-5.695-46.484v46.484m11.39-46.484v46.484m8.542-46.484v46.484m-5.695-46.484v46.484m-5.694-46.484v46.484m-5.695-46.484v46.484" transform="rotate(90) scale(.99875)"/><path style="fill:none;stroke-width:2.4;stroke-linecap:square;stroke-linejoin:round;stroke:#696969;stroke-opacity:1;stroke-miterlimit:4" d="M89.221 153.933v46.484m5.699-46.484v46.484m11.389-46.484v46.484m5.695-46.484v46.484m-11.39-46.484v46.484m-8.546-46.484v46.484m5.699-46.484v46.484m5.695-46.484v46.484m5.694-46.484v46.484" transform="matrix(.99875 0 0 -.99875 0 315.213)"/><path style="fill:none;stroke-width:2.4;stroke-linecap:square;stroke-linejoin:round;stroke:#87cefa;stroke-opacity:1;stroke-miterlimit:4" d="M-13.05-162.14v46.483m-5.695-46.483v46.483m-11.393-46.483v46.483m-5.695-46.483v46.483m11.393-46.483v46.483m8.543-46.483v46.483m-5.695-46.483v46.483m-5.698-46.483v46.483m-5.695-46.483v46.483" transform="matrix(0 -.99875 -.99875 0 0 .001)"/><path style="fill:none;stroke-width:2.4;stroke-linecap:square;stroke-linejoin:round;stroke:#696969;stroke-opacity:1;stroke-miterlimit:4" d="M127.507 314.408v-46.484m5.695 46.484v-46.484m11.393 46.484v-46.484m5.695 46.484v-46.484m-11.393 46.484v-46.484m-8.542 46.484v-46.484m5.695 46.484v-46.484m5.698 46.484v-46.484m5.694 46.484v-46.484m-58.221 46.484v-46.484m5.699 46.484v-46.484m11.389 46.484v-46.484m5.695 46.484v-46.484m-11.39 46.484v-46.484m-8.546 46.484v-46.484m5.699 46.484v-46.484m5.695 46.484v-46.484m5.694 46.484v-46.484" transform="matrix(.99875 0 0 -.99875 0 315.213)"/><path style="fill:none;stroke-width:2.4;stroke-linecap:square;stroke-linejoin:round;stroke:#87cefa;stroke-opacity:1;stroke-miterlimit:4" d="M-13.05-123.854v46.484m-5.695-46.484v46.484m-11.393-46.484v46.484m-5.695-46.484v46.484m11.393-46.484v46.484m8.543-46.484v46.484m-5.695-46.484v46.484m-5.698-46.484v46.484m-5.695-46.484v46.484" transform="matrix(0 -.99875 -.99875 0 0 .001)"/><path style="fill:none;stroke-width:2.4;stroke-linecap:square;stroke-linejoin:round;stroke:#696969;stroke-opacity:1;stroke-miterlimit:4" d="M112.004 229.942v46.484m-5.695-46.484v46.484M94.92 229.942v46.484m-5.699-46.484v46.484m11.393-46.484v46.484m8.542-46.484v46.484m-5.694-46.484v46.484m-5.695-46.484v46.484m-5.699-46.484v46.484" transform="matrix(.99875 0 0 -.99875 0 315.213)"/><path style="fill:none;stroke-width:2.4;stroke-linecap:square;stroke-linejoin:round;stroke:#87cefa;stroke-opacity:1;stroke-miterlimit:4" d="M73.814 77.37v46.484M68.115 77.37v46.484M56.726 77.37v46.484M51.027 77.37v46.484M62.42 77.37v46.484m8.546-46.484v46.484M65.272 77.37v46.484M59.573 77.37v46.484M53.879 77.37v46.484" transform="matrix(0 .99875 .99875 0 0 .001)"/><path style="fill:none;stroke-width:2.4;stroke-linecap:square;stroke-linejoin:round;stroke:#696969;stroke-opacity:1;stroke-miterlimit:4" d="M150.29 229.942v46.484m-5.695-46.484v46.484m-11.393-46.484v46.484m-5.695-46.484v46.484m11.39-46.484v46.484m8.545-46.484v46.484m-5.694-46.484v46.484m-5.698-46.484v46.484m-5.695-46.484v46.484" transform="matrix(.99875 0 0 -.99875 0 315.213)"/><path style="fill:none;stroke-width:2.4;stroke-linecap:square;stroke-linejoin:round;stroke:#87cefa;stroke-opacity:1;stroke-miterlimit:4" d="M73.814 115.657v46.484m-5.699-46.484v46.484m-11.389-46.484v46.484m-5.699-46.484v46.484m11.393-46.484v46.484m8.546-46.484v46.484m-5.694-46.484v46.484m-5.699-46.484v46.484m-5.694-46.484v46.484" transform="matrix(0 .99875 .99875 0 0 .001)"/><path style="fill:none;stroke-width:2.4;stroke-linecap:square;stroke-linejoin:round;stroke:#696969;stroke-opacity:1;stroke-miterlimit:4" d="M35.834 153.933v46.484m-5.699-46.484v46.484m-11.389-46.484v46.484m-5.694-46.484v46.484m11.388-46.484v46.484m8.543-46.484v46.484m-5.695-46.484v46.484m-5.695-46.484v46.484m-5.694-46.484v46.484" transform="matrix(.99875 0 0 -.99875 0 315.213)"/><path style="fill:none;stroke-width:2.4;stroke-linecap:square;stroke-linejoin:round;stroke:#87cefa;stroke-opacity:1;stroke-miterlimit:4" d="M149.82 1.2v46.485M144.124 1.2v46.485M132.735 1.2v46.485M127.04 1.2v46.485M138.43 1.2v46.485M146.972 1.2v46.485M141.277 1.2v46.485M135.583 1.2v46.485M129.888 1.2v46.485" transform="matrix(0 .99875 .99875 0 0 .001)"/><path style="fill:none;stroke-width:2.4;stroke-linecap:square;stroke-linejoin:round;stroke:#696969;stroke-opacity:1;stroke-miterlimit:4" d="M74.116 153.933v46.484m-5.694-46.484v46.484m-11.39-46.484v46.484m-5.694-46.484v46.484m11.389-46.484v46.484m8.542-46.484v46.484m-5.695-46.484v46.484m-5.694-46.484v46.484m-5.695-46.484v46.484" transform="matrix(.99875 0 0 -.99875 0 315.213)"/><path style="fill:none;stroke-width:2.4;stroke-linecap:square;stroke-linejoin:round;stroke:#87cefa;stroke-opacity:1;stroke-miterlimit:4" d="M149.82 39.483v46.488m-5.696-46.488v46.488m-11.389-46.488v46.488m-5.695-46.488v46.488m11.39-46.488v46.488m8.542-46.488v46.488m-5.695-46.488v46.488m-5.694-46.488v46.488m-5.695-46.488v46.488" transform="matrix(0 .99875 .99875 0 0 .001)"/><path style="fill:none;stroke-width:2.4;stroke-linecap:square;stroke-linejoin:round;stroke:#87cefa;stroke-opacity:1;stroke-miterlimit:4" d="M-89.06-85.97v46.487m-5.694-46.487v46.487m-11.393-46.487v46.487m-5.699-46.487v46.487m11.397-46.487v46.487m8.542-46.487v46.487m-5.694-46.487v46.487m-5.695-46.487v46.487m-5.699-46.487v46.487" transform="matrix(0 -.99875 -.99875 0 0 .001)"/><path style="fill:none;stroke-width:2.4;stroke-linecap:square;stroke-linejoin:round;stroke:#696969;stroke-opacity:1;stroke-miterlimit:4" d="M51.338 238.394v-46.48m5.694 46.48v-46.48m11.39 46.48v-46.48m5.694 46.48v-46.48m-11.389 46.48v-46.48m-8.542 46.48v-46.48m5.695 46.48v-46.48m5.694 46.48v-46.48m5.695 46.48v-46.48m-58.217 46.48v-46.48m5.694 46.48v-46.48m11.389 46.48v-46.48m5.699 46.48v-46.48m-11.394 46.48v-46.48m-8.541 46.48v-46.48m5.694 46.48v-46.48m5.695 46.48v-46.48m5.695 46.48v-46.48" transform="matrix(.99875 0 0 -.99875 0 315.213)"/><path style="fill:none;stroke-width:2.4;stroke-linecap:square;stroke-linejoin:round;stroke:#87cefa;stroke-opacity:1;stroke-miterlimit:4" d="M-89.06-47.685V-1.2m-5.694-46.485V-1.2m-11.393-46.485V-1.2m-5.699-46.485V-1.2m11.397-46.485V-1.2m8.542-46.485V-1.2m-5.694-46.485V-1.2m-5.695-46.485V-1.2m-5.699-46.485V-1.2" transform="matrix(0 -.99875 -.99875 0 0 .001)"/><path style="fill:none;stroke-width:2.4;stroke-linecap:square;stroke-linejoin:round;stroke:#87cefa;stroke-opacity:1;stroke-miterlimit:4" d="M-165.784 154.46v46.487m-5.695-46.487v46.487m-11.393-46.487v46.487m-5.695-46.487v46.487m11.389-46.487v46.487m8.546-46.487v46.487m-5.694-46.487v46.487m-5.699-46.487v46.487m-5.695-46.487v46.487" transform="rotate(-90) scale(.99875)"/><path style="fill:none;stroke-width:2.4;stroke-linecap:square;stroke-linejoin:round;stroke:#696969;stroke-opacity:1;stroke-miterlimit:4" d="M189.092 161.673V115.19m-5.694 46.483V115.19m-11.39 46.483V115.19m-5.694 46.483V115.19m11.389 46.483V115.19m8.542 46.483V115.19m-5.695 46.483V115.19m-5.694 46.483V115.19m-5.695 46.483V115.19m58.217 46.483V115.19m-5.694 46.483V115.19m-11.389 46.483V115.19m-5.699 46.483V115.19m11.394 46.483V115.19m8.541 46.483V115.19m-5.694 46.483V115.19m-5.695 46.483V115.19m-5.699 46.483V115.19" transform="matrix(.99875 0 0 -.99875 0 315.213)"/><path style="fill:none;stroke-width:2.4;stroke-linecap:square;stroke-linejoin:round;stroke:#87cefa;stroke-opacity:1;stroke-miterlimit:4" d="M-165.784 192.745v46.484m-5.695-46.484v46.484m-11.393-46.484v46.484m-5.695-46.484v46.484m11.389-46.484v46.484m8.546-46.484v46.484m-5.694-46.484v46.484m-5.699-46.484v46.484m-5.695-46.484v46.484" transform="rotate(-90) scale(.99875)"/><path style="fill:none;stroke-width:2.4;stroke-linecap:square;stroke-linejoin:round;stroke:#87cefa;stroke-opacity:1;stroke-miterlimit:4" d="M226.548-239.23v46.485m-5.695-46.485v46.485M209.46-239.23v46.485m-5.694-46.485v46.485m11.389-46.485v46.485m8.545-46.485v46.485m-5.698-46.485v46.485m-5.695-46.485v46.485m-5.694-46.485v46.485" transform="rotate(90) scale(.99875)"/><path style="fill:none;stroke-width:2.4;stroke-linecap:square;stroke-linejoin:round;stroke:#696969;stroke-opacity:1;stroke-miterlimit:4" d="M204.596 77.208v46.484m5.699-46.484v46.484m11.389-46.484v46.484m5.694-46.484v46.484M215.99 77.208v46.484m-8.547-46.484v46.484m5.699-46.484v46.484m5.695-46.484v46.484m5.694-46.484v46.484" transform="matrix(.99875 0 0 -.99875 0 315.213)"/><path style="fill:none;stroke-width:2.4;stroke-linecap:square;stroke-linejoin:round;stroke:#87cefa;stroke-opacity:1;stroke-miterlimit:4" d="M226.548-200.947v46.488m-5.695-46.488v46.488m-11.393-46.488v46.488m-5.694-46.488v46.488m11.389-46.488v46.488m8.545-46.488v46.488m-5.698-46.488v46.488m-5.695-46.488v46.488m-5.694-46.488v46.488" transform="rotate(90) scale(.99875)"/><path style="fill:none;stroke-width:2.4;stroke-linecap:square;stroke-linejoin:round;stroke:#696969;stroke-opacity:1;stroke-miterlimit:4" d="M166.314 77.208v46.484m5.694-46.484v46.484m11.39-46.484v46.484m5.694-46.484v46.484m-11.389-46.484v46.484m-8.542-46.484v46.484m5.695-46.484v46.484m5.694-46.484v46.484m5.695-46.484v46.484" transform="matrix(.99875 0 0 -.99875 0 315.213)"/><path style="fill:none;stroke-width:2.4;stroke-linecap:square;stroke-linejoin:round;stroke:#87cefa;stroke-opacity:1;stroke-miterlimit:4" d="M-241.794 230.633v46.484m-5.694-46.484v46.484m-11.393-46.484v46.484m-5.695-46.484v46.484m11.389-46.484v46.484m8.546-46.484v46.484m-5.695-46.484v46.484m-5.698-46.484v46.484m-5.695-46.484v46.484" transform="rotate(-90) scale(.99875)"/><path style="fill:none;stroke-width:2.4;stroke-linecap:square;stroke-linejoin:round;stroke:#696969;stroke-opacity:1;stroke-miterlimit:4" d="M265.266 85.66V39.18m-5.695 46.48V39.18m-11.389 46.48V39.18m-5.699 46.48V39.18m11.394 46.48V39.18m8.541 46.48V39.18m-5.694 46.48V39.18m-5.699 46.48V39.18m-5.695 46.48V39.18m58.222 46.48V39.18m-5.699 46.48V39.18m-11.389 46.48V39.18m-5.694 46.48V39.18m11.389 46.48V39.18m8.546 46.48V39.18m-5.699 46.48V39.18m-5.694 46.48V39.18m-5.695 46.48V39.18" transform="matrix(.99875 0 0 -.99875 0 315.213)"/><g clip-path="url(#a)"><path style="fill:none;stroke-width:2.4;stroke-linecap:square;stroke-linejoin:round;stroke:#87cefa;stroke-opacity:1;stroke-miterlimit:4" d="M-241.794 268.919v46.484" transform="rotate(-90) scale(.99875)"/></g><g clip-path="url(#b)"><path style="fill:none;stroke-width:2.4;stroke-linecap:square;stroke-linejoin:round;stroke:#87cefa;stroke-opacity:1;stroke-miterlimit:4" d="M-247.488 268.919v46.484" transform="rotate(-90) scale(.99875)"/></g><g clip-path="url(#c)"><path style="fill:none;stroke-width:2.4;stroke-linecap:square;stroke-linejoin:round;stroke:#87cefa;stroke-opacity:1;stroke-miterlimit:4" d="M-258.881 268.919v46.484" transform="rotate(-90) scale(.99875)"/></g><g clip-path="url(#d)"><path style="fill:none;stroke-width:2.4;stroke-linecap:square;stroke-linejoin:round;stroke:#87cefa;stroke-opacity:1;stroke-miterlimit:4" d="M-264.576 268.919v46.484" transform="rotate(-90) scale(.99875)"/></g><g clip-path="url(#e)"><path style="fill:none;stroke-width:2.4;stroke-linecap:square;stroke-linejoin:round;stroke:#87cefa;stroke-opacity:1;stroke-miterlimit:4" d="M-253.187 268.919v46.484" transform="rotate(-90) scale(.99875)"/></g><g clip-path="url(#f)"><path style="fill:none;stroke-width:2.4;stroke-linecap:square;stroke-linejoin:round;stroke:#87cefa;stroke-opacity:1;stroke-miterlimit:4" d="M-244.641 268.919v46.484" transform="rotate(-90) scale(.99875)"/></g><g clip-path="url(#g)"><path style="fill:none;stroke-width:2.4;stroke-linecap:square;stroke-linejoin:round;stroke:#87cefa;stroke-opacity:1;stroke-miterlimit:4" d="M-250.336 268.919v46.484" transform="rotate(-90) scale(.99875)"/></g><g clip-path="url(#h)"><path style="fill:none;stroke-width:2.4;stroke-linecap:square;stroke-linejoin:round;stroke:#87cefa;stroke-opacity:1;stroke-miterlimit:4" d="M-256.034 268.919v46.484" transform="rotate(-90) scale(.99875)"/></g><g clip-path="url(#i)"><path style="fill:none;stroke-width:2.4;stroke-linecap:square;stroke-linejoin:round;stroke:#87cefa;stroke-opacity:1;stroke-miterlimit:4" d="M-261.729 268.919v46.484" transform="rotate(-90) scale(.99875)"/></g><g clip-path="url(#j)"><path style="fill:none;stroke-width:2.4;stroke-linecap:square;stroke-linejoin:round;stroke:#87cefa;stroke-opacity:1;stroke-miterlimit:4" d="M302.553-315.403v46.484" transform="rotate(90) scale(.99875)"/></g><g clip-path="url(#k)"><path style="fill:none;stroke-width:2.4;stroke-linecap:square;stroke-linejoin:round;stroke:#87cefa;stroke-opacity:1;stroke-miterlimit:4" d="M296.859-315.403v46.484" transform="rotate(90) scale(.99875)"/></g><g clip-path="url(#l)"><path style="fill:none;stroke-width:2.4;stroke-linecap:square;stroke-linejoin:round;stroke:#87cefa;stroke-opacity:1;stroke-miterlimit:4" d="M285.47-315.403v46.484" transform="rotate(90) scale(.99875)"/></g><g clip-path="url(#m)"><path style="fill:none;stroke-width:2.4;stroke-linecap:square;stroke-linejoin:round;stroke:#87cefa;stroke-opacity:1;stroke-miterlimit:4" d="M279.775-315.403v46.484" transform="rotate(90) scale(.99875)"/></g><g clip-path="url(#n)"><path style="fill:none;stroke-width:2.4;stroke-linecap:square;stroke-linejoin:round;stroke:#87cefa;stroke-opacity:1;stroke-miterlimit:4" d="M291.164-315.403v46.484" transform="rotate(90) scale(.99875)"/></g><g clip-path="url(#o)"><path style="fill:none;stroke-width:2.4;stroke-linecap:square;stroke-linejoin:round;stroke:#87cefa;stroke-opacity:1;stroke-miterlimit:4" d="M299.706-315.403v46.484" transform="rotate(90) scale(.99875)"/></g><g clip-path="url(#p)"><path style="fill:none;stroke-width:2.4;stroke-linecap:square;stroke-linejoin:round;stroke:#87cefa;stroke-opacity:1;stroke-miterlimit:4" d="M294.011-315.403v46.484" transform="rotate(90) scale(.99875)"/></g><g clip-path="url(#q)"><path style="fill:none;stroke-width:2.4;stroke-linecap:square;stroke-linejoin:round;stroke:#87cefa;stroke-opacity:1;stroke-miterlimit:4" d="M288.317-315.403v46.484" transform="rotate(90) scale(.99875)"/></g><g clip-path="url(#r)"><path style="fill:none;stroke-width:2.4;stroke-linecap:square;stroke-linejoin:round;stroke:#87cefa;stroke-opacity:1;stroke-miterlimit:4" d="M282.622-315.403v46.484" transform="rotate(90) scale(.99875)"/></g><g clip-path="url(#s)"><path style="fill:none;stroke-width:2.4;stroke-linecap:square;stroke-linejoin:round;stroke:#696969;stroke-opacity:1;stroke-miterlimit:4" d="M280.77 1.203v46.484" transform="matrix(.99875 0 0 -.99875 0 315.213)"/></g><g clip-path="url(#t)"><path style="fill:none;stroke-width:2.4;stroke-linecap:square;stroke-linejoin:round;stroke:#696969;stroke-opacity:1;stroke-miterlimit:4" d="M286.464 1.203v46.484" transform="matrix(.99875 0 0 -.99875 0 315.213)"/></g><g clip-path="url(#u)"><path style="fill:none;stroke-width:2.4;stroke-linecap:square;stroke-linejoin:round;stroke:#696969;stroke-opacity:1;stroke-miterlimit:4" d="M297.853 1.203v46.484" transform="matrix(.99875 0 0 -.99875 0 315.213)"/></g><g clip-path="url(#v)"><path style="fill:none;stroke-width:2.4;stroke-linecap:square;stroke-linejoin:round;stroke:#696969;stroke-opacity:1;stroke-miterlimit:4" d="M303.552 1.203v46.484" transform="matrix(.99875 0 0 -.99875 0 315.213)"/></g><g clip-path="url(#w)"><path style="fill:none;stroke-width:2.4;stroke-linecap:square;stroke-linejoin:round;stroke:#696969;stroke-opacity:1;stroke-miterlimit:4" d="M292.159 1.203v46.484" transform="matrix(.99875 0 0 -.99875 0 315.213)"/></g><g clip-path="url(#x)"><path style="fill:none;stroke-width:2.4;stroke-linecap:square;stroke-linejoin:round;stroke:#696969;stroke-opacity:1;stroke-miterlimit:4" d="M283.617 1.203v46.484" transform="matrix(.99875 0 0 -.99875 0 315.213)"/></g><g clip-path="url(#y)"><path style="fill:none;stroke-width:2.4;stroke-linecap:square;stroke-linejoin:round;stroke:#696969;stroke-opacity:1;stroke-miterlimit:4" d="M289.312 1.203v46.484" transform="matrix(.99875 0 0 -.99875 0 315.213)"/></g><g clip-path="url(#z)"><path style="fill:none;stroke-width:2.4;stroke-linecap:square;stroke-linejoin:round;stroke:#696969;stroke-opacity:1;stroke-miterlimit:4" d="M295.006 1.203v46.484" transform="matrix(.99875 0 0 -.99875 0 315.213)"/></g><g clip-path="url(#A)"><path style="fill:none;stroke-width:2.4;stroke-linecap:square;stroke-linejoin:round;stroke:#696969;stroke-opacity:1;stroke-miterlimit:4" d="M300.705 1.203v46.484" transform="matrix(.99875 0 0 -.99875 0 315.213)"/></g><path style="fill:none;stroke-width:2.4;stroke-linecap:square;stroke-linejoin:round;stroke:#87cefa;stroke-opacity:1;stroke-miterlimit:4" d="M302.553-277.117v46.484m-5.694-46.484v46.484m-11.389-46.484v46.484m-5.695-46.484v46.484m11.389-46.484v46.484m8.542-46.484v46.484m-5.695-46.484v46.484m-5.694-46.484v46.484m-5.695-46.484v46.484" transform="rotate(90) scale(.99875)"/><g clip-path="url(#B)"><path style="fill:none;stroke-width:2.4;stroke-linecap:square;stroke-linejoin:round;stroke:#696969;stroke-opacity:1;stroke-miterlimit:4" d="M242.483 1.203v46.484" transform="matrix(.99875 0 0 -.99875 0 315.213)"/></g><g clip-path="url(#C)"><path style="fill:none;stroke-width:2.4;stroke-linecap:square;stroke-linejoin:round;stroke:#696969;stroke-opacity:1;stroke-miterlimit:4" d="M248.182 1.203v46.484" transform="matrix(.99875 0 0 -.99875 0 315.213)"/></g><g clip-path="url(#D)"><path style="fill:none;stroke-width:2.4;stroke-linecap:square;stroke-linejoin:round;stroke:#696969;stroke-opacity:1;stroke-miterlimit:4" d="M259.571 1.203v46.484" transform="matrix(.99875 0 0 -.99875 0 315.213)"/></g><g clip-path="url(#E)"><path style="fill:none;stroke-width:2.4;stroke-linecap:square;stroke-linejoin:round;stroke:#696969;stroke-opacity:1;stroke-miterlimit:4" d="M265.266 1.203v46.484" transform="matrix(.99875 0 0 -.99875 0 315.213)"/></g><g clip-path="url(#F)"><path style="fill:none;stroke-width:2.4;stroke-linecap:square;stroke-linejoin:round;stroke:#696969;stroke-opacity:1;stroke-miterlimit:4" d="M253.877 1.203v46.484" transform="matrix(.99875 0 0 -.99875 0 315.213)"/></g><g clip-path="url(#G)"><path style="fill:none;stroke-width:2.4;stroke-linecap:square;stroke-linejoin:round;stroke:#696969;stroke-opacity:1;stroke-miterlimit:4" d="M245.33 1.203v46.484" transform="matrix(.99875 0 0 -.99875 0 315.213)"/></g><g clip-path="url(#H)"><path style="fill:none;stroke-width:2.4;stroke-linecap:square;stroke-linejoin:round;stroke:#696969;stroke-opacity:1;stroke-miterlimit:4" d="M251.025 1.203v46.484" transform="matrix(.99875 0 0 -.99875 0 315.213)"/></g><g clip-path="url(#I)"><path style="fill:none;stroke-width:2.4;stroke-linecap:square;stroke-linejoin:round;stroke:#696969;stroke-opacity:1;stroke-miterlimit:4" d="M256.724 1.203v46.484" transform="matrix(.99875 0 0 -.99875 0 315.213)"/></g><g clip-path="url(#J)"><path style="fill:none;stroke-width:2.4;stroke-linecap:square;stroke-linejoin:round;stroke:#696969;stroke-opacity:1;stroke-miterlimit:4" d="M262.418 1.203v46.484" transform="matrix(.99875 0 0 -.99875 0 315.213)"/></g><g clip-path="url(#K)"><path style="fill:none;stroke-width:2.4;stroke-linecap:square;stroke-linejoin:round;stroke:#87cefa;stroke-opacity:1;stroke-miterlimit:4" d="M-165.784-315.403v46.484" transform="matrix(0 -.99875 -.99875 0 0 .001)"/></g><g clip-path="url(#L)"><path style="fill:none;stroke-width:2.4;stroke-linecap:square;stroke-linejoin:round;stroke:#87cefa;stroke-opacity:1;stroke-miterlimit:4" d="M-171.479-315.403v46.484" transform="matrix(0 -.99875 -.99875 0 0 .001)"/></g><g clip-path="url(#M)"><path style="fill:none;stroke-width:2.4;stroke-linecap:square;stroke-linejoin:round;stroke:#87cefa;stroke-opacity:1;stroke-miterlimit:4" d="M-182.872-315.403v46.484" transform="matrix(0 -.99875 -.99875 0 0 .001)"/></g><g clip-path="url(#N)"><path style="fill:none;stroke-width:2.4;stroke-linecap:square;stroke-linejoin:round;stroke:#87cefa;stroke-opacity:1;stroke-miterlimit:4" d="M-188.567-315.403v46.484" transform="matrix(0 -.99875 -.99875 0 0 .001)"/></g><g clip-path="url(#O)"><path style="fill:none;stroke-width:2.4;stroke-linecap:square;stroke-linejoin:round;stroke:#87cefa;stroke-opacity:1;stroke-miterlimit:4" d="M-177.178-315.403v46.484" transform="matrix(0 -.99875 -.99875 0 0 .001)"/></g><g clip-path="url(#P)"><path style="fill:none;stroke-width:2.4;stroke-linecap:square;stroke-linejoin:round;stroke:#87cefa;stroke-opacity:1;stroke-miterlimit:4" d="M-168.632-315.403v46.484" transform="matrix(0 -.99875 -.99875 0 0 .001)"/></g><g clip-path="url(#Q)"><path style="fill:none;stroke-width:2.4;stroke-linecap:square;stroke-linejoin:round;stroke:#87cefa;stroke-opacity:1;stroke-miterlimit:4" d="M-174.326-315.403v46.484" transform="matrix(0 -.99875 -.99875 0 0 .001)"/></g><g clip-path="url(#R)"><path style="fill:none;stroke-width:2.4;stroke-linecap:square;stroke-linejoin:round;stroke:#87cefa;stroke-opacity:1;stroke-miterlimit:4" d="M-180.025-315.403v46.484" transform="matrix(0 -.99875 -.99875 0 0 .001)"/></g><g clip-path="url(#S)"><path style="fill:none;stroke-width:2.4;stroke-linecap:square;stroke-linejoin:round;stroke:#87cefa;stroke-opacity:1;stroke-miterlimit:4" d="M-185.72-315.403v46.484" transform="matrix(0 -.99875 -.99875 0 0 .001)"/></g><path style="fill:none;stroke-width:2.4;stroke-linecap:square;stroke-linejoin:round;stroke:#696969;stroke-opacity:1;stroke-miterlimit:4" d="M280.77 161.673V115.19m5.694 46.483V115.19m11.389 46.483V115.19m5.699 46.483V115.19m-11.393 46.483V115.19m-8.542 46.483V115.19m5.695 46.483V115.19m5.694 46.483V115.19m5.699 46.483V115.19m-58.222 46.483V115.19m5.699 46.483V115.19m11.389 46.483V115.19m5.695 46.483V115.19m-11.389 46.483V115.19m-8.547 46.483V115.19m5.695 46.483V115.19m5.699 46.483V115.19m5.694 46.483V115.19" transform="matrix(.99875 0 0 -.99875 0 315.213)"/><path style="fill:none;stroke-width:2.4;stroke-linecap:square;stroke-linejoin:round;stroke:#87cefa;stroke-opacity:1;stroke-miterlimit:4" d="M-165.784-277.117v46.484m-5.695-46.484v46.484m-11.393-46.484v46.484m-5.695-46.484v46.484m11.389-46.484v46.484m8.546-46.484v46.484m-5.694-46.484v46.484m-5.699-46.484v46.484m-5.695-46.484v46.484" transform="matrix(0 -.99875 -.99875 0 0 .001)"/><path style="fill:none;stroke-width:2.4;stroke-linecap:square;stroke-linejoin:round;stroke:#696969;stroke-opacity:1;stroke-miterlimit:4" d="M265.266 77.208v46.484m-5.695-46.484v46.484m-11.389-46.484v46.484m-5.699-46.484v46.484m11.394-46.484v46.484m8.541-46.484v46.484m-5.694-46.484v46.484m-5.699-46.484v46.484m-5.695-46.484v46.484" transform="matrix(.99875 0 0 -.99875 0 315.213)"/><path style="fill:none;stroke-width:2.4;stroke-linecap:square;stroke-linejoin:round;stroke:#87cefa;stroke-opacity:1;stroke-miterlimit:4" d="M226.548 230.633v46.484m-5.695-46.484v46.484m-11.393-46.484v46.484m-5.694-46.484v46.484m11.389-46.484v46.484m8.545-46.484v46.484m-5.698-46.484v46.484m-5.695-46.484v46.484m-5.694-46.484v46.484" transform="matrix(0 .99875 .99875 0 0 .001)"/><path style="fill:none;stroke-width:2.4;stroke-linecap:square;stroke-linejoin:round;stroke:#696969;stroke-opacity:1;stroke-miterlimit:4" d="M303.552 77.208v46.484m-5.699-46.484v46.484m-11.389-46.484v46.484m-5.694-46.484v46.484m11.389-46.484v46.484m8.546-46.484v46.484m-5.699-46.484v46.484m-5.694-46.484v46.484m-5.695-46.484v46.484" transform="matrix(.99875 0 0 -.99875 0 315.213)"/><g clip-path="url(#T)"><path style="fill:none;stroke-width:2.4;stroke-linecap:square;stroke-linejoin:round;stroke:#87cefa;stroke-opacity:1;stroke-miterlimit:4" d="M226.548 268.919v46.484" transform="matrix(0 .99875 .99875 0 0 .001)"/></g><g clip-path="url(#U)"><path style="fill:none;stroke-width:2.4;stroke-linecap:square;stroke-linejoin:round;stroke:#87cefa;stroke-opacity:1;stroke-miterlimit:4" d="M220.853 268.919v46.484" transform="matrix(0 .99875 .99875 0 0 .001)"/></g><g clip-path="url(#V)"><path style="fill:none;stroke-width:2.4;stroke-linecap:square;stroke-linejoin:round;stroke:#87cefa;stroke-opacity:1;stroke-miterlimit:4" d="M209.46 268.919v46.484" transform="matrix(0 .99875 .99875 0 0 .001)"/></g><g clip-path="url(#W)"><path style="fill:none;stroke-width:2.4;stroke-linecap:square;stroke-linejoin:round;stroke:#87cefa;stroke-opacity:1;stroke-miterlimit:4" d="M203.766 268.919v46.484" transform="matrix(0 .99875 .99875 0 0 .001)"/></g><g clip-path="url(#X)"><path style="fill:none;stroke-width:2.4;stroke-linecap:square;stroke-linejoin:round;stroke:#87cefa;stroke-opacity:1;stroke-miterlimit:4" d="M215.155 268.919v46.484" transform="matrix(0 .99875 .99875 0 0 .001)"/></g><g clip-path="url(#Y)"><path style="fill:none;stroke-width:2.4;stroke-linecap:square;stroke-linejoin:round;stroke:#87cefa;stroke-opacity:1;stroke-miterlimit:4" d="M223.7 268.919v46.484" transform="matrix(0 .99875 .99875 0 0 .001)"/></g><g clip-path="url(#Z)"><path style="fill:none;stroke-width:2.4;stroke-linecap:square;stroke-linejoin:round;stroke:#87cefa;stroke-opacity:1;stroke-miterlimit:4" d="M218.002 268.919v46.484" transform="matrix(0 .99875 .99875 0 0 .001)"/></g><g clip-path="url(#aa)"><path style="fill:none;stroke-width:2.4;stroke-linecap:square;stroke-linejoin:round;stroke:#87cefa;stroke-opacity:1;stroke-miterlimit:4" d="M212.307 268.919v46.484" transform="matrix(0 .99875 .99875 0 0 .001)"/></g><g clip-path="url(#ab)"><path style="fill:none;stroke-width:2.4;stroke-linecap:square;stroke-linejoin:round;stroke:#87cefa;stroke-opacity:1;stroke-miterlimit:4" d="M206.613 268.919v46.484" transform="matrix(0 .99875 .99875 0 0 .001)"/></g><g clip-path="url(#ac)"><path style="fill:none;stroke-width:2.4;stroke-linecap:square;stroke-linejoin:round;stroke:#696969;stroke-opacity:1;stroke-miterlimit:4" d="M189.092 1.203v46.484" transform="matrix(.99875 0 0 -.99875 0 315.213)"/></g><g clip-path="url(#ad)"><path style="fill:none;stroke-width:2.4;stroke-linecap:square;stroke-linejoin:round;stroke:#696969;stroke-opacity:1;stroke-miterlimit:4" d="M183.398 1.203v46.484" transform="matrix(.99875 0 0 -.99875 0 315.213)"/></g><g clip-path="url(#ae)"><path style="fill:none;stroke-width:2.4;stroke-linecap:square;stroke-linejoin:round;stroke:#696969;stroke-opacity:1;stroke-miterlimit:4" d="M172.008 1.203v46.484" transform="matrix(.99875 0 0 -.99875 0 315.213)"/></g><g clip-path="url(#af)"><path style="fill:none;stroke-width:2.4;stroke-linecap:square;stroke-linejoin:round;stroke:#696969;stroke-opacity:1;stroke-miterlimit:4" d="M166.314 1.203v46.484" transform="matrix(.99875 0 0 -.99875 0 315.213)"/></g><g clip-path="url(#ag)"><path style="fill:none;stroke-width:2.4;stroke-linecap:square;stroke-linejoin:round;stroke:#696969;stroke-opacity:1;stroke-miterlimit:4" d="M177.703 1.203v46.484" transform="matrix(.99875 0 0 -.99875 0 315.213)"/></g><g clip-path="url(#ah)"><path style="fill:none;stroke-width:2.4;stroke-linecap:square;stroke-linejoin:round;stroke:#696969;stroke-opacity:1;stroke-miterlimit:4" d="M186.245 1.203v46.484" transform="matrix(.99875 0 0 -.99875 0 315.213)"/></g><g clip-path="url(#ai)"><path style="fill:none;stroke-width:2.4;stroke-linecap:square;stroke-linejoin:round;stroke:#696969;stroke-opacity:1;stroke-miterlimit:4" d="M180.55 1.203v46.484" transform="matrix(.99875 0 0 -.99875 0 315.213)"/></g><g clip-path="url(#aj)"><path style="fill:none;stroke-width:2.4;stroke-linecap:square;stroke-linejoin:round;stroke:#696969;stroke-opacity:1;stroke-miterlimit:4" d="M174.856 1.203v46.484" transform="matrix(.99875 0 0 -.99875 0 315.213)"/></g><g clip-path="url(#ak)"><path style="fill:none;stroke-width:2.4;stroke-linecap:square;stroke-linejoin:round;stroke:#696969;stroke-opacity:1;stroke-miterlimit:4" d="M169.161 1.203v46.484" transform="matrix(.99875 0 0 -.99875 0 315.213)"/></g><path style="fill:none;stroke-width:2.4;stroke-linecap:square;stroke-linejoin:round;stroke:#87cefa;stroke-opacity:1;stroke-miterlimit:4" d="M302.553 154.46v46.487m-5.694-46.487v46.487M285.47 154.46v46.487m-5.695-46.487v46.487m11.389-46.487v46.487m8.542-46.487v46.487m-5.695-46.487v46.487m-5.694-46.487v46.487m-5.695-46.487v46.487" transform="matrix(0 .99875 .99875 0 0 .001)"/><g clip-path="url(#al)"><path style="fill:none;stroke-width:2.4;stroke-linecap:square;stroke-linejoin:round;stroke:#696969;stroke-opacity:1;stroke-miterlimit:4" d="M227.378 1.203v46.484" transform="matrix(.99875 0 0 -.99875 0 315.213)"/></g><g clip-path="url(#am)"><path style="fill:none;stroke-width:2.4;stroke-linecap:square;stroke-linejoin:round;stroke:#696969;stroke-opacity:1;stroke-miterlimit:4" d="M221.684 1.203v46.484" transform="matrix(.99875 0 0 -.99875 0 315.213)"/></g><g clip-path="url(#an)"><path style="fill:none;stroke-width:2.4;stroke-linecap:square;stroke-linejoin:round;stroke:#696969;stroke-opacity:1;stroke-miterlimit:4" d="M210.295 1.203v46.484" transform="matrix(.99875 0 0 -.99875 0 315.213)"/></g><g clip-path="url(#ao)"><path style="fill:none;stroke-width:2.4;stroke-linecap:square;stroke-linejoin:round;stroke:#696969;stroke-opacity:1;stroke-miterlimit:4" d="M204.596 1.203v46.484" transform="matrix(.99875 0 0 -.99875 0 315.213)"/></g><g clip-path="url(#ap)"><path style="fill:none;stroke-width:2.4;stroke-linecap:square;stroke-linejoin:round;stroke:#696969;stroke-opacity:1;stroke-miterlimit:4" d="M215.99 1.203v46.484" transform="matrix(.99875 0 0 -.99875 0 315.213)"/></g><g clip-path="url(#aq)"><path style="fill:none;stroke-width:2.4;stroke-linecap:square;stroke-linejoin:round;stroke:#696969;stroke-opacity:1;stroke-miterlimit:4" d="M224.531 1.203v46.484" transform="matrix(.99875 0 0 -.99875 0 315.213)"/></g><g clip-path="url(#ar)"><path style="fill:none;stroke-width:2.4;stroke-linecap:square;stroke-linejoin:round;stroke:#696969;stroke-opacity:1;stroke-miterlimit:4" d="M218.837 1.203v46.484" transform="matrix(.99875 0 0 -.99875 0 315.213)"/></g><g clip-path="url(#as)"><path style="fill:none;stroke-width:2.4;stroke-linecap:square;stroke-linejoin:round;stroke:#696969;stroke-opacity:1;stroke-miterlimit:4" d="M213.142 1.203v46.484" transform="matrix(.99875 0 0 -.99875 0 315.213)"/></g><g clip-path="url(#at)"><path style="fill:none;stroke-width:2.4;stroke-linecap:square;stroke-linejoin:round;stroke:#696969;stroke-opacity:1;stroke-miterlimit:4" d="M207.443 1.203v46.484" transform="matrix(.99875 0 0 -.99875 0 315.213)"/></g><path style="fill:none;stroke-width:2.4;stroke-linecap:square;stroke-linejoin:round;stroke:#87cefa;stroke-opacity:1;stroke-miterlimit:4" d="M302.553 192.745v46.484m-5.694-46.484v46.484m-11.389-46.484v46.484m-5.695-46.484v46.484m11.389-46.484v46.484m8.542-46.484v46.484m-5.695-46.484v46.484m-5.694-46.484v46.484m-5.695-46.484v46.484" transform="matrix(0 .99875 .99875 0 0 .001)"/><path style="fill:none;stroke-width:2.4;stroke-linecap:square;stroke-linejoin:round;stroke:#87cefa;stroke-opacity:1;stroke-miterlimit:4" d="M-241.794-239.23v46.485m-5.694-46.485v46.485m-11.393-46.485v46.485m-5.695-46.485v46.485m11.389-46.485v46.485m8.546-46.485v46.485m-5.695-46.485v46.485m-5.698-46.485v46.485m-5.695-46.485v46.485" transform="matrix(0 -.99875 -.99875 0 0 .001)"/><path style="fill:none;stroke-width:2.4;stroke-linecap:square;stroke-linejoin:round;stroke:#696969;stroke-opacity:1;stroke-miterlimit:4" d="M204.596 85.66V39.18m5.699 46.48V39.18m11.389 46.48V39.18m5.694 46.48V39.18M215.99 85.66V39.18m-8.547 46.48V39.18m5.699 46.48V39.18m5.695 46.48V39.18m5.694 46.48V39.18m-58.217 46.48V39.18m5.694 46.48V39.18m11.39 46.48V39.18m5.694 46.48V39.18m-11.389 46.48V39.18m-8.542 46.48V39.18m5.695 46.48V39.18m5.694 46.48V39.18m5.695 46.48V39.18" transform="matrix(.99875 0 0 -.99875 0 315.213)"/><path style="fill:none;stroke-width:2.4;stroke-linecap:square;stroke-linejoin:round;stroke:#87cefa;stroke-opacity:1;stroke-miterlimit:4" d="M-241.794-200.947v46.488m-5.694-46.488v46.488m-11.393-46.488v46.488m-5.695-46.488v46.488m11.389-46.488v46.488m8.546-46.488v46.488m-5.695-46.488v46.488m-5.698-46.488v46.488m-5.695-46.488v46.488" transform="matrix(0 -.99875 -.99875 0 0 .001)"/><path style="fill:none;stroke-width:2.4;stroke-linecap:square;stroke-linejoin:round;stroke:#87cefa;stroke-opacity:1;stroke-miterlimit:4" d="M-13.05 154.46v46.487m-5.695-46.487v46.487m-11.393-46.487v46.487m-5.695-46.487v46.487m11.393-46.487v46.487m8.543-46.487v46.487m-5.695-46.487v46.487m-5.698-46.487v46.487m-5.695-46.487v46.487" transform="rotate(-90) scale(.99875)"/><path style="fill:none;stroke-width:2.4;stroke-linecap:square;stroke-linejoin:round;stroke:#696969;stroke-opacity:1;stroke-miterlimit:4" d="M189.092 314.408v-46.484m-5.694 46.484v-46.484m-11.39 46.484v-46.484m-5.694 46.484v-46.484m11.389 46.484v-46.484m8.542 46.484v-46.484m-5.695 46.484v-46.484m-5.694 46.484v-46.484m-5.695 46.484v-46.484m58.217 46.484v-46.484m-5.694 46.484v-46.484m-11.389 46.484v-46.484m-5.699 46.484v-46.484m11.394 46.484v-46.484m8.541 46.484v-46.484m-5.694 46.484v-46.484m-5.695 46.484v-46.484m-5.699 46.484v-46.484" transform="matrix(.99875 0 0 -.99875 0 315.213)"/><path style="fill:none;stroke-width:2.4;stroke-linecap:square;stroke-linejoin:round;stroke:#87cefa;stroke-opacity:1;stroke-miterlimit:4" d="M-13.05 192.745v46.484m-5.695-46.484v46.484m-11.393-46.484v46.484m-5.695-46.484v46.484m11.393-46.484v46.484m8.543-46.484v46.484m-5.695-46.484v46.484m-5.698-46.484v46.484m-5.695-46.484v46.484" transform="rotate(-90) scale(.99875)"/><path style="fill:none;stroke-width:2.4;stroke-linecap:square;stroke-linejoin:round;stroke:#87cefa;stroke-opacity:1;stroke-miterlimit:4" d="M73.814-239.23v46.485m-5.699-46.485v46.485M56.726-239.23v46.485m-5.699-46.485v46.485M62.42-239.23v46.485m8.546-46.485v46.485m-5.694-46.485v46.485m-5.699-46.485v46.485m-5.694-46.485v46.485" transform="rotate(90) scale(.99875)"/><path style="fill:none;stroke-width:2.4;stroke-linecap:square;stroke-linejoin:round;stroke:#696969;stroke-opacity:1;stroke-miterlimit:4" d="M204.596 229.942v46.484m5.699-46.484v46.484m11.389-46.484v46.484m5.694-46.484v46.484m-11.388-46.484v46.484m-8.547-46.484v46.484m5.699-46.484v46.484m5.695-46.484v46.484m5.694-46.484v46.484" transform="matrix(.99875 0 0 -.99875 0 315.213)"/><path style="fill:none;stroke-width:2.4;stroke-linecap:square;stroke-linejoin:round;stroke:#87cefa;stroke-opacity:1;stroke-miterlimit:4" d="M73.814-200.947v46.488m-5.699-46.488v46.488m-11.389-46.488v46.488m-5.699-46.488v46.488m11.393-46.488v46.488m8.546-46.488v46.488m-5.694-46.488v46.488m-5.699-46.488v46.488m-5.694-46.488v46.488" transform="rotate(90) scale(.99875)"/><path style="fill:none;stroke-width:2.4;stroke-linecap:square;stroke-linejoin:round;stroke:#696969;stroke-opacity:1;stroke-miterlimit:4" d="M166.314 229.942v46.484m5.694-46.484v46.484m11.39-46.484v46.484m5.694-46.484v46.484m-11.389-46.484v46.484m-8.542-46.484v46.484m5.695-46.484v46.484m5.694-46.484v46.484m5.695-46.484v46.484" transform="matrix(.99875 0 0 -.99875 0 315.213)"/><path style="fill:none;stroke-width:2.4;stroke-linecap:square;stroke-linejoin:round;stroke:#87cefa;stroke-opacity:1;stroke-miterlimit:4" d="M-89.06 230.633v46.484m-5.694-46.484v46.484m-11.393-46.484v46.484m-5.699-46.484v46.484m11.397-46.484v46.484m8.542-46.484v46.484m-5.694-46.484v46.484m-5.695-46.484v46.484m-5.699-46.484v46.484" transform="rotate(-90) scale(.99875)"/><path style="fill:none;stroke-width:2.4;stroke-linecap:square;stroke-linejoin:round;stroke:#696969;stroke-opacity:1;stroke-miterlimit:4" d="M265.266 238.394v-46.48m-5.695 46.48v-46.48m-11.389 46.48v-46.48m-5.699 46.48v-46.48m11.394 46.48v-46.48m8.541 46.48v-46.48m-5.694 46.48v-46.48m-5.699 46.48v-46.48m-5.695 46.48v-46.48m58.222 46.48v-46.48m-5.699 46.48v-46.48m-11.389 46.48v-46.48m-5.694 46.48v-46.48m11.389 46.48v-46.48m8.546 46.48v-46.48m-5.699 46.48v-46.48m-5.694 46.48v-46.48m-5.695 46.48v-46.48" transform="matrix(.99875 0 0 -.99875 0 315.213)"/><g clip-path="url(#au)"><path style="fill:none;stroke-width:2.4;stroke-linecap:square;stroke-linejoin:round;stroke:#87cefa;stroke-opacity:1;stroke-miterlimit:4" d="M-89.06 268.919v46.484" transform="rotate(-90) scale(.99875)"/></g><g clip-path="url(#av)"><path style="fill:none;stroke-width:2.4;stroke-linecap:square;stroke-linejoin:round;stroke:#87cefa;stroke-opacity:1;stroke-miterlimit:4" d="M-94.754 268.919v46.484" transform="rotate(-90) scale(.99875)"/></g><g clip-path="url(#aw)"><path style="fill:none;stroke-width:2.4;stroke-linecap:square;stroke-linejoin:round;stroke:#87cefa;stroke-opacity:1;stroke-miterlimit:4" d="M-106.147 268.919v46.484" transform="rotate(-90) scale(.99875)"/></g><g clip-path="url(#ax)"><path style="fill:none;stroke-width:2.4;stroke-linecap:square;stroke-linejoin:round;stroke:#87cefa;stroke-opacity:1;stroke-miterlimit:4" d="M-111.846 268.919v46.484" transform="rotate(-90) scale(.99875)"/></g><g clip-path="url(#ay)"><path style="fill:none;stroke-width:2.4;stroke-linecap:square;stroke-linejoin:round;stroke:#87cefa;stroke-opacity:1;stroke-miterlimit:4" d="M-100.449 268.919v46.484" transform="rotate(-90) scale(.99875)"/></g><g clip-path="url(#az)"><path style="fill:none;stroke-width:2.4;stroke-linecap:square;stroke-linejoin:round;stroke:#87cefa;stroke-opacity:1;stroke-miterlimit:4" d="M-91.907 268.919v46.484" transform="rotate(-90) scale(.99875)"/></g><g clip-path="url(#aA)"><path style="fill:none;stroke-width:2.4;stroke-linecap:square;stroke-linejoin:round;stroke:#87cefa;stroke-opacity:1;stroke-miterlimit:4" d="M-97.601 268.919v46.484" transform="rotate(-90) scale(.99875)"/></g><g clip-path="url(#aB)"><path style="fill:none;stroke-width:2.4;stroke-linecap:square;stroke-linejoin:round;stroke:#87cefa;stroke-opacity:1;stroke-miterlimit:4" d="M-103.296 268.919v46.484" transform="rotate(-90) scale(.99875)"/></g><g clip-path="url(#aC)"><path style="fill:none;stroke-width:2.4;stroke-linecap:square;stroke-linejoin:round;stroke:#87cefa;stroke-opacity:1;stroke-miterlimit:4" d="M-108.995 268.919v46.484" transform="rotate(-90) scale(.99875)"/></g><g clip-path="url(#aD)"><path style="fill:none;stroke-width:2.4;stroke-linecap:square;stroke-linejoin:round;stroke:#87cefa;stroke-opacity:1;stroke-miterlimit:4" d="M149.82-315.403v46.484" transform="rotate(90) scale(.99875)"/></g><g clip-path="url(#aE)"><path style="fill:none;stroke-width:2.4;stroke-linecap:square;stroke-linejoin:round;stroke:#87cefa;stroke-opacity:1;stroke-miterlimit:4" d="M144.124-315.403v46.484" transform="rotate(90) scale(.99875)"/></g><g clip-path="url(#aF)"><path style="fill:none;stroke-width:2.4;stroke-linecap:square;stroke-linejoin:round;stroke:#87cefa;stroke-opacity:1;stroke-miterlimit:4" d="M132.735-315.403v46.484" transform="rotate(90) scale(.99875)"/></g><g clip-path="url(#aG)"><path style="fill:none;stroke-width:2.4;stroke-linecap:square;stroke-linejoin:round;stroke:#87cefa;stroke-opacity:1;stroke-miterlimit:4" d="M127.04-315.403v46.484" transform="rotate(90) scale(.99875)"/></g><g clip-path="url(#aH)"><path style="fill:none;stroke-width:2.4;stroke-linecap:square;stroke-linejoin:round;stroke:#87cefa;stroke-opacity:1;stroke-miterlimit:4" d="M138.43-315.403v46.484" transform="rotate(90) scale(.99875)"/></g><g clip-path="url(#aI)"><path style="fill:none;stroke-width:2.4;stroke-linecap:square;stroke-linejoin:round;stroke:#87cefa;stroke-opacity:1;stroke-miterlimit:4" d="M146.972-315.403v46.484" transform="rotate(90) scale(.99875)"/></g><g clip-path="url(#aJ)"><path style="fill:none;stroke-width:2.4;stroke-linecap:square;stroke-linejoin:round;stroke:#87cefa;stroke-opacity:1;stroke-miterlimit:4" d="M141.277-315.403v46.484" transform="rotate(90) scale(.99875)"/></g><g clip-path="url(#aK)"><path style="fill:none;stroke-width:2.4;stroke-linecap:square;stroke-linejoin:round;stroke:#87cefa;stroke-opacity:1;stroke-miterlimit:4" d="M135.583-315.403v46.484" transform="rotate(90) scale(.99875)"/></g><g clip-path="url(#aL)"><path style="fill:none;stroke-width:2.4;stroke-linecap:square;stroke-linejoin:round;stroke:#87cefa;stroke-opacity:1;stroke-miterlimit:4" d="M129.888-315.403v46.484" transform="rotate(90) scale(.99875)"/></g><path style="fill:none;stroke-width:2.4;stroke-linecap:square;stroke-linejoin:round;stroke:#696969;stroke-opacity:1;stroke-miterlimit:4" d="M280.77 153.933v46.484m5.694-46.484v46.484m11.389-46.484v46.484m5.699-46.484v46.484m-11.393-46.484v46.484m-8.542-46.484v46.484m5.695-46.484v46.484m5.694-46.484v46.484m5.699-46.484v46.484" transform="matrix(.99875 0 0 -.99875 0 315.213)"/><path style="fill:none;stroke-width:2.4;stroke-linecap:square;stroke-linejoin:round;stroke:#87cefa;stroke-opacity:1;stroke-miterlimit:4" d="M149.82-277.117v46.484m-5.696-46.484v46.484m-11.389-46.484v46.484m-5.695-46.484v46.484m11.39-46.484v46.484m8.542-46.484v46.484m-5.695-46.484v46.484m-5.694-46.484v46.484m-5.695-46.484v46.484" transform="rotate(90) scale(.99875)"/><path style="fill:none;stroke-width:2.4;stroke-linecap:square;stroke-linejoin:round;stroke:#696969;stroke-opacity:1;stroke-miterlimit:4" d="M242.483 153.933v46.484m5.699-46.484v46.484m11.389-46.484v46.484m5.695-46.484v46.484m-11.389-46.484v46.484m-8.547-46.484v46.484m5.695-46.484v46.484m5.699-46.484v46.484m5.694-46.484v46.484" transform="matrix(.99875 0 0 -.99875 0 315.213)"/><g clip-path="url(#aM)"><path style="fill:none;stroke-width:2.4;stroke-linecap:square;stroke-linejoin:round;stroke:#87cefa;stroke-opacity:1;stroke-miterlimit:4" d="M-13.05-315.403v46.484" transform="matrix(0 -.99875 -.99875 0 0 .001)"/></g><g clip-path="url(#aN)"><path style="fill:none;stroke-width:2.4;stroke-linecap:square;stroke-linejoin:round;stroke:#87cefa;stroke-opacity:1;stroke-miterlimit:4" d="M-18.745-315.403v46.484" transform="matrix(0 -.99875 -.99875 0 0 .001)"/></g><g clip-path="url(#aO)"><path style="fill:none;stroke-width:2.4;stroke-linecap:square;stroke-linejoin:round;stroke:#87cefa;stroke-opacity:1;stroke-miterlimit:4" d="M-30.138-315.403v46.484" transform="matrix(0 -.99875 -.99875 0 0 .001)"/></g><g clip-path="url(#aP)"><path style="fill:none;stroke-width:2.4;stroke-linecap:square;stroke-linejoin:round;stroke:#87cefa;stroke-opacity:1;stroke-miterlimit:4" d="M-35.833-315.403v46.484" transform="matrix(0 -.99875 -.99875 0 0 .001)"/></g><g clip-path="url(#aQ)"><path style="fill:none;stroke-width:2.4;stroke-linecap:square;stroke-linejoin:round;stroke:#87cefa;stroke-opacity:1;stroke-miterlimit:4" d="M-24.44-315.403v46.484" transform="matrix(0 -.99875 -.99875 0 0 .001)"/></g><g clip-path="url(#aR)"><path style="fill:none;stroke-width:2.4;stroke-linecap:square;stroke-linejoin:round;stroke:#87cefa;stroke-opacity:1;stroke-miterlimit:4" d="M-15.897-315.403v46.484" transform="matrix(0 -.99875 -.99875 0 0 .001)"/></g><g clip-path="url(#aS)"><path style="fill:none;stroke-width:2.4;stroke-linecap:square;stroke-linejoin:round;stroke:#87cefa;stroke-opacity:1;stroke-miterlimit:4" d="M-21.592-315.403v46.484" transform="matrix(0 -.99875 -.99875 0 0 .001)"/></g><g clip-path="url(#aT)"><path style="fill:none;stroke-width:2.4;stroke-linecap:square;stroke-linejoin:round;stroke:#87cefa;stroke-opacity:1;stroke-miterlimit:4" d="M-27.29-315.403v46.484" transform="matrix(0 -.99875 -.99875 0 0 .001)"/></g><g clip-path="url(#aU)"><path style="fill:none;stroke-width:2.4;stroke-linecap:square;stroke-linejoin:round;stroke:#87cefa;stroke-opacity:1;stroke-miterlimit:4" d="M-32.985-315.403v46.484" transform="matrix(0 -.99875 -.99875 0 0 .001)"/></g><path style="fill:none;stroke-width:2.4;stroke-linecap:square;stroke-linejoin:round;stroke:#696969;stroke-opacity:1;stroke-miterlimit:4" d="M280.77 314.408v-46.484m5.694 46.484v-46.484m11.389 46.484v-46.484m5.699 46.484v-46.484m-11.393 46.484v-46.484m-8.542 46.484v-46.484m5.695 46.484v-46.484m5.694 46.484v-46.484m5.699 46.484v-46.484m-58.222 46.484v-46.484m5.699 46.484v-46.484m11.389 46.484v-46.484m5.695 46.484v-46.484m-11.389 46.484v-46.484m-8.547 46.484v-46.484m5.695 46.484v-46.484m5.699 46.484v-46.484m5.694 46.484v-46.484" transform="matrix(.99875 0 0 -.99875 0 315.213)"/><path style="fill:none;stroke-width:2.4;stroke-linecap:square;stroke-linejoin:round;stroke:#87cefa;stroke-opacity:1;stroke-miterlimit:4" d="M-13.05-277.117v46.484m-5.695-46.484v46.484m-11.393-46.484v46.484m-5.695-46.484v46.484m11.393-46.484v46.484m8.543-46.484v46.484m-5.695-46.484v46.484m-5.698-46.484v46.484m-5.695-46.484v46.484" transform="matrix(0 -.99875 -.99875 0 0 .001)"/><path style="fill:none;stroke-width:2.4;stroke-linecap:square;stroke-linejoin:round;stroke:#696969;stroke-opacity:1;stroke-miterlimit:4" d="M265.266 229.942v46.484m-5.695-46.484v46.484m-11.389-46.484v46.484m-5.699-46.484v46.484m11.394-46.484v46.484m8.541-46.484v46.484m-5.694-46.484v46.484m-5.699-46.484v46.484m-5.695-46.484v46.484" transform="matrix(.99875 0 0 -.99875 0 315.213)"/><path style="fill:none;stroke-width:2.4;stroke-linecap:square;stroke-linejoin:round;stroke:#87cefa;stroke-opacity:1;stroke-miterlimit:4" d="M73.814 230.633v46.484m-5.699-46.484v46.484m-11.389-46.484v46.484m-5.699-46.484v46.484m11.393-46.484v46.484m8.546-46.484v46.484m-5.694-46.484v46.484m-5.699-46.484v46.484m-5.694-46.484v46.484" transform="matrix(0 .99875 .99875 0 0 .001)"/><path style="fill:none;stroke-width:2.4;stroke-linecap:square;stroke-linejoin:round;stroke:#696969;stroke-opacity:1;stroke-miterlimit:4" d="M303.552 229.942v46.484m-5.699-46.484v46.484m-11.389-46.484v46.484m-5.694-46.484v46.484m11.389-46.484v46.484m8.546-46.484v46.484m-5.699-46.484v46.484m-5.694-46.484v46.484m-5.695-46.484v46.484" transform="matrix(.99875 0 0 -.99875 0 315.213)"/><g clip-path="url(#aV)"><path style="fill:none;stroke-width:2.4;stroke-linecap:square;stroke-linejoin:round;stroke:#87cefa;stroke-opacity:1;stroke-miterlimit:4" d="M73.814 268.919v46.484" transform="matrix(0 .99875 .99875 0 0 .001)"/></g><g clip-path="url(#aW)"><path style="fill:none;stroke-width:2.4;stroke-linecap:square;stroke-linejoin:round;stroke:#87cefa;stroke-opacity:1;stroke-miterlimit:4" d="M68.115 268.919v46.484" transform="matrix(0 .99875 .99875 0 0 .001)"/></g><g clip-path="url(#aX)"><path style="fill:none;stroke-width:2.4;stroke-linecap:square;stroke-linejoin:round;stroke:#87cefa;stroke-opacity:1;stroke-miterlimit:4" d="M56.726 268.919v46.484" transform="matrix(0 .99875 .99875 0 0 .001)"/></g><g clip-path="url(#aY)"><path style="fill:none;stroke-width:2.4;stroke-linecap:square;stroke-linejoin:round;stroke:#87cefa;stroke-opacity:1;stroke-miterlimit:4" d="M51.027 268.919v46.484" transform="matrix(0 .99875 .99875 0 0 .001)"/></g><g clip-path="url(#aZ)"><path style="fill:none;stroke-width:2.4;stroke-linecap:square;stroke-linejoin:round;stroke:#87cefa;stroke-opacity:1;stroke-miterlimit:4" d="M62.42 268.919v46.484" transform="matrix(0 .99875 .99875 0 0 .001)"/></g><g clip-path="url(#ba)"><path style="fill:none;stroke-width:2.4;stroke-linecap:square;stroke-linejoin:round;stroke:#87cefa;stroke-opacity:1;stroke-miterlimit:4" d="M70.966 268.919v46.484" transform="matrix(0 .99875 .99875 0 0 .001)"/></g><g clip-path="url(#bb)"><path style="fill:none;stroke-width:2.4;stroke-linecap:square;stroke-linejoin:round;stroke:#87cefa;stroke-opacity:1;stroke-miterlimit:4" d="M65.272 268.919v46.484" transform="matrix(0 .99875 .99875 0 0 .001)"/></g><g clip-path="url(#bc)"><path style="fill:none;stroke-width:2.4;stroke-linecap:square;stroke-linejoin:round;stroke:#87cefa;stroke-opacity:1;stroke-miterlimit:4" d="M59.573 268.919v46.484" transform="matrix(0 .99875 .99875 0 0 .001)"/></g><g clip-path="url(#bd)"><path style="fill:none;stroke-width:2.4;stroke-linecap:square;stroke-linejoin:round;stroke:#87cefa;stroke-opacity:1;stroke-miterlimit:4" d="M53.879 268.919v46.484" transform="matrix(0 .99875 .99875 0 0 .001)"/></g><path style="fill:none;stroke-width:2.4;stroke-linecap:square;stroke-linejoin:round;stroke:#696969;stroke-opacity:1;stroke-miterlimit:4" d="M189.092 153.933v46.484m-5.694-46.484v46.484m-11.39-46.484v46.484m-5.694-46.484v46.484m11.389-46.484v46.484m8.542-46.484v46.484m-5.695-46.484v46.484m-5.694-46.484v46.484m-5.695-46.484v46.484" transform="matrix(.99875 0 0 -.99875 0 315.213)"/><path style="fill:none;stroke-width:2.4;stroke-linecap:square;stroke-linejoin:round;stroke:#87cefa;stroke-opacity:1;stroke-miterlimit:4" d="M149.82 154.46v46.487m-5.696-46.487v46.487m-11.389-46.487v46.487m-5.695-46.487v46.487m11.39-46.487v46.487m8.542-46.487v46.487m-5.695-46.487v46.487m-5.694-46.487v46.487m-5.695-46.487v46.487" transform="matrix(0 .99875 .99875 0 0 .001)"/><path style="fill:none;stroke-width:2.4;stroke-linecap:square;stroke-linejoin:round;stroke:#696969;stroke-opacity:1;stroke-miterlimit:4" d="M227.378 153.933v46.484m-5.694-46.484v46.484m-11.389-46.484v46.484m-5.699-46.484v46.484m11.394-46.484v46.484m8.541-46.484v46.484m-5.694-46.484v46.484m-5.695-46.484v46.484m-5.699-46.484v46.484" transform="matrix(.99875 0 0 -.99875 0 315.213)"/><path style="fill:none;stroke-width:2.4;stroke-linecap:square;stroke-linejoin:round;stroke:#87cefa;stroke-opacity:1;stroke-miterlimit:4" d="M149.82 192.745v46.484m-5.696-46.484v46.484m-11.389-46.484v46.484m-5.695-46.484v46.484m11.39-46.484v46.484m8.542-46.484v46.484m-5.695-46.484v46.484m-5.694-46.484v46.484m-5.695-46.484v46.484" transform="matrix(0 .99875 .99875 0 0 .001)"/><path style="fill:none;stroke-width:2.4;stroke-linecap:square;stroke-linejoin:round;stroke:#87cefa;stroke-opacity:1;stroke-miterlimit:4" d="M-89.06-239.23v46.485m-5.694-46.485v46.485m-11.393-46.485v46.485m-5.699-46.485v46.485m11.397-46.485v46.485m8.542-46.485v46.485m-5.694-46.485v46.485m-5.695-46.485v46.485m-5.699-46.485v46.485" transform="matrix(0 -.99875 -.99875 0 0 .001)"/><path style="fill:none;stroke-width:2.4;stroke-linecap:square;stroke-linejoin:round;stroke:#696969;stroke-opacity:1;stroke-miterlimit:4" d="M204.596 238.394v-46.48m5.699 46.48v-46.48m11.389 46.48v-46.48m5.694 46.48v-46.48m-11.388 46.48v-46.48m-8.547 46.48v-46.48m5.699 46.48v-46.48m5.695 46.48v-46.48m5.694 46.48v-46.48m-58.217 46.48v-46.48m5.694 46.48v-46.48m11.39 46.48v-46.48m5.694 46.48v-46.48m-11.389 46.48v-46.48m-8.542 46.48v-46.48m5.695 46.48v-46.48m5.694 46.48v-46.48m5.695 46.48v-46.48" transform="matrix(.99875 0 0 -.99875 0 315.213)"/><path style="fill:none;stroke-width:2.4;stroke-linecap:square;stroke-linejoin:round;stroke:#87cefa;stroke-opacity:1;stroke-miterlimit:4" d="M-89.06-200.947v46.488m-5.694-46.488v46.488m-11.393-46.488v46.488m-5.699-46.488v46.488m11.397-46.488v46.488m8.542-46.488v46.488m-5.694-46.488v46.488m-5.695-46.488v46.488m-5.699-46.488v46.488" transform="matrix(0 -.99875 -.99875 0 0 .001)"/><path style="fill:none;stroke-width:2.4;stroke-linecap:square;stroke-linejoin:round;stroke:#87cefa;stroke-opacity:1;stroke-miterlimit:4" d="M-165.784 1.2v46.485M-171.479 1.2v46.485M-182.872 1.2v46.485M-188.567 1.2v46.485M-177.178 1.2v46.485m8.546-46.485v46.485M-174.326 1.2v46.485M-180.025 1.2v46.485M-185.72 1.2v46.485" transform="rotate(-90) scale(.99875)"/><path style="fill:none;stroke-width:2.4;stroke-linecap:square;stroke-linejoin:round;stroke:#696969;stroke-opacity:1;stroke-miterlimit:4" d="M35.834 161.673V115.19m-5.699 46.483V115.19m-11.389 46.483V115.19m-5.694 46.483V115.19m11.388 46.483V115.19m8.543 46.483V115.19m-5.695 46.483V115.19m-5.695 46.483V115.19m-5.694 46.483V115.19m58.217 46.483V115.19m-5.694 46.483V115.19m-11.39 46.483V115.19m-5.694 46.483V115.19m11.389 46.483V115.19m8.542 46.483V115.19m-5.695 46.483V115.19m-5.694 46.483V115.19m-5.695 46.483V115.19" transform="matrix(.99875 0 0 -.99875 0 315.213)"/><path style="fill:none;stroke-width:2.4;stroke-linecap:square;stroke-linejoin:round;stroke:#87cefa;stroke-opacity:1;stroke-miterlimit:4" d="M-165.784 39.483v46.488m-5.695-46.488v46.488m-11.393-46.488v46.488m-5.695-46.488v46.488m11.389-46.488v46.488m8.546-46.488v46.488m-5.694-46.488v46.488m-5.699-46.488v46.488m-5.695-46.488v46.488" transform="rotate(-90) scale(.99875)"/><path style="fill:none;stroke-width:2.4;stroke-linecap:square;stroke-linejoin:round;stroke:#87cefa;stroke-opacity:1;stroke-miterlimit:4" d="M226.548-85.97v46.487m-5.695-46.487v46.487M209.46-85.97v46.487m-5.694-46.487v46.487m11.389-46.487v46.487M223.7-85.97v46.487m-5.698-46.487v46.487m-5.695-46.487v46.487m-5.694-46.487v46.487" transform="rotate(90) scale(.99875)"/><path style="fill:none;stroke-width:2.4;stroke-linecap:square;stroke-linejoin:round;stroke:#696969;stroke-opacity:1;stroke-miterlimit:4" d="M51.338 77.208v46.484m5.694-46.484v46.484m11.39-46.484v46.484m5.694-46.484v46.484M62.727 77.208v46.484m-8.542-46.484v46.484m5.695-46.484v46.484m5.694-46.484v46.484m5.695-46.484v46.484" transform="matrix(.99875 0 0 -.99875 0 315.213)"/><path style="fill:none;stroke-width:2.4;stroke-linecap:square;stroke-linejoin:round;stroke:#87cefa;stroke-opacity:1;stroke-miterlimit:4" d="M226.548-47.685V-1.2m-5.695-46.485V-1.2M209.46-47.685V-1.2m-5.694-46.485V-1.2m11.389-46.485V-1.2m8.545-46.485V-1.2m-5.698-46.485V-1.2m-5.695-46.485V-1.2m-5.694-46.485V-1.2" transform="rotate(90) scale(.99875)"/><path style="fill:none;stroke-width:2.4;stroke-linecap:square;stroke-linejoin:round;stroke:#696969;stroke-opacity:1;stroke-miterlimit:4" d="M13.052 77.208v46.484m5.694-46.484v46.484m11.389-46.484v46.484m5.699-46.484v46.484M24.44 77.208v46.484m-8.541-46.484v46.484m5.694-46.484v46.484m5.695-46.484v46.484m5.695-46.484v46.484" transform="matrix(.99875 0 0 -.99875 0 315.213)"/><path style="fill:none;stroke-width:2.4;stroke-linecap:square;stroke-linejoin:round;stroke:#87cefa;stroke-opacity:1;stroke-miterlimit:4" d="M-241.794 77.37v46.484m-5.694-46.484v46.484m-11.393-46.484v46.484m-5.695-46.484v46.484m11.389-46.484v46.484m8.546-46.484v46.484m-5.695-46.484v46.484m-5.698-46.484v46.484m-5.695-46.484v46.484" transform="rotate(-90) scale(.99875)"/><path style="fill:none;stroke-width:2.4;stroke-linecap:square;stroke-linejoin:round;stroke:#696969;stroke-opacity:1;stroke-miterlimit:4" d="M112.004 85.66V39.18m-5.695 46.48V39.18M94.92 85.66V39.18m-5.699 46.48V39.18m11.393 46.48V39.18m8.542 46.48V39.18m-5.694 46.48V39.18m-5.695 46.48V39.18m-5.699 46.48V39.18m58.222 46.48V39.18m-5.695 46.48V39.18m-11.393 46.48V39.18m-5.695 46.48V39.18m11.39 46.48V39.18m8.545 46.48V39.18m-5.694 46.48V39.18m-5.698 46.48V39.18m-5.695 46.48V39.18" transform="matrix(.99875 0 0 -.99875 0 315.213)"/><path style="fill:none;stroke-width:2.4;stroke-linecap:square;stroke-linejoin:round;stroke:#87cefa;stroke-opacity:1;stroke-miterlimit:4" d="M-241.794 115.657v46.484m-5.694-46.484v46.484m-11.393-46.484v46.484m-5.695-46.484v46.484m11.389-46.484v46.484m8.546-46.484v46.484m-5.695-46.484v46.484m-5.698-46.484v46.484m-5.695-46.484v46.484" transform="rotate(-90) scale(.99875)"/><path style="fill:none;stroke-width:2.4;stroke-linecap:square;stroke-linejoin:round;stroke:#87cefa;stroke-opacity:1;stroke-miterlimit:4" d="M302.553-162.14v46.483m-5.694-46.483v46.483M285.47-162.14v46.483m-5.695-46.483v46.483m11.389-46.483v46.483m8.542-46.483v46.483m-5.695-46.483v46.483m-5.694-46.483v46.483m-5.695-46.483v46.483" transform="rotate(90) scale(.99875)"/><g clip-path="url(#be)"><path style="fill:none;stroke-width:2.4;stroke-linecap:square;stroke-linejoin:round;stroke:#696969;stroke-opacity:1;stroke-miterlimit:4" d="M127.507 1.203v46.484" transform="matrix(.99875 0 0 -.99875 0 315.213)"/></g><g clip-path="url(#bf)"><path style="fill:none;stroke-width:2.4;stroke-linecap:square;stroke-linejoin:round;stroke:#696969;stroke-opacity:1;stroke-miterlimit:4" d="M133.202 1.203v46.484" transform="matrix(.99875 0 0 -.99875 0 315.213)"/></g><g clip-path="url(#bg)"><path style="fill:none;stroke-width:2.4;stroke-linecap:square;stroke-linejoin:round;stroke:#696969;stroke-opacity:1;stroke-miterlimit:4" d="M144.595 1.203v46.484" transform="matrix(.99875 0 0 -.99875 0 315.213)"/></g><g clip-path="url(#bh)"><path style="fill:none;stroke-width:2.4;stroke-linecap:square;stroke-linejoin:round;stroke:#696969;stroke-opacity:1;stroke-miterlimit:4" d="M150.29 1.203v46.484" transform="matrix(.99875 0 0 -.99875 0 315.213)"/></g><g clip-path="url(#bi)"><path style="fill:none;stroke-width:2.4;stroke-linecap:square;stroke-linejoin:round;stroke:#696969;stroke-opacity:1;stroke-miterlimit:4" d="M138.897 1.203v46.484" transform="matrix(.99875 0 0 -.99875 0 315.213)"/></g><g clip-path="url(#bj)"><path style="fill:none;stroke-width:2.4;stroke-linecap:square;stroke-linejoin:round;stroke:#696969;stroke-opacity:1;stroke-miterlimit:4" d="M130.355 1.203v46.484" transform="matrix(.99875 0 0 -.99875 0 315.213)"/></g><g clip-path="url(#bk)"><path style="fill:none;stroke-width:2.4;stroke-linecap:square;stroke-linejoin:round;stroke:#696969;stroke-opacity:1;stroke-miterlimit:4" d="M136.05 1.203v46.484" transform="matrix(.99875 0 0 -.99875 0 315.213)"/></g><g clip-path="url(#bl)"><path style="fill:none;stroke-width:2.4;stroke-linecap:square;stroke-linejoin:round;stroke:#696969;stroke-opacity:1;stroke-miterlimit:4" d="M141.748 1.203v46.484" transform="matrix(.99875 0 0 -.99875 0 315.213)"/></g><g clip-path="url(#bm)"><path style="fill:none;stroke-width:2.4;stroke-linecap:square;stroke-linejoin:round;stroke:#696969;stroke-opacity:1;stroke-miterlimit:4" d="M147.442 1.203v46.484" transform="matrix(.99875 0 0 -.99875 0 315.213)"/></g><path style="fill:none;stroke-width:2.4;stroke-linecap:square;stroke-linejoin:round;stroke:#87cefa;stroke-opacity:1;stroke-miterlimit:4" d="M302.553-123.854v46.484m-5.694-46.484v46.484m-11.389-46.484v46.484m-5.695-46.484v46.484m11.389-46.484v46.484m8.542-46.484v46.484m-5.695-46.484v46.484m-5.694-46.484v46.484m-5.695-46.484v46.484" transform="rotate(90) scale(.99875)"/><g clip-path="url(#bn)"><path style="fill:none;stroke-width:2.4;stroke-linecap:square;stroke-linejoin:round;stroke:#696969;stroke-opacity:1;stroke-miterlimit:4" d="M89.221 1.203v46.484" transform="matrix(.99875 0 0 -.99875 0 315.213)"/></g><g clip-path="url(#bo)"><path style="fill:none;stroke-width:2.4;stroke-linecap:square;stroke-linejoin:round;stroke:#696969;stroke-opacity:1;stroke-miterlimit:4" d="M94.92 1.203v46.484" transform="matrix(.99875 0 0 -.99875 0 315.213)"/></g><g clip-path="url(#bp)"><path style="fill:none;stroke-width:2.4;stroke-linecap:square;stroke-linejoin:round;stroke:#696969;stroke-opacity:1;stroke-miterlimit:4" d="M106.309 1.203v46.484" transform="matrix(.99875 0 0 -.99875 0 315.213)"/></g><g clip-path="url(#bq)"><path style="fill:none;stroke-width:2.4;stroke-linecap:square;stroke-linejoin:round;stroke:#696969;stroke-opacity:1;stroke-miterlimit:4" d="M112.004 1.203v46.484" transform="matrix(.99875 0 0 -.99875 0 315.213)"/></g><g clip-path="url(#br)"><path style="fill:none;stroke-width:2.4;stroke-linecap:square;stroke-linejoin:round;stroke:#696969;stroke-opacity:1;stroke-miterlimit:4" d="M100.614 1.203v46.484" transform="matrix(.99875 0 0 -.99875 0 315.213)"/></g><g clip-path="url(#bs)"><path style="fill:none;stroke-width:2.4;stroke-linecap:square;stroke-linejoin:round;stroke:#696969;stroke-opacity:1;stroke-miterlimit:4" d="M92.068 1.203v46.484" transform="matrix(.99875 0 0 -.99875 0 315.213)"/></g><g clip-path="url(#bt)"><path style="fill:none;stroke-width:2.4;stroke-linecap:square;stroke-linejoin:round;stroke:#696969;stroke-opacity:1;stroke-miterlimit:4" d="M97.767 1.203v46.484" transform="matrix(.99875 0 0 -.99875 0 315.213)"/></g><g clip-path="url(#bu)"><path style="fill:none;stroke-width:2.4;stroke-linecap:square;stroke-linejoin:round;stroke:#696969;stroke-opacity:1;stroke-miterlimit:4" d="M103.462 1.203v46.484" transform="matrix(.99875 0 0 -.99875 0 315.213)"/></g><g clip-path="url(#bv)"><path style="fill:none;stroke-width:2.4;stroke-linecap:square;stroke-linejoin:round;stroke:#696969;stroke-opacity:1;stroke-miterlimit:4" d="M109.156 1.203v46.484" transform="matrix(.99875 0 0 -.99875 0 315.213)"/></g><path style="fill:none;stroke-width:2.4;stroke-linecap:square;stroke-linejoin:round;stroke:#87cefa;stroke-opacity:1;stroke-miterlimit:4" d="M-165.784-162.14v46.483m-5.695-46.483v46.483m-11.393-46.483v46.483m-5.695-46.483v46.483m11.389-46.483v46.483m8.546-46.483v46.483m-5.694-46.483v46.483m-5.699-46.483v46.483m-5.695-46.483v46.483" transform="matrix(0 -.99875 -.99875 0 0 .001)"/><path style="fill:none;stroke-width:2.4;stroke-linecap:square;stroke-linejoin:round;stroke:#696969;stroke-opacity:1;stroke-miterlimit:4" d="M127.507 161.673V115.19m5.695 46.483V115.19m11.393 46.483V115.19m5.695 46.483V115.19m-11.393 46.483V115.19m-8.542 46.483V115.19m5.695 46.483V115.19m5.698 46.483V115.19m5.694 46.483V115.19m-58.221 46.483V115.19m5.699 46.483V115.19m11.389 46.483V115.19m5.695 46.483V115.19m-11.39 46.483V115.19m-8.546 46.483V115.19m5.699 46.483V115.19m5.695 46.483V115.19m5.694 46.483V115.19" transform="matrix(.99875 0 0 -.99875 0 315.213)"/><path style="fill:none;stroke-width:2.4;stroke-linecap:square;stroke-linejoin:round;stroke:#87cefa;stroke-opacity:1;stroke-miterlimit:4" d="M-165.784-123.854v46.484m-5.695-46.484v46.484m-11.393-46.484v46.484m-5.695-46.484v46.484m11.389-46.484v46.484m8.546-46.484v46.484m-5.694-46.484v46.484m-5.699-46.484v46.484m-5.695-46.484v46.484" transform="matrix(0 -.99875 -.99875 0 0 .001)"/><path style="fill:none;stroke-width:2.4;stroke-linecap:square;stroke-linejoin:round;stroke:#696969;stroke-opacity:1;stroke-miterlimit:4" d="M112.004 77.208v46.484m-5.695-46.484v46.484M94.92 77.208v46.484m-5.699-46.484v46.484m11.393-46.484v46.484m8.542-46.484v46.484m-5.694-46.484v46.484m-5.695-46.484v46.484m-5.699-46.484v46.484" transform="matrix(.99875 0 0 -.99875 0 315.213)"/><path style="fill:none;stroke-width:2.4;stroke-linecap:square;stroke-linejoin:round;stroke:#87cefa;stroke-opacity:1;stroke-miterlimit:4" d="M226.548 77.37v46.484m-5.695-46.484v46.484M209.46 77.37v46.484m-5.694-46.484v46.484m11.389-46.484v46.484M223.7 77.37v46.484m-5.698-46.484v46.484m-5.695-46.484v46.484m-5.694-46.484v46.484" transform="matrix(0 .99875 .99875 0 0 .001)"/><path style="fill:none;stroke-width:2.4;stroke-linecap:square;stroke-linejoin:round;stroke:#696969;stroke-opacity:1;stroke-miterlimit:4" d="M150.29 77.208v46.484m-5.695-46.484v46.484m-11.393-46.484v46.484m-5.695-46.484v46.484m11.39-46.484v46.484m8.545-46.484v46.484m-5.694-46.484v46.484m-5.698-46.484v46.484m-5.695-46.484v46.484" transform="matrix(.99875 0 0 -.99875 0 315.213)"/><path style="fill:none;stroke-width:2.4;stroke-linecap:square;stroke-linejoin:round;stroke:#87cefa;stroke-opacity:1;stroke-miterlimit:4" d="M226.548 115.657v46.484m-5.695-46.484v46.484m-11.393-46.484v46.484m-5.694-46.484v46.484m11.389-46.484v46.484m8.545-46.484v46.484m-5.698-46.484v46.484m-5.695-46.484v46.484m-5.694-46.484v46.484" transform="matrix(0 .99875 .99875 0 0 .001)"/><g clip-path="url(#bw)"><path style="fill:none;stroke-width:2.4;stroke-linecap:square;stroke-linejoin:round;stroke:#696969;stroke-opacity:1;stroke-miterlimit:4" d="M35.834 1.203v46.484" transform="matrix(.99875 0 0 -.99875 0 315.213)"/></g><g clip-path="url(#bx)"><path style="fill:none;stroke-width:2.4;stroke-linecap:square;stroke-linejoin:round;stroke:#696969;stroke-opacity:1;stroke-miterlimit:4" d="M30.135 1.203v46.484" transform="matrix(.99875 0 0 -.99875 0 315.213)"/></g><g clip-path="url(#by)"><path style="fill:none;stroke-width:2.4;stroke-linecap:square;stroke-linejoin:round;stroke:#696969;stroke-opacity:1;stroke-miterlimit:4" d="M18.746 1.203v46.484" transform="matrix(.99875 0 0 -.99875 0 315.213)"/></g><g clip-path="url(#bz)"><path style="fill:none;stroke-width:2.4;stroke-linecap:square;stroke-linejoin:round;stroke:#696969;stroke-opacity:1;stroke-miterlimit:4" d="M13.052 1.203v46.484" transform="matrix(.99875 0 0 -.99875 0 315.213)"/></g><g clip-path="url(#bA)"><path style="fill:none;stroke-width:2.4;stroke-linecap:square;stroke-linejoin:round;stroke:#696969;stroke-opacity:1;stroke-miterlimit:4" d="M24.44 1.203v46.484" transform="matrix(.99875 0 0 -.99875 0 315.213)"/></g><g clip-path="url(#bB)"><path style="fill:none;stroke-width:2.4;stroke-linecap:square;stroke-linejoin:round;stroke:#696969;stroke-opacity:1;stroke-miterlimit:4" d="M32.983 1.203v46.484" transform="matrix(.99875 0 0 -.99875 0 315.213)"/></g><g clip-path="url(#bC)"><path style="fill:none;stroke-width:2.4;stroke-linecap:square;stroke-linejoin:round;stroke:#696969;stroke-opacity:1;stroke-miterlimit:4" d="M27.288 1.203v46.484" transform="matrix(.99875 0 0 -.99875 0 315.213)"/></g><g clip-path="url(#bD)"><path style="fill:none;stroke-width:2.4;stroke-linecap:square;stroke-linejoin:round;stroke:#696969;stroke-opacity:1;stroke-miterlimit:4" d="M21.593 1.203v46.484" transform="matrix(.99875 0 0 -.99875 0 315.213)"/></g><g clip-path="url(#bE)"><path style="fill:none;stroke-width:2.4;stroke-linecap:square;stroke-linejoin:round;stroke:#696969;stroke-opacity:1;stroke-miterlimit:4" d="M15.899 1.203v46.484" transform="matrix(.99875 0 0 -.99875 0 315.213)"/></g><path style="fill:none;stroke-width:2.4;stroke-linecap:square;stroke-linejoin:round;stroke:#87cefa;stroke-opacity:1;stroke-miterlimit:4" d="M302.553 1.2v46.485M296.859 1.2v46.485M285.47 1.2v46.485M279.775 1.2v46.485M291.164 1.2v46.485M299.706 1.2v46.485M294.011 1.2v46.485M288.317 1.2v46.485M282.622 1.2v46.485" transform="matrix(0 .99875 .99875 0 0 .001)"/><g clip-path="url(#bF)"><path style="fill:none;stroke-width:2.4;stroke-linecap:square;stroke-linejoin:round;stroke:#696969;stroke-opacity:1;stroke-miterlimit:4" d="M74.116 1.203v46.484" transform="matrix(.99875 0 0 -.99875 0 315.213)"/></g><g clip-path="url(#bG)"><path style="fill:none;stroke-width:2.4;stroke-linecap:square;stroke-linejoin:round;stroke:#696969;stroke-opacity:1;stroke-miterlimit:4" d="M68.422 1.203v46.484" transform="matrix(.99875 0 0 -.99875 0 315.213)"/></g><g clip-path="url(#bH)"><path style="fill:none;stroke-width:2.4;stroke-linecap:square;stroke-linejoin:round;stroke:#696969;stroke-opacity:1;stroke-miterlimit:4" d="M57.032 1.203v46.484" transform="matrix(.99875 0 0 -.99875 0 315.213)"/></g><g clip-path="url(#bI)"><path style="fill:none;stroke-width:2.4;stroke-linecap:square;stroke-linejoin:round;stroke:#696969;stroke-opacity:1;stroke-miterlimit:4" d="M51.338 1.203v46.484" transform="matrix(.99875 0 0 -.99875 0 315.213)"/></g><g clip-path="url(#bJ)"><path style="fill:none;stroke-width:2.4;stroke-linecap:square;stroke-linejoin:round;stroke:#696969;stroke-opacity:1;stroke-miterlimit:4" d="M62.727 1.203v46.484" transform="matrix(.99875 0 0 -.99875 0 315.213)"/></g><g clip-path="url(#bK)"><path style="fill:none;stroke-width:2.4;stroke-linecap:square;stroke-linejoin:round;stroke:#696969;stroke-opacity:1;stroke-miterlimit:4" d="M71.269 1.203v46.484" transform="matrix(.99875 0 0 -.99875 0 315.213)"/></g><g clip-path="url(#bL)"><path style="fill:none;stroke-width:2.4;stroke-linecap:square;stroke-linejoin:round;stroke:#696969;stroke-opacity:1;stroke-miterlimit:4" d="M65.574 1.203v46.484" transform="matrix(.99875 0 0 -.99875 0 315.213)"/></g><g clip-path="url(#bM)"><path style="fill:none;stroke-width:2.4;stroke-linecap:square;stroke-linejoin:round;stroke:#696969;stroke-opacity:1;stroke-miterlimit:4" d="M59.88 1.203v46.484" transform="matrix(.99875 0 0 -.99875 0 315.213)"/></g><g clip-path="url(#bN)"><path style="fill:none;stroke-width:2.4;stroke-linecap:square;stroke-linejoin:round;stroke:#696969;stroke-opacity:1;stroke-miterlimit:4" d="M54.185 1.203v46.484" transform="matrix(.99875 0 0 -.99875 0 315.213)"/></g><path style="fill:none;stroke-width:2.4;stroke-linecap:square;stroke-linejoin:round;stroke:#87cefa;stroke-opacity:1;stroke-miterlimit:4" d="M302.553 39.483v46.488m-5.694-46.488v46.488M285.47 39.483v46.488m-5.695-46.488v46.488m11.389-46.488v46.488m8.542-46.488v46.488m-5.695-46.488v46.488m-5.694-46.488v46.488m-5.695-46.488v46.488" transform="matrix(0 .99875 .99875 0 0 .001)"/><path style="fill:none;stroke-width:2.4;stroke-linecap:square;stroke-linejoin:round;stroke:#87cefa;stroke-opacity:1;stroke-miterlimit:4" d="M-241.794-85.97v46.487m-5.694-46.487v46.487m-11.393-46.487v46.487m-5.695-46.487v46.487m11.389-46.487v46.487m8.546-46.487v46.487m-5.695-46.487v46.487m-5.698-46.487v46.487m-5.695-46.487v46.487" transform="matrix(0 -.99875 -.99875 0 0 .001)"/><path style="fill:none;stroke-width:2.4;stroke-linecap:square;stroke-linejoin:round;stroke:#696969;stroke-opacity:1;stroke-miterlimit:4" d="M51.338 85.66V39.18m5.694 46.48V39.18m11.39 46.48V39.18m5.694 46.48V39.18M62.727 85.66V39.18m-8.542 46.48V39.18m5.695 46.48V39.18m5.694 46.48V39.18m5.695 46.48V39.18M13.052 85.66V39.18m5.694 46.48V39.18m11.389 46.48V39.18m5.699 46.48V39.18M24.44 85.66V39.18m-8.541 46.48V39.18m5.694 46.48V39.18m5.695 46.48V39.18m5.695 46.48V39.18" transform="matrix(.99875 0 0 -.99875 0 315.213)"/><path style="fill:none;stroke-width:2.4;stroke-linecap:square;stroke-linejoin:round;stroke:#87cefa;stroke-opacity:1;stroke-miterlimit:4" d="M-241.794-47.685V-1.2m-5.694-46.485V-1.2m-11.393-46.485V-1.2m-5.695-46.485V-1.2m11.389-46.485V-1.2m8.546-46.485V-1.2m-5.695-46.485V-1.2m-5.698-46.485V-1.2m-5.695-46.485V-1.2" transform="matrix(0 -.99875 -.99875 0 0 .001)"/></svg>