<svg xmlns="http://www.w3.org/2000/svg" width="420.519" height="420.58" viewBox="0 0 315.389 315.435" version="1.2"><defs><clipPath id="b"><path d="M28 .023h4V50h-4zm0 0"/></clipPath><clipPath id="be"><path d="M265 163h49.777v5H265zm0 0"/></clipPath><clipPath id="c"><path d="M17 .023h4V50h-4zm0 0"/></clipPath><clipPath id="d"><path d="M11 .023h4V50h-4zm0 0"/></clipPath><clipPath id="e"><path d="M22 .023h5V50h-5zm0 0"/></clipPath><clipPath id="f"><path d="M31 .023h4V50h-4zm0 0"/></clipPath><clipPath id="g"><path d="M25 .023h4V50h-4zm0 0"/></clipPath><clipPath id="h"><path d="M19 .023h5V50h-5zm0 0"/></clipPath><clipPath id="i"><path d="M14 .023h4V50h-4zm0 0"/></clipPath><clipPath id="j"><path d="M72 .023h4V50h-4zm0 0"/></clipPath><clipPath id="k"><path d="M66 .023h4V50h-4zm0 0"/></clipPath><clipPath id="l"><path d="M55 .023h4V50h-4zm0 0"/></clipPath><clipPath id="m"><path d="M49 .023h4V50h-4zm0 0"/></clipPath><clipPath id="n"><path d="M60 .023h5V50h-5zm0 0"/></clipPath><clipPath id="o"><path d="M69 .023h4V50h-4zm0 0"/></clipPath><clipPath id="p"><path d="M63 .023h5V50h-5zm0 0"/></clipPath><clipPath id="q"><path d="M58 .023h4V50h-4zm0 0"/></clipPath><clipPath id="r"><path d="M52 .023h4V50h-4zm0 0"/></clipPath><clipPath id="s"><path d="M110 .023h4V50h-4zm0 0"/></clipPath><clipPath id="t"><path d="M104 .023h4V50h-4zm0 0"/></clipPath><clipPath id="u"><path d="M93 .023h4V50h-4zm0 0"/></clipPath><clipPath id="v"><path d="M87 .023h4V50h-4zm0 0"/></clipPath><clipPath id="w"><path d="M98 .023h5V50h-5zm0 0"/></clipPath><clipPath id="x"><path d="M107 .023h4V50h-4zm0 0"/></clipPath><clipPath id="y"><path d="M101 .023h4V50h-4zm0 0"/></clipPath><clipPath id="z"><path d="M95 .023h5V50h-5zm0 0"/></clipPath><clipPath id="A"><path d="M90 .023h4V50h-4zm0 0"/></clipPath><clipPath id="B"><path d="M148 .023h4V50h-4zm0 0"/></clipPath><clipPath id="C"><path d="M142 .023h5V50h-5zm0 0"/></clipPath><clipPath id="D"><path d="M131 .023h4V50h-4zm0 0"/></clipPath><clipPath id="E"><path d="M125 .023h4V50h-4zm0 0"/></clipPath><clipPath id="F"><path d="M136 .023h5V50h-5zm0 0"/></clipPath><clipPath id="G"><path d="M145 .023h4V50h-4zm0 0"/></clipPath><clipPath id="H"><path d="M139 .023h5V50h-5zm0 0"/></clipPath><clipPath id="I"><path d="M134 .023h4V50h-4zm0 0"/></clipPath><clipPath id="J"><path d="M128 .023h4V50h-4zm0 0"/></clipPath><clipPath id="K"><path d="M125 265h4v49.848h-4zm0 0"/></clipPath><clipPath id="L"><path d="M131 265h4v49.848h-4zm0 0"/></clipPath><clipPath id="M"><path d="M142 265h5v49.848h-5zm0 0"/></clipPath><clipPath id="N"><path d="M148 265h4v49.848h-4zm0 0"/></clipPath><clipPath id="O"><path d="M136 265h5v49.848h-5zm0 0"/></clipPath><clipPath id="P"><path d="M128 265h4v49.848h-4zm0 0"/></clipPath><clipPath id="Q"><path d="M134 265h4v49.848h-4zm0 0"/></clipPath><clipPath id="R"><path d="M139 265h5v49.848h-5zm0 0"/></clipPath><clipPath id="S"><path d="M145 265h4v49.848h-4zm0 0"/></clipPath><clipPath id="T"><path d="M87 265h4v49.848h-4zm0 0"/></clipPath><clipPath id="U"><path d="M93 265h4v49.848h-4zm0 0"/></clipPath><clipPath id="V"><path d="M104 265h4v49.848h-4zm0 0"/></clipPath><clipPath id="W"><path d="M110 265h4v49.848h-4zm0 0"/></clipPath><clipPath id="X"><path d="M98 265h5v49.848h-5zm0 0"/></clipPath><clipPath id="Y"><path d="M90 265h4v49.848h-4zm0 0"/></clipPath><clipPath id="Z"><path d="M95 265h5v49.848h-5zm0 0"/></clipPath><clipPath id="aa"><path d="M101 265h4v49.848h-4zm0 0"/></clipPath><clipPath id="ab"><path d="M107 265h4v49.848h-4zm0 0"/></clipPath><clipPath id="ac"><path d="M49 265h4v49.848h-4zm0 0"/></clipPath><clipPath id="ad"><path d="M55 265h4v49.848h-4zm0 0"/></clipPath><clipPath id="ae"><path d="M66 265h4v49.848h-4zm0 0"/></clipPath><clipPath id="af"><path d="M72 265h4v49.848h-4zm0 0"/></clipPath><clipPath id="ag"><path d="M60 265h5v49.848h-5zm0 0"/></clipPath><clipPath id="ah"><path d="M52 265h4v49.848h-4zm0 0"/></clipPath><clipPath id="ai"><path d="M58 265h4v49.848h-4zm0 0"/></clipPath><clipPath id="aj"><path d="M63 265h5v49.848h-5zm0 0"/></clipPath><clipPath id="ak"><path d="M69 265h4v49.848h-4zm0 0"/></clipPath><clipPath id="al"><path d="M11 265h4v49.848h-4zm0 0"/></clipPath><clipPath id="am"><path d="M17 265h4v49.848h-4zm0 0"/></clipPath><clipPath id="an"><path d="M28 265h4v49.848h-4zm0 0"/></clipPath><clipPath id="ao"><path d="M34 265h4v49.848h-4zm0 0"/></clipPath><clipPath id="ap"><path d="M22 265h5v49.848h-5zm0 0"/></clipPath><clipPath id="aq"><path d="M14 265h4v49.848h-4zm0 0"/></clipPath><clipPath id="ar"><path d="M19 265h5v49.848h-5zm0 0"/></clipPath><clipPath id="as"><path d="M25 265h4v49.848h-4zm0 0"/></clipPath><clipPath id="at"><path d="M31 265h4v49.848h-4zm0 0"/></clipPath><clipPath id="au"><path d="M265 239h49.777v4H265zm0 0"/></clipPath><clipPath id="av"><path d="M265 245h49.777v4H265zm0 0"/></clipPath><clipPath id="aw"><path d="M265 256h49.777v4H265zm0 0"/></clipPath><clipPath id="ax"><path d="M265 262h49.777v4H265zm0 0"/></clipPath><clipPath id="ay"><path d="M265 250h49.777v5H265zm0 0"/></clipPath><clipPath id="az"><path d="M265 242h49.777v4H265zm0 0"/></clipPath><clipPath id="aA"><path d="M265 248h49.777v4H265zm0 0"/></clipPath><clipPath id="aB"><path d="M265 253h49.777v5H265zm0 0"/></clipPath><clipPath id="aC"><path d="M265 259h49.777v4H265zm0 0"/></clipPath><clipPath id="aD"><path d="M277 265h4v49.848h-4zm0 0"/></clipPath><clipPath id="aE"><path d="M283 265h4v49.848h-4zm0 0"/></clipPath><clipPath id="aF"><path d="M294 265h4v49.848h-4zm0 0"/></clipPath><clipPath id="aG"><path d="M300 265h4v49.848h-4zm0 0"/></clipPath><clipPath id="aH"><path d="M288 265h5v49.848h-5zm0 0"/></clipPath><clipPath id="aI"><path d="M280 265h4v49.848h-4zm0 0"/></clipPath><clipPath id="aJ"><path d="M285 265h5v49.848h-5zm0 0"/></clipPath><clipPath id="aK"><path d="M291 265h4v49.848h-4zm0 0"/></clipPath><clipPath id="aL"><path d="M297 265h4v49.848h-4zm0 0"/></clipPath><clipPath id="aM"><path d="M265 300h49.777v4H265zm0 0"/></clipPath><clipPath id="aN"><path d="M265 294h49.777v4H265zm0 0"/></clipPath><clipPath id="aO"><path d="M265 283h49.777v4H265zm0 0"/></clipPath><clipPath id="aP"><path d="M265 277h49.777v4H265zm0 0"/></clipPath><clipPath id="aQ"><path d="M265 288h49.777v5H265zm0 0"/></clipPath><clipPath id="aR"><path d="M265 297h49.777v4H265zm0 0"/></clipPath><clipPath id="aS"><path d="M265 291h49.777v4H265zm0 0"/></clipPath><clipPath id="aT"><path d="M265 285h49.777v5H265zm0 0"/></clipPath><clipPath id="aU"><path d="M265 280h49.777v4H265zm0 0"/></clipPath><clipPath id="aV"><path d="M239 265h4v49.848h-4zm0 0"/></clipPath><clipPath id="aW"><path d="M244 265h5v49.848h-5zm0 0"/></clipPath><clipPath id="aX"><path d="M256 265h4v49.848h-4zm0 0"/></clipPath><clipPath id="aY"><path d="M261 265h5v49.848h-5zm0 0"/></clipPath><clipPath id="aZ"><path d="M250 265h4v49.848h-4zm0 0"/></clipPath><clipPath id="ba"><path d="M241 265h5v49.848h-5zm0 0"/></clipPath><clipPath id="bb"><path d="M247 265h5v49.848h-5zm0 0"/></clipPath><clipPath id="bc"><path d="M253 265h4v49.848h-4zm0 0"/></clipPath><clipPath id="bd"><path d="M259 265h4v49.848h-4zm0 0"/></clipPath><clipPath id="a"><path d="M34 .023h4V50h-4zm0 0"/></clipPath><clipPath id="bf"><path d="M265 169h49.777v4H265zm0 0"/></clipPath><clipPath id="bg"><path d="M265 180h49.777v5H265zm0 0"/></clipPath><clipPath id="bh"><path d="M265 186h49.777v4H265zm0 0"/></clipPath><clipPath id="bi"><path d="M265 174h49.777v5H265zm0 0"/></clipPath><clipPath id="bj"><path d="M265 166h49.777v4H265zm0 0"/></clipPath><clipPath id="bk"><path d="M265 172h49.777v4H265zm0 0"/></clipPath><clipPath id="bl"><path d="M265 177h49.777v5H265zm0 0"/></clipPath><clipPath id="bm"><path d="M265 183h49.777v4H265zm0 0"/></clipPath><clipPath id="bn"><path d="M265 224h49.777v4H265zm0 0"/></clipPath><clipPath id="bo"><path d="M265 218h49.777v4H265zm0 0"/></clipPath><clipPath id="bp"><path d="M265 207h49.777v4H265zm0 0"/></clipPath><clipPath id="bq"><path d="M265 201h49.777v4H265zm0 0"/></clipPath><clipPath id="br"><path d="M265 212h49.777v5H265zm0 0"/></clipPath><clipPath id="bs"><path d="M265 221h49.777v4H265zm0 0"/></clipPath><clipPath id="bt"><path d="M265 215h49.777v5H265zm0 0"/></clipPath><clipPath id="bu"><path d="M265 210h49.777v4H265zm0 0"/></clipPath><clipPath id="bv"><path d="M265 204h49.777v4H265zm0 0"/></clipPath><clipPath id="bw"><path d="M201 265h4v49.848h-4zm0 0"/></clipPath><clipPath id="bx"><path d="M206 265h5v49.848h-5zm0 0"/></clipPath><clipPath id="by"><path d="M218 265h4v49.848h-4zm0 0"/></clipPath><clipPath id="bz"><path d="M224 265h4v49.848h-4zm0 0"/></clipPath><clipPath id="bA"><path d="M212 265h5v49.848h-5zm0 0"/></clipPath><clipPath id="bB"><path d="M204 265h4v49.848h-4zm0 0"/></clipPath><clipPath id="bC"><path d="M209 265h5v49.848h-5zm0 0"/></clipPath><clipPath id="bD"><path d="M215 265h4v49.848h-4zm0 0"/></clipPath><clipPath id="bE"><path d="M221 265h4v49.848h-4zm0 0"/></clipPath><clipPath id="bF"><path d="M163 265h4v49.848h-4zm0 0"/></clipPath><clipPath id="bG"><path d="M168 265h5v49.848h-5zm0 0"/></clipPath><clipPath id="bH"><path d="M180 265h4v49.848h-4zm0 0"/></clipPath><clipPath id="bI"><path d="M185 265h5v49.848h-5zm0 0"/></clipPath><clipPath id="bJ"><path d="M174 265h4v49.848h-4zm0 0"/></clipPath><clipPath id="bK"><path d="M165 265h5v49.848h-5zm0 0"/></clipPath><clipPath id="bL"><path d="M171 265h4v49.848h-4zm0 0"/></clipPath><clipPath id="bM"><path d="M177 265h4v49.848h-4zm0 0"/></clipPath><clipPath id="bN"><path d="M182 265h5v49.848h-5zm0 0"/></clipPath><clipPath id="bO"><path d="M185 .023h5V50h-5zm0 0"/></clipPath><clipPath id="bP"><path d="M180 .023h4V50h-4zm0 0"/></clipPath><clipPath id="bQ"><path d="M168 .023h5V50h-5zm0 0"/></clipPath><clipPath id="bR"><path d="M163 .023h4V50h-4zm0 0"/></clipPath><clipPath id="bS"><path d="M174 .023h4V50h-4zm0 0"/></clipPath><clipPath id="bT"><path d="M182 .023h5V50h-5zm0 0"/></clipPath><clipPath id="bU"><path d="M177 .023h4V50h-4zm0 0"/></clipPath><clipPath id="bV"><path d="M171 .023h4V50h-4zm0 0"/></clipPath><clipPath id="bW"><path d="M165 .023h5V50h-5zm0 0"/></clipPath><clipPath id="bX"><path d="M224 .023h4V50h-4zm0 0"/></clipPath><clipPath id="bY"><path d="M218 .023h4V50h-4zm0 0"/></clipPath><clipPath id="bZ"><path d="M206 .023h5V50h-5zm0 0"/></clipPath><clipPath id="ca"><path d="M201 .023h4V50h-4zm0 0"/></clipPath><clipPath id="cb"><path d="M212 .023h5V50h-5zm0 0"/></clipPath><clipPath id="cc"><path d="M221 .023h4V50h-4zm0 0"/></clipPath><clipPath id="cd"><path d="M215 .023h4V50h-4zm0 0"/></clipPath><clipPath id="ce"><path d="M209 .023h5V50h-5zm0 0"/></clipPath><clipPath id="cf"><path d="M204 .023h4V50h-4zm0 0"/></clipPath><clipPath id="cg"><path d="M265 87h49.777v4H265zm0 0"/></clipPath><clipPath id="ch"><path d="M265 92h49.777v5H265zm0 0"/></clipPath><clipPath id="ci"><path d="M265 104h49.777v4H265zm0 0"/></clipPath><clipPath id="cj"><path d="M265 109h49.777v5H265zm0 0"/></clipPath><clipPath id="ck"><path d="M265 98h49.777v4H265zm0 0"/></clipPath><clipPath id="cl"><path d="M265 90h49.777v4H265zm0 0"/></clipPath><clipPath id="cm"><path d="M265 95h49.777v5H265zm0 0"/></clipPath><clipPath id="cn"><path d="M265 101h49.777v4H265zm0 0"/></clipPath><clipPath id="co"><path d="M265 107h49.777v4H265zm0 0"/></clipPath><clipPath id="cp"><path d="M265 147h49.777v5H265zm0 0"/></clipPath><clipPath id="cq"><path d="M265 142h49.777v4H265zm0 0"/></clipPath><clipPath id="cr"><path d="M265 130h49.777v5H265zm0 0"/></clipPath><clipPath id="cs"><path d="M265 125h49.777v4H265zm0 0"/></clipPath><clipPath id="ct"><path d="M265 136h49.777v4H265zm0 0"/></clipPath><clipPath id="cu"><path d="M265 145h49.777v4H265zm0 0"/></clipPath><clipPath id="cv"><path d="M265 139h49.777v4H265zm0 0"/></clipPath><clipPath id="cw"><path d="M265 133h49.777v5H265zm0 0"/></clipPath><clipPath id="cx"><path d="M265 127h49.777v5H265zm0 0"/></clipPath><clipPath id="cy"><path d="M261 .023h5V50h-5zm0 0"/></clipPath><clipPath id="cz"><path d="M256 .023h4V50h-4zm0 0"/></clipPath><clipPath id="cA"><path d="M244 .023h5V50h-5zm0 0"/></clipPath><clipPath id="cB"><path d="M239 .023h4V50h-4zm0 0"/></clipPath><clipPath id="cC"><path d="M250 .023h4V50h-4zm0 0"/></clipPath><clipPath id="cD"><path d="M259 .023h4V50h-4zm0 0"/></clipPath><clipPath id="cE"><path d="M253 .023h4V50h-4zm0 0"/></clipPath><clipPath id="cF"><path d="M247 .023h5V50h-5zm0 0"/></clipPath><clipPath id="cG"><path d="M241 .023h5V50h-5zm0 0"/></clipPath><clipPath id="cH"><path d="M265 11h49.777v4H265zm0 0"/></clipPath><clipPath id="cI"><path d="M265 17h49.777v4H265zm0 0"/></clipPath><clipPath id="cJ"><path d="M265 28h49.777v4H265zm0 0"/></clipPath><clipPath id="cK"><path d="M265 34h49.777v4H265zm0 0"/></clipPath><clipPath id="cL"><path d="M265 22h49.777v5H265zm0 0"/></clipPath><clipPath id="cM"><path d="M265 14h49.777v4H265zm0 0"/></clipPath><clipPath id="cN"><path d="M265 19h49.777v5H265zm0 0"/></clipPath><clipPath id="cO"><path d="M265 25h49.777v4H265zm0 0"/></clipPath><clipPath id="cP"><path d="M265 31h49.777v4H265zm0 0"/></clipPath><clipPath id="cQ"><path d="M300 .023h4V50h-4zm0 0"/></clipPath><clipPath id="cR"><path d="M294 .023h4V50h-4zm0 0"/></clipPath><clipPath id="cS"><path d="M283 .023h4V50h-4zm0 0"/></clipPath><clipPath id="cT"><path d="M277 .023h4V50h-4zm0 0"/></clipPath><clipPath id="cU"><path d="M288 .023h5V50h-5zm0 0"/></clipPath><clipPath id="cV"><path d="M297 .023h4V50h-4zm0 0"/></clipPath><clipPath id="cW"><path d="M291 .023h4V50h-4zm0 0"/></clipPath><clipPath id="cX"><path d="M285 .023h5V50h-5zm0 0"/></clipPath><clipPath id="cY"><path d="M280 .023h4V50h-4zm0 0"/></clipPath><clipPath id="cZ"><path d="M265 71h49.777v5H265zm0 0"/></clipPath><clipPath id="da"><path d="M265 66h49.777v4H265zm0 0"/></clipPath><clipPath id="db"><path d="M265 54h49.777v5H265zm0 0"/></clipPath><clipPath id="dc"><path d="M265 49h49.777v4H265zm0 0"/></clipPath><clipPath id="dd"><path d="M265 60h49.777v5H265zm0 0"/></clipPath><clipPath id="de"><path d="M265 69h49.777v4H265zm0 0"/></clipPath><clipPath id="df"><path d="M265 63h49.777v4H265zm0 0"/></clipPath><clipPath id="dg"><path d="M265 57h49.777v5H265zm0 0"/></clipPath><clipPath id="dh"><path d="M265 52h49.777v4H265zm0 0"/></clipPath></defs><g clip-path="url(#a)"><path style="fill:none;stroke-width:2.4;stroke-linecap:square;stroke-linejoin:round;stroke:#696969;stroke-opacity:1;stroke-miterlimit:4" d="M35.831 314.237v-46.484" transform="matrix(.99807 0 0 -.99807 0 314.848)"/></g><g clip-path="url(#b)"><path style="fill:none;stroke-width:2.4;stroke-linecap:square;stroke-linejoin:round;stroke:#696969;stroke-opacity:1;stroke-miterlimit:4" d="M30.136 314.237v-46.484" transform="matrix(.99807 0 0 -.99807 0 314.848)"/></g><g clip-path="url(#c)"><path style="fill:none;stroke-width:2.4;stroke-linecap:square;stroke-linejoin:round;stroke:#696969;stroke-opacity:1;stroke-miterlimit:4" d="M18.747 314.237v-46.484" transform="matrix(.99807 0 0 -.99807 0 314.848)"/></g><g clip-path="url(#d)"><path style="fill:none;stroke-width:2.4;stroke-linecap:square;stroke-linejoin:round;stroke:#696969;stroke-opacity:1;stroke-miterlimit:4" d="M13.053 314.237v-46.484" transform="matrix(.99807 0 0 -.99807 0 314.848)"/></g><g clip-path="url(#e)"><path style="fill:none;stroke-width:2.4;stroke-linecap:square;stroke-linejoin:round;stroke:#696969;stroke-opacity:1;stroke-miterlimit:4" d="M24.442 314.237v-46.484" transform="matrix(.99807 0 0 -.99807 0 314.848)"/></g><g clip-path="url(#f)"><path style="fill:none;stroke-width:2.4;stroke-linecap:square;stroke-linejoin:round;stroke:#696969;stroke-opacity:1;stroke-miterlimit:4" d="M32.986 314.237v-46.484" transform="matrix(.99807 0 0 -.99807 0 314.848)"/></g><g clip-path="url(#g)"><path style="fill:none;stroke-width:2.4;stroke-linecap:square;stroke-linejoin:round;stroke:#696969;stroke-opacity:1;stroke-miterlimit:4" d="M27.287 314.237v-46.484" transform="matrix(.99807 0 0 -.99807 0 314.848)"/></g><g clip-path="url(#h)"><path style="fill:none;stroke-width:2.4;stroke-linecap:square;stroke-linejoin:round;stroke:#696969;stroke-opacity:1;stroke-miterlimit:4" d="M21.593 314.237v-46.484" transform="matrix(.99807 0 0 -.99807 0 314.848)"/></g><g clip-path="url(#i)"><path style="fill:none;stroke-width:2.4;stroke-linecap:square;stroke-linejoin:round;stroke:#696969;stroke-opacity:1;stroke-miterlimit:4" d="M15.898 314.237v-46.484" transform="matrix(.99807 0 0 -.99807 0 314.848)"/></g><path style="fill:none;stroke-width:2.4;stroke-linecap:square;stroke-linejoin:round;stroke:#87cefa;stroke-opacity:1;stroke-miterlimit:4" d="M-13.05 1.198v46.488m-5.698-46.488v46.488M-30.137 1.198v46.488m-5.694-46.488v46.488m11.389-46.488v46.488m8.544-46.488v46.488m-5.695-46.488v46.488m-5.695-46.488v46.488m-5.694-46.488v46.488m19.932-8.203V85.97m-5.698-46.487V85.97m-11.389-46.487V85.97m-5.694-46.487V85.97m11.389-46.487V85.97m8.544-46.487V85.97m-5.695-46.487V85.97m-5.695-46.487V85.97m-5.694-46.487V85.97" transform="matrix(0 -.99807 .99807 0 0 .023)"/><g clip-path="url(#j)"><path style="fill:none;stroke-width:2.4;stroke-linecap:square;stroke-linejoin:round;stroke:#696969;stroke-opacity:1;stroke-miterlimit:4" d="M74.116 314.237v-46.484" transform="matrix(.99807 0 0 -.99807 0 314.848)"/></g><g clip-path="url(#k)"><path style="fill:none;stroke-width:2.4;stroke-linecap:square;stroke-linejoin:round;stroke:#696969;stroke-opacity:1;stroke-miterlimit:4" d="M68.421 314.237v-46.484" transform="matrix(.99807 0 0 -.99807 0 314.848)"/></g><g clip-path="url(#l)"><path style="fill:none;stroke-width:2.4;stroke-linecap:square;stroke-linejoin:round;stroke:#696969;stroke-opacity:1;stroke-miterlimit:4" d="M57.032 314.237v-46.484" transform="matrix(.99807 0 0 -.99807 0 314.848)"/></g><g clip-path="url(#m)"><path style="fill:none;stroke-width:2.4;stroke-linecap:square;stroke-linejoin:round;stroke:#696969;stroke-opacity:1;stroke-miterlimit:4" d="M51.338 314.237v-46.484" transform="matrix(.99807 0 0 -.99807 0 314.848)"/></g><g clip-path="url(#n)"><path style="fill:none;stroke-width:2.4;stroke-linecap:square;stroke-linejoin:round;stroke:#696969;stroke-opacity:1;stroke-miterlimit:4" d="M62.727 314.237v-46.484" transform="matrix(.99807 0 0 -.99807 0 314.848)"/></g><g clip-path="url(#o)"><path style="fill:none;stroke-width:2.4;stroke-linecap:square;stroke-linejoin:round;stroke:#696969;stroke-opacity:1;stroke-miterlimit:4" d="M71.27 314.237v-46.484" transform="matrix(.99807 0 0 -.99807 0 314.848)"/></g><g clip-path="url(#p)"><path style="fill:none;stroke-width:2.4;stroke-linecap:square;stroke-linejoin:round;stroke:#696969;stroke-opacity:1;stroke-miterlimit:4" d="M65.572 314.237v-46.484" transform="matrix(.99807 0 0 -.99807 0 314.848)"/></g><g clip-path="url(#q)"><path style="fill:none;stroke-width:2.4;stroke-linecap:square;stroke-linejoin:round;stroke:#696969;stroke-opacity:1;stroke-miterlimit:4" d="M59.877 314.237v-46.484" transform="matrix(.99807 0 0 -.99807 0 314.848)"/></g><g clip-path="url(#r)"><path style="fill:none;stroke-width:2.4;stroke-linecap:square;stroke-linejoin:round;stroke:#696969;stroke-opacity:1;stroke-miterlimit:4" d="M54.183 314.237v-46.484" transform="matrix(.99807 0 0 -.99807 0 314.848)"/></g><path style="fill:none;stroke-width:2.4;stroke-linecap:square;stroke-linejoin:round;stroke:#696969;stroke-opacity:1;stroke-miterlimit:4" d="M51.338 229.773v46.48m5.694-46.48v46.48m11.389-46.48v46.48m5.695-46.48v46.48m-11.389-46.48v46.48m-8.544-46.48v46.48m5.694-46.48v46.48m5.695-46.48v46.48m5.698-46.48v46.48" transform="matrix(.99807 0 0 -.99807 0 314.848)"/><path style="fill:none;stroke-width:2.4;stroke-linecap:square;stroke-linejoin:round;stroke:#87cefa;stroke-opacity:1;stroke-miterlimit:4" d="M73.811-85.97v46.487M68.117-85.97v46.487M56.727-85.97v46.487M51.029-85.97v46.487M62.422-85.97v46.487m8.544-46.487v46.487M65.271-85.97v46.487M59.573-85.97v46.487M53.874-85.97v46.487m19.937-8.203v46.488m-5.694-46.488v46.488m-11.39-46.488v46.488m-5.698-46.488v46.488m11.393-46.488v46.488m8.544-46.488v46.488m-5.695-46.488v46.488m-5.698-46.488v46.488m-5.699-46.488v46.488" transform="matrix(0 .99807 -.99807 0 0 .023)"/><path style="fill:none;stroke-width:2.4;stroke-linecap:square;stroke-linejoin:round;stroke:#696969;stroke-opacity:1;stroke-miterlimit:4" d="M13.053 229.773v46.48m5.694-46.48v46.48m11.389-46.48v46.48m5.695-46.48v46.48m-11.389-46.48v46.48m-8.544-46.48v46.48m5.695-46.48v46.48m5.694-46.48v46.48m5.699-46.48v46.48m79.02-38.026v-46.485m-5.699 46.485v-46.485m-11.389 46.485v-46.485m-5.695 46.485v-46.485m11.39 46.485v-46.485m8.543 46.485v-46.485m-5.694 46.485v-46.485m-5.695 46.485v-46.485m-5.698 46.485v-46.485" transform="matrix(.99807 0 0 -.99807 0 314.848)"/><path style="fill:none;stroke-width:2.4;stroke-linecap:square;stroke-linejoin:round;stroke:#87cefa;stroke-opacity:1;stroke-miterlimit:4" d="M-89.06 77.372v46.485m-5.694-46.485v46.485m-11.389-46.485v46.485m-5.703-46.485v46.485m11.397-46.485v46.485m8.544-46.485v46.485m-5.698-46.485v46.485m-5.695-46.485v46.485m-5.694-46.485v46.485m19.932-8.2v46.485m-5.694-46.485v46.485m-11.389-46.485v46.485m-5.703-46.485v46.485m11.397-46.485v46.485m8.544-46.485v46.485m-5.698-46.485v46.485m-5.695-46.485v46.485m-5.694-46.485v46.485" transform="matrix(0 -.99807 .99807 0 0 .023)"/><path style="fill:none;stroke-width:2.4;stroke-linecap:square;stroke-linejoin:round;stroke:#696969;stroke-opacity:1;stroke-miterlimit:4" d="M150.29 238.227v-46.485m-5.698 46.485v-46.485m-11.389 46.485v-46.485m-5.695 46.485v-46.485m11.389 46.485v-46.485m8.544 46.485v-46.485m-5.694 46.485v-46.485m-5.695 46.485v-46.485m-5.698 46.485v-46.485m-2.846-37.979v46.484m5.695-46.484v46.484m11.389-46.484v46.484m5.698-46.484v46.484m-11.393-46.484v46.484m-8.543-46.484v46.484m5.698-46.484v46.484m5.695-46.484v46.484m5.694-46.484v46.484" transform="matrix(.99807 0 0 -.99807 0 314.848)"/><path style="fill:none;stroke-width:2.4;stroke-linecap:square;stroke-linejoin:round;stroke:#87cefa;stroke-opacity:1;stroke-miterlimit:4" d="M149.821-162.142v46.485m-5.694-46.485v46.485m-11.393-46.485v46.485m-5.695-46.485v46.485m11.389-46.485v46.485m8.544-46.485v46.485m-5.694-46.485v46.485m-5.695-46.485v46.485m-5.695-46.485v46.485m19.933-8.2v46.485m-5.694-46.485v46.485m-11.393-46.485v46.485m-5.695-46.485v46.485m11.389-46.485v46.485m8.544-46.485v46.485m-5.694-46.485v46.485m-5.695-46.485v46.485m-5.695-46.485v46.485" transform="matrix(0 .99807 -.99807 0 0 .023)"/><path style="fill:none;stroke-width:2.4;stroke-linecap:square;stroke-linejoin:round;stroke:#696969;stroke-opacity:1;stroke-miterlimit:4" d="M89.223 153.763v46.484m5.695-46.484v46.484m11.389-46.484v46.484m5.699-46.484v46.484m-11.393-46.484v46.484m-8.544-46.484v46.484m5.698-46.484v46.484m5.695-46.484v46.484m5.694-46.484v46.484" transform="matrix(.99807 0 0 -.99807 0 314.848)"/><g clip-path="url(#s)"><path style="fill:none;stroke-width:2.4;stroke-linecap:square;stroke-linejoin:round;stroke:#696969;stroke-opacity:1;stroke-miterlimit:4" d="M112.006 314.237v-46.484" transform="matrix(.99807 0 0 -.99807 0 314.848)"/></g><g clip-path="url(#t)"><path style="fill:none;stroke-width:2.4;stroke-linecap:square;stroke-linejoin:round;stroke:#696969;stroke-opacity:1;stroke-miterlimit:4" d="M106.307 314.237v-46.484" transform="matrix(.99807 0 0 -.99807 0 314.848)"/></g><g clip-path="url(#u)"><path style="fill:none;stroke-width:2.4;stroke-linecap:square;stroke-linejoin:round;stroke:#696969;stroke-opacity:1;stroke-miterlimit:4" d="M94.918 314.237v-46.484" transform="matrix(.99807 0 0 -.99807 0 314.848)"/></g><g clip-path="url(#v)"><path style="fill:none;stroke-width:2.4;stroke-linecap:square;stroke-linejoin:round;stroke:#696969;stroke-opacity:1;stroke-miterlimit:4" d="M89.223 314.237v-46.484" transform="matrix(.99807 0 0 -.99807 0 314.848)"/></g><g clip-path="url(#w)"><path style="fill:none;stroke-width:2.4;stroke-linecap:square;stroke-linejoin:round;stroke:#696969;stroke-opacity:1;stroke-miterlimit:4" d="M100.613 314.237v-46.484" transform="matrix(.99807 0 0 -.99807 0 314.848)"/></g><g clip-path="url(#x)"><path style="fill:none;stroke-width:2.4;stroke-linecap:square;stroke-linejoin:round;stroke:#696969;stroke-opacity:1;stroke-miterlimit:4" d="M109.156 314.237v-46.484" transform="matrix(.99807 0 0 -.99807 0 314.848)"/></g><g clip-path="url(#y)"><path style="fill:none;stroke-width:2.4;stroke-linecap:square;stroke-linejoin:round;stroke:#696969;stroke-opacity:1;stroke-miterlimit:4" d="M103.462 314.237v-46.484" transform="matrix(.99807 0 0 -.99807 0 314.848)"/></g><g clip-path="url(#z)"><path style="fill:none;stroke-width:2.4;stroke-linecap:square;stroke-linejoin:round;stroke:#696969;stroke-opacity:1;stroke-miterlimit:4" d="M97.767 314.237v-46.484" transform="matrix(.99807 0 0 -.99807 0 314.848)"/></g><g clip-path="url(#A)"><path style="fill:none;stroke-width:2.4;stroke-linecap:square;stroke-linejoin:round;stroke:#696969;stroke-opacity:1;stroke-miterlimit:4" d="M92.069 314.237v-46.484" transform="matrix(.99807 0 0 -.99807 0 314.848)"/></g><path style="fill:none;stroke-width:2.4;stroke-linecap:square;stroke-linejoin:round;stroke:#87cefa;stroke-opacity:1;stroke-miterlimit:4" d="M-13.05 77.372v46.485m-5.698-46.485v46.485m-11.389-46.485v46.485m-5.694-46.485v46.485m11.389-46.485v46.485m8.544-46.485v46.485m-5.695-46.485v46.485m-5.695-46.485v46.485m-5.694-46.485v46.485m19.932-8.2v46.485m-5.698-46.485v46.485m-11.389-46.485v46.485m-5.694-46.485v46.485m11.389-46.485v46.485m8.544-46.485v46.485m-5.695-46.485v46.485m-5.695-46.485v46.485m-5.694-46.485v46.485" transform="matrix(0 -.99807 .99807 0 0 .023)"/><g clip-path="url(#B)"><path style="fill:none;stroke-width:2.4;stroke-linecap:square;stroke-linejoin:round;stroke:#696969;stroke-opacity:1;stroke-miterlimit:4" d="M150.29 314.237v-46.484" transform="matrix(.99807 0 0 -.99807 0 314.848)"/></g><g clip-path="url(#C)"><path style="fill:none;stroke-width:2.4;stroke-linecap:square;stroke-linejoin:round;stroke:#696969;stroke-opacity:1;stroke-miterlimit:4" d="M144.592 314.237v-46.484" transform="matrix(.99807 0 0 -.99807 0 314.848)"/></g><g clip-path="url(#D)"><path style="fill:none;stroke-width:2.4;stroke-linecap:square;stroke-linejoin:round;stroke:#696969;stroke-opacity:1;stroke-miterlimit:4" d="M133.203 314.237v-46.484" transform="matrix(.99807 0 0 -.99807 0 314.848)"/></g><g clip-path="url(#E)"><path style="fill:none;stroke-width:2.4;stroke-linecap:square;stroke-linejoin:round;stroke:#696969;stroke-opacity:1;stroke-miterlimit:4" d="M127.508 314.237v-46.484" transform="matrix(.99807 0 0 -.99807 0 314.848)"/></g><g clip-path="url(#F)"><path style="fill:none;stroke-width:2.4;stroke-linecap:square;stroke-linejoin:round;stroke:#696969;stroke-opacity:1;stroke-miterlimit:4" d="M138.897 314.237v-46.484" transform="matrix(.99807 0 0 -.99807 0 314.848)"/></g><g clip-path="url(#G)"><path style="fill:none;stroke-width:2.4;stroke-linecap:square;stroke-linejoin:round;stroke:#696969;stroke-opacity:1;stroke-miterlimit:4" d="M147.441 314.237v-46.484" transform="matrix(.99807 0 0 -.99807 0 314.848)"/></g><g clip-path="url(#H)"><path style="fill:none;stroke-width:2.4;stroke-linecap:square;stroke-linejoin:round;stroke:#696969;stroke-opacity:1;stroke-miterlimit:4" d="M141.747 314.237v-46.484" transform="matrix(.99807 0 0 -.99807 0 314.848)"/></g><g clip-path="url(#I)"><path style="fill:none;stroke-width:2.4;stroke-linecap:square;stroke-linejoin:round;stroke:#696969;stroke-opacity:1;stroke-miterlimit:4" d="M136.052 314.237v-46.484" transform="matrix(.99807 0 0 -.99807 0 314.848)"/></g><g clip-path="url(#J)"><path style="fill:none;stroke-width:2.4;stroke-linecap:square;stroke-linejoin:round;stroke:#696969;stroke-opacity:1;stroke-miterlimit:4" d="M130.354 314.237v-46.484" transform="matrix(.99807 0 0 -.99807 0 314.848)"/></g><path style="fill:none;stroke-width:2.4;stroke-linecap:square;stroke-linejoin:round;stroke:#696969;stroke-opacity:1;stroke-miterlimit:4" d="M127.508 229.773v46.48m5.695-46.48v46.48m11.389-46.48v46.48m5.698-46.48v46.48m-11.393-46.48v46.48m-8.543-46.48v46.48m5.698-46.48v46.48m5.695-46.48v46.48m5.694-46.48v46.48" transform="matrix(.99807 0 0 -.99807 0 314.848)"/><path style="fill:none;stroke-width:2.4;stroke-linecap:square;stroke-linejoin:round;stroke:#87cefa;stroke-opacity:1;stroke-miterlimit:4" d="M73.811-162.142v46.485m-5.694-46.485v46.485m-11.39-46.485v46.485m-5.698-46.485v46.485m11.393-46.485v46.485m8.544-46.485v46.485m-5.695-46.485v46.485m-5.698-46.485v46.485m-5.699-46.485v46.485m19.937-8.2v46.485m-5.694-46.485v46.485m-11.39-46.485v46.485m-5.698-46.485v46.485m11.393-46.485v46.485m8.544-46.485v46.485m-5.695-46.485v46.485m-5.698-46.485v46.485m-5.699-46.485v46.485" transform="matrix(0 .99807 -.99807 0 0 .023)"/><path style="fill:none;stroke-width:2.4;stroke-linecap:square;stroke-linejoin:round;stroke:#696969;stroke-opacity:1;stroke-miterlimit:4" d="M89.223 229.773v46.48m5.695-46.48v46.48m11.389-46.48v46.48m5.699-46.48v46.48m-11.393-46.48v46.48m-8.544-46.48v46.48m5.698-46.48v46.48m5.695-46.48v46.48m5.694-46.48v46.48m-73.325-38.026v-46.485m-5.695 46.485v-46.485m-11.389 46.485v-46.485m-5.694 46.485v-46.485m11.389 46.485v-46.485m8.544 46.485v-46.485m-5.699 46.485v-46.485m-5.694 46.485v-46.485m-5.695 46.485v-46.485" transform="matrix(.99807 0 0 -.99807 0 314.848)"/><path style="fill:none;stroke-width:2.4;stroke-linecap:square;stroke-linejoin:round;stroke:#87cefa;stroke-opacity:1;stroke-miterlimit:4" d="M-89.06 1.198v46.488m-5.694-46.488v46.488m-11.389-46.488v46.488m-5.703-46.488v46.488m11.397-46.488v46.488m8.544-46.488v46.488m-5.698-46.488v46.488m-5.695-46.488v46.488m-5.694-46.488v46.488m19.932-8.203V85.97m-5.694-46.487V85.97m-11.389-46.487V85.97m-5.703-46.487V85.97m11.397-46.487V85.97m8.544-46.487V85.97m-5.698-46.487V85.97m-5.695-46.487V85.97m-5.694-46.487V85.97" transform="matrix(0 -.99807 .99807 0 0 .023)"/><path style="fill:none;stroke-width:2.4;stroke-linecap:square;stroke-linejoin:round;stroke:#696969;stroke-opacity:1;stroke-miterlimit:4" d="M74.116 238.227v-46.485m-5.695 46.485v-46.485m-11.389 46.485v-46.485m-5.694 46.485v-46.485m11.389 46.485v-46.485m8.543 46.485v-46.485m-5.698 46.485v-46.485m-5.695 46.485v-46.485m-5.694 46.485v-46.485m-2.845-37.979v46.484m5.694-46.484v46.484m11.389-46.484v46.484m5.695-46.484v46.484m-11.389-46.484v46.484m-8.544-46.484v46.484m5.694-46.484v46.484m5.695-46.484v46.484m5.698-46.484v46.484" transform="matrix(.99807 0 0 -.99807 0 314.848)"/><path style="fill:none;stroke-width:2.4;stroke-linecap:square;stroke-linejoin:round;stroke:#87cefa;stroke-opacity:1;stroke-miterlimit:4" d="M149.821-85.97v46.487m-5.694-46.487v46.487M132.734-85.97v46.487m-5.695-46.487v46.487m11.389-46.487v46.487m8.544-46.487v46.487m-5.694-46.487v46.487m-5.695-46.487v46.487m-5.695-46.487v46.487m19.933-8.203v46.488m-5.694-46.488v46.488m-11.393-46.488v46.488m-5.695-46.488v46.488m11.389-46.488v46.488m8.544-46.488v46.488m-5.694-46.488v46.488m-5.695-46.488v46.488m-5.695-46.488v46.488" transform="matrix(0 .99807 -.99807 0 0 .023)"/><path style="fill:none;stroke-width:2.4;stroke-linecap:square;stroke-linejoin:round;stroke:#696969;stroke-opacity:1;stroke-miterlimit:4" d="M13.053 153.763v46.484m5.694-46.484v46.484m11.389-46.484v46.484m5.695-46.484v46.484m-11.389-46.484v46.484m-8.544-46.484v46.484m5.695-46.484v46.484m5.694-46.484v46.484m5.699-46.484v46.484m2.845-38.579v-46.48m-5.695 46.48v-46.48m-11.389 46.48v-46.48m-5.694 46.48v-46.48m11.389 46.48v-46.48m8.544 46.48v-46.48m-5.699 46.48v-46.48m-5.694 46.48v-46.48m-5.695 46.48v-46.48" transform="matrix(.99807 0 0 -.99807 0 314.848)"/><path style="fill:none;stroke-width:2.4;stroke-linecap:square;stroke-linejoin:round;stroke:#87cefa;stroke-opacity:1;stroke-miterlimit:4" d="M-165.614 1.198v46.488m-5.694-46.488v46.488m-11.393-46.488v46.488M-188.4 1.198v46.488m11.393-46.488v46.488m8.544-46.488v46.488m-5.698-46.488v46.488m-5.695-46.488v46.488m-5.694-46.488v46.488m19.936-8.203V85.97m-5.694-46.487V85.97m-11.393-46.487V85.97m-5.699-46.487V85.97m11.393-46.487V85.97m8.544-46.487V85.97m-5.698-46.487V85.97m-5.695-46.487V85.97m-5.694-46.487V85.97" transform="matrix(0 -.99807 .99807 0 0 .023)"/><path style="fill:none;stroke-width:2.4;stroke-linecap:square;stroke-linejoin:round;stroke:#696969;stroke-opacity:1;stroke-miterlimit:4" d="M74.116 161.668v-46.48m-5.695 46.48v-46.48m-11.389 46.48v-46.48m-5.694 46.48v-46.48m11.389 46.48v-46.48m8.543 46.48v-46.48m-5.698 46.48v-46.48m-5.695 46.48v-46.48m-5.694 46.48v-46.48m-2.845-37.98v46.485m5.694-46.485v46.485m11.389-46.485v46.485m5.695-46.485v46.485M62.727 77.208v46.485m-8.544-46.485v46.485m5.694-46.485v46.485m5.695-46.485v46.485m5.698-46.485v46.485" transform="matrix(.99807 0 0 -.99807 0 314.848)"/><path style="fill:none;stroke-width:2.4;stroke-linecap:square;stroke-linejoin:round;stroke:#87cefa;stroke-opacity:1;stroke-miterlimit:4" d="M226.376-85.97v46.487m-5.695-46.487v46.487M209.288-85.97v46.487m-5.695-46.487v46.487m11.39-46.487v46.487m8.543-46.487v46.487m-5.694-46.487v46.487m-5.695-46.487v46.487m-5.694-46.487v46.487m19.933-8.203v46.488m-5.695-46.488v46.488m-11.393-46.488v46.488m-5.695-46.488v46.488m11.39-46.488v46.488m8.543-46.488v46.488m-5.694-46.488v46.488m-5.695-46.488v46.488m-5.694-46.488v46.488" transform="matrix(0 .99807 -.99807 0 0 .023)"/><path style="fill:none;stroke-width:2.4;stroke-linecap:square;stroke-linejoin:round;stroke:#696969;stroke-opacity:1;stroke-miterlimit:4" d="M13.053 77.208v46.485m5.694-46.485v46.485m11.389-46.485v46.485m5.695-46.485v46.485M24.442 77.208v46.485m-8.544-46.485v46.485m5.695-46.485v46.485m5.694-46.485v46.485m5.699-46.485v46.485m79.02-38.031V39.178m-5.699 46.484V39.178M94.918 85.662V39.178m-5.695 46.484V39.178m11.39 46.484V39.178m8.543 46.484V39.178m-5.694 46.484V39.178m-5.695 46.484V39.178m-5.698 46.484V39.178" transform="matrix(.99807 0 0 -.99807 0 314.848)"/><path style="fill:none;stroke-width:2.4;stroke-linecap:square;stroke-linejoin:round;stroke:#87cefa;stroke-opacity:1;stroke-miterlimit:4" d="M-241.624 77.372v46.485m-5.694-46.485v46.485m-11.394-46.485v46.485m-5.694-46.485v46.485m11.389-46.485v46.485m8.544-46.485v46.485m-5.695-46.485v46.485m-5.694-46.485v46.485m-5.698-46.485v46.485m19.936-8.2v46.485m-5.694-46.485v46.485m-11.394-46.485v46.485m-5.694-46.485v46.485m11.389-46.485v46.485m8.544-46.485v46.485m-5.695-46.485v46.485m-5.694-46.485v46.485m-5.698-46.485v46.485" transform="matrix(0 -.99807 .99807 0 0 .023)"/><path style="fill:none;stroke-width:2.4;stroke-linecap:square;stroke-linejoin:round;stroke:#696969;stroke-opacity:1;stroke-miterlimit:4" d="M150.29 85.662V39.178m-5.698 46.484V39.178m-11.389 46.484V39.178m-5.695 46.484V39.178m11.389 46.484V39.178m8.544 46.484V39.178m-5.694 46.484V39.178m-5.695 46.484V39.178m-5.698 46.484V39.178" transform="matrix(.99807 0 0 -.99807 0 314.848)"/><g clip-path="url(#K)"><path style="fill:none;stroke-width:2.4;stroke-linecap:square;stroke-linejoin:round;stroke:#696969;stroke-opacity:1;stroke-miterlimit:4" d="M127.508 1.202v46.48" transform="matrix(.99807 0 0 -.99807 0 314.848)"/></g><g clip-path="url(#L)"><path style="fill:none;stroke-width:2.4;stroke-linecap:square;stroke-linejoin:round;stroke:#696969;stroke-opacity:1;stroke-miterlimit:4" d="M133.203 1.202v46.48" transform="matrix(.99807 0 0 -.99807 0 314.848)"/></g><g clip-path="url(#M)"><path style="fill:none;stroke-width:2.4;stroke-linecap:square;stroke-linejoin:round;stroke:#696969;stroke-opacity:1;stroke-miterlimit:4" d="M144.592 1.202v46.48" transform="matrix(.99807 0 0 -.99807 0 314.848)"/></g><g clip-path="url(#N)"><path style="fill:none;stroke-width:2.4;stroke-linecap:square;stroke-linejoin:round;stroke:#696969;stroke-opacity:1;stroke-miterlimit:4" d="M150.29 1.202v46.48" transform="matrix(.99807 0 0 -.99807 0 314.848)"/></g><g clip-path="url(#O)"><path style="fill:none;stroke-width:2.4;stroke-linecap:square;stroke-linejoin:round;stroke:#696969;stroke-opacity:1;stroke-miterlimit:4" d="M138.897 1.202v46.48" transform="matrix(.99807 0 0 -.99807 0 314.848)"/></g><g clip-path="url(#P)"><path style="fill:none;stroke-width:2.4;stroke-linecap:square;stroke-linejoin:round;stroke:#696969;stroke-opacity:1;stroke-miterlimit:4" d="M130.354 1.202v46.48" transform="matrix(.99807 0 0 -.99807 0 314.848)"/></g><g clip-path="url(#Q)"><path style="fill:none;stroke-width:2.4;stroke-linecap:square;stroke-linejoin:round;stroke:#696969;stroke-opacity:1;stroke-miterlimit:4" d="M136.052 1.202v46.48" transform="matrix(.99807 0 0 -.99807 0 314.848)"/></g><g clip-path="url(#R)"><path style="fill:none;stroke-width:2.4;stroke-linecap:square;stroke-linejoin:round;stroke:#696969;stroke-opacity:1;stroke-miterlimit:4" d="M141.747 1.202v46.48" transform="matrix(.99807 0 0 -.99807 0 314.848)"/></g><g clip-path="url(#S)"><path style="fill:none;stroke-width:2.4;stroke-linecap:square;stroke-linejoin:round;stroke:#696969;stroke-opacity:1;stroke-miterlimit:4" d="M147.441 1.202v46.48" transform="matrix(.99807 0 0 -.99807 0 314.848)"/></g><path style="fill:none;stroke-width:2.4;stroke-linecap:square;stroke-linejoin:round;stroke:#87cefa;stroke-opacity:1;stroke-miterlimit:4" d="M302.386-162.142v46.485m-5.695-46.485v46.485m-11.393-46.485v46.485m-5.694-46.485v46.485m11.393-46.485v46.485m8.543-46.485v46.485m-5.694-46.485v46.485m-5.702-46.485v46.485m-5.695-46.485v46.485m19.937-8.2v46.485m-5.695-46.485v46.485m-11.393-46.485v46.485m-5.694-46.485v46.485m11.393-46.485v46.485m8.543-46.485v46.485m-5.694-46.485v46.485m-5.702-46.485v46.485m-5.695-46.485v46.485" transform="matrix(0 .99807 -.99807 0 0 .023)"/><g clip-path="url(#T)"><path style="fill:none;stroke-width:2.4;stroke-linecap:square;stroke-linejoin:round;stroke:#696969;stroke-opacity:1;stroke-miterlimit:4" d="M89.223 1.202v46.48" transform="matrix(.99807 0 0 -.99807 0 314.848)"/></g><g clip-path="url(#U)"><path style="fill:none;stroke-width:2.4;stroke-linecap:square;stroke-linejoin:round;stroke:#696969;stroke-opacity:1;stroke-miterlimit:4" d="M94.918 1.202v46.48" transform="matrix(.99807 0 0 -.99807 0 314.848)"/></g><g clip-path="url(#V)"><path style="fill:none;stroke-width:2.4;stroke-linecap:square;stroke-linejoin:round;stroke:#696969;stroke-opacity:1;stroke-miterlimit:4" d="M106.307 1.202v46.48" transform="matrix(.99807 0 0 -.99807 0 314.848)"/></g><g clip-path="url(#W)"><path style="fill:none;stroke-width:2.4;stroke-linecap:square;stroke-linejoin:round;stroke:#696969;stroke-opacity:1;stroke-miterlimit:4" d="M112.006 1.202v46.48" transform="matrix(.99807 0 0 -.99807 0 314.848)"/></g><g clip-path="url(#X)"><path style="fill:none;stroke-width:2.4;stroke-linecap:square;stroke-linejoin:round;stroke:#696969;stroke-opacity:1;stroke-miterlimit:4" d="M100.613 1.202v46.48" transform="matrix(.99807 0 0 -.99807 0 314.848)"/></g><g clip-path="url(#Y)"><path style="fill:none;stroke-width:2.4;stroke-linecap:square;stroke-linejoin:round;stroke:#696969;stroke-opacity:1;stroke-miterlimit:4" d="M92.069 1.202v46.48" transform="matrix(.99807 0 0 -.99807 0 314.848)"/></g><g clip-path="url(#Z)"><path style="fill:none;stroke-width:2.4;stroke-linecap:square;stroke-linejoin:round;stroke:#696969;stroke-opacity:1;stroke-miterlimit:4" d="M97.767 1.202v46.48" transform="matrix(.99807 0 0 -.99807 0 314.848)"/></g><g clip-path="url(#aa)"><path style="fill:none;stroke-width:2.4;stroke-linecap:square;stroke-linejoin:round;stroke:#696969;stroke-opacity:1;stroke-miterlimit:4" d="M103.462 1.202v46.48" transform="matrix(.99807 0 0 -.99807 0 314.848)"/></g><g clip-path="url(#ab)"><path style="fill:none;stroke-width:2.4;stroke-linecap:square;stroke-linejoin:round;stroke:#696969;stroke-opacity:1;stroke-miterlimit:4" d="M109.156 1.202v46.48" transform="matrix(.99807 0 0 -.99807 0 314.848)"/></g><path style="fill:none;stroke-width:2.4;stroke-linecap:square;stroke-linejoin:round;stroke:#696969;stroke-opacity:1;stroke-miterlimit:4" d="M112.006 161.668v-46.48m-5.699 46.48v-46.48m-11.389 46.48v-46.48m-5.695 46.48v-46.48m11.39 46.48v-46.48m8.543 46.48v-46.48m-5.694 46.48v-46.48m-5.695 46.48v-46.48m-5.698 46.48v-46.48" transform="matrix(.99807 0 0 -.99807 0 314.848)"/><path style="fill:none;stroke-width:2.4;stroke-linecap:square;stroke-linejoin:round;stroke:#87cefa;stroke-opacity:1;stroke-miterlimit:4" d="M-165.614 77.372v46.485m-5.694-46.485v46.485m-11.393-46.485v46.485m-5.699-46.485v46.485m11.393-46.485v46.485m8.544-46.485v46.485m-5.698-46.485v46.485m-5.695-46.485v46.485m-5.694-46.485v46.485m19.936-8.2v46.485m-5.694-46.485v46.485m-11.393-46.485v46.485m-5.699-46.485v46.485m11.393-46.485v46.485m8.544-46.485v46.485m-5.698-46.485v46.485m-5.695-46.485v46.485m-5.694-46.485v46.485" transform="matrix(0 -.99807 .99807 0 0 .023)"/><path style="fill:none;stroke-width:2.4;stroke-linecap:square;stroke-linejoin:round;stroke:#696969;stroke-opacity:1;stroke-miterlimit:4" d="M150.29 161.668v-46.48m-5.698 46.48v-46.48m-11.389 46.48v-46.48m-5.695 46.48v-46.48m11.389 46.48v-46.48m8.544 46.48v-46.48m-5.694 46.48v-46.48m-5.695 46.48v-46.48m-5.698 46.48v-46.48m-2.846-37.98v46.485m5.695-46.485v46.485m11.389-46.485v46.485m5.698-46.485v46.485m-11.393-46.485v46.485m-8.543-46.485v46.485m5.698-46.485v46.485m5.695-46.485v46.485m5.694-46.485v46.485" transform="matrix(.99807 0 0 -.99807 0 314.848)"/><path style="fill:none;stroke-width:2.4;stroke-linecap:square;stroke-linejoin:round;stroke:#87cefa;stroke-opacity:1;stroke-miterlimit:4" d="M226.376-162.142v46.485m-5.695-46.485v46.485m-11.393-46.485v46.485m-5.695-46.485v46.485m11.39-46.485v46.485m8.543-46.485v46.485m-5.694-46.485v46.485m-5.695-46.485v46.485m-5.694-46.485v46.485m19.933-8.2v46.485m-5.695-46.485v46.485m-11.393-46.485v46.485m-5.695-46.485v46.485m11.39-46.485v46.485m8.543-46.485v46.485m-5.694-46.485v46.485m-5.695-46.485v46.485m-5.694-46.485v46.485" transform="matrix(0 .99807 -.99807 0 0 .023)"/><path style="fill:none;stroke-width:2.4;stroke-linecap:square;stroke-linejoin:round;stroke:#696969;stroke-opacity:1;stroke-miterlimit:4" d="M89.223 77.208v46.485m5.695-46.485v46.485m11.389-46.485v46.485m5.699-46.485v46.485m-11.393-46.485v46.485m-8.544-46.485v46.485m5.698-46.485v46.485m5.695-46.485v46.485m5.694-46.485v46.485M35.831 85.662V39.178m-5.695 46.484V39.178M18.747 85.662V39.178m-5.694 46.484V39.178m11.389 46.484V39.178m8.544 46.484V39.178m-5.699 46.484V39.178m-5.694 46.484V39.178m-5.695 46.484V39.178" transform="matrix(.99807 0 0 -.99807 0 314.848)"/><path style="fill:none;stroke-width:2.4;stroke-linecap:square;stroke-linejoin:round;stroke:#87cefa;stroke-opacity:1;stroke-miterlimit:4" d="M-241.624 1.198v46.488m-5.694-46.488v46.488m-11.394-46.488v46.488m-5.694-46.488v46.488m11.389-46.488v46.488m8.544-46.488v46.488m-5.695-46.488v46.488m-5.694-46.488v46.488m-5.698-46.488v46.488m19.936-8.203V85.97m-5.694-46.487V85.97m-11.394-46.487V85.97m-5.694-46.487V85.97m11.389-46.487V85.97m8.544-46.487V85.97m-5.695-46.487V85.97m-5.694-46.487V85.97m-5.698-46.487V85.97" transform="matrix(0 -.99807 .99807 0 0 .023)"/><path style="fill:none;stroke-width:2.4;stroke-linecap:square;stroke-linejoin:round;stroke:#696969;stroke-opacity:1;stroke-miterlimit:4" d="M74.116 85.662V39.178m-5.695 46.484V39.178M57.032 85.662V39.178m-5.694 46.484V39.178m11.389 46.484V39.178m8.543 46.484V39.178m-5.698 46.484V39.178m-5.695 46.484V39.178m-5.694 46.484V39.178" transform="matrix(.99807 0 0 -.99807 0 314.848)"/><g clip-path="url(#ac)"><path style="fill:none;stroke-width:2.4;stroke-linecap:square;stroke-linejoin:round;stroke:#696969;stroke-opacity:1;stroke-miterlimit:4" d="M51.338 1.202v46.48" transform="matrix(.99807 0 0 -.99807 0 314.848)"/></g><g clip-path="url(#ad)"><path style="fill:none;stroke-width:2.4;stroke-linecap:square;stroke-linejoin:round;stroke:#696969;stroke-opacity:1;stroke-miterlimit:4" d="M57.032 1.202v46.48" transform="matrix(.99807 0 0 -.99807 0 314.848)"/></g><g clip-path="url(#ae)"><path style="fill:none;stroke-width:2.4;stroke-linecap:square;stroke-linejoin:round;stroke:#696969;stroke-opacity:1;stroke-miterlimit:4" d="M68.421 1.202v46.48" transform="matrix(.99807 0 0 -.99807 0 314.848)"/></g><g clip-path="url(#af)"><path style="fill:none;stroke-width:2.4;stroke-linecap:square;stroke-linejoin:round;stroke:#696969;stroke-opacity:1;stroke-miterlimit:4" d="M74.116 1.202v46.48" transform="matrix(.99807 0 0 -.99807 0 314.848)"/></g><g clip-path="url(#ag)"><path style="fill:none;stroke-width:2.4;stroke-linecap:square;stroke-linejoin:round;stroke:#696969;stroke-opacity:1;stroke-miterlimit:4" d="M62.727 1.202v46.48" transform="matrix(.99807 0 0 -.99807 0 314.848)"/></g><g clip-path="url(#ah)"><path style="fill:none;stroke-width:2.4;stroke-linecap:square;stroke-linejoin:round;stroke:#696969;stroke-opacity:1;stroke-miterlimit:4" d="M54.183 1.202v46.48" transform="matrix(.99807 0 0 -.99807 0 314.848)"/></g><g clip-path="url(#ai)"><path style="fill:none;stroke-width:2.4;stroke-linecap:square;stroke-linejoin:round;stroke:#696969;stroke-opacity:1;stroke-miterlimit:4" d="M59.877 1.202v46.48" transform="matrix(.99807 0 0 -.99807 0 314.848)"/></g><g clip-path="url(#aj)"><path style="fill:none;stroke-width:2.4;stroke-linecap:square;stroke-linejoin:round;stroke:#696969;stroke-opacity:1;stroke-miterlimit:4" d="M65.572 1.202v46.48" transform="matrix(.99807 0 0 -.99807 0 314.848)"/></g><g clip-path="url(#ak)"><path style="fill:none;stroke-width:2.4;stroke-linecap:square;stroke-linejoin:round;stroke:#696969;stroke-opacity:1;stroke-miterlimit:4" d="M71.27 1.202v46.48" transform="matrix(.99807 0 0 -.99807 0 314.848)"/></g><path style="fill:none;stroke-width:2.4;stroke-linecap:square;stroke-linejoin:round;stroke:#87cefa;stroke-opacity:1;stroke-miterlimit:4" d="M302.386-85.97v46.487m-5.695-46.487v46.487M285.298-85.97v46.487m-5.694-46.487v46.487m11.393-46.487v46.487m8.543-46.487v46.487m-5.694-46.487v46.487m-5.702-46.487v46.487m-5.695-46.487v46.487m19.937-8.203v46.488m-5.695-46.488v46.488m-11.393-46.488v46.488m-5.694-46.488v46.488m11.393-46.488v46.488m8.543-46.488v46.488m-5.694-46.488v46.488m-5.702-46.488v46.488m-5.695-46.488v46.488" transform="matrix(0 .99807 -.99807 0 0 .023)"/><g clip-path="url(#al)"><path style="fill:none;stroke-width:2.4;stroke-linecap:square;stroke-linejoin:round;stroke:#696969;stroke-opacity:1;stroke-miterlimit:4" d="M13.053 1.202v46.48" transform="matrix(.99807 0 0 -.99807 0 314.848)"/></g><g clip-path="url(#am)"><path style="fill:none;stroke-width:2.4;stroke-linecap:square;stroke-linejoin:round;stroke:#696969;stroke-opacity:1;stroke-miterlimit:4" d="M18.747 1.202v46.48" transform="matrix(.99807 0 0 -.99807 0 314.848)"/></g><g clip-path="url(#an)"><path style="fill:none;stroke-width:2.4;stroke-linecap:square;stroke-linejoin:round;stroke:#696969;stroke-opacity:1;stroke-miterlimit:4" d="M30.136 1.202v46.48" transform="matrix(.99807 0 0 -.99807 0 314.848)"/></g><g clip-path="url(#ao)"><path style="fill:none;stroke-width:2.4;stroke-linecap:square;stroke-linejoin:round;stroke:#696969;stroke-opacity:1;stroke-miterlimit:4" d="M35.831 1.202v46.48" transform="matrix(.99807 0 0 -.99807 0 314.848)"/></g><g clip-path="url(#ap)"><path style="fill:none;stroke-width:2.4;stroke-linecap:square;stroke-linejoin:round;stroke:#696969;stroke-opacity:1;stroke-miterlimit:4" d="M24.442 1.202v46.48" transform="matrix(.99807 0 0 -.99807 0 314.848)"/></g><g clip-path="url(#aq)"><path style="fill:none;stroke-width:2.4;stroke-linecap:square;stroke-linejoin:round;stroke:#696969;stroke-opacity:1;stroke-miterlimit:4" d="M15.898 1.202v46.48" transform="matrix(.99807 0 0 -.99807 0 314.848)"/></g><g clip-path="url(#ar)"><path style="fill:none;stroke-width:2.4;stroke-linecap:square;stroke-linejoin:round;stroke:#696969;stroke-opacity:1;stroke-miterlimit:4" d="M21.593 1.202v46.48" transform="matrix(.99807 0 0 -.99807 0 314.848)"/></g><g clip-path="url(#as)"><path style="fill:none;stroke-width:2.4;stroke-linecap:square;stroke-linejoin:round;stroke:#696969;stroke-opacity:1;stroke-miterlimit:4" d="M27.287 1.202v46.48" transform="matrix(.99807 0 0 -.99807 0 314.848)"/></g><g clip-path="url(#at)"><path style="fill:none;stroke-width:2.4;stroke-linecap:square;stroke-linejoin:round;stroke:#696969;stroke-opacity:1;stroke-miterlimit:4" d="M32.986 1.202v46.48" transform="matrix(.99807 0 0 -.99807 0 314.848)"/></g><path style="fill:none;stroke-width:2.4;stroke-linecap:square;stroke-linejoin:round;stroke:#696969;stroke-opacity:1;stroke-miterlimit:4" d="M187.883 161.668v-46.48m-5.699 46.48v-46.48m-11.393 46.48v-46.48m-5.694 46.48v-46.48m11.393 46.48v-46.48m8.544 46.48v-46.48m-5.699 46.48v-46.48m-5.695 46.48v-46.48m-5.694 46.48v-46.48" transform="matrix(.99807 0 0 -.99807 0 314.848)"/><path style="fill:none;stroke-width:2.4;stroke-linecap:square;stroke-linejoin:round;stroke:#87cefa;stroke-opacity:1;stroke-miterlimit:4" d="M-165.614 153.246v46.484m-5.694-46.484v46.484m-11.393-46.484v46.484m-5.699-46.484v46.484m11.393-46.484v46.484m8.544-46.484v46.484m-5.698-46.484v46.484m-5.695-46.484v46.484m-5.694-46.484v46.484m19.936-8.196v46.48m-5.694-46.48v46.48m-11.393-46.48v46.48m-5.699-46.48v46.48m11.393-46.48v46.48m8.544-46.48v46.48m-5.698-46.48v46.48m-5.695-46.48v46.48m-5.694-46.48v46.48" transform="matrix(0 -.99807 .99807 0 0 .023)"/><path style="fill:none;stroke-width:2.4;stroke-linecap:square;stroke-linejoin:round;stroke:#696969;stroke-opacity:1;stroke-miterlimit:4" d="M226.168 161.668v-46.48m-5.695 46.48v-46.48m-11.397 46.48v-46.48m-5.694 46.48v-46.48m11.393 46.48v-46.48m8.544 46.48v-46.48m-5.695 46.48v-46.48m-5.699 46.48v-46.48m-5.695 46.48v-46.48m-2.848-37.98v46.485m5.694-46.485v46.485m11.397-46.485v46.485m5.695-46.485v46.485m-11.393-46.485v46.485m-8.545-46.485v46.485m5.695-46.485v46.485m5.699-46.485v46.485m5.695-46.485v46.485" transform="matrix(.99807 0 0 -.99807 0 314.848)"/><path style="fill:none;stroke-width:2.4;stroke-linecap:square;stroke-linejoin:round;stroke:#87cefa;stroke-opacity:1;stroke-miterlimit:4" d="M226.376-238.015v46.48m-5.695-46.48v46.48m-11.393-46.48v46.48m-5.695-46.48v46.48m11.39-46.48v46.48m8.543-46.48v46.48m-5.694-46.48v46.48m-5.695-46.48v46.48m-5.694-46.48v46.48m19.933-8.195v46.484m-5.695-46.484v46.484m-11.393-46.484v46.484m-5.695-46.484v46.484m11.39-46.484v46.484m8.543-46.484v46.484m-5.694-46.484v46.484m-5.695-46.484v46.484m-5.694-46.484v46.484" transform="matrix(0 .99807 -.99807 0 0 .023)"/><path style="fill:none;stroke-width:2.4;stroke-linecap:square;stroke-linejoin:round;stroke:#696969;stroke-opacity:1;stroke-miterlimit:4" d="M165.097 77.208v46.485m5.694-46.485v46.485m11.393-46.485v46.485m5.699-46.485v46.485M176.49 77.208v46.485m-8.544-46.485v46.485m5.694-46.485v46.485m5.695-46.485v46.485m5.699-46.485v46.485m79.016-38.031V39.178m-5.695 46.484V39.178m-11.389 46.484V39.178m-5.695 46.484V39.178m11.389 46.484V39.178m8.544 46.484V39.178m-5.694 46.484V39.178m-5.699 46.484V39.178m-5.694 46.484V39.178" transform="matrix(.99807 0 0 -.99807 0 314.848)"/><path style="fill:none;stroke-width:2.4;stroke-linecap:square;stroke-linejoin:round;stroke:#87cefa;stroke-opacity:1;stroke-miterlimit:4" d="M-241.624 229.416v46.485m-5.694-46.485v46.485m-11.394-46.485v46.485m-5.694-46.485v46.485m11.389-46.485v46.485m8.544-46.485v46.485m-5.695-46.485v46.485m-5.694-46.485v46.485m-5.698-46.485v46.485" transform="matrix(0 -.99807 .99807 0 0 .023)"/><g clip-path="url(#au)"><path style="fill:none;stroke-width:2.4;stroke-linecap:square;stroke-linejoin:round;stroke:#87cefa;stroke-opacity:1;stroke-miterlimit:4" d="M-241.624 267.701v46.489" transform="matrix(0 -.99807 .99807 0 0 .023)"/></g><g clip-path="url(#av)"><path style="fill:none;stroke-width:2.4;stroke-linecap:square;stroke-linejoin:round;stroke:#87cefa;stroke-opacity:1;stroke-miterlimit:4" d="M-247.318 267.701v46.489" transform="matrix(0 -.99807 .99807 0 0 .023)"/></g><g clip-path="url(#aw)"><path style="fill:none;stroke-width:2.4;stroke-linecap:square;stroke-linejoin:round;stroke:#87cefa;stroke-opacity:1;stroke-miterlimit:4" d="M-258.712 267.701v46.489" transform="matrix(0 -.99807 .99807 0 0 .023)"/></g><g clip-path="url(#ax)"><path style="fill:none;stroke-width:2.4;stroke-linecap:square;stroke-linejoin:round;stroke:#87cefa;stroke-opacity:1;stroke-miterlimit:4" d="M-264.406 267.701v46.489" transform="matrix(0 -.99807 .99807 0 0 .023)"/></g><g clip-path="url(#ay)"><path style="fill:none;stroke-width:2.4;stroke-linecap:square;stroke-linejoin:round;stroke:#87cefa;stroke-opacity:1;stroke-miterlimit:4" d="M-253.017 267.701v46.489" transform="matrix(0 -.99807 .99807 0 0 .023)"/></g><g clip-path="url(#az)"><path style="fill:none;stroke-width:2.4;stroke-linecap:square;stroke-linejoin:round;stroke:#87cefa;stroke-opacity:1;stroke-miterlimit:4" d="M-244.473 267.701v46.489" transform="matrix(0 -.99807 .99807 0 0 .023)"/></g><g clip-path="url(#aA)"><path style="fill:none;stroke-width:2.4;stroke-linecap:square;stroke-linejoin:round;stroke:#87cefa;stroke-opacity:1;stroke-miterlimit:4" d="M-250.168 267.701v46.489" transform="matrix(0 -.99807 .99807 0 0 .023)"/></g><g clip-path="url(#aB)"><path style="fill:none;stroke-width:2.4;stroke-linecap:square;stroke-linejoin:round;stroke:#87cefa;stroke-opacity:1;stroke-miterlimit:4" d="M-255.862 267.701v46.489" transform="matrix(0 -.99807 .99807 0 0 .023)"/></g><g clip-path="url(#aC)"><path style="fill:none;stroke-width:2.4;stroke-linecap:square;stroke-linejoin:round;stroke:#87cefa;stroke-opacity:1;stroke-miterlimit:4" d="M-261.56 267.701v46.489" transform="matrix(0 -.99807 .99807 0 0 .023)"/></g><path style="fill:none;stroke-width:2.4;stroke-linecap:square;stroke-linejoin:round;stroke:#696969;stroke-opacity:1;stroke-miterlimit:4" d="M302.338 85.662V39.178m-5.698 46.484V39.178m-11.39 46.484V39.178m-5.694 46.484V39.178m11.389 46.484V39.178m8.548 46.484V39.178m-5.698 46.484V39.178m-5.699 46.484V39.178m-5.695 46.484V39.178" transform="matrix(.99807 0 0 -.99807 0 314.848)"/><g clip-path="url(#aD)"><path style="fill:none;stroke-width:2.4;stroke-linecap:square;stroke-linejoin:round;stroke:#696969;stroke-opacity:1;stroke-miterlimit:4" d="M279.556 1.202v46.48" transform="matrix(.99807 0 0 -.99807 0 314.848)"/></g><g clip-path="url(#aE)"><path style="fill:none;stroke-width:2.4;stroke-linecap:square;stroke-linejoin:round;stroke:#696969;stroke-opacity:1;stroke-miterlimit:4" d="M285.25 1.202v46.48" transform="matrix(.99807 0 0 -.99807 0 314.848)"/></g><g clip-path="url(#aF)"><path style="fill:none;stroke-width:2.4;stroke-linecap:square;stroke-linejoin:round;stroke:#696969;stroke-opacity:1;stroke-miterlimit:4" d="M296.64 1.202v46.48" transform="matrix(.99807 0 0 -.99807 0 314.848)"/></g><g clip-path="url(#aG)"><path style="fill:none;stroke-width:2.4;stroke-linecap:square;stroke-linejoin:round;stroke:#696969;stroke-opacity:1;stroke-miterlimit:4" d="M302.338 1.202v46.48" transform="matrix(.99807 0 0 -.99807 0 314.848)"/></g><g clip-path="url(#aH)"><path style="fill:none;stroke-width:2.4;stroke-linecap:square;stroke-linejoin:round;stroke:#696969;stroke-opacity:1;stroke-miterlimit:4" d="M290.945 1.202v46.48" transform="matrix(.99807 0 0 -.99807 0 314.848)"/></g><g clip-path="url(#aI)"><path style="fill:none;stroke-width:2.4;stroke-linecap:square;stroke-linejoin:round;stroke:#696969;stroke-opacity:1;stroke-miterlimit:4" d="M282.401 1.202v46.48" transform="matrix(.99807 0 0 -.99807 0 314.848)"/></g><g clip-path="url(#aJ)"><path style="fill:none;stroke-width:2.4;stroke-linecap:square;stroke-linejoin:round;stroke:#696969;stroke-opacity:1;stroke-miterlimit:4" d="M288.096 1.202v46.48" transform="matrix(.99807 0 0 -.99807 0 314.848)"/></g><g clip-path="url(#aK)"><path style="fill:none;stroke-width:2.4;stroke-linecap:square;stroke-linejoin:round;stroke:#696969;stroke-opacity:1;stroke-miterlimit:4" d="M293.795 1.202v46.48" transform="matrix(.99807 0 0 -.99807 0 314.848)"/></g><g clip-path="url(#aL)"><path style="fill:none;stroke-width:2.4;stroke-linecap:square;stroke-linejoin:round;stroke:#696969;stroke-opacity:1;stroke-miterlimit:4" d="M299.493 1.202v46.48" transform="matrix(.99807 0 0 -.99807 0 314.848)"/></g><g clip-path="url(#aM)"><path style="fill:none;stroke-width:2.4;stroke-linecap:square;stroke-linejoin:round;stroke:#87cefa;stroke-opacity:1;stroke-miterlimit:4" d="M302.386-314.19v46.489" transform="matrix(0 .99807 -.99807 0 0 .023)"/></g><g clip-path="url(#aN)"><path style="fill:none;stroke-width:2.4;stroke-linecap:square;stroke-linejoin:round;stroke:#87cefa;stroke-opacity:1;stroke-miterlimit:4" d="M296.691-314.19v46.489" transform="matrix(0 .99807 -.99807 0 0 .023)"/></g><g clip-path="url(#aO)"><path style="fill:none;stroke-width:2.4;stroke-linecap:square;stroke-linejoin:round;stroke:#87cefa;stroke-opacity:1;stroke-miterlimit:4" d="M285.298-314.19v46.489" transform="matrix(0 .99807 -.99807 0 0 .023)"/></g><g clip-path="url(#aP)"><path style="fill:none;stroke-width:2.4;stroke-linecap:square;stroke-linejoin:round;stroke:#87cefa;stroke-opacity:1;stroke-miterlimit:4" d="M279.604-314.19v46.489" transform="matrix(0 .99807 -.99807 0 0 .023)"/></g><g clip-path="url(#aQ)"><path style="fill:none;stroke-width:2.4;stroke-linecap:square;stroke-linejoin:round;stroke:#87cefa;stroke-opacity:1;stroke-miterlimit:4" d="M290.997-314.19v46.489" transform="matrix(0 .99807 -.99807 0 0 .023)"/></g><g clip-path="url(#aR)"><path style="fill:none;stroke-width:2.4;stroke-linecap:square;stroke-linejoin:round;stroke:#87cefa;stroke-opacity:1;stroke-miterlimit:4" d="M299.54-314.19v46.489" transform="matrix(0 .99807 -.99807 0 0 .023)"/></g><g clip-path="url(#aS)"><path style="fill:none;stroke-width:2.4;stroke-linecap:square;stroke-linejoin:round;stroke:#87cefa;stroke-opacity:1;stroke-miterlimit:4" d="M293.846-314.19v46.489" transform="matrix(0 .99807 -.99807 0 0 .023)"/></g><g clip-path="url(#aT)"><path style="fill:none;stroke-width:2.4;stroke-linecap:square;stroke-linejoin:round;stroke:#87cefa;stroke-opacity:1;stroke-miterlimit:4" d="M288.144-314.19v46.489" transform="matrix(0 .99807 -.99807 0 0 .023)"/></g><g clip-path="url(#aU)"><path style="fill:none;stroke-width:2.4;stroke-linecap:square;stroke-linejoin:round;stroke:#87cefa;stroke-opacity:1;stroke-miterlimit:4" d="M282.449-314.19v46.489" transform="matrix(0 .99807 -.99807 0 0 .023)"/></g><path style="fill:none;stroke-width:2.4;stroke-linecap:square;stroke-linejoin:round;stroke:#87cefa;stroke-opacity:1;stroke-miterlimit:4" d="M302.386-275.9v46.484m-5.695-46.484v46.484M285.298-275.9v46.484m-5.694-46.484v46.484m11.393-46.484v46.484m8.543-46.484v46.484m-5.694-46.484v46.484m-5.702-46.484v46.484m-5.695-46.484v46.484" transform="matrix(0 .99807 -.99807 0 0 .023)"/><g clip-path="url(#aV)"><path style="fill:none;stroke-width:2.4;stroke-linecap:square;stroke-linejoin:round;stroke:#696969;stroke-opacity:1;stroke-miterlimit:4" d="M241.271 1.202v46.48" transform="matrix(.99807 0 0 -.99807 0 314.848)"/></g><g clip-path="url(#aW)"><path style="fill:none;stroke-width:2.4;stroke-linecap:square;stroke-linejoin:round;stroke:#696969;stroke-opacity:1;stroke-miterlimit:4" d="M246.966 1.202v46.48" transform="matrix(.99807 0 0 -.99807 0 314.848)"/></g><g clip-path="url(#aX)"><path style="fill:none;stroke-width:2.4;stroke-linecap:square;stroke-linejoin:round;stroke:#696969;stroke-opacity:1;stroke-miterlimit:4" d="M258.355 1.202v46.48" transform="matrix(.99807 0 0 -.99807 0 314.848)"/></g><g clip-path="url(#aY)"><path style="fill:none;stroke-width:2.4;stroke-linecap:square;stroke-linejoin:round;stroke:#696969;stroke-opacity:1;stroke-miterlimit:4" d="M264.05 1.202v46.48" transform="matrix(.99807 0 0 -.99807 0 314.848)"/></g><g clip-path="url(#aZ)"><path style="fill:none;stroke-width:2.4;stroke-linecap:square;stroke-linejoin:round;stroke:#696969;stroke-opacity:1;stroke-miterlimit:4" d="M252.66 1.202v46.48" transform="matrix(.99807 0 0 -.99807 0 314.848)"/></g><g clip-path="url(#ba)"><path style="fill:none;stroke-width:2.4;stroke-linecap:square;stroke-linejoin:round;stroke:#696969;stroke-opacity:1;stroke-miterlimit:4" d="M244.117 1.202v46.48" transform="matrix(.99807 0 0 -.99807 0 314.848)"/></g><g clip-path="url(#bb)"><path style="fill:none;stroke-width:2.4;stroke-linecap:square;stroke-linejoin:round;stroke:#696969;stroke-opacity:1;stroke-miterlimit:4" d="M249.811 1.202v46.48" transform="matrix(.99807 0 0 -.99807 0 314.848)"/></g><g clip-path="url(#bc)"><path style="fill:none;stroke-width:2.4;stroke-linecap:square;stroke-linejoin:round;stroke:#696969;stroke-opacity:1;stroke-miterlimit:4" d="M255.51 1.202v46.48" transform="matrix(.99807 0 0 -.99807 0 314.848)"/></g><g clip-path="url(#bd)"><path style="fill:none;stroke-width:2.4;stroke-linecap:square;stroke-linejoin:round;stroke:#696969;stroke-opacity:1;stroke-miterlimit:4" d="M261.204 1.202v46.48" transform="matrix(.99807 0 0 -.99807 0 314.848)"/></g><path style="fill:none;stroke-width:2.4;stroke-linecap:square;stroke-linejoin:round;stroke:#696969;stroke-opacity:1;stroke-miterlimit:4" d="M264.05 161.668v-46.48m-5.695 46.48v-46.48m-11.389 46.48v-46.48m-5.695 46.48v-46.48m11.389 46.48v-46.48m8.544 46.48v-46.48m-5.694 46.48v-46.48m-5.699 46.48v-46.48m-5.694 46.48v-46.48" transform="matrix(.99807 0 0 -.99807 0 314.848)"/><path style="fill:none;stroke-width:2.4;stroke-linecap:square;stroke-linejoin:round;stroke:#87cefa;stroke-opacity:1;stroke-miterlimit:4" d="M-165.614 229.416v46.485m-5.694-46.485v46.485m-11.393-46.485v46.485m-5.699-46.485v46.485m11.393-46.485v46.485m8.544-46.485v46.485m-5.698-46.485v46.485m-5.695-46.485v46.485m-5.694-46.485v46.485" transform="matrix(0 -.99807 .99807 0 0 .023)"/><g clip-path="url(#be)"><path style="fill:none;stroke-width:2.4;stroke-linecap:square;stroke-linejoin:round;stroke:#87cefa;stroke-opacity:1;stroke-miterlimit:4" d="M-165.614 267.701v46.489" transform="matrix(0 -.99807 .99807 0 0 .023)"/></g><g clip-path="url(#bf)"><path style="fill:none;stroke-width:2.4;stroke-linecap:square;stroke-linejoin:round;stroke:#87cefa;stroke-opacity:1;stroke-miterlimit:4" d="M-171.308 267.701v46.489" transform="matrix(0 -.99807 .99807 0 0 .023)"/></g><g clip-path="url(#bg)"><path style="fill:none;stroke-width:2.4;stroke-linecap:square;stroke-linejoin:round;stroke:#87cefa;stroke-opacity:1;stroke-miterlimit:4" d="M-182.701 267.701v46.489" transform="matrix(0 -.99807 .99807 0 0 .023)"/></g><g clip-path="url(#bh)"><path style="fill:none;stroke-width:2.4;stroke-linecap:square;stroke-linejoin:round;stroke:#87cefa;stroke-opacity:1;stroke-miterlimit:4" d="M-188.4 267.701v46.489" transform="matrix(0 -.99807 .99807 0 0 .023)"/></g><g clip-path="url(#bi)"><path style="fill:none;stroke-width:2.4;stroke-linecap:square;stroke-linejoin:round;stroke:#87cefa;stroke-opacity:1;stroke-miterlimit:4" d="M-177.007 267.701v46.489" transform="matrix(0 -.99807 .99807 0 0 .023)"/></g><g clip-path="url(#bj)"><path style="fill:none;stroke-width:2.4;stroke-linecap:square;stroke-linejoin:round;stroke:#87cefa;stroke-opacity:1;stroke-miterlimit:4" d="M-168.463 267.701v46.489" transform="matrix(0 -.99807 .99807 0 0 .023)"/></g><g clip-path="url(#bk)"><path style="fill:none;stroke-width:2.4;stroke-linecap:square;stroke-linejoin:round;stroke:#87cefa;stroke-opacity:1;stroke-miterlimit:4" d="M-174.161 267.701v46.489" transform="matrix(0 -.99807 .99807 0 0 .023)"/></g><g clip-path="url(#bl)"><path style="fill:none;stroke-width:2.4;stroke-linecap:square;stroke-linejoin:round;stroke:#87cefa;stroke-opacity:1;stroke-miterlimit:4" d="M-179.856 267.701v46.489" transform="matrix(0 -.99807 .99807 0 0 .023)"/></g><g clip-path="url(#bm)"><path style="fill:none;stroke-width:2.4;stroke-linecap:square;stroke-linejoin:round;stroke:#87cefa;stroke-opacity:1;stroke-miterlimit:4" d="M-185.55 267.701v46.489" transform="matrix(0 -.99807 .99807 0 0 .023)"/></g><path style="fill:none;stroke-width:2.4;stroke-linecap:square;stroke-linejoin:round;stroke:#696969;stroke-opacity:1;stroke-miterlimit:4" d="M302.338 161.668v-46.48m-5.698 46.48v-46.48m-11.39 46.48v-46.48m-5.694 46.48v-46.48m11.389 46.48v-46.48m8.548 46.48v-46.48m-5.698 46.48v-46.48m-5.699 46.48v-46.48m-5.695 46.48v-46.48m-2.845-37.98v46.485m5.694-46.485v46.485m11.39-46.485v46.485m5.698-46.485v46.485m-11.393-46.485v46.485m-8.544-46.485v46.485m5.695-46.485v46.485m5.699-46.485v46.485m5.698-46.485v46.485" transform="matrix(.99807 0 0 -.99807 0 314.848)"/><g clip-path="url(#bn)"><path style="fill:none;stroke-width:2.4;stroke-linecap:square;stroke-linejoin:round;stroke:#87cefa;stroke-opacity:1;stroke-miterlimit:4" d="M226.376-314.19v46.489" transform="matrix(0 .99807 -.99807 0 0 .023)"/></g><g clip-path="url(#bo)"><path style="fill:none;stroke-width:2.4;stroke-linecap:square;stroke-linejoin:round;stroke:#87cefa;stroke-opacity:1;stroke-miterlimit:4" d="M220.681-314.19v46.489" transform="matrix(0 .99807 -.99807 0 0 .023)"/></g><g clip-path="url(#bp)"><path style="fill:none;stroke-width:2.4;stroke-linecap:square;stroke-linejoin:round;stroke:#87cefa;stroke-opacity:1;stroke-miterlimit:4" d="M209.288-314.19v46.489" transform="matrix(0 .99807 -.99807 0 0 .023)"/></g><g clip-path="url(#bq)"><path style="fill:none;stroke-width:2.4;stroke-linecap:square;stroke-linejoin:round;stroke:#87cefa;stroke-opacity:1;stroke-miterlimit:4" d="M203.593-314.19v46.489" transform="matrix(0 .99807 -.99807 0 0 .023)"/></g><g clip-path="url(#br)"><path style="fill:none;stroke-width:2.4;stroke-linecap:square;stroke-linejoin:round;stroke:#87cefa;stroke-opacity:1;stroke-miterlimit:4" d="M214.983-314.19v46.489" transform="matrix(0 .99807 -.99807 0 0 .023)"/></g><g clip-path="url(#bs)"><path style="fill:none;stroke-width:2.4;stroke-linecap:square;stroke-linejoin:round;stroke:#87cefa;stroke-opacity:1;stroke-miterlimit:4" d="M223.526-314.19v46.489" transform="matrix(0 .99807 -.99807 0 0 .023)"/></g><g clip-path="url(#bt)"><path style="fill:none;stroke-width:2.4;stroke-linecap:square;stroke-linejoin:round;stroke:#87cefa;stroke-opacity:1;stroke-miterlimit:4" d="M217.832-314.19v46.489" transform="matrix(0 .99807 -.99807 0 0 .023)"/></g><g clip-path="url(#bu)"><path style="fill:none;stroke-width:2.4;stroke-linecap:square;stroke-linejoin:round;stroke:#87cefa;stroke-opacity:1;stroke-miterlimit:4" d="M212.137-314.19v46.489" transform="matrix(0 .99807 -.99807 0 0 .023)"/></g><g clip-path="url(#bv)"><path style="fill:none;stroke-width:2.4;stroke-linecap:square;stroke-linejoin:round;stroke:#87cefa;stroke-opacity:1;stroke-miterlimit:4" d="M206.443-314.19v46.489" transform="matrix(0 .99807 -.99807 0 0 .023)"/></g><path style="fill:none;stroke-width:2.4;stroke-linecap:square;stroke-linejoin:round;stroke:#87cefa;stroke-opacity:1;stroke-miterlimit:4" d="M226.376-275.9v46.484m-5.695-46.484v46.484M209.288-275.9v46.484m-5.695-46.484v46.484m11.39-46.484v46.484m8.543-46.484v46.484m-5.694-46.484v46.484m-5.695-46.484v46.484m-5.694-46.484v46.484" transform="matrix(0 .99807 -.99807 0 0 .023)"/><path style="fill:none;stroke-width:2.4;stroke-linecap:square;stroke-linejoin:round;stroke:#696969;stroke-opacity:1;stroke-miterlimit:4" d="M241.271 77.208v46.485m5.695-46.485v46.485m11.389-46.485v46.485m5.695-46.485v46.485m-11.39-46.485v46.485m-8.543-46.485v46.485m5.694-46.485v46.485m5.699-46.485v46.485m5.694-46.485v46.485m-73.321-38.031V39.178m-5.699 46.484V39.178m-11.393 46.484V39.178m-5.694 46.484V39.178m11.393 46.484V39.178m8.544 46.484V39.178m-5.699 46.484V39.178m-5.695 46.484V39.178m-5.694 46.484V39.178" transform="matrix(.99807 0 0 -.99807 0 314.848)"/><path style="fill:none;stroke-width:2.4;stroke-linecap:square;stroke-linejoin:round;stroke:#87cefa;stroke-opacity:1;stroke-miterlimit:4" d="M-241.624 153.246v46.484m-5.694-46.484v46.484m-11.394-46.484v46.484m-5.694-46.484v46.484m11.389-46.484v46.484m8.544-46.484v46.484m-5.695-46.484v46.484m-5.694-46.484v46.484m-5.698-46.484v46.484m19.936-8.196v46.48m-5.694-46.48v46.48m-11.394-46.48v46.48m-5.694-46.48v46.48m11.389-46.48v46.48m8.544-46.48v46.48m-5.695-46.48v46.48m-5.694-46.48v46.48m-5.698-46.48v46.48" transform="matrix(0 -.99807 .99807 0 0 .023)"/><path style="fill:none;stroke-width:2.4;stroke-linecap:square;stroke-linejoin:round;stroke:#696969;stroke-opacity:1;stroke-miterlimit:4" d="M226.168 85.662V39.178m-5.695 46.484V39.178m-11.397 46.484V39.178m-5.694 46.484V39.178m11.393 46.484V39.178m8.544 46.484V39.178m-5.695 46.484V39.178m-5.699 46.484V39.178m-5.695 46.484V39.178" transform="matrix(.99807 0 0 -.99807 0 314.848)"/><g clip-path="url(#bw)"><path style="fill:none;stroke-width:2.4;stroke-linecap:square;stroke-linejoin:round;stroke:#696969;stroke-opacity:1;stroke-miterlimit:4" d="M203.382 1.202v46.48" transform="matrix(.99807 0 0 -.99807 0 314.848)"/></g><g clip-path="url(#bx)"><path style="fill:none;stroke-width:2.4;stroke-linecap:square;stroke-linejoin:round;stroke:#696969;stroke-opacity:1;stroke-miterlimit:4" d="M209.076 1.202v46.48" transform="matrix(.99807 0 0 -.99807 0 314.848)"/></g><g clip-path="url(#by)"><path style="fill:none;stroke-width:2.4;stroke-linecap:square;stroke-linejoin:round;stroke:#696969;stroke-opacity:1;stroke-miterlimit:4" d="M220.473 1.202v46.48" transform="matrix(.99807 0 0 -.99807 0 314.848)"/></g><g clip-path="url(#bz)"><path style="fill:none;stroke-width:2.4;stroke-linecap:square;stroke-linejoin:round;stroke:#696969;stroke-opacity:1;stroke-miterlimit:4" d="M226.168 1.202v46.48" transform="matrix(.99807 0 0 -.99807 0 314.848)"/></g><g clip-path="url(#bA)"><path style="fill:none;stroke-width:2.4;stroke-linecap:square;stroke-linejoin:round;stroke:#696969;stroke-opacity:1;stroke-miterlimit:4" d="M214.775 1.202v46.48" transform="matrix(.99807 0 0 -.99807 0 314.848)"/></g><g clip-path="url(#bB)"><path style="fill:none;stroke-width:2.4;stroke-linecap:square;stroke-linejoin:round;stroke:#696969;stroke-opacity:1;stroke-miterlimit:4" d="M206.23 1.202v46.48" transform="matrix(.99807 0 0 -.99807 0 314.848)"/></g><g clip-path="url(#bC)"><path style="fill:none;stroke-width:2.4;stroke-linecap:square;stroke-linejoin:round;stroke:#696969;stroke-opacity:1;stroke-miterlimit:4" d="M211.925 1.202v46.48" transform="matrix(.99807 0 0 -.99807 0 314.848)"/></g><g clip-path="url(#bD)"><path style="fill:none;stroke-width:2.4;stroke-linecap:square;stroke-linejoin:round;stroke:#696969;stroke-opacity:1;stroke-miterlimit:4" d="M217.624 1.202v46.48" transform="matrix(.99807 0 0 -.99807 0 314.848)"/></g><g clip-path="url(#bE)"><path style="fill:none;stroke-width:2.4;stroke-linecap:square;stroke-linejoin:round;stroke:#696969;stroke-opacity:1;stroke-miterlimit:4" d="M223.319 1.202v46.48" transform="matrix(.99807 0 0 -.99807 0 314.848)"/></g><path style="fill:none;stroke-width:2.4;stroke-linecap:square;stroke-linejoin:round;stroke:#87cefa;stroke-opacity:1;stroke-miterlimit:4" d="M302.386-238.015v46.48m-5.695-46.48v46.48m-11.393-46.48v46.48m-5.694-46.48v46.48m11.393-46.48v46.48m8.543-46.48v46.48m-5.694-46.48v46.48m-5.702-46.48v46.48m-5.695-46.48v46.48m19.937-8.195v46.484m-5.695-46.484v46.484m-11.393-46.484v46.484m-5.694-46.484v46.484m11.393-46.484v46.484m8.543-46.484v46.484m-5.694-46.484v46.484m-5.702-46.484v46.484m-5.695-46.484v46.484" transform="matrix(0 .99807 -.99807 0 0 .023)"/><g clip-path="url(#bF)"><path style="fill:none;stroke-width:2.4;stroke-linecap:square;stroke-linejoin:round;stroke:#696969;stroke-opacity:1;stroke-miterlimit:4" d="M165.097 1.202v46.48" transform="matrix(.99807 0 0 -.99807 0 314.848)"/></g><g clip-path="url(#bG)"><path style="fill:none;stroke-width:2.4;stroke-linecap:square;stroke-linejoin:round;stroke:#696969;stroke-opacity:1;stroke-miterlimit:4" d="M170.791 1.202v46.48" transform="matrix(.99807 0 0 -.99807 0 314.848)"/></g><g clip-path="url(#bH)"><path style="fill:none;stroke-width:2.4;stroke-linecap:square;stroke-linejoin:round;stroke:#696969;stroke-opacity:1;stroke-miterlimit:4" d="M182.184 1.202v46.48" transform="matrix(.99807 0 0 -.99807 0 314.848)"/></g><g clip-path="url(#bI)"><path style="fill:none;stroke-width:2.4;stroke-linecap:square;stroke-linejoin:round;stroke:#696969;stroke-opacity:1;stroke-miterlimit:4" d="M187.883 1.202v46.48" transform="matrix(.99807 0 0 -.99807 0 314.848)"/></g><g clip-path="url(#bJ)"><path style="fill:none;stroke-width:2.4;stroke-linecap:square;stroke-linejoin:round;stroke:#696969;stroke-opacity:1;stroke-miterlimit:4" d="M176.49 1.202v46.48" transform="matrix(.99807 0 0 -.99807 0 314.848)"/></g><g clip-path="url(#bK)"><path style="fill:none;stroke-width:2.4;stroke-linecap:square;stroke-linejoin:round;stroke:#696969;stroke-opacity:1;stroke-miterlimit:4" d="M167.946 1.202v46.48" transform="matrix(.99807 0 0 -.99807 0 314.848)"/></g><g clip-path="url(#bL)"><path style="fill:none;stroke-width:2.4;stroke-linecap:square;stroke-linejoin:round;stroke:#696969;stroke-opacity:1;stroke-miterlimit:4" d="M173.64 1.202v46.48" transform="matrix(.99807 0 0 -.99807 0 314.848)"/></g><g clip-path="url(#bM)"><path style="fill:none;stroke-width:2.4;stroke-linecap:square;stroke-linejoin:round;stroke:#696969;stroke-opacity:1;stroke-miterlimit:4" d="M179.335 1.202v46.48" transform="matrix(.99807 0 0 -.99807 0 314.848)"/></g><g clip-path="url(#bN)"><path style="fill:none;stroke-width:2.4;stroke-linecap:square;stroke-linejoin:round;stroke:#696969;stroke-opacity:1;stroke-miterlimit:4" d="M185.034 1.202v46.48" transform="matrix(.99807 0 0 -.99807 0 314.848)"/></g><g clip-path="url(#bO)"><path style="fill:none;stroke-width:2.4;stroke-linecap:square;stroke-linejoin:round;stroke:#696969;stroke-opacity:1;stroke-miterlimit:4" d="M187.883 314.237v-46.484" transform="matrix(.99807 0 0 -.99807 0 314.848)"/></g><g clip-path="url(#bP)"><path style="fill:none;stroke-width:2.4;stroke-linecap:square;stroke-linejoin:round;stroke:#696969;stroke-opacity:1;stroke-miterlimit:4" d="M182.184 314.237v-46.484" transform="matrix(.99807 0 0 -.99807 0 314.848)"/></g><g clip-path="url(#bQ)"><path style="fill:none;stroke-width:2.4;stroke-linecap:square;stroke-linejoin:round;stroke:#696969;stroke-opacity:1;stroke-miterlimit:4" d="M170.791 314.237v-46.484" transform="matrix(.99807 0 0 -.99807 0 314.848)"/></g><g clip-path="url(#bR)"><path style="fill:none;stroke-width:2.4;stroke-linecap:square;stroke-linejoin:round;stroke:#696969;stroke-opacity:1;stroke-miterlimit:4" d="M165.097 314.237v-46.484" transform="matrix(.99807 0 0 -.99807 0 314.848)"/></g><g clip-path="url(#bS)"><path style="fill:none;stroke-width:2.4;stroke-linecap:square;stroke-linejoin:round;stroke:#696969;stroke-opacity:1;stroke-miterlimit:4" d="M176.49 314.237v-46.484" transform="matrix(.99807 0 0 -.99807 0 314.848)"/></g><g clip-path="url(#bT)"><path style="fill:none;stroke-width:2.4;stroke-linecap:square;stroke-linejoin:round;stroke:#696969;stroke-opacity:1;stroke-miterlimit:4" d="M185.034 314.237v-46.484" transform="matrix(.99807 0 0 -.99807 0 314.848)"/></g><g clip-path="url(#bU)"><path style="fill:none;stroke-width:2.4;stroke-linecap:square;stroke-linejoin:round;stroke:#696969;stroke-opacity:1;stroke-miterlimit:4" d="M179.335 314.237v-46.484" transform="matrix(.99807 0 0 -.99807 0 314.848)"/></g><g clip-path="url(#bV)"><path style="fill:none;stroke-width:2.4;stroke-linecap:square;stroke-linejoin:round;stroke:#696969;stroke-opacity:1;stroke-miterlimit:4" d="M173.64 314.237v-46.484" transform="matrix(.99807 0 0 -.99807 0 314.848)"/></g><g clip-path="url(#bW)"><path style="fill:none;stroke-width:2.4;stroke-linecap:square;stroke-linejoin:round;stroke:#696969;stroke-opacity:1;stroke-miterlimit:4" d="M167.946 314.237v-46.484" transform="matrix(.99807 0 0 -.99807 0 314.848)"/></g><path style="fill:none;stroke-width:2.4;stroke-linecap:square;stroke-linejoin:round;stroke:#87cefa;stroke-opacity:1;stroke-miterlimit:4" d="M-13.05 153.246v46.484m-5.698-46.484v46.484m-11.389-46.484v46.484m-5.694-46.484v46.484m11.389-46.484v46.484m8.544-46.484v46.484m-5.695-46.484v46.484m-5.695-46.484v46.484m-5.694-46.484v46.484m19.932-8.196v46.48m-5.698-46.48v46.48m-11.389-46.48v46.48m-5.694-46.48v46.48m11.389-46.48v46.48m8.544-46.48v46.48m-5.695-46.48v46.48m-5.695-46.48v46.48m-5.694-46.48v46.48" transform="matrix(0 -.99807 .99807 0 0 .023)"/><g clip-path="url(#bX)"><path style="fill:none;stroke-width:2.4;stroke-linecap:square;stroke-linejoin:round;stroke:#696969;stroke-opacity:1;stroke-miterlimit:4" d="M226.168 314.237v-46.484" transform="matrix(.99807 0 0 -.99807 0 314.848)"/></g><g clip-path="url(#bY)"><path style="fill:none;stroke-width:2.4;stroke-linecap:square;stroke-linejoin:round;stroke:#696969;stroke-opacity:1;stroke-miterlimit:4" d="M220.473 314.237v-46.484" transform="matrix(.99807 0 0 -.99807 0 314.848)"/></g><g clip-path="url(#bZ)"><path style="fill:none;stroke-width:2.4;stroke-linecap:square;stroke-linejoin:round;stroke:#696969;stroke-opacity:1;stroke-miterlimit:4" d="M209.076 314.237v-46.484" transform="matrix(.99807 0 0 -.99807 0 314.848)"/></g><g clip-path="url(#ca)"><path style="fill:none;stroke-width:2.4;stroke-linecap:square;stroke-linejoin:round;stroke:#696969;stroke-opacity:1;stroke-miterlimit:4" d="M203.382 314.237v-46.484" transform="matrix(.99807 0 0 -.99807 0 314.848)"/></g><g clip-path="url(#cb)"><path style="fill:none;stroke-width:2.4;stroke-linecap:square;stroke-linejoin:round;stroke:#696969;stroke-opacity:1;stroke-miterlimit:4" d="M214.775 314.237v-46.484" transform="matrix(.99807 0 0 -.99807 0 314.848)"/></g><g clip-path="url(#cc)"><path style="fill:none;stroke-width:2.4;stroke-linecap:square;stroke-linejoin:round;stroke:#696969;stroke-opacity:1;stroke-miterlimit:4" d="M223.319 314.237v-46.484" transform="matrix(.99807 0 0 -.99807 0 314.848)"/></g><g clip-path="url(#cd)"><path style="fill:none;stroke-width:2.4;stroke-linecap:square;stroke-linejoin:round;stroke:#696969;stroke-opacity:1;stroke-miterlimit:4" d="M217.624 314.237v-46.484" transform="matrix(.99807 0 0 -.99807 0 314.848)"/></g><g clip-path="url(#ce)"><path style="fill:none;stroke-width:2.4;stroke-linecap:square;stroke-linejoin:round;stroke:#696969;stroke-opacity:1;stroke-miterlimit:4" d="M211.925 314.237v-46.484" transform="matrix(.99807 0 0 -.99807 0 314.848)"/></g><g clip-path="url(#cf)"><path style="fill:none;stroke-width:2.4;stroke-linecap:square;stroke-linejoin:round;stroke:#696969;stroke-opacity:1;stroke-miterlimit:4" d="M206.23 314.237v-46.484" transform="matrix(.99807 0 0 -.99807 0 314.848)"/></g><path style="fill:none;stroke-width:2.4;stroke-linecap:square;stroke-linejoin:round;stroke:#696969;stroke-opacity:1;stroke-miterlimit:4" d="M203.382 229.773v46.48m5.694-46.48v46.48m11.397-46.48v46.48m5.695-46.48v46.48m-11.393-46.48v46.48m-8.545-46.48v46.48m5.695-46.48v46.48m5.699-46.48v46.48m5.695-46.48v46.48" transform="matrix(.99807 0 0 -.99807 0 314.848)"/><path style="fill:none;stroke-width:2.4;stroke-linecap:square;stroke-linejoin:round;stroke:#87cefa;stroke-opacity:1;stroke-miterlimit:4" d="M73.811-238.015v46.48m-5.694-46.48v46.48m-11.39-46.48v46.48m-5.698-46.48v46.48m11.393-46.48v46.48m8.544-46.48v46.48m-5.695-46.48v46.48m-5.698-46.48v46.48m-5.699-46.48v46.48m19.937-8.195v46.484m-5.694-46.484v46.484m-11.39-46.484v46.484m-5.698-46.484v46.484m11.393-46.484v46.484m8.544-46.484v46.484m-5.695-46.484v46.484m-5.698-46.484v46.484m-5.699-46.484v46.484" transform="matrix(0 .99807 -.99807 0 0 .023)"/><path style="fill:none;stroke-width:2.4;stroke-linecap:square;stroke-linejoin:round;stroke:#696969;stroke-opacity:1;stroke-miterlimit:4" d="M165.097 229.773v46.48m5.694-46.48v46.48m11.393-46.48v46.48m5.699-46.48v46.48m-11.393-46.48v46.48m-8.544-46.48v46.48m5.694-46.48v46.48m5.695-46.48v46.48m5.699-46.48v46.48m79.016-38.026v-46.485m-5.695 46.485v-46.485m-11.389 46.485v-46.485m-5.695 46.485v-46.485m11.389 46.485v-46.485m8.544 46.485v-46.485m-5.694 46.485v-46.485m-5.699 46.485v-46.485m-5.694 46.485v-46.485" transform="matrix(.99807 0 0 -.99807 0 314.848)"/><path style="fill:none;stroke-width:2.4;stroke-linecap:square;stroke-linejoin:round;stroke:#87cefa;stroke-opacity:1;stroke-miterlimit:4" d="M-89.06 229.416v46.485m-5.694-46.485v46.485m-11.389-46.485v46.485m-5.703-46.485v46.485m11.397-46.485v46.485m8.544-46.485v46.485m-5.698-46.485v46.485m-5.695-46.485v46.485m-5.694-46.485v46.485" transform="matrix(0 -.99807 .99807 0 0 .023)"/><g clip-path="url(#cg)"><path style="fill:none;stroke-width:2.4;stroke-linecap:square;stroke-linejoin:round;stroke:#87cefa;stroke-opacity:1;stroke-miterlimit:4" d="M-89.06 267.701v46.489" transform="matrix(0 -.99807 .99807 0 0 .023)"/></g><g clip-path="url(#ch)"><path style="fill:none;stroke-width:2.4;stroke-linecap:square;stroke-linejoin:round;stroke:#87cefa;stroke-opacity:1;stroke-miterlimit:4" d="M-94.754 267.701v46.489" transform="matrix(0 -.99807 .99807 0 0 .023)"/></g><g clip-path="url(#ci)"><path style="fill:none;stroke-width:2.4;stroke-linecap:square;stroke-linejoin:round;stroke:#87cefa;stroke-opacity:1;stroke-miterlimit:4" d="M-106.143 267.701v46.489" transform="matrix(0 -.99807 .99807 0 0 .023)"/></g><g clip-path="url(#cj)"><path style="fill:none;stroke-width:2.4;stroke-linecap:square;stroke-linejoin:round;stroke:#87cefa;stroke-opacity:1;stroke-miterlimit:4" d="M-111.846 267.701v46.489" transform="matrix(0 -.99807 .99807 0 0 .023)"/></g><g clip-path="url(#ck)"><path style="fill:none;stroke-width:2.4;stroke-linecap:square;stroke-linejoin:round;stroke:#87cefa;stroke-opacity:1;stroke-miterlimit:4" d="M-100.449 267.701v46.489" transform="matrix(0 -.99807 .99807 0 0 .023)"/></g><g clip-path="url(#cl)"><path style="fill:none;stroke-width:2.4;stroke-linecap:square;stroke-linejoin:round;stroke:#87cefa;stroke-opacity:1;stroke-miterlimit:4" d="M-91.905 267.701v46.489" transform="matrix(0 -.99807 .99807 0 0 .023)"/></g><g clip-path="url(#cm)"><path style="fill:none;stroke-width:2.4;stroke-linecap:square;stroke-linejoin:round;stroke:#87cefa;stroke-opacity:1;stroke-miterlimit:4" d="M-97.603 267.701v46.489" transform="matrix(0 -.99807 .99807 0 0 .023)"/></g><g clip-path="url(#cn)"><path style="fill:none;stroke-width:2.4;stroke-linecap:square;stroke-linejoin:round;stroke:#87cefa;stroke-opacity:1;stroke-miterlimit:4" d="M-103.298 267.701v46.489" transform="matrix(0 -.99807 .99807 0 0 .023)"/></g><g clip-path="url(#co)"><path style="fill:none;stroke-width:2.4;stroke-linecap:square;stroke-linejoin:round;stroke:#87cefa;stroke-opacity:1;stroke-miterlimit:4" d="M-108.992 267.701v46.489" transform="matrix(0 -.99807 .99807 0 0 .023)"/></g><path style="fill:none;stroke-width:2.4;stroke-linecap:square;stroke-linejoin:round;stroke:#696969;stroke-opacity:1;stroke-miterlimit:4" d="M302.338 238.227v-46.485m-5.698 46.485v-46.485m-11.39 46.485v-46.485m-5.694 46.485v-46.485m11.389 46.485v-46.485m8.548 46.485v-46.485m-5.698 46.485v-46.485m-5.699 46.485v-46.485m-5.695 46.485v-46.485m-2.845-37.979v46.484m5.694-46.484v46.484m11.39-46.484v46.484m5.698-46.484v46.484m-11.393-46.484v46.484m-8.544-46.484v46.484m5.695-46.484v46.484m5.699-46.484v46.484m5.698-46.484v46.484" transform="matrix(.99807 0 0 -.99807 0 314.848)"/><g clip-path="url(#cp)"><path style="fill:none;stroke-width:2.4;stroke-linecap:square;stroke-linejoin:round;stroke:#87cefa;stroke-opacity:1;stroke-miterlimit:4" d="M149.821-314.19v46.489" transform="matrix(0 .99807 -.99807 0 0 .023)"/></g><g clip-path="url(#cq)"><path style="fill:none;stroke-width:2.4;stroke-linecap:square;stroke-linejoin:round;stroke:#87cefa;stroke-opacity:1;stroke-miterlimit:4" d="M144.127-314.19v46.489" transform="matrix(0 .99807 -.99807 0 0 .023)"/></g><g clip-path="url(#cr)"><path style="fill:none;stroke-width:2.4;stroke-linecap:square;stroke-linejoin:round;stroke:#87cefa;stroke-opacity:1;stroke-miterlimit:4" d="M132.734-314.19v46.489" transform="matrix(0 .99807 -.99807 0 0 .023)"/></g><g clip-path="url(#cs)"><path style="fill:none;stroke-width:2.4;stroke-linecap:square;stroke-linejoin:round;stroke:#87cefa;stroke-opacity:1;stroke-miterlimit:4" d="M127.039-314.19v46.489" transform="matrix(0 .99807 -.99807 0 0 .023)"/></g><g clip-path="url(#ct)"><path style="fill:none;stroke-width:2.4;stroke-linecap:square;stroke-linejoin:round;stroke:#87cefa;stroke-opacity:1;stroke-miterlimit:4" d="M138.428-314.19v46.489" transform="matrix(0 .99807 -.99807 0 0 .023)"/></g><g clip-path="url(#cu)"><path style="fill:none;stroke-width:2.4;stroke-linecap:square;stroke-linejoin:round;stroke:#87cefa;stroke-opacity:1;stroke-miterlimit:4" d="M146.972-314.19v46.489" transform="matrix(0 .99807 -.99807 0 0 .023)"/></g><g clip-path="url(#cv)"><path style="fill:none;stroke-width:2.4;stroke-linecap:square;stroke-linejoin:round;stroke:#87cefa;stroke-opacity:1;stroke-miterlimit:4" d="M141.278-314.19v46.489" transform="matrix(0 .99807 -.99807 0 0 .023)"/></g><g clip-path="url(#cw)"><path style="fill:none;stroke-width:2.4;stroke-linecap:square;stroke-linejoin:round;stroke:#87cefa;stroke-opacity:1;stroke-miterlimit:4" d="M135.583-314.19v46.489" transform="matrix(0 .99807 -.99807 0 0 .023)"/></g><g clip-path="url(#cx)"><path style="fill:none;stroke-width:2.4;stroke-linecap:square;stroke-linejoin:round;stroke:#87cefa;stroke-opacity:1;stroke-miterlimit:4" d="M129.888-314.19v46.489" transform="matrix(0 .99807 -.99807 0 0 .023)"/></g><path style="fill:none;stroke-width:2.4;stroke-linecap:square;stroke-linejoin:round;stroke:#87cefa;stroke-opacity:1;stroke-miterlimit:4" d="M149.821-275.9v46.484m-5.694-46.484v46.484M132.734-275.9v46.484m-5.695-46.484v46.484m11.389-46.484v46.484m8.544-46.484v46.484m-5.694-46.484v46.484m-5.695-46.484v46.484m-5.695-46.484v46.484" transform="matrix(0 .99807 -.99807 0 0 .023)"/><path style="fill:none;stroke-width:2.4;stroke-linecap:square;stroke-linejoin:round;stroke:#696969;stroke-opacity:1;stroke-miterlimit:4" d="M241.271 153.763v46.484m5.695-46.484v46.484m11.389-46.484v46.484m5.695-46.484v46.484m-11.39-46.484v46.484m-8.543-46.484v46.484m5.694-46.484v46.484m5.699-46.484v46.484m5.694-46.484v46.484" transform="matrix(.99807 0 0 -.99807 0 314.848)"/><g clip-path="url(#cy)"><path style="fill:none;stroke-width:2.4;stroke-linecap:square;stroke-linejoin:round;stroke:#696969;stroke-opacity:1;stroke-miterlimit:4" d="M264.05 314.237v-46.484" transform="matrix(.99807 0 0 -.99807 0 314.848)"/></g><g clip-path="url(#cz)"><path style="fill:none;stroke-width:2.4;stroke-linecap:square;stroke-linejoin:round;stroke:#696969;stroke-opacity:1;stroke-miterlimit:4" d="M258.355 314.237v-46.484" transform="matrix(.99807 0 0 -.99807 0 314.848)"/></g><g clip-path="url(#cA)"><path style="fill:none;stroke-width:2.4;stroke-linecap:square;stroke-linejoin:round;stroke:#696969;stroke-opacity:1;stroke-miterlimit:4" d="M246.966 314.237v-46.484" transform="matrix(.99807 0 0 -.99807 0 314.848)"/></g><g clip-path="url(#cB)"><path style="fill:none;stroke-width:2.4;stroke-linecap:square;stroke-linejoin:round;stroke:#696969;stroke-opacity:1;stroke-miterlimit:4" d="M241.271 314.237v-46.484" transform="matrix(.99807 0 0 -.99807 0 314.848)"/></g><g clip-path="url(#cC)"><path style="fill:none;stroke-width:2.4;stroke-linecap:square;stroke-linejoin:round;stroke:#696969;stroke-opacity:1;stroke-miterlimit:4" d="M252.66 314.237v-46.484" transform="matrix(.99807 0 0 -.99807 0 314.848)"/></g><g clip-path="url(#cD)"><path style="fill:none;stroke-width:2.4;stroke-linecap:square;stroke-linejoin:round;stroke:#696969;stroke-opacity:1;stroke-miterlimit:4" d="M261.204 314.237v-46.484" transform="matrix(.99807 0 0 -.99807 0 314.848)"/></g><g clip-path="url(#cE)"><path style="fill:none;stroke-width:2.4;stroke-linecap:square;stroke-linejoin:round;stroke:#696969;stroke-opacity:1;stroke-miterlimit:4" d="M255.51 314.237v-46.484" transform="matrix(.99807 0 0 -.99807 0 314.848)"/></g><g clip-path="url(#cF)"><path style="fill:none;stroke-width:2.4;stroke-linecap:square;stroke-linejoin:round;stroke:#696969;stroke-opacity:1;stroke-miterlimit:4" d="M249.811 314.237v-46.484" transform="matrix(.99807 0 0 -.99807 0 314.848)"/></g><g clip-path="url(#cG)"><path style="fill:none;stroke-width:2.4;stroke-linecap:square;stroke-linejoin:round;stroke:#696969;stroke-opacity:1;stroke-miterlimit:4" d="M244.117 314.237v-46.484" transform="matrix(.99807 0 0 -.99807 0 314.848)"/></g><path style="fill:none;stroke-width:2.4;stroke-linecap:square;stroke-linejoin:round;stroke:#87cefa;stroke-opacity:1;stroke-miterlimit:4" d="M-13.05 229.416v46.485m-5.698-46.485v46.485m-11.389-46.485v46.485m-5.694-46.485v46.485m11.389-46.485v46.485m8.544-46.485v46.485m-5.695-46.485v46.485m-5.695-46.485v46.485m-5.694-46.485v46.485" transform="matrix(0 -.99807 .99807 0 0 .023)"/><g clip-path="url(#cH)"><path style="fill:none;stroke-width:2.4;stroke-linecap:square;stroke-linejoin:round;stroke:#87cefa;stroke-opacity:1;stroke-miterlimit:4" d="M-13.05 267.701v46.489" transform="matrix(0 -.99807 .99807 0 0 .023)"/></g><g clip-path="url(#cI)"><path style="fill:none;stroke-width:2.4;stroke-linecap:square;stroke-linejoin:round;stroke:#87cefa;stroke-opacity:1;stroke-miterlimit:4" d="M-18.748 267.701v46.489" transform="matrix(0 -.99807 .99807 0 0 .023)"/></g><g clip-path="url(#cJ)"><path style="fill:none;stroke-width:2.4;stroke-linecap:square;stroke-linejoin:round;stroke:#87cefa;stroke-opacity:1;stroke-miterlimit:4" d="M-30.137 267.701v46.489" transform="matrix(0 -.99807 .99807 0 0 .023)"/></g><g clip-path="url(#cK)"><path style="fill:none;stroke-width:2.4;stroke-linecap:square;stroke-linejoin:round;stroke:#87cefa;stroke-opacity:1;stroke-miterlimit:4" d="M-35.831 267.701v46.489" transform="matrix(0 -.99807 .99807 0 0 .023)"/></g><g clip-path="url(#cL)"><path style="fill:none;stroke-width:2.4;stroke-linecap:square;stroke-linejoin:round;stroke:#87cefa;stroke-opacity:1;stroke-miterlimit:4" d="M-24.442 267.701v46.489" transform="matrix(0 -.99807 .99807 0 0 .023)"/></g><g clip-path="url(#cM)"><path style="fill:none;stroke-width:2.4;stroke-linecap:square;stroke-linejoin:round;stroke:#87cefa;stroke-opacity:1;stroke-miterlimit:4" d="M-15.898 267.701v46.489" transform="matrix(0 -.99807 .99807 0 0 .023)"/></g><g clip-path="url(#cN)"><path style="fill:none;stroke-width:2.4;stroke-linecap:square;stroke-linejoin:round;stroke:#87cefa;stroke-opacity:1;stroke-miterlimit:4" d="M-21.593 267.701v46.489" transform="matrix(0 -.99807 .99807 0 0 .023)"/></g><g clip-path="url(#cO)"><path style="fill:none;stroke-width:2.4;stroke-linecap:square;stroke-linejoin:round;stroke:#87cefa;stroke-opacity:1;stroke-miterlimit:4" d="M-27.288 267.701v46.489" transform="matrix(0 -.99807 .99807 0 0 .023)"/></g><g clip-path="url(#cP)"><path style="fill:none;stroke-width:2.4;stroke-linecap:square;stroke-linejoin:round;stroke:#87cefa;stroke-opacity:1;stroke-miterlimit:4" d="M-32.982 267.701v46.489" transform="matrix(0 -.99807 .99807 0 0 .023)"/></g><g clip-path="url(#cQ)"><path style="fill:none;stroke-width:2.4;stroke-linecap:square;stroke-linejoin:round;stroke:#696969;stroke-opacity:1;stroke-miterlimit:4" d="M302.338 314.237v-46.484" transform="matrix(.99807 0 0 -.99807 0 314.848)"/></g><g clip-path="url(#cR)"><path style="fill:none;stroke-width:2.4;stroke-linecap:square;stroke-linejoin:round;stroke:#696969;stroke-opacity:1;stroke-miterlimit:4" d="M296.64 314.237v-46.484" transform="matrix(.99807 0 0 -.99807 0 314.848)"/></g><g clip-path="url(#cS)"><path style="fill:none;stroke-width:2.4;stroke-linecap:square;stroke-linejoin:round;stroke:#696969;stroke-opacity:1;stroke-miterlimit:4" d="M285.25 314.237v-46.484" transform="matrix(.99807 0 0 -.99807 0 314.848)"/></g><g clip-path="url(#cT)"><path style="fill:none;stroke-width:2.4;stroke-linecap:square;stroke-linejoin:round;stroke:#696969;stroke-opacity:1;stroke-miterlimit:4" d="M279.556 314.237v-46.484" transform="matrix(.99807 0 0 -.99807 0 314.848)"/></g><g clip-path="url(#cU)"><path style="fill:none;stroke-width:2.4;stroke-linecap:square;stroke-linejoin:round;stroke:#696969;stroke-opacity:1;stroke-miterlimit:4" d="M290.945 314.237v-46.484" transform="matrix(.99807 0 0 -.99807 0 314.848)"/></g><g clip-path="url(#cV)"><path style="fill:none;stroke-width:2.4;stroke-linecap:square;stroke-linejoin:round;stroke:#696969;stroke-opacity:1;stroke-miterlimit:4" d="M299.493 314.237v-46.484" transform="matrix(.99807 0 0 -.99807 0 314.848)"/></g><g clip-path="url(#cW)"><path style="fill:none;stroke-width:2.4;stroke-linecap:square;stroke-linejoin:round;stroke:#696969;stroke-opacity:1;stroke-miterlimit:4" d="M293.795 314.237v-46.484" transform="matrix(.99807 0 0 -.99807 0 314.848)"/></g><g clip-path="url(#cX)"><path style="fill:none;stroke-width:2.4;stroke-linecap:square;stroke-linejoin:round;stroke:#696969;stroke-opacity:1;stroke-miterlimit:4" d="M288.096 314.237v-46.484" transform="matrix(.99807 0 0 -.99807 0 314.848)"/></g><g clip-path="url(#cY)"><path style="fill:none;stroke-width:2.4;stroke-linecap:square;stroke-linejoin:round;stroke:#696969;stroke-opacity:1;stroke-miterlimit:4" d="M282.401 314.237v-46.484" transform="matrix(.99807 0 0 -.99807 0 314.848)"/></g><path style="fill:none;stroke-width:2.4;stroke-linecap:square;stroke-linejoin:round;stroke:#696969;stroke-opacity:1;stroke-miterlimit:4" d="M279.556 229.773v46.48m5.694-46.48v46.48m11.39-46.48v46.48m5.698-46.48v46.48m-11.393-46.48v46.48m-8.544-46.48v46.48m5.695-46.48v46.48m5.699-46.48v46.48m5.698-46.48v46.48" transform="matrix(.99807 0 0 -.99807 0 314.848)"/><g clip-path="url(#cZ)"><path style="fill:none;stroke-width:2.4;stroke-linecap:square;stroke-linejoin:round;stroke:#87cefa;stroke-opacity:1;stroke-miterlimit:4" d="M73.811-314.19v46.489" transform="matrix(0 .99807 -.99807 0 0 .023)"/></g><g clip-path="url(#da)"><path style="fill:none;stroke-width:2.4;stroke-linecap:square;stroke-linejoin:round;stroke:#87cefa;stroke-opacity:1;stroke-miterlimit:4" d="M68.117-314.19v46.489" transform="matrix(0 .99807 -.99807 0 0 .023)"/></g><g clip-path="url(#db)"><path style="fill:none;stroke-width:2.4;stroke-linecap:square;stroke-linejoin:round;stroke:#87cefa;stroke-opacity:1;stroke-miterlimit:4" d="M56.727-314.19v46.489" transform="matrix(0 .99807 -.99807 0 0 .023)"/></g><g clip-path="url(#dc)"><path style="fill:none;stroke-width:2.4;stroke-linecap:square;stroke-linejoin:round;stroke:#87cefa;stroke-opacity:1;stroke-miterlimit:4" d="M51.029-314.19v46.489" transform="matrix(0 .99807 -.99807 0 0 .023)"/></g><g clip-path="url(#dd)"><path style="fill:none;stroke-width:2.4;stroke-linecap:square;stroke-linejoin:round;stroke:#87cefa;stroke-opacity:1;stroke-miterlimit:4" d="M62.422-314.19v46.489" transform="matrix(0 .99807 -.99807 0 0 .023)"/></g><g clip-path="url(#de)"><path style="fill:none;stroke-width:2.4;stroke-linecap:square;stroke-linejoin:round;stroke:#87cefa;stroke-opacity:1;stroke-miterlimit:4" d="M70.966-314.19v46.489" transform="matrix(0 .99807 -.99807 0 0 .023)"/></g><g clip-path="url(#df)"><path style="fill:none;stroke-width:2.4;stroke-linecap:square;stroke-linejoin:round;stroke:#87cefa;stroke-opacity:1;stroke-miterlimit:4" d="M65.271-314.19v46.489" transform="matrix(0 .99807 -.99807 0 0 .023)"/></g><g clip-path="url(#dg)"><path style="fill:none;stroke-width:2.4;stroke-linecap:square;stroke-linejoin:round;stroke:#87cefa;stroke-opacity:1;stroke-miterlimit:4" d="M59.573-314.19v46.489" transform="matrix(0 .99807 -.99807 0 0 .023)"/></g><g clip-path="url(#dh)"><path style="fill:none;stroke-width:2.4;stroke-linecap:square;stroke-linejoin:round;stroke:#87cefa;stroke-opacity:1;stroke-miterlimit:4" d="M53.874-314.19v46.489" transform="matrix(0 .99807 -.99807 0 0 .023)"/></g><path style="fill:none;stroke-width:2.4;stroke-linecap:square;stroke-linejoin:round;stroke:#87cefa;stroke-opacity:1;stroke-miterlimit:4" d="M73.811-275.9v46.484M68.117-275.9v46.484M56.727-275.9v46.484M51.029-275.9v46.484M62.422-275.9v46.484m8.544-46.484v46.484M65.271-275.9v46.484M59.573-275.9v46.484M53.874-275.9v46.484" transform="matrix(0 .99807 -.99807 0 0 .023)"/><path style="fill:none;stroke-width:2.4;stroke-linecap:square;stroke-linejoin:round;stroke:#696969;stroke-opacity:1;stroke-miterlimit:4" d="M241.271 229.773v46.48m5.695-46.48v46.48m11.389-46.48v46.48m5.695-46.48v46.48m-11.39-46.48v46.48m-8.543-46.48v46.48m5.694-46.48v46.48m5.699-46.48v46.48m5.694-46.48v46.48m-73.321-38.026v-46.485m-5.699 46.485v-46.485m-11.393 46.485v-46.485m-5.694 46.485v-46.485m11.393 46.485v-46.485m8.544 46.485v-46.485m-5.699 46.485v-46.485m-5.695 46.485v-46.485m-5.694 46.485v-46.485" transform="matrix(.99807 0 0 -.99807 0 314.848)"/><path style="fill:none;stroke-width:2.4;stroke-linecap:square;stroke-linejoin:round;stroke:#87cefa;stroke-opacity:1;stroke-miterlimit:4" d="M-89.06 153.246v46.484m-5.694-46.484v46.484m-11.389-46.484v46.484m-5.703-46.484v46.484m11.397-46.484v46.484m8.544-46.484v46.484m-5.698-46.484v46.484m-5.695-46.484v46.484m-5.694-46.484v46.484m19.932-8.196v46.48m-5.694-46.48v46.48m-11.389-46.48v46.48m-5.703-46.48v46.48m11.397-46.48v46.48m8.544-46.48v46.48m-5.698-46.48v46.48m-5.695-46.48v46.48m-5.694-46.48v46.48" transform="matrix(0 -.99807 .99807 0 0 .023)"/><path style="fill:none;stroke-width:2.4;stroke-linecap:square;stroke-linejoin:round;stroke:#696969;stroke-opacity:1;stroke-miterlimit:4" d="M226.168 238.227v-46.485m-5.695 46.485v-46.485m-11.397 46.485v-46.485m-5.694 46.485v-46.485m11.393 46.485v-46.485m8.544 46.485v-46.485m-5.695 46.485v-46.485m-5.699 46.485v-46.485m-5.695 46.485v-46.485m-2.848-37.979v46.484m5.694-46.484v46.484m11.397-46.484v46.484m5.695-46.484v46.484m-11.393-46.484v46.484m-8.545-46.484v46.484m5.695-46.484v46.484m5.699-46.484v46.484m5.695-46.484v46.484" transform="matrix(.99807 0 0 -.99807 0 314.848)"/><path style="fill:none;stroke-width:2.4;stroke-linecap:square;stroke-linejoin:round;stroke:#87cefa;stroke-opacity:1;stroke-miterlimit:4" d="M149.821-238.015v46.48m-5.694-46.48v46.48m-11.393-46.48v46.48m-5.695-46.48v46.48m11.389-46.48v46.48m8.544-46.48v46.48m-5.694-46.48v46.48m-5.695-46.48v46.48m-5.695-46.48v46.48m19.933-8.195v46.484m-5.694-46.484v46.484m-11.393-46.484v46.484m-5.695-46.484v46.484m11.389-46.484v46.484m8.544-46.484v46.484m-5.694-46.484v46.484m-5.695-46.484v46.484m-5.695-46.484v46.484" transform="matrix(0 .99807 -.99807 0 0 .023)"/><path style="fill:none;stroke-width:2.4;stroke-linecap:square;stroke-linejoin:round;stroke:#696969;stroke-opacity:1;stroke-miterlimit:4" d="M165.097 153.763v46.484m5.694-46.484v46.484m11.393-46.484v46.484m5.699-46.484v46.484m-11.393-46.484v46.484m-8.544-46.484v46.484m5.694-46.484v46.484m5.695-46.484v46.484m5.699-46.484v46.484" transform="matrix(.99807 0 0 -.99807 0 314.848)"/></svg>