<svg xmlns="http://www.w3.org/2000/svg" xmlns:xlink="http://www.w3.org/1999/xlink" width="1326.914" height="249.718" viewBox="0 0 995.186 187.288" version="1.2"><defs><clipPath id="R"><path d="M879 125h91v61.578h-91zm0 0"/></clipPath><clipPath id="v"><path d="M400 162.656h42.8v15.668H400zm0 0"/></clipPath><clipPath id="Y"><path d="M915 69h77.895v117.578H915zm0 0"/></clipPath><clipPath id="X"><path d="M879 69h91v117.578h-91zm0 0"/></clipPath><clipPath id="W"><path d="M848 63h80v123.578h-80zm0 0"/></clipPath><clipPath id="V"><path d="M811 63h81v123.578h-81zm0 0"/></clipPath><clipPath id="U"><path d="M758 69h103v117.578H758zm0 0"/></clipPath><clipPath id="T"><path d="M915 41h77.895v78H915zm0 0"/></clipPath><clipPath id="S"><path d="M915 13h77.895v134H915zm0 0"/></clipPath><clipPath id="a"><path d="M1.477 13H78v106H1.477zm0 0"/></clipPath><clipPath id="b"><path d="M1.477 41H78v106H1.477zm0 0"/></clipPath><clipPath id="c"><path d="M1.477 69H78v106H1.477zm0 0"/></clipPath><clipPath id="d"><path d="M1.477 97H78v89.578H1.477zm0 0"/></clipPath><clipPath id="e"><path d="M23 97h91v89.578H23zm0 0"/></clipPath><clipPath id="f"><path d="M60 97h91v89.578H60zm0 0"/></clipPath><clipPath id="g"><path d="M96 97h91v89.578H96zm0 0"/></clipPath><clipPath id="h"><path d="M132 97h101v89.578H132zm0 0"/></clipPath><clipPath id="i"><path d="M1.477 13H78v78H1.477zm0 0"/></clipPath><clipPath id="j"><path d="M132 125h101v61.578H132zm0 0"/></clipPath><clipPath id="k"><path d="M1.477 125H78v61.578H1.477zm0 0"/></clipPath><clipPath id="l"><path d="M23 125h91v61.578H23zm0 0"/></clipPath><clipPath id="m"><path d="M60 125h91v61.578H60zm0 0"/></clipPath><clipPath id="n"><path d="M96 125h91v61.578H96zm0 0"/></clipPath><clipPath id="o"><path d="M289.383 38h42.84v15.965h-42.84zm0 0"/></clipPath><clipPath id="p"><path d="M289.383 162.656h42.84v15.668h-42.84zm0 0"/></clipPath><clipPath id="q"><path d="M326.242 38H369v15.965h-42.758zm0 0"/></clipPath><clipPath id="r"><path d="M326.242 162.656H369v15.668h-42.758zm0 0"/></clipPath><clipPath id="s"><path d="M363 38h42.941v15.965H363zm0 0"/></clipPath><clipPath id="t"><path d="M363 162.656h42.941v15.668H363zm0 0"/></clipPath><clipPath id="u"><path d="M400 38h42.8v15.965H400zm0 0"/></clipPath><clipPath id="Z"><path d="M915 97h77.895v78H915zm0 0"/></clipPath><clipPath id="w"><path d="M436 38h43.66v16.047H436zm0 0"/></clipPath><clipPath id="x"><path d="M436 162.742h43.66v15.582H436zm0 0"/></clipPath><clipPath id="y"><path d="M252.523 38h42.84v15.766h-42.84zm0 0"/></clipPath><clipPath id="z"><path d="M252.523 162.46h42.84V178h-42.84zm0 0"/></clipPath><clipPath id="A"><path d="M473 51h6v135.578h-6zm0 0"/></clipPath><clipPath id="B"><path d="M447 119h66v67.578h-66zm0 0"/></clipPath><clipPath id="C"><path d="M497 69h103v117.578H497zm0 0"/></clipPath><clipPath id="D"><path d="M550 63h81v123.578h-81zm0 0"/></clipPath><clipPath id="E"><path d="M587 63h80v123.578h-80zm0 0"/></clipPath><clipPath id="F"><path d="M618 69h91v117.578h-91zm0 0"/></clipPath><clipPath id="G"><path d="M654 69h103v117.578H654zm0 0"/></clipPath><clipPath id="H"><path d="M497 69h103v117.578H497zm0 0"/></clipPath><clipPath id="I"><path d="M550 62h81v124.578h-81zm0 0"/></clipPath><clipPath id="J"><path d="M587 62h80v124.578h-80zm0 0"/></clipPath><clipPath id="K"><path d="M618 69h91v117.578h-91zm0 0"/></clipPath><clipPath id="L"><path d="M654 69h103v117.578H654zm0 0"/></clipPath><clipPath id="M"><path d="M915 13h77.895v78H915zm0 0"/></clipPath><clipPath id="N"><path d="M915 125h77.895v61.578H915zm0 0"/></clipPath><clipPath id="O"><path d="M759 125h102v61.578H759zm0 0"/></clipPath><clipPath id="P"><path d="M806 125h92v61.578h-92zm0 0"/></clipPath><clipPath id="Q"><path d="M843 125h91v61.578h-91zm0 0"/></clipPath><symbol overflow="visible" id="ab"><path style="stroke:none" d="M9.172-10.328a2.507 2.507 0 0 0-.735-.281 3.78 3.78 0 0 0-.874-.094c-1.137 0-2.008.371-2.61 1.11-.605.73-.906 1.788-.906 3.171V0H2.03v-12.203h2.016v1.89c.414-.738.96-1.285 1.64-1.64.676-.363 1.5-.547 2.47-.547.132 0 .284.012.452.031.164.024.348.047.547.078zm0 0"/></symbol><symbol overflow="visible" id="ai"><path style="stroke:none" d="M12.25-7.36V0h-2.016v-7.297c0-1.156-.226-2.02-.671-2.594-.45-.57-1.122-.859-2.016-.859-1.086 0-1.938.344-2.563 1.031-.625.688-.937 1.633-.937 2.828V0H2.03v-12.203h2.016v1.89c.476-.726 1.039-1.273 1.687-1.64.657-.363 1.407-.547 2.25-.547 1.407 0 2.47.438 3.188 1.313.719.867 1.078 2.14 1.078 3.828zm0 0"/></symbol><symbol overflow="visible" id="ah"><path style="stroke:none" d="M2.11-12.203h2V0h-2zm1-.297zm-.813-5.344h1.625l2.656 4.094h-1.5L3.11-16.422 1.141-13.75h-1.5zm0 0"/></symbol><symbol overflow="visible" id="ag"><path style="stroke:none" d="M12.25-7.36V0h-2.016v-7.297c0-1.156-.226-2.02-.671-2.594-.45-.57-1.122-.859-2.016-.859-1.086 0-1.938.344-2.563 1.031-.625.688-.937 1.633-.937 2.828V0H2.03v-16.953h2.016v6.64c.476-.726 1.039-1.273 1.687-1.64.657-.363 1.407-.547 2.25-.547 1.407 0 2.47.438 3.188 1.313.719.867 1.078 2.14 1.078 3.828zm0 0"/></symbol><symbol overflow="visible" id="af"><path style="stroke:none" d="M10.89-11.734v1.875a8.052 8.052 0 0 0-1.718-.704 6.4 6.4 0 0 0-1.719-.234c-1.305 0-2.312.414-3.031 1.235-.719.824-1.078 1.98-1.078 3.468 0 1.492.36 2.649 1.078 3.469.719.824 1.726 1.234 3.031 1.234a6.4 6.4 0 0 0 1.719-.234 8.052 8.052 0 0 0 1.719-.703v1.86a7.996 7.996 0 0 1-1.75.577 8.723 8.723 0 0 1-1.907.204c-1.836 0-3.293-.579-4.375-1.735-1.086-1.156-1.625-2.71-1.625-4.672 0-1.988.547-3.55 1.641-4.687C3.969-11.926 5.461-12.5 7.359-12.5c.625 0 1.227.07 1.813.203a8.35 8.35 0 0 1 1.719.563zm0 0"/></symbol><symbol overflow="visible" id="ae"><path style="stroke:none" d="M12.547-6.61v.985H3.328c.082 1.387.492 2.438 1.235 3.156.75.719 1.789 1.078 3.125 1.078.757 0 1.5-.093 2.218-.28a10.219 10.219 0 0 0 2.172-.845v1.891a11.263 11.263 0 0 1-4.515.938c-1.95 0-3.493-.563-4.625-1.688C1.8-2.508 1.234-4.047 1.234-5.985c0-2 .536-3.581 1.61-4.75C3.926-11.91 5.383-12.5 7.219-12.5c1.633 0 2.93.531 3.89 1.594.957 1.054 1.438 2.484 1.438 4.297zm-2.016-.577c-.011-1.094-.32-1.97-.922-2.625-.593-.657-1.386-.985-2.375-.985-1.117 0-2.011.32-2.687.953-.668.625-1.055 1.516-1.156 2.672zm0 0"/></symbol><symbol overflow="visible" id="ad"><path style="stroke:none" d="M11.61-9.86c.5-.894 1.097-1.554 1.796-1.984.696-.437 1.516-.656 2.453-.656 1.27 0 2.25.45 2.938 1.344.695.886 1.047 2.152 1.047 3.797V0h-2.016v-7.297c0-1.164-.21-2.031-.625-2.594-.418-.57-1.047-.859-1.89-.859-1.043 0-1.868.344-2.47 1.031-.605.688-.905 1.633-.905 2.828V0H9.921v-7.297c0-1.176-.211-2.047-.625-2.61-.406-.562-1.043-.843-1.906-.843-1.032 0-1.852.352-2.454 1.047-.593.687-.89 1.625-.89 2.812V0H2.03v-12.203h2.016v1.89c.457-.738 1.004-1.285 1.64-1.64.633-.363 1.395-.547 2.282-.547.883 0 1.633.23 2.25.688.625.449 1.086 1.101 1.39 1.953zm0 0"/></symbol><symbol overflow="visible" id="ac"><path style="stroke:none" d="M7.64-6.14c-1.617 0-2.734.187-3.359.562-.625.375-.937 1.008-.937 1.89 0 .72.234 1.29.703 1.704.469.418 1.101.625 1.906.625 1.113 0 2.004-.391 2.672-1.172.676-.79 1.016-1.844 1.016-3.156v-.454zm4-.829V0h-2v-1.86c-.46.75-1.03 1.305-1.718 1.657-.68.344-1.512.516-2.5.516-1.25 0-2.246-.348-2.984-1.047-.731-.696-1.094-1.633-1.094-2.813 0-1.375.457-2.41 1.375-3.11.914-.695 2.285-1.046 4.11-1.046H9.64v-.203c0-.914-.305-1.625-.907-2.125-.605-.508-1.46-.766-2.562-.766-.7 0-1.375.086-2.031.25a8.337 8.337 0 0 0-1.907.75v-1.844a12.18 12.18 0 0 1 2.125-.64A9.994 9.994 0 0 1 6.39-12.5c1.757 0 3.07.46 3.937 1.375.875.918 1.313 2.305 1.313 4.156zm0 0"/></symbol><symbol overflow="visible" id="aa"><path style="stroke:none" d="M4.078-15.672v3.469h4.14v1.562h-4.14v6.625c0 .993.133 1.633.406 1.922.282.281.836.422 1.672.422H8.22V0H6.156C4.602 0 3.531-.285 2.938-.86c-.586-.581-.876-1.632-.876-3.156v-6.625H.595v-1.562h1.469v-3.469zm0 0"/></symbol></defs><path style="fill-rule:nonzero;fill:#696969;fill-opacity:1;stroke-width:.32286;stroke-linecap:round;stroke-linejoin:round;stroke:#000;stroke-opacity:1;stroke-miterlimit:4" d="M21.315 52.147c0 4.329-3.613 7.842-8.073 7.842-4.456 0-8.069-3.513-8.069-7.842 0-4.33 3.613-7.843 8.069-7.843 4.46 0 8.073 3.514 8.073 7.843zm74.996 0c0 4.329-3.612 7.842-8.073 7.842-4.46 0-8.068-3.513-8.068-7.842 0-4.33 3.608-7.843 8.068-7.843 4.46 0 8.073 3.514 8.073 7.843zm-37.498 0c0 4.329-3.617 7.842-8.069 7.842-4.46 0-8.077-3.513-8.077-7.842 0-4.33 3.617-7.843 8.077-7.843 4.452 0 8.069 3.514 8.069 7.843zm149.993 0c0 4.329-3.616 7.842-8.073 7.842-4.456 0-8.068-3.513-8.068-7.842 0-4.33 3.612-7.843 8.068-7.843 4.457 0 8.073 3.514 8.073 7.843zm-37.498 0c0 4.329-3.613 7.842-8.069 7.842-4.46 0-8.077-3.513-8.077-7.842 0-4.33 3.617-7.843 8.077-7.843 4.456 0 8.069 3.514 8.069 7.843zm-37.498 0c0 4.329-3.613 7.842-8.073 7.842-4.456 0-8.069-3.513-8.069-7.842 0-4.33 3.613-7.843 8.069-7.843 4.46 0 8.073 3.514 8.073 7.843zM21.315 164.878c0 4.333-3.613 7.846-8.073 7.846-4.456 0-8.069-3.513-8.069-7.846 0-4.329 3.613-7.842 8.069-7.842 4.46 0 8.073 3.513 8.073 7.842zm74.996 0c0 4.333-3.612 7.846-8.073 7.846-4.46 0-8.068-3.513-8.068-7.846 0-4.329 3.608-7.842 8.068-7.842 4.46 0 8.073 3.513 8.073 7.842zm-37.498 0c0 4.333-3.617 7.846-8.069 7.846-4.46 0-8.077-3.513-8.077-7.846 0-4.329 3.617-7.842 8.077-7.842 4.452 0 8.069 3.513 8.069 7.842zm149.993 0c0 4.333-3.616 7.846-8.073 7.846-4.456 0-8.068-3.513-8.068-7.846 0-4.329 3.612-7.842 8.068-7.842 4.457 0 8.073 3.513 8.073 7.842zm-37.498 0c0 4.333-3.613 7.846-8.069 7.846-4.46 0-8.077-3.513-8.077-7.846 0-4.329 3.617-7.842 8.077-7.842 4.456 0 8.069 3.513 8.069 7.842zm-37.498 0c0 4.333-3.613 7.846-8.073 7.846-4.456 0-8.069-3.513-8.069-7.846 0-4.329 3.613-7.842 8.069-7.842 4.46 0 8.073 3.513 8.073 7.842zM21.315 108.516c0 4.33-3.613 7.839-8.073 7.839-4.456 0-8.069-3.51-8.069-7.839 0-4.333 3.613-7.846 8.069-7.846 4.46 0 8.073 3.513 8.073 7.846zm74.996 0c0 4.33-3.612 7.839-8.073 7.839-4.46 0-8.068-3.51-8.068-7.839 0-4.333 3.608-7.846 8.068-7.846 4.46 0 8.073 3.513 8.073 7.846zm-37.498 0c0 4.33-3.617 7.839-8.069 7.839-4.46 0-8.077-3.51-8.077-7.839 0-4.333 3.617-7.846 8.077-7.846 4.452 0 8.069 3.513 8.069 7.846zm149.993 0c0 4.33-3.616 7.839-8.073 7.839-4.456 0-8.068-3.51-8.068-7.839 0-4.333 3.612-7.846 8.068-7.846 4.457 0 8.073 3.513 8.073 7.846zm-37.498 0c0 4.33-3.613 7.839-8.069 7.839-4.46 0-8.077-3.51-8.077-7.839 0-4.333 3.617-7.846 8.077-7.846 4.456 0 8.069 3.513 8.069 7.846zm-37.498 0c0 4.33-3.613 7.839-8.073 7.839-4.456 0-8.069-3.51-8.069-7.839 0-4.333 3.613-7.846 8.069-7.846 4.46 0 8.073 3.513 8.073 7.846zM21.315 80.331c0 4.33-3.613 7.843-8.073 7.843-4.456 0-8.069-3.514-8.069-7.843 0-4.332 3.613-7.842 8.069-7.842 4.46 0 8.073 3.51 8.073 7.842zm74.996 0c0 4.33-3.612 7.843-8.073 7.843-4.46 0-8.068-3.514-8.068-7.843 0-4.332 3.608-7.842 8.068-7.842 4.46 0 8.073 3.51 8.073 7.842zm-37.498 0c0 4.33-3.617 7.843-8.069 7.843-4.46 0-8.077-3.514-8.077-7.843 0-4.332 3.617-7.842 8.077-7.842 4.452 0 8.069 3.51 8.069 7.842zm149.993 0c0 4.33-3.616 7.843-8.073 7.843-4.456 0-8.068-3.514-8.068-7.843 0-4.332 3.612-7.842 8.068-7.842 4.457 0 8.073 3.51 8.073 7.842zm-37.498 0c0 4.33-3.613 7.843-8.069 7.843-4.46 0-8.077-3.514-8.077-7.843 0-4.332 3.617-7.842 8.077-7.842 4.456 0 8.069 3.51 8.069 7.842zm-37.498 0c0 4.33-3.613 7.843-8.073 7.843-4.456 0-8.069-3.514-8.069-7.843 0-4.332 3.613-7.842 8.069-7.842 4.46 0 8.073 3.51 8.073 7.842zM21.315 136.693c0 4.333-3.613 7.842-8.073 7.842-4.456 0-8.069-3.509-8.069-7.842 0-4.325 3.613-7.838 8.069-7.838 4.46 0 8.073 3.513 8.073 7.838zm74.996 0c0 4.333-3.612 7.842-8.073 7.842-4.46 0-8.068-3.509-8.068-7.842 0-4.325 3.608-7.838 8.068-7.838 4.46 0 8.073 3.513 8.073 7.838zm-37.498 0c0 4.333-3.617 7.842-8.069 7.842-4.46 0-8.077-3.509-8.077-7.842 0-4.325 3.617-7.838 8.077-7.838 4.452 0 8.069 3.513 8.069 7.838zm149.993 0c0 4.333-3.616 7.842-8.073 7.842-4.456 0-8.068-3.509-8.068-7.842 0-4.325 3.612-7.838 8.068-7.838 4.457 0 8.073 3.513 8.073 7.838zm-37.498 0c0 4.333-3.613 7.842-8.069 7.842-4.46 0-8.077-3.509-8.077-7.842 0-4.325 3.617-7.838 8.077-7.838 4.456 0 8.069 3.513 8.069 7.838zm-37.498 0c0 4.333-3.613 7.842-8.073 7.842-4.456 0-8.069-3.509-8.069-7.842 0-4.325 3.613-7.838 8.069-7.838 4.46 0 8.073 3.513 8.073 7.838zm0 0" transform="matrix(.96775 0 0 .99621 1.478 0)"/><g clip-path="url(#a)"><path style="fill:none;stroke-width:4.8;stroke-linecap:round;stroke-linejoin:miter;stroke:#87cefa;stroke-opacity:1;stroke-miterlimit:4" d="M2.775 140.694s2.854 6.285 9.998 6c7.14-.283 8.572-3.714 10.285-6.286 1.714-2.569 13.465-34.831 16.285-38.858 2-2.855 3.717-6.286 9.716-6.286" transform="matrix(.99621 0 0 -.99621 1.478 186.58)"/></g><path style="fill:none;stroke-width:4.8;stroke-linecap:round;stroke-linejoin:miter;stroke:#87cefa;stroke-opacity:1;stroke-miterlimit:4" d="M85.627 146.69c-7.14-.283-8.567-3.714-10.285-6.286-1.713-2.572-13.465-34.831-16.284-38.858-2-2.855-3.713-6.286-9.713-6.286m36.427 51.433c7.14-.282 8.572-3.713 10.285-6.285 1.718-2.569 13.465-34.831 16.289-38.858 2-2.855 3.713-6.286 9.712-6.286m36.647 51.426c-7.145-.283-8.576-3.71-10.29-6.286-1.713-2.565-13.464-34.827-16.288-38.854-2-2.859-3.713-6.286-9.712-6.286" transform="matrix(.99621 0 0 -.99621 1.478 186.58)"/><path style="fill:none;stroke-width:4.8;stroke-linecap:round;stroke-linejoin:miter;stroke:#87cefa;stroke-opacity:1;stroke-miterlimit:4" d="M204.774 101.267s-2.859-6.281-10-5.999c-7.143.29-8.57 3.717-10.284 6.29-1.718 2.572-13.47 34.827-16.288 38.854-2 2.858-3.714 6.285-9.713 6.285" transform="matrix(.99621 0 0 -.99621 1.478 186.58)"/><g clip-path="url(#b)"><path style="fill:none;stroke-width:4.8;stroke-linecap:round;stroke-linejoin:miter;stroke:#87cefa;stroke-opacity:1;stroke-miterlimit:4" d="M2.916 72.984s2.858-6.285 9.998-5.999c7.145.283 8.576 3.713 10.29 6.286 1.709 2.568 13.464 34.827 16.284 38.858 2 2.854 3.717 6.281 9.716 6.281" transform="matrix(.99621 0 0 -.99621 1.478 186.58)"/></g><path style="fill:none;stroke-width:4.8;stroke-linecap:round;stroke-linejoin:miter;stroke:#87cefa;stroke-opacity:1;stroke-miterlimit:4" d="M85.772 66.99c-7.144.281-8.567 3.712-10.285 6.285-1.713 2.568-13.469 34.83-16.284 38.858-2 2.854-3.713 6.29-9.717 6.29m36.427-51.438c7.145.283 8.576 3.713 10.29 6.286 1.713 2.568 13.464 34.827 16.284 38.858 2 2.854 3.717 6.281 9.716 6.281m36.643-51.425c-7.144.283-8.572 3.713-10.285 6.286-1.718 2.572-13.47 34.83-16.288 38.858-2 2.854-3.714 6.285-9.713 6.285" transform="matrix(.99621 0 0 -.99621 1.478 186.58)"/><path style="fill:none;stroke-width:4.8;stroke-linecap:round;stroke-linejoin:miter;stroke:#87cefa;stroke-opacity:1;stroke-miterlimit:4" d="M204.915 112.403s-2.855 6.29-10.003 6.003c-7.14-.286-8.568-3.717-10.281-6.285-1.718-2.572-13.465-34.823-16.288-38.854-2-2.863-3.714-6.286-9.713-6.286" transform="matrix(.99621 0 0 -.99621 1.478 186.58)"/><g clip-path="url(#c)"><path style="fill:none;stroke-width:4.8;stroke-linecap:round;stroke-linejoin:miter;stroke:#87cefa;stroke-opacity:1;stroke-miterlimit:4" d="M2.63 84.693s2.858 6.285 9.998 6c7.144-.287 8.576-3.714 10.285-6.286 1.718-2.569 13.47-34.831 16.288-38.858 2-2.859 3.714-6.286 9.713-6.286" transform="matrix(.99621 0 0 -.99621 1.478 186.58)"/></g><path style="fill:none;stroke-width:4.8;stroke-linecap:round;stroke-linejoin:miter;stroke:#87cefa;stroke-opacity:1;stroke-miterlimit:4" d="M85.486 90.688c-7.14-.286-8.571-3.717-10.281-6.285-1.717-2.573-13.473-34.831-16.292-38.858-2-2.859-3.71-6.29-9.709-6.29m36.423 51.437c7.144-.286 8.576-3.713 10.285-6.285 1.718-2.569 13.47-34.831 16.292-38.858 2-2.859 3.71-6.286 9.709-6.286m36.647 51.429c-7.145-.286-8.572-3.717-10.285-6.285-1.718-2.577-13.47-34.835-16.289-38.862-2-2.855-3.713-6.286-9.712-6.286" transform="matrix(.99621 0 0 -.99621 1.478 186.58)"/><path style="fill:none;stroke-width:4.8;stroke-linecap:round;stroke-linejoin:miter;stroke:#87cefa;stroke-opacity:1;stroke-miterlimit:4" d="M204.629 45.27s-2.855-6.285-10-6c-7.14.283-8.57 3.714-10.284 6.282-1.718 2.577-13.465 34.835-16.285 38.859-2 2.858-3.717 6.285-9.716 6.285" transform="matrix(.99621 0 0 -.99621 1.478 186.58)"/><g clip-path="url(#d)"><path style="fill:none;stroke-width:4.8;stroke-linecap:round;stroke-linejoin:miter;stroke:#87cefa;stroke-opacity:1;stroke-miterlimit:4" d="M2.916 17.27s2.858-6.286 9.998-6c7.145.283 8.576 3.714 10.29 6.286 1.709 2.572 13.464 34.831 16.284 38.854 2 2.858 3.717 6.29 9.716 6.29" transform="matrix(.99621 0 0 -.99621 1.478 186.58)"/></g><g clip-path="url(#e)"><path style="fill:none;stroke-width:4.8;stroke-linecap:round;stroke-linejoin:miter;stroke:#87cefa;stroke-opacity:1;stroke-miterlimit:4" d="M85.772 11.274c-7.144.283-8.567 3.714-10.285 6.286-1.713 2.572-13.469 34.83-16.284 38.862-2 2.85-3.713 6.281-9.717 6.281" transform="matrix(.99621 0 0 -.99621 1.478 186.58)"/></g><g clip-path="url(#f)"><path style="fill:none;stroke-width:4.8;stroke-linecap:round;stroke-linejoin:miter;stroke:#87cefa;stroke-opacity:1;stroke-miterlimit:4" d="M85.913 11.27c7.145.283 8.576 3.714 10.29 6.286 1.713 2.572 13.464 34.831 16.284 38.854 2 2.858 3.717 6.29 9.716 6.29" transform="matrix(.99621 0 0 -.99621 1.478 186.58)"/></g><g clip-path="url(#g)"><path style="fill:none;stroke-width:4.8;stroke-linecap:round;stroke-linejoin:miter;stroke:#87cefa;stroke-opacity:1;stroke-miterlimit:4" d="M158.846 11.27c-7.144.287-8.572 3.714-10.285 6.29-1.718 2.568-13.47 34.827-16.288 38.854-2 2.854-3.714 6.285-9.713 6.285" transform="matrix(.99621 0 0 -.99621 1.478 186.58)"/></g><g clip-path="url(#h)"><path style="fill:none;stroke-width:4.8;stroke-linecap:round;stroke-linejoin:miter;stroke:#87cefa;stroke-opacity:1;stroke-miterlimit:4" d="M204.915 56.692s-2.855 6.29-10.003 6c-7.14-.287-8.568-3.714-10.281-6.286-1.718-2.568-13.465-34.827-16.288-38.854-2-2.862-3.714-6.286-9.713-6.286" transform="matrix(.99621 0 0 -.99621 1.478 186.58)"/></g><path style="fill:none;stroke-width:4.8;stroke-linecap:round;stroke-linejoin:miter;stroke:#87cefa;stroke-opacity:1;stroke-miterlimit:4" d="M204.915 140.831s-2.855 6.286-10.003 6c-7.14-.287-9.38-4.028-12.285-6.286-3.564-2.768-9.748-10.258-13.712-13.14-2.815-2.054-4.286-3.713-10.285-3.713" transform="matrix(.99621 0 0 -.99621 1.478 186.58)"/><g clip-path="url(#i)"><path style="fill:none;stroke-width:4.8;stroke-linecap:round;stroke-linejoin:miter;stroke:#87cefa;stroke-opacity:1;stroke-miterlimit:4" d="M2.488 129.7s2.855-6.286 10-6c7.14.282 9.382 4.03 12.284 6.285 3.568 2.773 9.752 10.262 13.716 13.144 2.815 2.05 4.286 3.713 10.285 3.713" transform="matrix(.99621 0 0 -.99621 1.478 186.58)"/></g><path style="fill:none;stroke-width:4.8;stroke-linecap:round;stroke-linejoin:miter;stroke:#87cefa;stroke-opacity:1;stroke-miterlimit:4" d="M85.843 123.7c-7.14.282-9.383 4.03-12.285 6.285-3.564 2.773-9.752 10.262-13.716 13.144-2.82 2.05-4.282 3.713-10.285 3.713m36.502-23.146c7.144.282 9.383 4.03 12.284 6.285 3.569 2.773 9.756 10.258 13.716 13.148 2.82 2.047 4.286 3.71 10.285 3.71m36.286-23.143c-7.14.282-9.383 4.03-12.285 6.285-3.568 2.773-9.755 10.258-13.716 13.148-2.819 2.047-4.285 3.71-10.285 3.71" transform="matrix(.99621 0 0 -.99621 1.478 186.58)"/><g clip-path="url(#j)"><path style="fill:none;stroke-width:4.8;stroke-linecap:round;stroke-linejoin:miter;stroke:#87cefa;stroke-opacity:1;stroke-miterlimit:4" d="M204.844 16.67s-2.854-6.286-9.999-6c-7.144.287-9.383 4.031-12.284 6.286-3.569 2.772-9.756 10.258-13.716 13.143-2.824 2.051-4.286 3.714-10.285 3.714" transform="matrix(.99621 0 0 -.99621 1.478 186.58)"/></g><g clip-path="url(#k)"><path style="fill:none;stroke-width:4.8;stroke-linecap:round;stroke-linejoin:miter;stroke:#87cefa;stroke-opacity:1;stroke-miterlimit:4" d="M2.414 27.806s2.858 6.281 9.999 5.999c7.148-.286 9.387-4.031 12.288-6.286 3.568-2.776 9.752-10.257 13.712-13.14 2.82-2.058 4.29-3.72 10.29-3.72" transform="matrix(.99621 0 0 -.99621 1.478 186.58)"/></g><g clip-path="url(#l)"><path style="fill:none;stroke-width:4.8;stroke-linecap:round;stroke-linejoin:miter;stroke:#87cefa;stroke-opacity:1;stroke-miterlimit:4" d="M85.772 33.805c-7.144-.286-9.383-4.031-12.284-6.286-3.565-2.776-9.752-10.257-13.716-13.14-2.82-2.058-4.282-3.72-10.285-3.72" transform="matrix(.99621 0 0 -.99621 1.478 186.58)"/></g><g clip-path="url(#m)"><path style="fill:none;stroke-width:4.8;stroke-linecap:round;stroke-linejoin:miter;stroke:#87cefa;stroke-opacity:1;stroke-miterlimit:4" d="M85.988 33.809c7.14-.286 9.383-4.031 12.285-6.286 3.568-2.772 9.752-10.257 13.716-13.14 2.815-2.058 4.285-3.713 10.285-3.713" transform="matrix(.99621 0 0 -.99621 1.478 186.58)"/></g><g clip-path="url(#n)"><path style="fill:none;stroke-width:4.8;stroke-linecap:round;stroke-linejoin:miter;stroke:#87cefa;stroke-opacity:1;stroke-miterlimit:4" d="M158.56 33.809c-7.145-.286-9.384-4.031-12.285-6.286-3.568-2.772-9.756-10.257-13.716-13.14-2.82-2.058-4.286-3.713-10.285-3.713" transform="matrix(.99621 0 0 -.99621 1.478 186.58)"/></g><path style="fill-rule:nonzero;fill:#696969;fill-opacity:1;stroke-width:.32286;stroke-linecap:round;stroke-linejoin:round;stroke:#000;stroke-opacity:1;stroke-miterlimit:4" d="M291.012 52.135c0 4.329-3.609 7.838-8.069 7.838-4.46 0-8.069-3.51-8.069-7.838 0-4.329 3.609-7.842 8.07-7.842 4.46 0 8.068 3.513 8.068 7.842zm75.001 0c0 4.329-3.617 7.838-8.07 7.838-4.46 0-8.076-3.51-8.076-7.838 0-4.329 3.617-7.842 8.077-7.842 4.452 0 8.069 3.513 8.069 7.842zm-37.499 0c0 4.329-3.612 7.838-8.072 7.838-4.457 0-8.073-3.51-8.073-7.838 0-4.329 3.616-7.842 8.073-7.842 4.46 0 8.072 3.513 8.072 7.842zm149.994 0c0 4.329-3.617 7.838-8.073 7.838s-8.073-3.51-8.073-7.838c0-4.329 3.617-7.842 8.073-7.842s8.073 3.513 8.073 7.842zm-37.503 0c0 4.329-3.608 7.838-8.068 7.838-4.457 0-8.073-3.51-8.073-7.838 0-4.329 3.616-7.842 8.073-7.842 4.46 0 8.068 3.513 8.068 7.842zm-37.498 0c0 4.329-3.613 7.838-8.069 7.838-4.46 0-8.069-3.51-8.069-7.838 0-4.329 3.609-7.842 8.07-7.842 4.455 0 8.068 3.513 8.068 7.842zM291.012 164.866c0 4.33-3.609 7.843-8.069 7.843-4.46 0-8.069-3.514-8.069-7.843 0-4.332 3.609-7.838 8.07-7.838 4.46 0 8.068 3.506 8.068 7.838zm75.001 0c0 4.33-3.617 7.843-8.07 7.843-4.46 0-8.076-3.514-8.076-7.843 0-4.332 3.617-7.838 8.077-7.838 4.452 0 8.069 3.506 8.069 7.838zm-37.499 0c0 4.33-3.612 7.843-8.072 7.843-4.457 0-8.073-3.514-8.073-7.843 0-4.332 3.616-7.838 8.073-7.838 4.46 0 8.072 3.506 8.072 7.838zm149.994 0c0 4.33-3.617 7.843-8.073 7.843s-8.073-3.514-8.073-7.843c0-4.332 3.617-7.838 8.073-7.838s8.073 3.506 8.073 7.838zm-37.503 0c0 4.33-3.608 7.843-8.068 7.843-4.457 0-8.073-3.514-8.073-7.843 0-4.332 3.616-7.838 8.073-7.838 4.46 0 8.068 3.506 8.068 7.838zm-37.498 0c0 4.33-3.613 7.843-8.069 7.843-4.46 0-8.069-3.514-8.069-7.843 0-4.332 3.609-7.838 8.07-7.838 4.455 0 8.068 3.506 8.068 7.838zM291.012 108.5c0 4.333-3.609 7.839-8.069 7.839-4.46 0-8.069-3.506-8.069-7.838 0-4.333 3.609-7.843 8.07-7.843 4.46 0 8.068 3.51 8.068 7.843zm75.001 0c0 4.333-3.617 7.839-8.07 7.839-4.46 0-8.076-3.506-8.076-7.838 0-4.333 3.617-7.843 8.077-7.843 4.452 0 8.069 3.51 8.069 7.843zm-37.499 0c0 4.333-3.612 7.839-8.072 7.839-4.457 0-8.073-3.506-8.073-7.838 0-4.333 3.616-7.843 8.073-7.843 4.46 0 8.072 3.51 8.072 7.843zm149.994 0c0 4.333-3.617 7.839-8.073 7.839s-8.073-3.506-8.073-7.838c0-4.333 3.617-7.843 8.073-7.843s8.073 3.51 8.073 7.843zm-37.503 0c0 4.333-3.608 7.839-8.068 7.839-4.457 0-8.073-3.506-8.073-7.838 0-4.333 3.616-7.843 8.073-7.843 4.46 0 8.068 3.51 8.068 7.843zm-37.498 0c0 4.333-3.613 7.839-8.069 7.839-4.46 0-8.069-3.506-8.069-7.838 0-4.333 3.609-7.843 8.07-7.843 4.455 0 8.068 3.51 8.068 7.843zM291.012 80.316c0 4.333-3.609 7.842-8.069 7.842-4.46 0-8.069-3.51-8.069-7.842 0-4.33 3.609-7.838 8.07-7.838 4.46 0 8.068 3.509 8.068 7.838zm75.001 0c0 4.333-3.617 7.842-8.07 7.842-4.46 0-8.076-3.51-8.076-7.842 0-4.33 3.617-7.838 8.077-7.838 4.452 0 8.069 3.509 8.069 7.838zm-37.499 0c0 4.333-3.612 7.842-8.072 7.842-4.457 0-8.073-3.51-8.073-7.842 0-4.33 3.616-7.838 8.073-7.838 4.46 0 8.072 3.509 8.072 7.838zm149.994 0c0 4.333-3.617 7.842-8.073 7.842s-8.073-3.51-8.073-7.842c0-4.33 3.617-7.838 8.073-7.838s8.073 3.509 8.073 7.838zm-37.503 0c0 4.333-3.608 7.842-8.068 7.842-4.457 0-8.073-3.51-8.073-7.842 0-4.33 3.616-7.838 8.073-7.838 4.46 0 8.068 3.509 8.068 7.838zm-37.498 0c0 4.333-3.613 7.842-8.069 7.842-4.46 0-8.069-3.51-8.069-7.842 0-4.33 3.609-7.838 8.07-7.838 4.455 0 8.068 3.509 8.068 7.838zm-112.495 56.369c0 4.33-3.609 7.839-8.069 7.839-4.46 0-8.069-3.51-8.069-7.839 0-4.332 3.609-7.842 8.07-7.842 4.46 0 8.068 3.51 8.068 7.842zm75.001 0c0 4.33-3.617 7.839-8.07 7.839-4.46 0-8.076-3.51-8.076-7.839 0-4.332 3.617-7.842 8.077-7.842 4.452 0 8.069 3.51 8.069 7.842zm-37.499 0c0 4.33-3.612 7.839-8.072 7.839-4.457 0-8.073-3.51-8.073-7.839 0-4.332 3.616-7.842 8.073-7.842 4.46 0 8.072 3.51 8.072 7.842zm149.994 0c0 4.33-3.617 7.839-8.073 7.839s-8.073-3.51-8.073-7.839c0-4.332 3.617-7.842 8.073-7.842s8.073 3.51 8.073 7.842zm-37.503 0c0 4.33-3.608 7.839-8.068 7.839-4.457 0-8.073-3.51-8.073-7.839 0-4.332 3.616-7.842 8.073-7.842 4.46 0 8.068 3.51 8.068 7.842zm-37.498 0c0 4.33-3.613 7.839-8.069 7.839-4.46 0-8.069-3.51-8.069-7.839 0-4.332 3.609-7.842 8.07-7.842 4.455 0 8.068 3.51 8.068 7.842zm0 0" transform="matrix(.96775 0 0 .99621 1.478 0)"/><path style="fill:none;stroke-width:4.787709;stroke-linecap:round;stroke-linejoin:miter;stroke:#87cefa;stroke-opacity:1;stroke-miterlimit:4" d="M292.092 23.955V132.77" transform="matrix(.99621 0 0 -.99621 1.478 186.58)"/><g clip-path="url(#o)"><path style="fill:none;stroke-width:5.487758;stroke-linecap:round;stroke-linejoin:round;stroke:#87cefa;stroke-opacity:1;stroke-miterlimit:4" d="M329.045-71.554c0 10.046-8.297 18.19-18.535 18.19s-18.535-8.144-18.535-18.19c0-10.04 8.297-18.184 18.535-18.184s18.535 8.144 18.535 18.184zm0 0" transform="matrix(.99621 0 0 -.76216 1.478 0)"/></g><g clip-path="url(#p)"><path style="fill:none;stroke-width:5.487758;stroke-linecap:round;stroke-linejoin:round;stroke:#87cefa;stroke-opacity:1;stroke-miterlimit:4" d="M329.123 212.672c0 10.046-8.3 18.19-18.535 18.19-10.238 0-18.535-8.144-18.535-18.19 0-10.04 8.297-18.184 18.535-18.184 10.234 0 18.535 8.144 18.535 18.184zm0 0" transform="matrix(.99621 0 0 .76216 1.478 0)"/></g><path style="fill:none;stroke-width:4.787709;stroke-linecap:round;stroke-linejoin:miter;stroke:#87cefa;stroke-opacity:1;stroke-miterlimit:4" d="M328.923 23.955V132.77" transform="matrix(.99621 0 0 -.99621 1.478 186.58)"/><g clip-path="url(#q)"><path style="fill:none;stroke-width:5.487758;stroke-linecap:round;stroke-linejoin:round;stroke:#87cefa;stroke-opacity:1;stroke-miterlimit:4" d="M365.868-71.554c0 10.046-8.297 18.19-18.531 18.19-10.238 0-18.535-8.144-18.535-18.19 0-10.04 8.297-18.184 18.535-18.184 10.234 0 18.53 8.144 18.53 18.184zm0 0" transform="matrix(.99621 0 0 -.76216 1.478 0)"/></g><g clip-path="url(#r)"><path style="fill:none;stroke-width:5.487758;stroke-linecap:round;stroke-linejoin:round;stroke:#87cefa;stroke-opacity:1;stroke-miterlimit:4" d="M365.95 212.672c0 10.046-8.297 18.19-18.535 18.19-10.234 0-18.535-8.144-18.535-18.19 0-10.04 8.301-18.184 18.535-18.184 10.238 0 18.535 8.144 18.535 18.184zm0 0" transform="matrix(.99621 0 0 .76216 1.478 0)"/></g><path style="fill:none;stroke-width:4.787709;stroke-linecap:round;stroke-linejoin:miter;stroke:#87cefa;stroke-opacity:1;stroke-miterlimit:4" d="M365.778 23.955V132.77" transform="matrix(.99621 0 0 -.99621 1.478 186.58)"/><g clip-path="url(#s)"><path style="fill:none;stroke-width:5.487758;stroke-linecap:round;stroke-linejoin:round;stroke:#87cefa;stroke-opacity:1;stroke-miterlimit:4" d="M402.726-71.554c0 10.046-8.297 18.19-18.535 18.19s-18.535-8.144-18.535-18.19c0-10.04 8.297-18.184 18.535-18.184s18.535 8.144 18.535 18.184zm0 0" transform="matrix(.99621 0 0 -.76216 1.478 0)"/></g><g clip-path="url(#t)"><path style="fill:none;stroke-width:5.487758;stroke-linecap:round;stroke-linejoin:round;stroke:#87cefa;stroke-opacity:1;stroke-miterlimit:4" d="M402.808 212.672c0 10.046-8.3 18.19-18.535 18.19-10.238 0-18.535-8.144-18.535-18.19 0-10.04 8.297-18.184 18.535-18.184 10.234 0 18.535 8.144 18.535 18.184zm0 0" transform="matrix(.99621 0 0 .76216 1.478 0)"/></g><path style="fill:none;stroke-width:4.787709;stroke-linecap:round;stroke-linejoin:miter;stroke:#87cefa;stroke-opacity:1;stroke-miterlimit:4" d="M402.922 23.955V132.77" transform="matrix(.99621 0 0 -.99621 1.478 186.58)"/><g clip-path="url(#u)"><path style="fill:none;stroke-width:5.487758;stroke-linecap:round;stroke-linejoin:round;stroke:#87cefa;stroke-opacity:1;stroke-miterlimit:4" d="M439.867-71.554c0 10.046-8.297 18.19-18.531 18.19-10.238 0-18.535-8.144-18.535-18.19 0-10.04 8.297-18.184 18.535-18.184 10.234 0 18.53 8.144 18.53 18.184zm0 0" transform="matrix(.99621 0 0 -.76216 1.478 0)"/></g><g clip-path="url(#v)"><path style="fill:none;stroke-width:5.487758;stroke-linecap:round;stroke-linejoin:round;stroke:#87cefa;stroke-opacity:1;stroke-miterlimit:4" d="M439.95 212.672c0 10.046-8.298 18.19-18.536 18.19-10.234 0-18.535-8.144-18.535-18.19 0-10.04 8.301-18.184 18.535-18.184 10.238 0 18.535 8.144 18.535 18.184zm0 0" transform="matrix(.99621 0 0 .76216 1.478 0)"/></g><path style="fill:none;stroke-width:4.787709;stroke-linecap:round;stroke-linejoin:miter;stroke:#87cefa;stroke-opacity:1;stroke-miterlimit:4" d="M439.777 23.869v108.818" transform="matrix(.99621 0 0 -.99621 1.478 186.58)"/><g clip-path="url(#w)"><path style="fill:none;stroke-width:5.487758;stroke-linecap:round;stroke-linejoin:round;stroke:#87cefa;stroke-opacity:1;stroke-miterlimit:4" d="M476.729-71.666c0 10.05-8.297 18.19-18.539 18.19-10.238 0-18.535-8.14-18.535-18.19 0-10.04 8.297-18.18 18.535-18.18 10.242 0 18.539 8.14 18.539 18.18zm0 0" transform="matrix(.99621 0 0 -.76216 1.478 0)"/></g><g clip-path="url(#x)"><path style="fill:none;stroke-width:5.487758;stroke-linecap:round;stroke-linejoin:round;stroke:#87cefa;stroke-opacity:1;stroke-miterlimit:4" d="M476.807 212.785c0 10.045-8.3 18.184-18.535 18.184-10.238 0-18.535-8.139-18.535-18.184 0-10.04 8.297-18.185 18.535-18.185 10.234 0 18.535 8.144 18.535 18.185zm0 0" transform="matrix(.99621 0 0 .76216 1.478 0)"/></g><path style="fill:none;stroke-width:4.8;stroke-linecap:round;stroke-linejoin:miter;stroke:#87cefa;stroke-opacity:1;stroke-miterlimit:4" d="M255.207 24.155V155.07" transform="matrix(.99621 0 0 -.99621 1.478 186.58)"/><g clip-path="url(#y)"><path style="fill:none;stroke-width:5.487758;stroke-linecap:round;stroke-linejoin:round;stroke:#87cefa;stroke-opacity:1;stroke-miterlimit:4" d="M292.155-71.287c0 10.04-8.3 18.18-18.535 18.18-10.238 0-18.535-8.14-18.535-18.18 0-10.046 8.297-18.19 18.535-18.19 10.234 0 18.535 8.144 18.535 18.19zm0 0" transform="matrix(.99621 0 0 -.76216 1.478 0)"/></g><g clip-path="url(#z)"><path style="fill:none;stroke-width:5.487758;stroke-linecap:round;stroke-linejoin:round;stroke:#87cefa;stroke-opacity:1;stroke-miterlimit:4" d="M292.234 212.406c0 10.045-8.297 18.189-18.535 18.189-10.234 0-18.535-8.144-18.535-18.19 0-10.04 8.3-18.179 18.535-18.179 10.238 0 18.535 8.14 18.535 18.18zm0 0" transform="matrix(.99621 0 0 .76216 1.478 0)"/></g><g clip-path="url(#A)"><path style="fill:none;stroke-width:4.8;stroke-linecap:round;stroke-linejoin:miter;stroke:#87cefa;stroke-opacity:1;stroke-miterlimit:4" d="M476.615 2.432v130.914" transform="matrix(.99621 0 0 -.99621 1.478 186.58)"/></g><g clip-path="url(#B)"><path style="fill:none;stroke-width:4.8;stroke-linecap:round;stroke-linejoin:miter;stroke:#87cefa;stroke-opacity:1;stroke-miterlimit:4" d="m475.321 19.046 9.999 21.515" transform="matrix(.99621 0 0 -.99621 1.478 186.58)"/></g><path style="fill:none;stroke-width:4.8;stroke-linecap:round;stroke-linejoin:miter;stroke:#87cefa;stroke-opacity:1;stroke-miterlimit:4" d="m246.067 116.273 9.998 21.523m-4.191-16.017h229.91m-229.91-28.283h229.91m-229.91-28.283h229.91M251.874 36.93h229.91" transform="matrix(.99621 0 0 -.99621 1.478 186.58)"/><path style="fill-rule:nonzero;fill:#696969;fill-opacity:1;stroke-width:.32286;stroke-linecap:round;stroke-linejoin:round;stroke:#000;stroke-opacity:1;stroke-miterlimit:4" d="M560.576 52.158c0 4.333-3.616 7.847-8.073 7.847-4.46 0-8.073-3.514-8.073-7.847 0-4.325 3.613-7.838 8.073-7.838 4.457 0 8.073 3.513 8.073 7.838zm74.997 0c0 4.333-3.617 7.847-8.073 7.847s-8.073-3.514-8.073-7.847c0-4.325 3.617-7.838 8.073-7.838s8.073 3.513 8.073 7.838zm-37.503 0c0 4.333-3.608 7.847-8.068 7.847-4.46 0-8.07-3.514-8.07-7.847 0-4.325 3.61-7.838 8.07-7.838 4.46 0 8.068 3.513 8.068 7.838zm149.994 0c0 4.333-3.613 7.847-8.069 7.847-4.456 0-8.073-3.514-8.073-7.847 0-4.325 3.617-7.838 8.073-7.838s8.069 3.513 8.069 7.838zm-37.499 0c0 4.333-3.612 7.847-8.068 7.847-4.46 0-8.07-3.514-8.07-7.847 0-4.325 3.61-7.838 8.07-7.838 4.456 0 8.068 3.513 8.068 7.838zm-37.494 0c0 4.333-3.616 7.847-8.073 7.847-4.46 0-8.073-3.514-8.073-7.847 0-4.325 3.613-7.838 8.073-7.838 4.457 0 8.073 3.513 8.073 7.838zM560.576 164.894c0 4.333-3.616 7.846-8.073 7.846-4.46 0-8.073-3.513-8.073-7.846 0-4.33 3.613-7.838 8.073-7.838 4.457 0 8.073 3.509 8.073 7.838zm74.997 0c0 4.333-3.617 7.846-8.073 7.846s-8.073-3.513-8.073-7.846c0-4.33 3.617-7.838 8.073-7.838s8.073 3.509 8.073 7.838zm-37.503 0c0 4.333-3.608 7.846-8.068 7.846-4.46 0-8.07-3.513-8.07-7.846 0-4.33 3.61-7.838 8.07-7.838 4.46 0 8.068 3.509 8.068 7.838zm149.994 0c0 4.333-3.613 7.846-8.069 7.846-4.456 0-8.073-3.513-8.073-7.846 0-4.33 3.617-7.838 8.073-7.838s8.069 3.509 8.069 7.838zm-37.499 0c0 4.333-3.612 7.846-8.068 7.846-4.46 0-8.07-3.513-8.07-7.846 0-4.33 3.61-7.838 8.07-7.838 4.456 0 8.068 3.509 8.068 7.838zm-37.494 0c0 4.333-3.616 7.846-8.073 7.846-4.46 0-8.073-3.513-8.073-7.846 0-4.33 3.613-7.838 8.073-7.838 4.457 0 8.073 3.509 8.073 7.838zm-112.495-56.362c0 4.329-3.616 7.834-8.073 7.834-4.46 0-8.073-3.505-8.073-7.834 0-4.333 3.613-7.842 8.073-7.842 4.457 0 8.073 3.51 8.073 7.842zm74.997 0c0 4.329-3.617 7.834-8.073 7.834s-8.073-3.505-8.073-7.834c0-4.333 3.617-7.842 8.073-7.842s8.073 3.51 8.073 7.842zm-37.503 0c0 4.329-3.608 7.834-8.068 7.834-4.46 0-8.07-3.505-8.07-7.834 0-4.333 3.61-7.842 8.07-7.842 4.46 0 8.068 3.51 8.068 7.842zm149.994 0c0 4.329-3.613 7.834-8.069 7.834-4.456 0-8.073-3.505-8.073-7.834 0-4.333 3.617-7.842 8.073-7.842s8.069 3.51 8.069 7.842zm-37.499 0c0 4.329-3.612 7.834-8.068 7.834-4.46 0-8.07-3.505-8.07-7.834 0-4.333 3.61-7.842 8.07-7.842 4.456 0 8.068 3.51 8.068 7.842zm-37.494 0c0 4.329-3.616 7.834-8.073 7.834-4.46 0-8.073-3.505-8.073-7.834 0-4.333 3.613-7.842 8.073-7.842 4.457 0 8.073 3.51 8.073 7.842zM560.576 80.347c0 4.329-3.616 7.842-8.073 7.842-4.46 0-8.073-3.513-8.073-7.842 0-4.333 3.613-7.842 8.073-7.842 4.457 0 8.073 3.51 8.073 7.842zm74.997 0c0 4.329-3.617 7.842-8.073 7.842s-8.073-3.513-8.073-7.842c0-4.333 3.617-7.842 8.073-7.842s8.073 3.51 8.073 7.842zm-37.503 0c0 4.329-3.608 7.842-8.068 7.842-4.46 0-8.07-3.513-8.07-7.842 0-4.333 3.61-7.842 8.07-7.842 4.46 0 8.068 3.51 8.068 7.842zm149.994 0c0 4.329-3.613 7.842-8.069 7.842-4.456 0-8.073-3.513-8.073-7.842 0-4.333 3.617-7.842 8.073-7.842s8.069 3.51 8.069 7.842zm-37.499 0c0 4.329-3.612 7.842-8.068 7.842-4.46 0-8.07-3.513-8.07-7.842 0-4.333 3.61-7.842 8.07-7.842 4.456 0 8.068 3.51 8.068 7.842zm-37.494 0c0 4.329-3.616 7.842-8.073 7.842-4.46 0-8.073-3.513-8.073-7.842 0-4.333 3.613-7.842 8.073-7.842 4.457 0 8.073 3.51 8.073 7.842zm-112.495 56.366c0 4.329-3.616 7.842-8.073 7.842-4.46 0-8.073-3.513-8.073-7.842s3.613-7.846 8.073-7.846c4.457 0 8.073 3.517 8.073 7.846zm74.997 0c0 4.329-3.617 7.842-8.073 7.842s-8.073-3.513-8.073-7.842 3.617-7.846 8.073-7.846 8.073 3.517 8.073 7.846zm-37.503 0c0 4.329-3.608 7.842-8.068 7.842-4.46 0-8.07-3.513-8.07-7.842s3.61-7.846 8.07-7.846c4.46 0 8.068 3.517 8.068 7.846zm149.994 0c0 4.329-3.613 7.842-8.069 7.842-4.456 0-8.073-3.513-8.073-7.842s3.617-7.846 8.073-7.846 8.069 3.517 8.069 7.846zm-37.499 0c0 4.329-3.612 7.842-8.068 7.842-4.46 0-8.07-3.513-8.07-7.842s3.61-7.846 8.07-7.846c4.456 0 8.068 3.517 8.068 7.846zm-37.494 0c0 4.329-3.616 7.842-8.073 7.842-4.46 0-8.073-3.513-8.073-7.842s3.613-7.846 8.073-7.846c4.457 0 8.073 3.517 8.073 7.846zm0 0" transform="matrix(.96775 0 0 .99621 1.478 0)"/><path style="fill:none;stroke-width:4.8;stroke-linecap:round;stroke-linejoin:miter;stroke:#87cefa;stroke-opacity:1;stroke-miterlimit:4" d="M524.625 137.428s4.878 9.689 12.018 9.246c7.144-.436 10.595-6.125 12.309-10.085 1.717-3.96 9.426-53.276 12.245-59.483 2.004-4.404 5.737-9.686 11.736-9.686" transform="matrix(.99621 0 0 -.99621 1.478 186.58)"/><path style="fill:none;stroke-width:5.958779;stroke-linecap:round;stroke-linejoin:miter;stroke:#87cefa;stroke-opacity:1;stroke-miterlimit:4" d="M939.311 40.619c-11.01.439-16.327 5.32-18.962 9.285-2.647 3.96-14.533 54.483-18.878 60.69-3.082 4.4-8.834 9.282-18.08 9.282m56.138-79.261c11.01.435 16.321 6.528 18.968 10.489 2.641 3.968 13.899 52.872 18.244 59.079 3.081 4.403 9.463 9.685 18.708 9.685" transform="matrix(.64643 0 0 .99621 1.478 0)"/><path style="fill:none;stroke-width:4.8;stroke-linecap:round;stroke-linejoin:miter;stroke:#87cefa;stroke-opacity:1;stroke-miterlimit:4" d="M682.575 146.67c-7.14-.436-10.591-5.317-12.305-9.282-1.713-3.964-9.426-54.08-12.245-60.282-2-4.408-5.737-9.686-11.736-9.686" transform="matrix(.99621 0 0 -.99621 1.478 186.58)"/><path style="fill:none;stroke-width:4.8;stroke-linecap:round;stroke-linejoin:miter;stroke:#87cefa;stroke-opacity:1;stroke-miterlimit:4" d="M730.667 76.674s-4.878-9.685-12.022-9.25c-7.14.443-10.591 5.73-12.305 9.69-1.713 3.964-9.426 53.683-12.245 59.882-2 4.408-5.737 9.685-11.736 9.685M524.625 109.33s4.878 9.688 12.018 9.249c7.144-.44 10.595-6.133 12.309-10.093 1.717-3.964 9.426-53.272 12.245-59.479 2.004-4.403 5.737-9.685 11.736-9.685" transform="matrix(.99621 0 0 -.99621 1.478 186.58)"/><path style="fill:none;stroke-width:5.958779;stroke-linecap:round;stroke-linejoin:miter;stroke:#87cefa;stroke-opacity:1;stroke-miterlimit:4" d="M939.311 68.717c-11.01.44-16.327 5.317-18.962 9.281-2.647 3.969-14.533 54.488-18.878 60.691-3.082 4.403-8.834 9.285-18.08 9.285m56.138-79.264c11.01.438 16.321 6.532 18.968 10.488 2.641 3.968 13.899 52.876 18.244 59.083 3.081 4.404 9.463 9.685 18.708 9.685" transform="matrix(.64643 0 0 .99621 1.478 0)"/><path style="fill:none;stroke-width:4.8;stroke-linecap:round;stroke-linejoin:miter;stroke:#87cefa;stroke-opacity:1;stroke-miterlimit:4" d="M682.575 118.571c-7.14-.435-10.591-5.317-12.305-9.273-1.713-3.972-9.426-54.084-12.245-60.295-2-4.403-5.737-9.681-11.736-9.681" transform="matrix(.99621 0 0 -.99621 1.478 186.58)"/><path style="fill:none;stroke-width:4.8;stroke-linecap:round;stroke-linejoin:miter;stroke:#87cefa;stroke-opacity:1;stroke-miterlimit:4" d="M730.667 48.576s-4.878-9.685-12.022-9.25c-7.14.443-10.591 5.729-12.305 9.689-1.713 3.964-9.426 53.68-12.245 59.883-2 4.403-5.737 9.693-11.736 9.693" transform="matrix(.99621 0 0 -.99621 1.478 186.58)"/><g clip-path="url(#C)"><path style="fill:none;stroke-width:4.8;stroke-linecap:round;stroke-linejoin:miter;stroke:#87cefa;stroke-opacity:1;stroke-miterlimit:4" d="M524.754 80.83s4.878 9.686 12.019 9.247c7.144-.44 10.594-6.13 12.304-10.093 1.717-3.96 9.43-53.268 12.246-59.476 2-4.403 5.736-9.689 11.735-9.689" transform="matrix(.99621 0 0 -.99621 1.478 186.58)"/></g><g clip-path="url(#D)"><path style="fill:none;stroke-width:5.958779;stroke-linecap:round;stroke-linejoin:miter;stroke:#87cefa;stroke-opacity:1;stroke-miterlimit:4" d="M939.51 97.22c-11.01.439-16.327 5.317-18.974 9.285-2.64 3.96-14.52 54.483-18.871 60.687-3.082 4.407-8.835 9.285-18.08 9.285" transform="matrix(.64643 0 0 .99621 1.478 0)"/></g><g clip-path="url(#E)"><path style="fill:none;stroke-width:5.958779;stroke-linecap:round;stroke-linejoin:miter;stroke:#87cefa;stroke-opacity:1;stroke-miterlimit:4" d="M939.722 97.212c11.01.439 16.328 6.528 18.969 10.497 2.64 3.96 13.904 52.864 18.249 59.07 3.082 4.404 9.457 9.69 18.702 9.69" transform="matrix(.64643 0 0 .99621 1.478 0)"/></g><g clip-path="url(#F)"><path style="fill:none;stroke-width:4.8;stroke-linecap:round;stroke-linejoin:miter;stroke:#87cefa;stroke-opacity:1;stroke-miterlimit:4" d="M682.704 90.073c-7.144-.44-10.595-5.321-12.304-9.286-1.718-3.96-9.43-54.071-12.25-60.282-2-4.404-5.733-9.69-11.732-9.69" transform="matrix(.99621 0 0 -.99621 1.478 186.58)"/></g><g clip-path="url(#G)"><path style="fill:none;stroke-width:4.8;stroke-linecap:round;stroke-linejoin:miter;stroke:#87cefa;stroke-opacity:1;stroke-miterlimit:4" d="M730.792 20.073s-4.874-9.689-12.018-9.246c-7.14.443-10.59 5.721-12.304 9.69-1.718 3.96-9.427 53.675-12.246 59.882-2 4.4-5.736 9.69-11.736 9.69" transform="matrix(.99621 0 0 -.99621 1.478 186.58)"/></g><path style="fill:none;stroke-width:4.8;stroke-linecap:round;stroke-linejoin:miter;stroke:#87cefa;stroke-opacity:1;stroke-miterlimit:4" d="M524.903 76.239s4.878-9.689 12.019-9.25c7.144.443 10.594 6.133 12.304 10.093 1.714 3.964 9.43 53.272 12.246 59.48 2 4.402 5.736 9.692 11.735 9.692" transform="matrix(.99621 0 0 -.99621 1.478 186.58)"/><path style="fill:none;stroke-width:5.958779;stroke-linecap:round;stroke-linejoin:miter;stroke:#87cefa;stroke-opacity:1;stroke-miterlimit:4" d="M939.734-120.283c-11.01.435-16.321 5.313-18.968 9.277-2.64 3.964-14.521 54.483-18.872 60.69-3.076 4.408-8.834 9.286-18.08 9.286m56.138-79.265c11.01.439 16.328 6.528 18.962 10.493 2.647 3.964 13.91 52.868 18.256 59.075 3.081 4.403 9.457 9.693 18.702 9.693" transform="matrix(.64643 0 0 -.99621 1.478 0)"/><path style="fill:none;stroke-width:4.8;stroke-linecap:round;stroke-linejoin:miter;stroke:#87cefa;stroke-opacity:1;stroke-miterlimit:4" d="M682.853 66.997c-7.144.44-10.595 5.32-12.304 9.281-1.718 3.964-9.43 54.08-12.25 60.287-2 4.403-5.733 9.689-11.732 9.689" transform="matrix(.99621 0 0 -.99621 1.478 186.58)"/><path style="fill:none;stroke-width:4.8;stroke-linecap:round;stroke-linejoin:miter;stroke:#87cefa;stroke-opacity:1;stroke-miterlimit:4" d="M730.941 136.996s-4.874 9.685-12.018 9.246c-7.14-.443-10.59-5.725-12.304-9.689-1.718-3.96-9.427-53.676-12.25-59.883-2-4.4-5.732-9.685-11.732-9.685M524.5 48.36s4.874-9.689 12.022-9.246c7.136.435 10.587 6.125 12.3 10.089 1.718 3.96 9.426 53.272 12.25 59.48 2 4.406 5.732 9.684 11.732 9.684" transform="matrix(.99621 0 0 -.99621 1.478 186.58)"/><path style="fill:none;stroke-width:5.958779;stroke-linecap:round;stroke-linejoin:miter;stroke:#87cefa;stroke-opacity:1;stroke-miterlimit:4" d="M939.112-148.166c-11.004.435-16.322 5.313-18.962 9.28-2.647 3.961-14.527 54.484-18.872 60.692-3.082 4.403-8.84 9.285-18.086 9.285m56.143-79.265c11.004.435 16.316 6.528 18.963 10.489 2.64 3.968 13.904 52.872 18.243 59.079 3.082 4.407 9.463 9.685 18.715 9.685" transform="matrix(.64643 0 0 -.99621 1.478 0)"/><path style="fill:none;stroke-width:4.8;stroke-linecap:round;stroke-linejoin:miter;stroke:#87cefa;stroke-opacity:1;stroke-miterlimit:4" d="M682.445 39.114c-7.14.44-10.59 5.325-12.304 9.285-1.714 3.964-9.426 54.08-12.246 60.283-2 4.407-5.736 9.69-11.736 9.69" transform="matrix(.99621 0 0 -.99621 1.478 186.58)"/><path style="fill:none;stroke-width:4.8;stroke-linecap:round;stroke-linejoin:miter;stroke:#87cefa;stroke-opacity:1;stroke-miterlimit:4" d="M730.537 109.113s-4.877 9.686-12.018 9.25c-7.144-.443-10.595-5.728-12.308-9.689-1.71-3.96-9.426-53.68-12.242-59.879-2-4.407-5.736-9.689-11.736-9.689" transform="matrix(.99621 0 0 -.99621 1.478 186.58)"/><g clip-path="url(#H)"><path style="fill:none;stroke-width:4.8;stroke-linecap:round;stroke-linejoin:miter;stroke:#87cefa;stroke-opacity:1;stroke-miterlimit:4" d="M524.625 20.477s4.878-9.681 12.018-9.246c7.144.44 10.595 6.129 12.309 10.093 1.717 3.96 9.426 53.268 12.245 59.475 2.004 4.404 5.737 9.69 11.736 9.69" transform="matrix(.99621 0 0 -.99621 1.478 186.58)"/></g><g clip-path="url(#I)"><path style="fill:none;stroke-width:5.958779;stroke-linecap:round;stroke-linejoin:miter;stroke:#87cefa;stroke-opacity:1;stroke-miterlimit:4" d="M939.311-176.05c-11.01.44-16.327 5.322-18.962 9.286-2.647 3.96-14.533 54.483-18.878 60.69-3.082 4.404-8.834 9.282-18.08 9.282" transform="matrix(.64643 0 0 -.99621 1.478 0)"/></g><g clip-path="url(#J)"><path style="fill:none;stroke-width:5.958779;stroke-linecap:round;stroke-linejoin:miter;stroke:#87cefa;stroke-opacity:1;stroke-miterlimit:4" d="M939.529-176.057c11.01.439 16.321 6.532 18.968 10.493 2.641 3.968 13.899 52.868 18.244 59.075 3.081 4.403 9.463 9.689 18.708 9.689" transform="matrix(.64643 0 0 -.99621 1.478 0)"/></g><g clip-path="url(#K)"><path style="fill:none;stroke-width:4.8;stroke-linecap:round;stroke-linejoin:miter;stroke:#87cefa;stroke-opacity:1;stroke-miterlimit:4" d="M682.575 11.235c-7.14.44-10.591 5.317-12.305 9.285-1.713 3.96-9.426 54.076-12.245 60.283-2 4.404-5.737 9.69-11.736 9.69" transform="matrix(.99621 0 0 -.99621 1.478 186.58)"/></g><g clip-path="url(#L)"><path style="fill:none;stroke-width:4.8;stroke-linecap:round;stroke-linejoin:miter;stroke:#87cefa;stroke-opacity:1;stroke-miterlimit:4" d="M730.667 81.234s-4.878 9.686-12.022 9.246c-7.14-.443-10.591-5.724-12.305-9.685-1.713-3.964-9.426-53.68-12.245-59.887-2-4.4-5.737-9.685-11.736-9.685" transform="matrix(.99621 0 0 -.99621 1.478 186.58)"/></g><path style="fill-rule:nonzero;fill:#696969;fill-opacity:1;stroke-width:.32286;stroke-linecap:round;stroke-linejoin:round;stroke:#000;stroke-opacity:1;stroke-miterlimit:4" d="M830.245 52.205c0 4.33-3.616 7.843-8.077 7.843-4.456 0-8.068-3.514-8.068-7.843 0-4.325 3.612-7.838 8.068-7.838 4.46 0 8.077 3.513 8.077 7.838zm74.993 0c0 4.33-3.613 7.843-8.069 7.843-4.46 0-8.073-3.514-8.073-7.843 0-4.325 3.613-7.838 8.073-7.838 4.456 0 8.069 3.513 8.069 7.838zm-37.498 0c0 4.33-3.613 7.843-8.07 7.843-4.46 0-8.072-3.514-8.072-7.843 0-4.325 3.612-7.838 8.073-7.838 4.456 0 8.069 3.513 8.069 7.838zm149.993 0c0 4.33-3.613 7.843-8.069 7.843-4.46 0-8.077-3.514-8.077-7.843 0-4.325 3.617-7.838 8.077-7.838 4.456 0 8.069 3.513 8.069 7.838zm-37.494 0c0 4.33-3.617 7.843-8.077 7.843-4.457 0-8.07-3.514-8.07-7.843 0-4.325 3.613-7.838 8.07-7.838 4.46 0 8.077 3.513 8.077 7.838zm-37.503 0c0 4.33-3.612 7.843-8.073 7.843-4.456 0-8.068-3.514-8.068-7.843 0-4.325 3.612-7.838 8.068-7.838 4.46 0 8.073 3.513 8.073 7.838zM830.245 164.94c0 4.33-3.616 7.84-8.077 7.84-4.456 0-8.068-3.51-8.068-7.84 0-4.332 3.612-7.841 8.068-7.841 4.46 0 8.077 3.509 8.077 7.842zm74.993 0c0 4.33-3.613 7.84-8.069 7.84-4.46 0-8.073-3.51-8.073-7.84 0-4.332 3.613-7.841 8.073-7.841 4.456 0 8.069 3.509 8.069 7.842zm-37.498 0c0 4.33-3.613 7.84-8.07 7.84-4.46 0-8.072-3.51-8.072-7.84 0-4.332 3.612-7.841 8.073-7.841 4.456 0 8.069 3.509 8.069 7.842zm149.993 0c0 4.33-3.613 7.84-8.069 7.84-4.46 0-8.077-3.51-8.077-7.84 0-4.332 3.617-7.841 8.077-7.841 4.456 0 8.069 3.509 8.069 7.842zm-37.494 0c0 4.33-3.617 7.84-8.077 7.84-4.457 0-8.07-3.51-8.07-7.84 0-4.332 3.613-7.841 8.07-7.841 4.46 0 8.077 3.509 8.077 7.842zm-37.503 0c0 4.33-3.612 7.84-8.073 7.84-4.456 0-8.068-3.51-8.068-7.84 0-4.332 3.612-7.841 8.068-7.841 4.46 0 8.073 3.509 8.073 7.842zm-112.491-56.365c0 4.333-3.616 7.834-8.077 7.834-4.456 0-8.068-3.501-8.068-7.834s3.612-7.842 8.068-7.842c4.46 0 8.077 3.51 8.077 7.842zm74.993 0c0 4.333-3.613 7.834-8.069 7.834-4.46 0-8.073-3.501-8.073-7.834s3.613-7.842 8.073-7.842c4.456 0 8.069 3.51 8.069 7.842zm-37.498 0c0 4.333-3.613 7.834-8.07 7.834-4.46 0-8.072-3.501-8.072-7.834s3.612-7.842 8.073-7.842c4.456 0 8.069 3.51 8.069 7.842zm149.993 0c0 4.333-3.613 7.834-8.069 7.834-4.46 0-8.077-3.501-8.077-7.834s3.617-7.842 8.077-7.842c4.456 0 8.069 3.51 8.069 7.842zm-37.494 0c0 4.333-3.617 7.834-8.077 7.834-4.457 0-8.07-3.501-8.07-7.834s3.613-7.842 8.07-7.842c4.46 0 8.077 3.51 8.077 7.842zm-37.503 0c0 4.333-3.612 7.834-8.073 7.834-4.456 0-8.068-3.501-8.068-7.834s3.612-7.842 8.068-7.842c4.46 0 8.073 3.51 8.073 7.842zM830.245 80.39c0 4.333-3.616 7.839-8.077 7.839-4.456 0-8.068-3.506-8.068-7.839s3.612-7.838 8.068-7.838c4.46 0 8.077 3.505 8.077 7.838zm74.993 0c0 4.333-3.613 7.839-8.069 7.839-4.46 0-8.073-3.506-8.073-7.839s3.613-7.838 8.073-7.838c4.456 0 8.069 3.505 8.069 7.838zm-37.498 0c0 4.333-3.613 7.839-8.07 7.839-4.46 0-8.072-3.506-8.072-7.839s3.612-7.838 8.073-7.838c4.456 0 8.069 3.505 8.069 7.838zm149.993 0c0 4.333-3.613 7.839-8.069 7.839-4.46 0-8.077-3.506-8.077-7.839s3.617-7.838 8.077-7.838c4.456 0 8.069 3.505 8.069 7.838zm-37.494 0c0 4.333-3.617 7.839-8.077 7.839-4.457 0-8.07-3.506-8.07-7.839s3.613-7.838 8.07-7.838c4.46 0 8.077 3.505 8.077 7.838zm-37.503 0c0 4.333-3.612 7.839-8.073 7.839-4.456 0-8.068-3.506-8.068-7.839s3.612-7.838 8.068-7.838c4.46 0 8.073 3.505 8.073 7.838zm-112.491 56.37c0 4.325-3.616 7.838-8.077 7.838-4.456 0-8.068-3.513-8.068-7.838 0-4.333 3.612-7.842 8.068-7.842 4.46 0 8.077 3.51 8.077 7.842zm74.993 0c0 4.325-3.613 7.838-8.069 7.838-4.46 0-8.073-3.513-8.073-7.838 0-4.333 3.613-7.842 8.073-7.842 4.456 0 8.069 3.51 8.069 7.842zm-37.498 0c0 4.325-3.613 7.838-8.07 7.838-4.46 0-8.072-3.513-8.072-7.838 0-4.333 3.612-7.842 8.073-7.842 4.456 0 8.069 3.51 8.069 7.842zm149.993 0c0 4.325-3.613 7.838-8.069 7.838-4.46 0-8.077-3.513-8.077-7.838 0-4.333 3.617-7.842 8.077-7.842 4.456 0 8.069 3.51 8.069 7.842zm-37.494 0c0 4.325-3.617 7.838-8.077 7.838-4.457 0-8.07-3.513-8.07-7.838 0-4.333 3.613-7.842 8.07-7.842 4.46 0 8.077 3.51 8.077 7.842zm-37.503 0c0 4.325-3.612 7.838-8.073 7.838-4.456 0-8.068-3.513-8.068-7.838 0-4.333 3.612-7.842 8.068-7.842 4.46 0 8.073 3.51 8.073 7.842zm0 0" transform="matrix(.96775 0 0 .99621 1.478 0)"/><g clip-path="url(#M)"><path style="fill:none;stroke-width:4.8;stroke-linecap:round;stroke-linejoin:miter;stroke:#87cefa;stroke-opacity:1;stroke-miterlimit:4" d="M990.96 140.772s-2.854 6.286-9.998 6c-7.14-.283-9.383-4.031-12.285-6.286-3.568-2.772-9.752-10.257-13.716-13.143-2.819-2.047-4.286-3.714-10.285-3.714" transform="matrix(.99621 0 0 -.99621 1.478 186.58)"/></g><path style="fill:none;stroke-width:4.8;stroke-linecap:round;stroke-linejoin:miter;stroke:#87cefa;stroke-opacity:1;stroke-miterlimit:4" d="M788.534 129.64s2.859-6.285 10-5.999c7.143.282 9.382 4.031 12.288 6.286 3.564 2.772 9.748 10.257 13.712 13.143 2.82 2.05 4.286 3.71 10.285 3.71m37.074-23.139c-7.148.282-9.383 4.031-12.289 6.286-3.564 2.772-9.752 10.257-13.712 13.143-2.823 2.05-4.286 3.71-10.289 3.71m36.502-23.143c7.14.282 9.383 4.027 12.284 6.286 3.569 2.768 9.756 10.257 13.716 13.14 2.82 2.054 4.286 3.713 10.285 3.713m36.286-23.139c-7.14.282-9.383 4.027-12.285 6.286-3.568 2.768-9.755 10.257-13.716 13.14-2.819 2.054-4.285 3.713-10.285 3.713" transform="matrix(.99621 0 0 -.99621 1.478 186.58)"/><g clip-path="url(#N)"><path style="fill:none;stroke-width:4.8;stroke-linecap:round;stroke-linejoin:miter;stroke:#87cefa;stroke-opacity:1;stroke-miterlimit:4" d="M990.96 16.61s-2.854-6.289-9.998-6.002c-7.14.29-9.383 4.03-12.285 6.29-3.568 2.771-9.752 10.257-13.716 13.139-2.819 2.054-4.286 3.717-10.285 3.717" transform="matrix(.99621 0 0 -.99621 1.478 186.58)"/></g><g clip-path="url(#O)"><path style="fill:none;stroke-width:4.8;stroke-linecap:round;stroke-linejoin:miter;stroke:#87cefa;stroke-opacity:1;stroke-miterlimit:4" d="M788.534 27.747s2.859 6.281 10 6c7.143-.291 9.382-4.032 12.288-6.29 3.564-2.769 9.748-10.258 13.712-13.14 2.82-2.055 4.286-3.717 10.285-3.717" transform="matrix(.99621 0 0 -.99621 1.478 186.58)"/></g><g clip-path="url(#P)"><path style="fill:none;stroke-width:4.8;stroke-linecap:round;stroke-linejoin:miter;stroke:#87cefa;stroke-opacity:1;stroke-miterlimit:4" d="M871.893 33.746c-7.148-.29-9.383-4.03-12.289-6.29-3.564-2.768-9.752-10.257-13.712-13.139-2.823-2.055-4.286-3.717-10.289-3.717" transform="matrix(.99621 0 0 -.99621 1.478 186.58)"/></g><g clip-path="url(#Q)"><path style="fill:none;stroke-width:4.8;stroke-linecap:round;stroke-linejoin:miter;stroke:#87cefa;stroke-opacity:1;stroke-miterlimit:4" d="M872.105 33.754c7.14-.29 9.383-4.035 12.284-6.29 3.569-2.772 9.756-10.261 13.716-13.143 2.82-2.05 4.286-3.717 10.285-3.717" transform="matrix(.99621 0 0 -.99621 1.478 186.58)"/></g><g clip-path="url(#R)"><path style="fill:none;stroke-width:4.8;stroke-linecap:round;stroke-linejoin:miter;stroke:#87cefa;stroke-opacity:1;stroke-miterlimit:4" d="M944.676 33.754c-7.14-.29-9.383-4.035-12.285-6.29-3.568-2.772-9.755-10.261-13.716-13.143-2.819-2.05-4.285-3.717-10.285-3.717" transform="matrix(.99621 0 0 -.99621 1.478 186.58)"/></g><path style="fill:none;stroke-width:4.8;stroke-linecap:round;stroke-linejoin:miter;stroke:#87cefa;stroke-opacity:1;stroke-miterlimit:4" d="M786.727 137.64s4.878 9.688 12.018 9.245c7.144-.439 10.595-6.124 12.308-10.089 1.718-3.956 9.426-53.272 12.25-59.475 2-4.407 5.732-9.689 11.732-9.689" transform="matrix(.99621 0 0 -.99621 1.478 186.58)"/><path style="fill:none;stroke-width:5.958779;stroke-linecap:round;stroke-linejoin:miter;stroke:#87cefa;stroke-opacity:1;stroke-miterlimit:4" d="M1343.237 40.407c-11.01.443-16.327 5.32-18.962 9.285-2.647 3.96-14.533 54.484-18.878 60.69-3.082 4.404-8.834 9.278-18.08 9.278m56.138-79.257c11.01.435 16.322 6.532 18.968 10.493 2.641 3.964 13.899 52.872 18.244 59.071 3.082 4.407 9.463 9.69 18.708 9.69" transform="matrix(.64643 0 0 .99621 1.478 0)"/><path style="fill:none;stroke-width:4.8;stroke-linecap:round;stroke-linejoin:miter;stroke:#87cefa;stroke-opacity:1;stroke-miterlimit:4" d="M944.676 146.885c-7.14-.439-10.59-5.32-12.304-9.285-1.718-3.96-9.426-54.08-12.246-60.283-2-4.407-5.736-9.689-11.736-9.689" transform="matrix(.99621 0 0 -.99621 1.478 186.58)"/><g clip-path="url(#S)"><path style="fill:none;stroke-width:4.8;stroke-linecap:round;stroke-linejoin:miter;stroke:#87cefa;stroke-opacity:1;stroke-miterlimit:4" d="M992.768 76.886s-4.877-9.69-12.022-9.246c-7.14.435-10.59 5.725-12.304 9.681-1.714 3.968-9.426 53.684-12.246 59.883-2 4.407-5.736 9.69-11.735 9.69" transform="matrix(.99621 0 0 -.99621 1.478 186.58)"/></g><g clip-path="url(#T)"><path style="fill:none;stroke-width:4.8;stroke-linecap:round;stroke-linejoin:miter;stroke:#87cefa;stroke-opacity:1;stroke-miterlimit:4" d="M990.96 112.258s-2.854 6.29-9.998 6c-7.14-.287-9.383-4.031-12.285-6.286-3.568-2.772-9.752-10.258-13.716-13.14-2.819-2.054-4.286-3.717-10.285-3.717" transform="matrix(.99621 0 0 -.99621 1.478 186.58)"/></g><path style="fill:none;stroke-width:4.8;stroke-linecap:round;stroke-linejoin:miter;stroke:#87cefa;stroke-opacity:1;stroke-miterlimit:4" d="M788.534 101.126s2.859-6.285 10-6c7.143.283 9.382 4.028 12.288 6.282 3.564 2.777 9.748 10.262 13.712 13.148 2.82 2.05 4.286 3.713 10.285 3.713m37.074-23.142c-7.148.282-9.383 4.027-12.289 6.281-3.564 2.777-9.752 10.262-13.712 13.148-2.823 2.05-4.286 3.713-10.289 3.713m36.502-23.15c7.14.286 9.383 4.035 12.284 6.286 3.569 2.776 9.756 10.257 13.716 13.143 2.82 2.055 4.286 3.713 10.285 3.713m36.286-23.142c-7.14.286-9.383 4.035-12.285 6.286-3.568 2.776-9.755 10.257-13.716 13.143-2.819 2.055-4.285 3.713-10.285 3.713" transform="matrix(.99621 0 0 -.99621 1.478 186.58)"/><g clip-path="url(#U)"><path style="fill:none;stroke-width:4.8;stroke-linecap:round;stroke-linejoin:miter;stroke:#87cefa;stroke-opacity:1;stroke-miterlimit:4" d="M786.727 20.312s4.878-9.685 12.018-9.246c7.144.44 10.595 6.13 12.308 10.093 1.718 3.96 9.426 53.268 12.25 59.476 2 4.403 5.732 9.689 11.732 9.689" transform="matrix(.99621 0 0 -.99621 1.478 186.58)"/></g><g clip-path="url(#V)"><path style="fill:none;stroke-width:5.958779;stroke-linecap:round;stroke-linejoin:miter;stroke:#87cefa;stroke-opacity:1;stroke-miterlimit:4" d="M1343.237-176.214c-11.01.44-16.327 5.321-18.962 9.285-2.647 3.96-14.533 54.484-18.878 60.687-3.082 4.407-8.834 9.285-18.08 9.285" transform="matrix(.64643 0 0 -.99621 1.478 0)"/></g><g clip-path="url(#W)"><path style="fill:none;stroke-width:5.958779;stroke-linecap:round;stroke-linejoin:miter;stroke:#87cefa;stroke-opacity:1;stroke-miterlimit:4" d="M1343.455-176.222c11.01.44 16.322 6.533 18.968 10.497 2.641 3.964 13.899 52.864 18.244 59.071 3.082 4.404 9.463 9.69 18.708 9.69" transform="matrix(.64643 0 0 -.99621 1.478 0)"/></g><g clip-path="url(#X)"><path style="fill:none;stroke-width:4.8;stroke-linecap:round;stroke-linejoin:miter;stroke:#87cefa;stroke-opacity:1;stroke-miterlimit:4" d="M944.676 11.07c-7.14.44-10.59 5.321-12.304 9.286-1.718 3.96-9.426 54.075-12.246 60.282-2 4.408-5.736 9.69-11.736 9.69" transform="matrix(.99621 0 0 -.99621 1.478 186.58)"/></g><g clip-path="url(#Y)"><path style="fill:none;stroke-width:4.8;stroke-linecap:round;stroke-linejoin:miter;stroke:#87cefa;stroke-opacity:1;stroke-miterlimit:4" d="M992.768 81.07s-4.877 9.689-12.022 9.246c-7.14-.44-10.59-5.721-12.304-9.69-1.714-3.956-9.426-53.675-12.246-59.882-2-4.4-5.736-9.685-11.735-9.685" transform="matrix(.99621 0 0 -.99621 1.478 186.58)"/></g><g clip-path="url(#Z)"><path style="fill:none;stroke-width:4.8;stroke-linecap:round;stroke-linejoin:miter;stroke:#87cefa;stroke-opacity:1;stroke-miterlimit:4" d="M990.96 45.129s-2.854-6.29-9.998-6c-7.14.28-9.383 4.028-12.285 6.278-3.568 2.777-9.752 10.266-13.716 13.148-2.819 2.05-4.286 3.713-10.285 3.713" transform="matrix(.99621 0 0 -.99621 1.478 186.58)"/></g><path style="fill:none;stroke-width:4.8;stroke-linecap:round;stroke-linejoin:miter;stroke:#87cefa;stroke-opacity:1;stroke-miterlimit:4" d="M788.534 56.257s2.859 6.29 10 6c7.143-.287 9.382-4.032 12.288-6.286 3.564-2.772 9.748-10.258 13.712-13.14 2.82-2.054 4.286-3.717 10.285-3.717m37.074 23.142c-7.148-.286-9.383-4.03-12.289-6.285-3.564-2.772-9.752-10.258-13.712-13.14-2.823-2.054-4.286-3.717-10.289-3.717m36.502 23.146c7.14-.282 9.383-4.027 12.284-6.285 3.569-2.769 9.756-10.258 13.716-13.136 2.82-2.058 4.286-3.717 10.285-3.717m36.286 23.138c-7.14-.282-9.383-4.027-12.285-6.285-3.568-2.769-9.755-10.258-13.716-13.136-2.819-2.058-4.285-3.717-10.285-3.717" transform="matrix(.99621 0 0 -.99621 1.478 186.58)"/><g style="fill:#000;fill-opacity:1"><use xlink:href="#aa" x="404.712" y="16.486"/><use xlink:href="#ab" x="413.46" y="16.486"/><use xlink:href="#ac" x="422.631" y="16.486"/><use xlink:href="#ad" x="436.288" y="16.486"/><use xlink:href="#ae" x="458.023" y="16.486"/></g><g style="fill:#000;fill-opacity:1"><use xlink:href="#af" x="155.052" y="17.848"/><use xlink:href="#ag" x="167.303" y="17.848"/><use xlink:href="#ac" x="181.429" y="17.848"/><use xlink:href="#ah" x="195.086" y="17.848"/><use xlink:href="#ai" x="201.267" y="17.848"/><use xlink:href="#ae" x="215.393" y="17.848"/></g><path style="fill:none;stroke-width:4.8;stroke-linecap:round;stroke-linejoin:miter;stroke:#87cefa;stroke-opacity:1;stroke-miterlimit:4" d="M92.854 177.172h45.716" transform="matrix(.99621 0 0 -.99621 1.478 186.58)"/><path style="fill-rule:nonzero;fill:#696969;fill-opacity:1;stroke-width:2.90989;stroke-linecap:round;stroke-linejoin:round;stroke:#696969;stroke-opacity:1;stroke-miterlimit:4" d="M410.933 10.116c0 3.64-3.1 6.584-6.93 6.584-3.822 0-6.926-2.945-6.926-6.584 0-3.63 3.104-6.58 6.926-6.58 3.83 0 6.93 2.95 6.93 6.58zm0 0" transform="matrix(.9464 0 0 .99621 1.478 0)"/></svg>