<svg id="visual" viewBox="0 0 960 540" width="960" height="540" xmlns="http://www.w3.org/2000/svg" xmlns:xlink="http://www.w3.org/1999/xlink" version="1.1"><path d="M0 200L120 196L240 182L360 189L480 176L600 181L720 179L840 201L960 183L960 0L840 0L720 0L600 0L480 0L360 0L240 0L120 0L0 0Z" fill="#c2dedc"></path><path d="M0 135L120 157L240 140L360 150L480 160L600 164L720 137L840 140L960 158L960 0L840 0L720 0L600 0L480 0L360 0L240 0L120 0L0 0Z" fill="#8cb6b8"></path><path d="M0 112L120 108L240 103L360 106L480 105L600 122L720 113L840 117L960 109L960 0L840 0L720 0L600 0L480 0L360 0L240 0L120 0L0 0Z" fill="#569098"></path><path d="M0 79L120 79L240 72L360 67L480 67L600 79L720 74L840 68L960 72L960 0L840 0L720 0L600 0L480 0L360 0L240 0L120 0L0 0Z" fill="#116a7b"></path></svg>