<svg id="visual" viewBox="0 0 960 540" width="960" height="540" xmlns="http://www.w3.org/2000/svg" xmlns:xlink="http://www.w3.org/1999/xlink" version="1.1"><path d="M0 153L120 145L240 143L360 127L480 145L600 140L720 143L840 132L960 144L960 0L840 0L720 0L600 0L480 0L360 0L240 0L120 0L0 0Z" fill="#c2dedc"></path><path d="M0 97L120 89L240 108L360 116L480 94L600 107L720 120L840 106L960 98L960 0L840 0L720 0L600 0L480 0L360 0L240 0L120 0L0 0Z" fill="#71a3a8"></path><path d="M0 72L120 58L240 56L360 75L480 69L600 54L720 75L840 65L960 54L960 0L840 0L720 0L600 0L480 0L360 0L240 0L120 0L0 0Z" fill="#116a7b"></path></svg>