<svg id="visual" viewBox="0 0 960 540" width="960" height="540" xmlns="http://www.w3.org/2000/svg" xmlns:xlink="http://www.w3.org/1999/xlink" version="1.1"><path d="M0 239L40 227.8C80 216.7 160 194.3 240 194.2C320 194 400 216 480 226.5C560 237 640 236 720 232.7C800 229.3 880 223.7 920 220.8L960 218L960 0L920 0C880 0 800 0 720 0C640 0 560 0 480 0C400 0 320 0 240 0C160 0 80 0 40 0L0 0Z" fill="#c2dedc"></path><path d="M0 143L40 142.2C80 141.3 160 139.7 240 137.3C320 135 400 132 480 139C560 146 640 163 720 172C800 181 880 182 920 182.5L960 183L960 0L920 0C880 0 800 0 720 0C640 0 560 0 480 0C400 0 320 0 240 0C160 0 80 0 40 0L0 0Z" fill="#71a3a8"></path><path d="M0 115L40 113.3C80 111.7 160 108.3 240 104.3C320 100.3 400 95.7 480 97.2C560 98.7 640 106.3 720 111C800 115.7 880 117.3 920 118.2L960 119L960 0L920 0C880 0 800 0 720 0C640 0 560 0 480 0C400 0 320 0 240 0C160 0 80 0 40 0L0 0Z" fill="#116a7b"></path></svg>